<svg width="554" height="311" xmlns="http://www.w3.org/2000/svg" xmlns:xlink="http://www.w3.org/1999/xlink" xml:space="preserve" overflow="hidden"><defs><clipPath id="clip0"><rect x="0" y="0" width="554" height="311"/></clipPath><clipPath id="clip1"><path d="M-334.615 423.029 231.823-80.6368 736.501 484.666 170.062 988.33Z"/></clipPath><linearGradient x1="59.5109" y1="293.134" x2="320.86" y2="439.871" gradientUnits="userSpaceOnUse" spreadMethod="pad" id="fill2"><stop offset="0" stop-color="#FF0000"/><stop offset="1" stop-color="#0565FF"/></linearGradient><linearGradient x1="60.0586" y1="292.153" x2="321.408" y2="438.894" gradientUnits="userSpaceOnUse" spreadMethod="pad" id="fill3"><stop offset="0" stop-color="#FF0000"/><stop offset="1" stop-color="#0565FF"/></linearGradient><linearGradient x1="60.2763" y1="291.764" x2="321.631" y2="438.507" gradientUnits="userSpaceOnUse" spreadMethod="pad" id="fill4"><stop offset="0" stop-color="#FF0000"/><stop offset="1" stop-color="#0565FF"/></linearGradient><linearGradient x1="60.1982" y1="291.906" x2="321.55" y2="438.652" gradientUnits="userSpaceOnUse" spreadMethod="pad" id="fill5"><stop offset="0" stop-color="#FF0000"/><stop offset="1" stop-color="#0565FF"/></linearGradient><linearGradient x1="59.8018" y1="292.613" x2="321.156" y2="439.353" gradientUnits="userSpaceOnUse" spreadMethod="pad" id="fill6"><stop offset="0" stop-color="#FF0000"/><stop offset="1" stop-color="#0565FF"/></linearGradient><linearGradient x1="59.0261" y1="293.991" x2="320.378" y2="440.739" gradientUnits="userSpaceOnUse" spreadMethod="pad" id="fill7"><stop offset="0" stop-color="#FF0000"/><stop offset="1" stop-color="#0565FF"/></linearGradient><linearGradient x1="57.8933" y1="296.005" x2="319.253" y2="442.746" gradientUnits="userSpaceOnUse" spreadMethod="pad" id="fill8"><stop offset="0" stop-color="#FF0000"/><stop offset="1" stop-color="#0565FF"/></linearGradient><linearGradient x1="56.4085" y1="298.657" x2="317.761" y2="445.404" gradientUnits="userSpaceOnUse" spreadMethod="pad" id="fill9"><stop offset="0" stop-color="#FF0000"/><stop offset="1" stop-color="#0565FF"/></linearGradient><linearGradient x1="54.5567" y1="301.953" x2="315.911" y2="448.694" gradientUnits="userSpaceOnUse" spreadMethod="pad" id="fill10"><stop offset="0" stop-color="#FF0000"/><stop offset="1" stop-color="#0565FF"/></linearGradient><linearGradient x1="52.3862" y1="305.815" x2="313.741" y2="452.557" gradientUnits="userSpaceOnUse" spreadMethod="pad" id="fill11"><stop offset="0" stop-color="#FF0000"/><stop offset="1" stop-color="#0565FF"/></linearGradient><linearGradient x1="49.9058" y1="310.239" x2="311.239" y2="456.97" gradientUnits="userSpaceOnUse" spreadMethod="pad" id="fill12"><stop offset="0" stop-color="#FF0000"/><stop offset="1" stop-color="#0565FF"/></linearGradient><linearGradient x1="47.0899" y1="315.253" x2="308.429" y2="461.987" gradientUnits="userSpaceOnUse" spreadMethod="pad" id="fill13"><stop offset="0" stop-color="#FF0000"/><stop offset="1" stop-color="#0565FF"/></linearGradient><linearGradient x1="43.9509" y1="320.841" x2="305.29" y2="467.575" gradientUnits="userSpaceOnUse" spreadMethod="pad" id="fill14"><stop offset="0" stop-color="#FF0000"/><stop offset="1" stop-color="#0565FF"/></linearGradient><linearGradient x1="40.4988" y1="326.985" x2="301.843" y2="473.722" gradientUnits="userSpaceOnUse" spreadMethod="pad" id="fill15"><stop offset="0" stop-color="#FF0000"/><stop offset="1" stop-color="#0565FF"/></linearGradient><linearGradient x1="91.5142" y1="216.906" x2="217.585" y2="394.186" gradientUnits="userSpaceOnUse" spreadMethod="pad" id="fill16"><stop offset="0" stop-color="#FF0000"/><stop offset="1" stop-color="#0565FF"/></linearGradient><linearGradient x1="88.6167" y1="218.97" x2="214.682" y2="396.245" gradientUnits="userSpaceOnUse" spreadMethod="pad" id="fill17"><stop offset="0" stop-color="#FF0000"/><stop offset="1" stop-color="#0565FF"/></linearGradient><linearGradient x1="84.5308" y1="221.871" x2="210.602" y2="399.148" gradientUnits="userSpaceOnUse" spreadMethod="pad" id="fill18"><stop offset="0" stop-color="#FF0000"/><stop offset="1" stop-color="#0565FF"/></linearGradient><linearGradient x1="79.6951" y1="225.31" x2="205.766" y2="402.59" gradientUnits="userSpaceOnUse" spreadMethod="pad" id="fill19"><stop offset="0" stop-color="#FF0000"/><stop offset="1" stop-color="#0565FF"/></linearGradient><linearGradient x1="74.0837" y1="229.3" x2="200.154" y2="406.577" gradientUnits="userSpaceOnUse" spreadMethod="pad" id="fill20"><stop offset="0" stop-color="#FF0000"/><stop offset="1" stop-color="#0565FF"/></linearGradient><linearGradient x1="67.6663" y1="233.865" x2="193.737" y2="411.142" gradientUnits="userSpaceOnUse" spreadMethod="pad" id="fill21"><stop offset="0" stop-color="#FF0000"/><stop offset="1" stop-color="#0565FF"/></linearGradient><linearGradient x1="60.5317" y1="238.938" x2="186.602" y2="416.218" gradientUnits="userSpaceOnUse" spreadMethod="pad" id="fill22"><stop offset="0" stop-color="#FF0000"/><stop offset="1" stop-color="#0565FF"/></linearGradient><linearGradient x1="52.6288" y1="244.56" x2="178.694" y2="421.837" gradientUnits="userSpaceOnUse" spreadMethod="pad" id="fill23"><stop offset="0" stop-color="#FF0000"/><stop offset="1" stop-color="#0565FF"/></linearGradient><linearGradient x1="44.0563" y1="250.654" x2="170.124" y2="427.936" gradientUnits="userSpaceOnUse" spreadMethod="pad" id="fill24"><stop offset="0" stop-color="#FF0000"/><stop offset="1" stop-color="#0565FF"/></linearGradient><linearGradient x1="34.8016" y1="257.235" x2="160.872" y2="434.512" gradientUnits="userSpaceOnUse" spreadMethod="pad" id="fill25"><stop offset="0" stop-color="#FF0000"/><stop offset="1" stop-color="#0565FF"/></linearGradient><linearGradient x1="24.9102" y1="264.272" x2="150.981" y2="441.551" gradientUnits="userSpaceOnUse" spreadMethod="pad" id="fill26"><stop offset="0" stop-color="#FF0000"/><stop offset="1" stop-color="#0565FF"/></linearGradient><linearGradient x1="14.4251" y1="271.728" x2="140.49" y2="449.005" gradientUnits="userSpaceOnUse" spreadMethod="pad" id="fill27"><stop offset="0" stop-color="#FF0000"/><stop offset="1" stop-color="#0565FF"/></linearGradient><linearGradient x1="3.38412" y1="279.575" x2="129.454" y2="456.852" gradientUnits="userSpaceOnUse" spreadMethod="pad" id="fill28"><stop offset="0" stop-color="#FF0000"/><stop offset="1" stop-color="#0565FF"/></linearGradient><linearGradient x1="-8.17211" y1="287.795" x2="117.898" y2="465.073" gradientUnits="userSpaceOnUse" spreadMethod="pad" id="fill29"><stop offset="0" stop-color="#FF0000"/><stop offset="1" stop-color="#0565FF"/></linearGradient><linearGradient x1="-17.8235" y1="294.657" x2="108.247" y2="471.936" gradientUnits="userSpaceOnUse" spreadMethod="pad" id="fill30"><stop offset="0" stop-color="#FF0000"/><stop offset="1" stop-color="#0565FF"/></linearGradient><linearGradient x1="216.336" y1="214.643" x2="651.324" y2="444.661" gradientUnits="userSpaceOnUse" spreadMethod="pad" id="fill31"><stop offset="0" stop-color="#FF0000"/><stop offset="1" stop-color="#0565FF"/></linearGradient><linearGradient x1="214.298" y1="218.495" x2="649.285" y2="448.51" gradientUnits="userSpaceOnUse" spreadMethod="pad" id="fill32"><stop offset="0" stop-color="#FF0000"/><stop offset="1" stop-color="#0565FF"/></linearGradient><linearGradient x1="210.579" y1="225.533" x2="645.567" y2="455.546" gradientUnits="userSpaceOnUse" spreadMethod="pad" id="fill33"><stop offset="0" stop-color="#FF0000"/><stop offset="1" stop-color="#0565FF"/></linearGradient><linearGradient x1="205.15" y1="235.793" x2="640.138" y2="465.812" gradientUnits="userSpaceOnUse" spreadMethod="pad" id="fill34"><stop offset="0" stop-color="#FF0000"/><stop offset="1" stop-color="#0565FF"/></linearGradient><linearGradient x1="198.079" y1="249.173" x2="633.065" y2="479.192" gradientUnits="userSpaceOnUse" spreadMethod="pad" id="fill35"><stop offset="0" stop-color="#FF0000"/><stop offset="1" stop-color="#0565FF"/></linearGradient><linearGradient x1="189.407" y1="265.565" x2="624.402" y2="495.582" gradientUnits="userSpaceOnUse" spreadMethod="pad" id="fill36"><stop offset="0" stop-color="#FF0000"/><stop offset="1" stop-color="#0565FF"/></linearGradient><linearGradient x1="179.263" y1="284.748" x2="614.256" y2="514.764" gradientUnits="userSpaceOnUse" spreadMethod="pad" id="fill37"><stop offset="0" stop-color="#FF0000"/><stop offset="1" stop-color="#0565FF"/></linearGradient><linearGradient x1="167.853" y1="306.329" x2="602.846" y2="536.344" gradientUnits="userSpaceOnUse" spreadMethod="pad" id="fill38"><stop offset="0" stop-color="#FF0000"/><stop offset="1" stop-color="#0565FF"/></linearGradient><linearGradient x1="155.204" y1="330.25" x2="590.202" y2="560.27" gradientUnits="userSpaceOnUse" spreadMethod="pad" id="fill39"><stop offset="0" stop-color="#FF0000"/><stop offset="1" stop-color="#0565FF"/></linearGradient><linearGradient x1="141.611" y1="355.953" x2="576.611" y2="585.972" gradientUnits="userSpaceOnUse" spreadMethod="pad" id="fill40"><stop offset="0" stop-color="#FF0000"/><stop offset="1" stop-color="#0565FF"/></linearGradient><linearGradient x1="340.08" y1="152.497" x2="1004.54" y2="556.327" gradientUnits="userSpaceOnUse" spreadMethod="pad" id="fill41"><stop offset="0" stop-color="#FF0000"/><stop offset="1" stop-color="#0565FF"/></linearGradient><linearGradient x1="331.399" y1="166.775" x2="995.867" y2="570.606" gradientUnits="userSpaceOnUse" spreadMethod="pad" id="fill42"><stop offset="0" stop-color="#FF0000"/><stop offset="1" stop-color="#0565FF"/></linearGradient><linearGradient x1="319.598" y1="186.198" x2="984.063" y2="590.026" gradientUnits="userSpaceOnUse" spreadMethod="pad" id="fill43"><stop offset="0" stop-color="#FF0000"/><stop offset="1" stop-color="#0565FF"/></linearGradient><linearGradient x1="305.143" y1="209.984" x2="969.608" y2="613.807" gradientUnits="userSpaceOnUse" spreadMethod="pad" id="fill44"><stop offset="0" stop-color="#FF0000"/><stop offset="1" stop-color="#0565FF"/></linearGradient><linearGradient x1="288.275" y1="237.73" x2="952.745" y2="641.562" gradientUnits="userSpaceOnUse" spreadMethod="pad" id="fill45"><stop offset="0" stop-color="#FF0000"/><stop offset="1" stop-color="#0565FF"/></linearGradient><linearGradient x1="248.243" y1="303.597" x2="912.709" y2="707.421" gradientUnits="userSpaceOnUse" spreadMethod="pad" id="fill46"><stop offset="0" stop-color="#FF0000"/><stop offset="1" stop-color="#0565FF"/></linearGradient><linearGradient x1="225.055" y1="341.758" x2="889.519" y2="745.584" gradientUnits="userSpaceOnUse" spreadMethod="pad" id="fill47"><stop offset="0" stop-color="#FF0000"/><stop offset="1" stop-color="#0565FF"/></linearGradient><linearGradient x1="368.684" y1="105.426" x2="1033.15" y2="509.249" gradientUnits="userSpaceOnUse" spreadMethod="pad" id="fill48"><stop offset="0" stop-color="#FF0000"/><stop offset="1" stop-color="#0565FF"/></linearGradient><linearGradient x1="352.93" y1="131.347" x2="1017.4" y2="535.179" gradientUnits="userSpaceOnUse" spreadMethod="pad" id="fill49"><stop offset="0" stop-color="#FF0000"/><stop offset="1" stop-color="#0565FF"/></linearGradient><linearGradient x1="332.214" y1="165.435" x2="996.682" y2="569.258" gradientUnits="userSpaceOnUse" spreadMethod="pad" id="fill50"><stop offset="0" stop-color="#FF0000"/><stop offset="1" stop-color="#0565FF"/></linearGradient><linearGradient x1="306.469" y1="207.799" x2="970.932" y2="611.62" gradientUnits="userSpaceOnUse" spreadMethod="pad" id="fill51"><stop offset="0" stop-color="#FF0000"/><stop offset="1" stop-color="#0565FF"/></linearGradient></defs><g clip-path="url(#clip0)"><path d="M0 0 552.889 0 552.889 311 0 311Z" fill="#4F81BD" transform="scale(1.00201 1)"/><g clip-path="url(#clip1)"><path d="M81.8735 347.964C121.947 318.274 153.599 294.822 180.593 318.873L176.037 314.887C148.18 293.296 119.556 315.613 79.9329 346.506L80.4281 346.862 80.9118 347.225 81.3956 347.594 81.8735 347.964" fill="url(#fill2)" transform="scale(1.00201 1)"/><path d="M77.1798 344.588C115.306 312.728 142.835 289.691 169.535 309.658L164.64 306.047C137.422 288.418 112.634 310.234 75.1065 343.258L75.6307 343.586 76.149 343.914 76.6615 344.248 77.174 344.588" fill="url(#fill3)" transform="scale(1.00201 1)"/><path d="M72.8317 341.904C109.075 308.207 133.045 285.947 159.255 302.361L155.742 300.115 154.152 299.136C127.775 284.772 106.276 305.828 70.643 340.706L71.219 341 71.7605 341.299 72.3016 341.599 72.8431 341.91" fill="url(#fill4)" transform="scale(1.00201 1)"/><path d="M67.5907 339.146C101.334 303.628 121.728 282.187 147.12 295.07L141.874 292.305C116.683 281.052 98.4315 301.307 65.2986 338.068L65.8743 338.328 66.4503 338.593 67.0264 338.858 67.6021 339.128" fill="url(#fill5)" transform="scale(1.00201 1)"/><path d="M62.0791 336.738C93.0754 299.637 110.152 279.203 134.496 288.792L129.013 286.437C105.262 278.12 89.0728 298.618 59.6833 335.834L60.259 336.053 60.8351 336.277 61.4111 336.508 61.9868 336.738" fill="url(#fill6)" transform="scale(1.00201 1)"/><path d="M56.3314 334.699C83.0774 298.007 99.2204 275.863 121.359 283.5L115.871 281.628C93.7319 275.811 80.3994 295.243 53.8376 333.956L54.4654 334.135 55.0874 334.319 55.7094 334.504 56.3314 334.699" fill="url(#fill7)" transform="scale(1.00201 1)"/><path d="M50.3533 333.041C74.951 293.924 87.2932 274.296 108.193 279.33L102.52 277.867C82.0926 274.083 71.3341 292.375 47.7617 332.465L48.4123 332.603 49.0575 332.741 49.7023 332.891 50.3416 333.041" fill="url(#fill8)" transform="scale(1.00201 1)"/><path d="M44.1793 331.785C64.613 293.452 75.8553 272.338 94.6418 276.133L88.8365 275.085C70.2687 273.162 61.267 291.418 41.5244 331.376L42.1923 331.468 42.8548 331.572 43.5168 331.676 44.1793 331.785" fill="url(#fill9)" transform="scale(1.00201 1)"/><path d="M37.8269 330.933C55.5422 290.739 63.6341 272.396 80.7795 273.916L74.876 273.306C58.3184 273.052 51.5223 289.927 35.1026 330.703L35.7882 330.754 36.4675 330.806 37.1472 330.869 37.8269 330.933" fill="url(#fill10)" transform="scale(1.00201 1)"/><path d="M31.3188 330.507C45.4233 290.267 51.8392 271.918 66.9687 272.753L61.2093 272.557C46.4831 273.179 41.628 288.775 28.5602 330.455L29.257 330.455 29.9482 330.455 30.645 330.455 31.3361 330.455" fill="url(#fill11)" transform="scale(1.00201 1)"/><path d="M24.6842 330.512C35.2467 290.065 39.6238 273.323 53.1924 272.563L47.3525 272.77C34.5037 274.089 31.0654 289.472 21.8622 330.651L22.5705 330.61 23.2732 330.582 23.9816 330.553 24.6842 330.553" fill="url(#fill12)" transform="scale(1.00201 1)"/><path d="M17.9516 330.967C24.8167 290.923 27.656 274.354 39.261 273.34L33.4095 273.962C22.4669 275.834 20.4684 290.935 15.0893 331.296L15.8092 331.204 16.5233 331.123 17.2375 331.042 17.9516 330.967" fill="url(#fill13)" transform="scale(1.00201 1)"/><path d="M11.1442 331.877C14.2945 292.519 15.6018 276.231 25.2947 275.103L19.4029 276.139C10.4646 278.408 9.90594 291.994 8.26455 332.396L8.98444 332.258 9.70434 332.125 10.4243 331.998 11.1442 331.877" fill="url(#fill14)" transform="scale(1.00201 1)"/><path d="M4.29066 333.248C3.71472 293.509 3.53044 280.119 11.3227 277.844L5.45978 279.324C-1.49165 281.829-0.765983 294.972 1.4283 333.991L2.1482 333.807 2.87387 333.622 3.59378 333.45 4.31944 333.277" fill="url(#fill15)" transform="scale(1.00201 1)"/><path d="M169.535 309.658C187.562 324.885 191.207 350.386 194.415 372.889L193.517 372.25 192.613 371.617 191.697 370.995 190.775 370.373C187.568 348.88 183.173 319.437 164.64 306.047L169.535 309.658" fill="url(#fill16)" transform="scale(1.00201 1)"/><path d="M155.742 300.109 159.255 302.355C178.727 316.563 182.983 343.782 186.732 367.799L185.765 367.222 184.797 366.645 183.818 366.071 182.828 365.494C178.98 341.881 174.189 312.509 154.152 299.124L155.742 300.104" fill="url(#fill17)" transform="scale(1.00201 1)"/><path d="M147.12 295.07C167.854 307.913 173.037 338.195 177.264 362.529L176.227 362.011 175.185 361.503 174.137 360.995 173.077 360.501C168.775 336.612 162.878 303.899 141.874 292.305L147.12 295.07" fill="url(#fill18)" transform="scale(1.00201 1)"/><path d="M134.496 288.792C156.111 300.052 162.221 332.131 167.128 357.902L166.022 357.453 164.911 357.018 163.793 356.586 162.642 356.164C157.884 332.177 150.697 295.928 128.996 286.431L134.473 288.787" fill="url(#fill19)" transform="scale(1.00201 1)"/><path d="M121.359 283.5C143.572 292.933 150.662 326.78 156.358 353.977L155.206 353.607 154.026 353.237 152.874 352.888 151.687 352.536C146.504 328.71 137.819 288.838 115.917 281.628L121.405 283.5" fill="url(#fill20)" transform="scale(1.00201 1)"/><path d="M108.193 279.324C130.401 287.139 138.833 323.918 144.995 350.739L143.763 350.445 142.53 350.162 141.286 349.885 140.042 349.616C133.84 323.59 124.492 284.26 102.532 277.833L108.193 279.295" fill="url(#fill21)" transform="scale(1.00201 1)"/><path d="M94.6418 276.133C116.527 282.215 126.093 320.428 133.085 348.337L131.801 348.123 130.516 347.923 129.221 347.733 127.925 347.549C121.267 321.925 110.123 279.013 88.8365 275.085L94.6418 276.133" fill="url(#fill22)" transform="scale(1.00201 1)"/><path d="M80.7795 273.928C102.002 278.201 113.25 319.426 120.691 346.703L119.361 346.575 118.024 346.461 116.683 346.357 115.335 346.257C107.468 318.418 95.6094 276.347 74.876 273.306L80.7795 273.928" fill="url(#fill23)" transform="scale(1.00201 1)"/><path d="M66.9687 272.753C87.034 275.632 99.566 317.905 107.859 345.894L106.489 345.86 105.107 345.86C104.651 345.86 104.191 345.86 103.724 345.86L102.342 345.86C94.5844 320.555 80.1516 273.455 61.192 272.597L66.9514 272.793" fill="url(#fill24)" transform="scale(1.00201 1)"/><path d="M53.1924 272.563C71.7086 274.44 85.5191 317.485 94.6591 345.963L93.2482 346.022 91.8428 346.091 90.426 346.171 89.0092 346.257C79.9501 318.93 64.8203 273.196 47.3584 272.77L53.1983 272.563" fill="url(#fill25)" transform="scale(1.00201 1)"/><path d="M39.2783 273.34C55.98 274.354 71.1326 318.026 81.1478 346.921L79.7083 347.076 78.2683 347.238 76.8284 347.411 75.3829 347.594C65.5519 320.1 49.092 274.077 33.4095 273.962L39.2955 273.34" fill="url(#fill26)" transform="scale(1.00201 1)"/><path d="M25.2947 275.103C40.0039 275.379 56.4925 319.558 67.4065 348.786L65.9493 349.039 64.4921 349.298 63.0293 349.571 61.5666 349.851C50.2611 320.48 33.1733 276.087 19.4029 276.133L25.2947 275.097" fill="url(#fill27)" transform="scale(1.00201 1)"/><path d="M11.3227 277.844C23.7973 277.544 41.674 322.098 53.5093 351.561L52.0348 351.907 50.5662 352.27 49.0976 352.639C48.6024 352.76 48.1127 352.888 47.6234 353.02 36.7211 326.677 16.4254 277.596 5.45978 279.324L11.3227 277.873" fill="url(#fill28)" transform="scale(1.00201 1)"/><path d="M-2.55135 281.57C7.49278 280.873 27.535 327.472 39.5201 355.345L38.0457 355.791 36.5712 356.25 35.1026 356.717 33.6283 357.194C21.1538 329.027 0.270685 281.921-8.35094 283.436L-2.55135 281.57" fill="url(#fill29)" transform="scale(1.00201 1)"/><path d="M18.7118 347.283C13.5631 336.149 8.93261 326.566 4.8205 318.533 0.842768 310.728-2.6339 304.359-5.60951 299.43-8.48916 294.649-10.8792 291.211-12.7971 289.063-14.7149 286.915-16.0568 286.183-17.0128 286.546L-15.9416 286.137C-8.50067 285.245 13.0044 331.952 25.8476 359.855L25.3004 360.059 24.7245 360.266 23.2559 357.087C22.7606 356.019 22.2653 354.944 21.7585 353.859L20.238 350.573 18.7118 347.283" fill="url(#fill30)" transform="scale(1.00201 1)"/><path d="M312.601 392.783C470.242 324.304 575.049 289.691 644.254 315.337L628.196 307.85C557.64 285.492 456.265 321.182 305.005 390.391L306.928 390.968 308.834 391.542C309.468 391.739 310.102 391.939 310.729 392.119L312.601 392.734" fill="url(#fill31)" transform="scale(1.00201 1)"/><path d="M294.166 387.461C380.553 345.072 525.227 274.123 604.629 298.525L586.477 292.495C523.199 279.307 444.568 303.668 285.993 385.599L288.061 386.044 290.111 386.504 292.144 386.977 294.166 387.461" fill="url(#fill32)" transform="scale(1.00201 1)"/><path d="M274.394 383.422C401.933 312.814 489.583 274.141 560.17 285.273L540.103 280.839C477.046 273.686 407.797 299.268 265.686 382.126L274.394 383.422" fill="url(#fill33)" transform="scale(1.00201 1)"/><path d="M253.413 380.75C321.05 338.385 434.253 267.477 511.381 275.932L492.721 273.565 489.697 273.237C429.353 271.613 367.405 298.577 244.193 380.077L246.496 380.225 248.8 380.394 251.104 380.578 253.407 380.775" fill="url(#fill34)" transform="scale(1.00201 1)"/><path d="M231.252 379.534C329.435 309.549 394.839 271.492 459.285 270.743L436.558 269.833C380.692 272.649 326.44 300.311 221.639 379.455L226.471 379.455 228.873 379.455 231.263 379.496" fill="url(#fill35)" transform="scale(1.00201 1)"/><path d="M208.122 379.807C273.824 325.951 343.108 273.093 404.566 269.804L380.923 270.702C330.708 277.118 284.588 304.791 198.124 380.394L200.63 380.222 203.135 380.066 205.623 379.928 208.105 379.807" fill="url(#fill36)" transform="scale(1.00201 1)"/><path d="M184.17 381.659C261.591 307.395 301.44 281.052 348.175 273.179L324.425 275.805C280.412 284.6 243.83 310.626 173.872 382.927L184.17 381.673" fill="url(#fill37)" transform="scale(1.00201 1)"/><path d="M159.537 385.115C212.321 324.148 248.984 289.431 291.534 280.591L267.523 284.911C226.598 296.164 195.533 328.14 149.021 387.064L151.664 386.549C152.54 386.376 153.421 386.217 154.296 386.055L156.923 385.578 159.549 385.115" fill="url(#fill38)" transform="scale(1.00201 1)"/><path d="M134.438 390.208C158.495 355.013 194.853 301.826 234.552 291.96L222.613 294.839 210.893 297.823C178.439 309.52 156.94 337.786 123.767 392.852L126.439 392.164 129.111 391.497 131.778 390.851 134.438 390.219" fill="url(#fill39)" transform="scale(1.00201 1)"/><path d="M109.034 396.933C134.162 345.556 151.86 317.52 178.836 306.842L155.696 314.133C131.933 324.874 118.261 350.462 98.2933 400.257L109.034 396.933" fill="url(#fill40)" transform="scale(1.00201 1)"/><path d="M560.17 285.273C577.209 291.361 586.591 294.713 595.679 310.102 594.293 309.779 592.897 309.456 591.494 309.145 590.088 308.834 588.678 308.523 587.254 308.224 585.831 307.925 584.404 307.648 582.969 307.337 581.535 307.026 580.091 306.761 578.626 306.491 568.553 293.694 562.502 285.97 540.103 280.839L560.17 285.273" fill="url(#fill41)" transform="scale(1.00201 1)"/><path d="M492.721 273.565 511.353 275.938C537.736 282.365 542.965 286.707 553.867 302.493 552.333 302.279 550.778 302.075 549.202 301.883 547.63 301.691 546.057 301.499 544.485 301.307 542.909 301.123 541.32 300.944 539.723 300.772 538.127 300.605 536.52 300.437 534.91 300.282 522.591 284.335 517.981 278.368 489.697 273.214L492.721 273.542" fill="url(#fill42)" transform="scale(1.00201 1)"/><path d="M459.285 270.743C479.918 273.835 495.468 277.619 507.611 298.278 505.911 298.19 504.204 298.112 502.497 298.048 500.786 297.982 499.058 297.921 497.313 297.863 495.585 297.806 493.858 297.758 492.13 297.719 490.402 297.679 488.64 297.644 486.881 297.616 475.813 282.947 467.081 271.365 436.558 269.833L459.295 270.743" fill="url(#fill43)" transform="scale(1.00201 1)"/><path d="M404.566 269.827C430.897 271.601 442.812 276.099 457.256 297.828 455.425 297.886 453.587 297.944 451.745 298.013L446.199 298.238C444.34 298.318 442.477 298.41 440.607 298.508 438.735 298.606 436.862 298.71 434.985 298.825 419.753 278.092 409.805 271.123 380.923 270.725L404.566 269.827" fill="url(#fill44)" transform="scale(1.00201 1)"/><path d="M348.175 273.179C362.719 273.075 387.057 272.902 403.357 301.37 401.408 301.566 399.455 301.77 397.499 301.981L391.635 302.638 385.716 303.346C383.739 303.588 381.752 303.836 379.766 304.095 368.666 288.504 357.194 272.39 324.477 275.805L348.227 273.179" fill="url(#fill45)" transform="scale(1.00201 1)"/><path d="M222.613 294.839 234.552 291.96C259.242 288.787 270.628 295.012 287.508 320.941 285.412 321.432 283.31 321.929 281.202 322.432 279.094 322.935 276.982 323.45 274.866 323.976 272.758 324.494 270.647 325.022 268.531 325.559 266.416 326.097 264.304 326.642 262.196 327.195 247.003 304.204 236.988 293.791 210.881 297.823L222.601 294.839" fill="url(#fill46)" transform="scale(1.00201 1)"/><path d="M178.836 306.842C189.48 305.028 207.281 301.992 227.162 336.98 225.037 337.614 222.901 338.258 220.77 338.909 218.639 339.56 216.508 340.211 214.371 340.879 212.234 341.547 210.109 342.215 207.973 342.889 205.836 343.563 203.705 344.254 201.58 344.979 191.616 329.245 177.967 307.7 155.707 314.162L178.848 306.871" fill="url(#fill47)" transform="scale(1.00201 1)"/><path d="M553.867 302.471C585.758 350.055 670.457 476.469 1275.19 541.682 1273.06 541.579 1270.91 541.479 1268.73 541.392 1266.56 541.306 1264.34 541.233 1262.11 541.168 1259.89 541.105 1257.61 541.047 1255.32 541.002 1253.04 540.957 1250.71 540.926 1248.37 540.898 651.735 475.547 569.866 352.715 534.91 300.265 536.52 300.42 538.127 300.587 539.723 300.754 541.32 300.921 542.909 301.106 544.485 301.29 546.064 301.474 547.636 301.664 549.202 301.866 550.771 302.067 552.319 302.263 553.867 302.476" fill="url(#fill48)" transform="scale(1.00201 1)"/><path d="M507.611 298.278C542.619 351.223 624.602 475.215 1207.15 541.486 1204.5 541.582 1201.82 541.689 1199.11 541.807 1196.41 541.928 1193.67 542.056 1190.91 542.194 1188.15 542.339 1185.36 542.488 1182.55 542.654 1179.74 542.823 1176.89 542.996 1174.02 543.179 603.869 475.657 521.893 350.894 486.888 297.616 488.643 297.616 490.388 297.679 492.133 297.719 493.878 297.759 495.589 297.806 497.317 297.863 499.044 297.921 500.772 297.978 502.5 298.048 504.228 298.117 505.917 298.191 507.614 298.278" fill="url(#fill49)" transform="scale(1.00201 1)"/><path d="M457.256 297.828C492.209 351.523 574.061 477.264 1124.18 547.343 1121.02 547.664 1117.83 547.996 1114.61 548.334 1111.4 548.67 1108.16 549.026 1104.89 549.399 1101.62 549.758 1098.33 550.142 1095.01 550.549 1091.7 550.957 1088.35 551.362 1084.99 551.759 551.531 479.172 469.859 352.785 434.985 298.825 436.862 298.71 438.742 298.606 440.607 298.508 442.474 298.41 444.34 298.318 446.199 298.238L451.745 298.013C453.587 297.944 455.425 297.886 457.256 297.828" fill="url(#fill50)" transform="scale(1.00201 1)"/><path d="M403.357 301.37C438.071 355.656 519.37 482.786 1027.08 559.738 1023.44 560.291 1019.78 560.864 1016.09 561.466 1012.4 562.063 1008.69 562.654 1004.96 563.231 1001.22 563.839 997.456 564.455 993.686 565.08 989.913 565.706 986.112 566.345 982.286 566.998 495.24 486.186 414.297 358.583 379.738 304.089 381.725 303.83 383.712 303.582 385.685 303.34L391.635 302.638 397.527 301.981C399.486 301.77 401.439 301.566 403.384 301.37" fill="url(#fill51)" transform="scale(1.00201 1)"/></g><text fill="#FFFFFF" font-family="Arial,Arial_MSFontService,sans-serif" font-weight="400" font-size="47" transform="matrix(0.34625 0 0 0.345556 48.0273 50)">2</text><text fill="#FFFFFF" font-family="Arial,Arial_MSFontService,sans-serif" font-weight="400" font-size="47" transform="matrix(0.34625 0 0 0.345556 57.0298 50)">.</text><text fill="#FFFFFF" font-family="Arial,Arial_MSFontService,sans-serif" font-weight="400" font-size="47" transform="matrix(0.34625 0 0 0.345556 61.531 50)">2</text><text fill="#FFFFFF" font-family="Arial,Arial_MSFontService,sans-serif" font-weight="400" font-size="47" transform="matrix(0.34625 0 0 0.345556 70.5335 50)">.</text><text fill="#FFFFFF" font-family="Arial,Arial_MSFontService,sans-serif" font-weight="400" font-size="47" transform="matrix(0.34625 0 0 0.345556 75.0348 50)">1</text><text fill="#FFFFFF" font-family="SimHei,SimHei_MSFontService,sans-serif" font-weight="400" font-size="47" transform="matrix(0.34625 0 0 0.345556 102.346 50)">编译器或解释器</text><text fill="#F79646" font-family="SimHei,SimHei_MSFontService,sans-serif" font-weight="400" font-size="27" transform="matrix(0.34625 0 0 0.345556 97.2433 76)">选型</text><text fill="#FF0000" font-family="SimHei,SimHei_MSFontService,sans-serif" font-weight="400" font-size="23" transform="matrix(0.34625 0 0 0.345556 48.0273 96)">解释型</text><text fill="#FFFFFF" font-family="SimHei,SimHei_MSFontService,sans-serif" font-weight="400" font-size="23" transform="matrix(0.34625 0 0 0.345556 72.2648 96)">：</text><text fill="#FFFFFF" font-family="SimHei,SimHei_MSFontService,sans-serif" font-weight="400" font-size="23" transform="matrix(0.34625 0 0 0.345556 48.0273 111)">适合快速迭代开发</text><text fill="#FFFFFF" font-family="SimHei,SimHei_MSFontService,sans-serif" font-weight="400" font-size="23" transform="matrix(0.34625 0 0 0.345556 114.507 111)">，</text><text fill="#FFFFFF" font-family="SimHei,SimHei_MSFontService,sans-serif" font-weight="400" font-size="23" transform="matrix(0.34625 0 0 0.345556 122.817 111)">能够即时运行</text><text fill="#FFFFFF" font-family="SimHei,SimHei_MSFontService,sans-serif" font-weight="400" font-size="23" transform="matrix(0.34625 0 0 0.345556 48.0273 125)">代码</text><text fill="#FFFFFF" font-family="SimHei,SimHei_MSFontService,sans-serif" font-weight="400" font-size="23" transform="matrix(0.34625 0 0 0.345556 64.6473 125)">，</text><text fill="#FFFFFF" font-family="SimHei,SimHei_MSFontService,sans-serif" font-weight="400" font-size="23" transform="matrix(0.34625 0 0 0.345556 72.9573 125)">降低调试门槛</text><text fill="#FFFFFF" font-family="SimHei,SimHei_MSFontService,sans-serif" font-weight="400" font-size="23" transform="matrix(0.34625 0 0 0.345556 122.817 125)">。</text><text fill="#FFFFFF" font-family="SimHei,SimHei_MSFontService,sans-serif" font-weight="400" font-size="23" transform="matrix(0.34625 0 0 0.345556 131.127 125)">例如</text><text fill="#FFFFFF" font-family="SimHei,SimHei_MSFontService,sans-serif" font-weight="400" font-size="23" transform="matrix(0.34625 0 0 0.345556 147.747 125)">，</text><text fill="#FFFFFF" font-family="Arial,Arial_MSFontService,sans-serif" font-weight="400" font-size="23" transform="matrix(0.34625 0 0 0.345556 48.0273 140)">Python</text><text fill="#FFFFFF" font-family="SimHei,SimHei_MSFontService,sans-serif" font-weight="400" font-size="23" transform="matrix(0.34625 0 0 0.345556 75.3669 140)">和</text><text fill="#FFFFFF" font-family="Arial,Arial_MSFontService,sans-serif" font-weight="400" font-size="23" transform="matrix(0.34625 0 0 0.345556 85.682 140)">JavaScript</text><text fill="#FFFFFF" font-family="SimHei,SimHei_MSFontService,sans-serif" font-weight="400" font-size="23" transform="matrix(0.34625 0 0 0.345556 123.337 140)">。</text><text fill="#FF0000" font-family="SimHei,SimHei_MSFontService,sans-serif" font-weight="400" font-size="23" transform="matrix(0.34625 0 0 0.345556 48.0273 154)">编译型</text><text fill="#FFFFFF" font-family="SimHei,SimHei_MSFontService,sans-serif" font-weight="400" font-size="23" transform="matrix(0.34625 0 0 0.345556 72.2648 154)">：</text><text fill="#FFFFFF" font-family="SimHei,SimHei_MSFontService,sans-serif" font-weight="400" font-size="23" transform="matrix(0.34625 0 0 0.345556 48.0273 169)">生成高效的可执行文件</text><text fill="#FFFFFF" font-family="SimHei,SimHei_MSFontService,sans-serif" font-weight="400" font-size="23" transform="matrix(0.34625 0 0 0.345556 131.127 169)">，</text><text fill="#FFFFFF" font-family="SimHei,SimHei_MSFontService,sans-serif" font-weight="400" font-size="23" transform="matrix(0.34625 0 0 0.345556 139.437 169)">适合性能</text><text fill="#FFFFFF" font-family="SimHei,SimHei_MSFontService,sans-serif" font-weight="400" font-size="23" transform="matrix(0.34625 0 0 0.345556 48.0273 183)">要求较高的场景</text><text fill="#FFFFFF" font-family="SimHei,SimHei_MSFontService,sans-serif" font-weight="400" font-size="23" transform="matrix(0.34625 0 0 0.345556 106.197 183)">。</text><text fill="#FFFFFF" font-family="SimHei,SimHei_MSFontService,sans-serif" font-weight="400" font-size="23" transform="matrix(0.34625 0 0 0.345556 114.507 183)">例如</text><text fill="#FFFFFF" font-family="SimHei,SimHei_MSFontService,sans-serif" font-weight="400" font-size="23" transform="matrix(0.34625 0 0 0.345556 131.127 183)">，</text><text fill="#FFFFFF" font-family="Arial,Arial_MSFontService,sans-serif" font-weight="400" font-size="23" transform="matrix(0.34625 0 0 0.345556 136.898 183)">C</text><text fill="#FFFFFF" font-family="Arial,Arial_MSFontService,sans-serif" font-weight="400" font-size="23" transform="matrix(0.34625 0 0 0.345556 142.785 183)">++</text><text fill="#FFFFFF" font-family="SimHei,SimHei_MSFontService,sans-serif" font-weight="400" font-size="23" transform="matrix(0.34625 0 0 0.345556 154.355 183)">和</text><text fill="#FFFFFF" font-family="Arial,Arial_MSFontService,sans-serif" font-weight="400" font-size="23" transform="matrix(0.34625 0 0 0.345556 48.0273 198)">Rust</text><text fill="#FFFFFF" font-family="SimHei,SimHei_MSFontService,sans-serif" font-weight="400" font-size="23" transform="matrix(0.34625 0 0 0.345556 64.6186 198)">。</text><text fill="#FF0000" font-family="SimHei,SimHei_MSFontService,sans-serif" font-weight="400" font-size="23" transform="matrix(0.34625 0 0 0.345556 48.0273 212)">混合型</text><text fill="#FFFFFF" font-family="SimHei,SimHei_MSFontService,sans-serif" font-weight="400" font-size="23" transform="matrix(0.34625 0 0 0.345556 72.2648 212)">：</text><text fill="#FFFFFF" font-family="SimHei,SimHei_MSFontService,sans-serif" font-weight="400" font-size="23" transform="matrix(0.34625 0 0 0.345556 48.0273 227)">结合两者优点</text><text fill="#FFFFFF" font-family="SimHei,SimHei_MSFontService,sans-serif" font-weight="400" font-size="23" transform="matrix(0.34625 0 0 0.345556 97.8873 227)">，</text><text fill="#FFFFFF" font-family="SimHei,SimHei_MSFontService,sans-serif" font-weight="400" font-size="23" transform="matrix(0.34625 0 0 0.345556 106.197 227)">使用解释型运行代</text><text fill="#FFFFFF" font-family="SimHei,SimHei_MSFontService,sans-serif" font-weight="400" font-size="23" transform="matrix(0.34625 0 0 0.345556 48.0273 241)">码并支持编译为二进制文件</text><text fill="#FFFFFF" font-family="SimHei,SimHei_MSFontService,sans-serif" font-weight="400" font-size="23" transform="matrix(0.34625 0 0 0.345556 147.747 241)">。</text><text fill="#FFFFFF" font-family="SimHei,SimHei_MSFontService,sans-serif" font-weight="400" font-size="23" transform="matrix(0.34625 0 0 0.345556 156.057 241)">例如</text><text fill="#FFFFFF" font-family="SimHei,SimHei_MSFontService,sans-serif" font-weight="400" font-size="23" transform="matrix(0.34625 0 0 0.345556 172.677 241)">，</text><text fill="#FFFFFF" font-family="Arial,Arial_MSFontService,sans-serif" font-weight="400" font-size="23" transform="matrix(0.34625 0 0 0.345556 48.0273 256)">Kotlin</text><text fill="#FFFFFF" font-family="SimHei,SimHei_MSFontService,sans-serif" font-weight="400" font-size="23" transform="matrix(0.34625 0 0 0.345556 70.4615 256)">和</text><text fill="#FFFFFF" font-family="Arial,Arial_MSFontService,sans-serif" font-weight="400" font-size="23" transform="matrix(0.34625 0 0 0.345556 80.777 256)">Java</text><text fill="#FFFFFF" font-family="SimHei,SimHei_MSFontService,sans-serif" font-weight="400" font-size="23" transform="matrix(0.34625 0 0 0.345556 100.037 256)">的</text><text fill="#FFFFFF" font-family="Arial,Arial_MSFontService,sans-serif" font-weight="400" font-size="23" transform="matrix(0.34625 0 0 0.345556 110.352 256)">JVM</text><text fill="#FFFFFF" font-family="SimHei,SimHei_MSFontService,sans-serif" font-weight="400" font-size="23" transform="matrix(0.34625 0 0 0.345556 128.747 256)">模式</text><text fill="#F79646" font-family="SimHei,SimHei_MSFontService,sans-serif" font-weight="400" font-size="27" transform="matrix(0.34625 0 0 0.345556 242.76 76)">架构设计</text><text fill="#FF0000" font-family="SimHei,SimHei_MSFontService,sans-serif" font-weight="400" font-size="23" transform="matrix(0.34625 0 0 0.345556 203.932 96)">词法分析</text><text fill="#FFFFFF" font-family="SimHei,SimHei_MSFontService,sans-serif" font-weight="400" font-size="23" transform="matrix(0.34625 0 0 0.345556 236.248 96)">：</text><text fill="#FFFFFF" font-family="SimHei,SimHei_MSFontService,sans-serif" font-weight="400" font-size="23" transform="matrix(0.34625 0 0 0.345556 244.558 96)">解析代码中的标识符</text><text fill="#FFFFFF" font-family="SimHei,SimHei_MSFontService,sans-serif" font-weight="400" font-size="23" transform="matrix(0.34625 0 0 0.345556 319.348 96)">、</text><text fill="#FFFFFF" font-family="SimHei,SimHei_MSFontService,sans-serif" font-weight="400" font-size="23" transform="matrix(0.34625 0 0 0.345556 203.932 111)">关键词和符号</text><text fill="#FFFFFF" font-family="SimHei,SimHei_MSFontService,sans-serif" font-weight="400" font-size="23" transform="matrix(0.34625 0 0 0.345556 253.792 111)">（</text><text fill="#FFFFFF" font-family="SimHei,SimHei_MSFontService,sans-serif" font-weight="400" font-size="23" transform="matrix(0.34625 0 0 0.345556 262.102 111)">如</text><text fill="#FFFFFF" font-family="SimHei,SimHei_MSFontService,sans-serif" font-weight="400" font-size="23" transform="matrix(0.34625 0 0 0.345556 270.801 111)">定义</text><text fill="#FFFFFF" font-family="SimHei,SimHei_MSFontService,sans-serif" font-weight="400" font-size="23" transform="matrix(0.34625 0 0 0.345556 287.421 111)">、</text><text fill="#FFFFFF" font-family="SimHei,SimHei_MSFontService,sans-serif" font-weight="400" font-size="23" transform="matrix(0.34625 0 0 0.345556 295.731 111)">如果</text><text fill="#FFFFFF" font-family="SimHei,SimHei_MSFontService,sans-serif" font-weight="400" font-size="23" transform="matrix(0.34625 0 0 0.345556 312.351 111)">）。</text><text fill="#FFFFFF" font-family="SimHei,SimHei_MSFontService,sans-serif" font-weight="400" font-size="23" transform="matrix(0.34625 0 0 0.345556 203.932 125)">语法分析</text><text fill="#FFFFFF" font-family="SimHei,SimHei_MSFontService,sans-serif" font-weight="400" font-size="23" transform="matrix(0.34625 0 0 0.345556 237.172 125)">：</text><text fill="#FFFFFF" font-family="SimHei,SimHei_MSFontService,sans-serif" font-weight="400" font-size="23" transform="matrix(0.34625 0 0 0.345556 245.482 125)">将代码组织成抽象语</text><text fill="#FFFFFF" font-family="SimHei,SimHei_MSFontService,sans-serif" font-weight="400" font-size="23" transform="matrix(0.34625 0 0 0.345556 203.932 140)">法树</text><text fill="#FFFFFF" font-family="SimHei,SimHei_MSFontService,sans-serif" font-weight="400" font-size="23" transform="matrix(0.34625 0 0 0.345556 220.552 140)">（</text><text fill="#FFFFFF" font-family="Arial,Arial_MSFontService,sans-serif" font-weight="400" font-size="23" transform="matrix(0.34625 0 0 0.345556 228.169 140)">AST</text><text fill="#FFFFFF" font-family="SimHei,SimHei_MSFontService,sans-serif" font-weight="400" font-size="23" transform="matrix(0.34625 0 0 0.345556 243.895 140)">）。</text><text fill="#FF0000" font-family="SimHei,SimHei_MSFontService,sans-serif" font-weight="400" font-size="23" transform="matrix(0.34625 0 0 0.345556 203.932 154)">语义分析</text><text fill="#FFFFFF" font-family="SimHei,SimHei_MSFontService,sans-serif" font-weight="400" font-size="23" transform="matrix(0.34625 0 0 0.345556 236.248 154)">：</text><text fill="#FFFFFF" font-family="SimHei,SimHei_MSFontService,sans-serif" font-weight="400" font-size="23" transform="matrix(0.34625 0 0 0.345556 244.558 154)">验证代码的逻辑和类</text><text fill="#FFFFFF" font-family="SimHei,SimHei_MSFontService,sans-serif" font-weight="400" font-size="23" transform="matrix(0.34625 0 0 0.345556 203.932 169)">型规则</text><text fill="#FFFFFF" font-family="SimHei,SimHei_MSFontService,sans-serif" font-weight="400" font-size="23" transform="matrix(0.34625 0 0 0.345556 228.862 169)">。</text><text fill="#FF0000" font-family="SimHei,SimHei_MSFontService,sans-serif" font-weight="400" font-size="23" transform="matrix(0.34625 0 0 0.345556 203.932 183)">目标生成</text><text fill="#FFFFFF" font-family="SimHei,SimHei_MSFontService,sans-serif" font-weight="400" font-size="23" transform="matrix(0.34625 0 0 0.345556 236.248 183)">：</text><text fill="#FFFFFF" font-family="Arial,Arial_MSFontService,sans-serif" font-weight="400" font-size="23" transform="matrix(0.34625 0 0 0.345556 224.707 197)">•</text><text fill="#FFFFFF" font-family="SimHei,SimHei_MSFontService,sans-serif" font-weight="400" font-size="23" transform="matrix(0.34625 0 0 0.345556 235.094 197)">解释器模式</text><text fill="#FFFFFF" font-family="SimHei,SimHei_MSFontService,sans-serif" font-weight="400" font-size="23" transform="matrix(0.34625 0 0 0.345556 276.644 197)">：</text><text fill="#FFFFFF" font-family="SimHei,SimHei_MSFontService,sans-serif" font-weight="400" font-size="23" transform="matrix(0.34625 0 0 0.345556 284.954 197)">直接执行</text><text fill="#FFFFFF" font-family="Arial,Arial_MSFontService,sans-serif" font-weight="400" font-size="23" transform="matrix(0.34625 0 0 0.345556 235.094 206)">AST</text><text fill="#FFFFFF" font-family="SimHei,SimHei_MSFontService,sans-serif" font-weight="400" font-size="23" transform="matrix(0.34625 0 0 0.345556 250.82 206)">。</text><text fill="#FFFFFF" font-family="Arial,Arial_MSFontService,sans-serif" font-weight="400" font-size="23" transform="matrix(0.34625 0 0 0.345556 224.707 217)">•</text><text fill="#FFFFFF" font-family="SimHei,SimHei_MSFontService,sans-serif" font-weight="400" font-size="23" transform="matrix(0.34625 0 0 0.345556 235.094 217)">编译器模式</text><text fill="#FFFFFF" font-family="SimHei,SimHei_MSFontService,sans-serif" font-weight="400" font-size="23" transform="matrix(0.34625 0 0 0.345556 276.644 217)">：</text><text fill="#FFFFFF" font-family="SimHei,SimHei_MSFontService,sans-serif" font-weight="400" font-size="23" transform="matrix(0.34625 0 0 0.345556 284.954 217)">将</text><text fill="#FFFFFF" font-family="Arial,Arial_MSFontService,sans-serif" font-weight="400" font-size="23" transform="matrix(0.34625 0 0 0.345556 293.44 217)">AST</text><text fill="#FFFFFF" font-family="SimHei,SimHei_MSFontService,sans-serif" font-weight="400" font-size="23" transform="matrix(0.34625 0 0 0.345556 311.255 217)">转</text><text fill="#FFFFFF" font-family="SimHei,SimHei_MSFontService,sans-serif" font-weight="400" font-size="23" transform="matrix(0.34625 0 0 0.345556 235.094 226)">化为目标语言</text><text fill="#FFFFFF" font-family="SimHei,SimHei_MSFontService,sans-serif" font-weight="400" font-size="23" transform="matrix(0.34625 0 0 0.345556 284.954 226)">（</text><text fill="#FFFFFF" font-family="SimHei,SimHei_MSFontService,sans-serif" font-weight="400" font-size="23" transform="matrix(0.34625 0 0 0.345556 293.264 226)">如</text><text fill="#FFFFFF" font-family="Arial,Arial_MSFontService,sans-serif" font-weight="400" font-size="23" transform="matrix(0.34625 0 0 0.345556 301.964 226)">LLVM</text><text fill="#FFFFFF" font-family="Arial,Arial_MSFontService,sans-serif" font-weight="400" font-size="23" transform="matrix(0.34625 0 0 0.345556 235.094 235)">IR</text><text fill="#FFFFFF" font-family="SimHei,SimHei_MSFontService,sans-serif" font-weight="400" font-size="23" transform="matrix(0.34625 0 0 0.345556 245.41 235)">或</text><text fill="#FFFFFF" font-family="Arial,Arial_MSFontService,sans-serif" font-weight="400" font-size="23" transform="matrix(0.34625 0 0 0.345556 255.725 235)">WebAssembly</text><text fill="#FFFFFF" font-family="SimHei,SimHei_MSFontService,sans-serif" font-weight="400" font-size="23" transform="matrix(0.34625 0 0 0.345556 307.155 235)">）。</text><text fill="#F79646" font-family="SimHei,SimHei_MSFontService,sans-serif" font-weight="400" font-size="27" transform="matrix(0.34625 0 0 0.345556 409.69 76)">开发工具</text><text fill="#FF0000" font-family="SimHei,SimHei_MSFontService,sans-serif" font-weight="400" font-size="23" transform="matrix(0.34625 0 0 0.345556 373.451 96)">语言实现工具</text><text fill="#FFFFFF" font-family="SimHei,SimHei_MSFontService,sans-serif" font-weight="400" font-size="23" transform="matrix(0.34625 0 0 0.345556 421.926 96)">：</text><text fill="#FFFFFF" font-family="SimHei,SimHei_MSFontService,sans-serif" font-weight="400" font-size="23" transform="matrix(0.34625 0 0 0.345556 373.451 111)">使用</text><text fill="#FFFFFF" font-family="Arial,Arial_MSFontService,sans-serif" font-weight="400" font-size="23" transform="matrix(0.34625 0 0 0.345556 391.401 111)">ANTLR</text><text fill="#FFFFFF" font-family="SimHei,SimHei_MSFontService,sans-serif" font-weight="400" font-size="23" transform="matrix(0.34625 0 0 0.345556 420.112 111)">或</text><text fill="#FFFFFF" font-family="Arial,Arial_MSFontService,sans-serif" font-weight="400" font-size="23" transform="matrix(0.34625 0 0 0.345556 430.427 111)">Flex</text><text fill="#FFFFFF" font-family="Arial,Arial_MSFontService,sans-serif" font-weight="400" font-size="23" transform="matrix(0.34625 0 0 0.345556 444.969 111)">/</text><text fill="#FFFFFF" font-family="Arial,Arial_MSFontService,sans-serif" font-weight="400" font-size="23" transform="matrix(0.34625 0 0 0.345556 447.047 111)">Bison</text><text fill="#FFFFFF" font-family="SimHei,SimHei_MSFontService,sans-serif" font-weight="400" font-size="23" transform="matrix(0.34625 0 0 0.345556 470.318 111)">进行</text><text fill="#FFFFFF" font-family="SimHei,SimHei_MSFontService,sans-serif" font-weight="400" font-size="23" transform="matrix(0.34625 0 0 0.345556 373.451 125)">词法和语法分析</text><text fill="#FFFFFF" font-family="SimHei,SimHei_MSFontService,sans-serif" font-weight="400" font-size="23" transform="matrix(0.34625 0 0 0.345556 431.621 125)">。</text><text fill="#FFFFFF" font-family="SimHei,SimHei_MSFontService,sans-serif" font-weight="400" font-size="23" transform="matrix(0.34625 0 0 0.345556 439.931 125)">使用</text><text fill="#FFFFFF" font-family="Arial,Arial_MSFontService,sans-serif" font-weight="400" font-size="23" transform="matrix(0.34625 0 0 0.345556 456.479 125)">LLVM</text><text fill="#FFFFFF" font-family="SimHei,SimHei_MSFontService,sans-serif" font-weight="400" font-size="23" transform="matrix(0.34625 0 0 0.345556 479.179 125)">开</text><text fill="#FFFFFF" font-family="SimHei,SimHei_MSFontService,sans-serif" font-weight="400" font-size="23" transform="matrix(0.34625 0 0 0.345556 373.451 140)">发后端</text><text fill="#FFFFFF" font-family="SimHei,SimHei_MSFontService,sans-serif" font-weight="400" font-size="23" transform="matrix(0.34625 0 0 0.345556 398.381 140)">，</text><text fill="#FFFFFF" font-family="SimHei,SimHei_MSFontService,sans-serif" font-weight="400" font-size="23" transform="matrix(0.34625 0 0 0.345556 406.691 140)">生成高效机器码</text><text fill="#FFFFFF" font-family="SimHei,SimHei_MSFontService,sans-serif" font-weight="400" font-size="23" transform="matrix(0.34625 0 0 0.345556 464.861 140)">。</text><text fill="#FF0000" font-family="SimHei,SimHei_MSFontService,sans-serif" font-weight="400" font-size="23" transform="matrix(0.34625 0 0 0.345556 373.451 154)">目标平台</text><text fill="#FFFFFF" font-family="SimHei,SimHei_MSFontService,sans-serif" font-weight="400" font-size="23" transform="matrix(0.34625 0 0 0.345556 405.767 154)">：</text><text fill="#FFFFFF" font-family="SimHei,SimHei_MSFontService,sans-serif" font-weight="400" font-size="23" transform="matrix(0.34625 0 0 0.345556 373.451 169)">初期支持</text><text fill="#FFFFFF" font-family="Arial,Arial_MSFontService,sans-serif" font-weight="400" font-size="23" transform="matrix(0.34625 0 0 0.345556 408.004 169)">Windows</text><text fill="#FFFFFF" font-family="SimHei,SimHei_MSFontService,sans-serif" font-weight="400" font-size="23" transform="matrix(0.34625 0 0 0.345556 440.755 169)">、</text><text fill="#FFFFFF" font-family="Arial,Arial_MSFontService,sans-serif" font-weight="400" font-size="23" transform="matrix(0.34625 0 0 0.345556 448.833 169)">Linux</text><text fill="#FFFFFF" font-family="SimHei,SimHei_MSFontService,sans-serif" font-weight="400" font-size="23" transform="matrix(0.34625 0 0 0.345556 470.329 169)">和</text><text fill="#FFFFFF" font-family="Arial,Arial_MSFontService,sans-serif" font-weight="400" font-size="23" transform="matrix(0.34625 0 0 0.345556 373.451 183)">macOS</text><text fill="#FFFFFF" font-family="SimHei,SimHei_MSFontService,sans-serif" font-weight="400" font-size="23" transform="matrix(0.34625 0 0 0.345556 400.358 183)">，</text><text fill="#FFFFFF" font-family="SimHei,SimHei_MSFontService,sans-serif" font-weight="400" font-size="23" transform="matrix(0.34625 0 0 0.345556 408.668 183)">未来支持</text><text fill="#FFFFFF" font-family="Arial,Arial_MSFontService,sans-serif" font-weight="400" font-size="23" transform="matrix(0.34625 0 0 0.345556 373.451 198)">WebAssembly</text><text fill="#FFFFFF" font-family="SimHei,SimHei_MSFontService,sans-serif" font-weight="400" font-size="23" transform="matrix(0.34625 0 0 0.345556 427.117 198)">以运行在浏览器</text><text fill="#FFFFFF" font-family="SimHei,SimHei_MSFontService,sans-serif" font-weight="400" font-size="23" transform="matrix(0.34625 0 0 0.345556 373.451 213)">中</text><text fill="#FFFFFF" font-family="SimHei,SimHei_MSFontService,sans-serif" font-weight="400" font-size="23" transform="matrix(0.34625 0 0 0.345556 381.761 213)">。</text><text fill="#FFFFFF" font-family="Arial,Arial_MSFontService,sans-serif" font-weight="400" font-size="15" transform="matrix(2.12017e-17 0.345556 -0.34625 2.11592e-17 539.852 34)">PRESENTATION TITLE</text><text fill="#F79646" font-family="Arial,Arial_MSFontService,sans-serif" font-weight="400" font-size="27" transform="matrix(0.34625 0 0 0.345556 533.779 160)">12</text></g></svg>