<svg width="554" height="311" xmlns="http://www.w3.org/2000/svg" xmlns:xlink="http://www.w3.org/1999/xlink" xml:space="preserve" overflow="hidden"><defs><clipPath id="clip0"><rect x="0" y="0" width="554" height="311"/></clipPath><linearGradient x1="419.18" y1="-12.424" x2="-182.69" y2="5.8818" gradientUnits="userSpaceOnUse" spreadMethod="pad" id="fill1"><stop offset="0" stop-color="#FF0000"/><stop offset="1" stop-color="#0565FF"/></linearGradient><linearGradient x1="419.245" y1="-10.1661" x2="-182.626" y2="8.14605" gradientUnits="userSpaceOnUse" spreadMethod="pad" id="fill2"><stop offset="0" stop-color="#FF0000"/><stop offset="1" stop-color="#0565FF"/></linearGradient><linearGradient x1="419.276" y1="-9.26552" x2="-182.597" y2="9.04091" gradientUnits="userSpaceOnUse" spreadMethod="pad" id="fill3"><stop offset="0" stop-color="#FF0000"/><stop offset="1" stop-color="#0565FF"/></linearGradient><linearGradient x1="419.263" y1="-9.60007" x2="-182.611" y2="8.70636" gradientUnits="userSpaceOnUse" spreadMethod="pad" id="fill4"><stop offset="0" stop-color="#FF0000"/><stop offset="1" stop-color="#0565FF"/></linearGradient><linearGradient x1="419.218" y1="-11.2175" x2="-182.661" y2="7.08958" gradientUnits="userSpaceOnUse" spreadMethod="pad" id="fill5"><stop offset="0" stop-color="#FF0000"/><stop offset="1" stop-color="#0565FF"/></linearGradient><linearGradient x1="419.117" y1="-14.4046" x2="-182.763" y2="3.90248" gradientUnits="userSpaceOnUse" spreadMethod="pad" id="fill6"><stop offset="0" stop-color="#FF0000"/><stop offset="1" stop-color="#0565FF"/></linearGradient><linearGradient x1="418.979" y1="-19.0304" x2="-182.907" y2="-0.722656" gradientUnits="userSpaceOnUse" spreadMethod="pad" id="fill7"><stop offset="0" stop-color="#FF0000"/><stop offset="1" stop-color="#0565FF"/></linearGradient><linearGradient x1="418.793" y1="-25.1458" x2="-183.087" y2="-6.83869" gradientUnits="userSpaceOnUse" spreadMethod="pad" id="fill8"><stop offset="0" stop-color="#FF0000"/><stop offset="1" stop-color="#0565FF"/></linearGradient><linearGradient x1="418.561" y1="-32.7278" x2="-183.319" y2="-14.4207" gradientUnits="userSpaceOnUse" spreadMethod="pad" id="fill9"><stop offset="0" stop-color="#FF0000"/><stop offset="1" stop-color="#0565FF"/></linearGradient><linearGradient x1="418.288" y1="-41.6322" x2="-183.592" y2="-23.3193" gradientUnits="userSpaceOnUse" spreadMethod="pad" id="fill10"><stop offset="0" stop-color="#FF0000"/><stop offset="1" stop-color="#0565FF"/></linearGradient><linearGradient x1="417.984" y1="-51.8195" x2="-183.861" y2="-33.5104" gradientUnits="userSpaceOnUse" spreadMethod="pad" id="fill11"><stop offset="0" stop-color="#FF0000"/><stop offset="1" stop-color="#0565FF"/></linearGradient><linearGradient x1="439.274" y1="160.715" x2="38.5806" y2="-13.7347" gradientUnits="userSpaceOnUse" spreadMethod="pad" id="fill12"><stop offset="0" stop-color="#FF0000"/><stop offset="1" stop-color="#0565FF"/></linearGradient><linearGradient x1="437.826" y1="164.038" x2="37.1327" y2="-10.4118" gradientUnits="userSpaceOnUse" spreadMethod="pad" id="fill13"><stop offset="0" stop-color="#FF0000"/><stop offset="1" stop-color="#0565FF"/></linearGradient><linearGradient x1="437.304" y1="165.237" x2="36.6102" y2="-9.21291" gradientUnits="userSpaceOnUse" spreadMethod="pad" id="fill14"><stop offset="0" stop-color="#FF0000"/><stop offset="1" stop-color="#0565FF"/></linearGradient><linearGradient x1="437.646" y1="164.446" x2="36.9579" y2="-10.0044" gradientUnits="userSpaceOnUse" spreadMethod="pad" id="fill15"><stop offset="0" stop-color="#FF0000"/><stop offset="1" stop-color="#0565FF"/></linearGradient><linearGradient x1="438.721" y1="161.987" x2="38.0253" y2="-12.4627" gradientUnits="userSpaceOnUse" spreadMethod="pad" id="fill16"><stop offset="0" stop-color="#FF0000"/><stop offset="1" stop-color="#0565FF"/></linearGradient><linearGradient x1="440.514" y1="157.861" x2="39.8194" y2="-16.5885" gradientUnits="userSpaceOnUse" spreadMethod="pad" id="fill17"><stop offset="0" stop-color="#FF0000"/><stop offset="1" stop-color="#0565FF"/></linearGradient><linearGradient x1="443.096" y1="151.934" x2="42.4004" y2="-22.5158" gradientUnits="userSpaceOnUse" spreadMethod="pad" id="fill18"><stop offset="0" stop-color="#FF0000"/><stop offset="1" stop-color="#0565FF"/></linearGradient><linearGradient x1="445.95" y1="145.385" x2="45.254" y2="-29.0701" gradientUnits="userSpaceOnUse" spreadMethod="pad" id="fill19"><stop offset="0" stop-color="#FF0000"/><stop offset="1" stop-color="#0565FF"/></linearGradient><linearGradient x1="449.969" y1="136.159" x2="49.2679" y2="-38.2955" gradientUnits="userSpaceOnUse" spreadMethod="pad" id="fill20"><stop offset="0" stop-color="#FF0000"/><stop offset="1" stop-color="#0565FF"/></linearGradient><linearGradient x1="454.723" y1="125.23" x2="54.0276" y2="-49.2196" gradientUnits="userSpaceOnUse" spreadMethod="pad" id="fill21"><stop offset="0" stop-color="#FF0000"/><stop offset="1" stop-color="#0565FF"/></linearGradient><linearGradient x1="460.245" y1="112.547" x2="59.5503" y2="-61.9021" gradientUnits="userSpaceOnUse" spreadMethod="pad" id="fill22"><stop offset="0" stop-color="#FF0000"/><stop offset="1" stop-color="#0565FF"/></linearGradient><linearGradient x1="466.562" y1="98.0334" x2="65.8677" y2="-76.4161" gradientUnits="userSpaceOnUse" spreadMethod="pad" id="fill23"><stop offset="0" stop-color="#FF0000"/><stop offset="1" stop-color="#0565FF"/></linearGradient><linearGradient x1="473.584" y1="81.9181" x2="72.8887" y2="-92.537" gradientUnits="userSpaceOnUse" spreadMethod="pad" id="fill24"><stop offset="0" stop-color="#FF0000"/><stop offset="1" stop-color="#0565FF"/></linearGradient><linearGradient x1="481.362" y1="64.0453" x2="80.6682" y2="-110.404" gradientUnits="userSpaceOnUse" spreadMethod="pad" id="fill25"><stop offset="0" stop-color="#FF0000"/><stop offset="1" stop-color="#0565FF"/></linearGradient><linearGradient x1="489.797" y1="44.6686" x2="89.1043" y2="-129.781" gradientUnits="userSpaceOnUse" spreadMethod="pad" id="fill26"><stop offset="0" stop-color="#FF0000"/><stop offset="1" stop-color="#0565FF"/></linearGradient><linearGradient x1="498.899" y1="23.7588" x2="98.2058" y2="-150.691" gradientUnits="userSpaceOnUse" spreadMethod="pad" id="fill27"><stop offset="0" stop-color="#FF0000"/><stop offset="1" stop-color="#0565FF"/></linearGradient></defs><g clip-path="url(#clip0)"><path d="M0 0 552.889 0 552.889 311 0 311Z" fill="#4F81BD" transform="scale(1.00201 1)"/><path d="M329.395-86.2679C291.678 6.80167 261.885 80.3071 190.263 67.2969L202.271 69.3703C272.799 77.2489 298.577 8.85773 334.256-85.8128 333.847-85.8419 333.444-85.8764 333.035-85.9165L331.82-86.0261 330.604-86.1529 329.395-86.2852" fill="url(#fill1)" transform="scale(1.00201 1)"/><path d="M341.011-85.3927C308.938 9.41639 285.763 77.9114 218.915 71.5359L231.108 72.6126C296.377 74.3404 316.091 10.8447 345.929-85.2831L344.686-85.2831 343.454-85.2831 342.215-85.3177 340.983-85.3581" fill="url(#fill2)" transform="scale(1.00201 1)"/><path d="M351.319-85.3408C324.367 10.5913 306.577 73.9662 244.262 73.2923L252.653 73.471 256.414 73.471C316.811 70.4819 331.67 11.7431 356.292-85.571L355.041-85.5018 353.787-85.4445 352.536-85.3982 351.292-85.3581" fill="url(#fill3)" transform="scale(1.00201 1)"/><path d="M363.196-86.101C342.463 10.3494 329.954 68.5641 272.776 73.0909L284.692 72.3307C339.808 65.2523 349.91 11.2824 368.252-86.6826L366.99-86.5212 365.719-86.3889 364.464-86.2507 363.203-86.1183" fill="url(#fill4)" transform="scale(1.00201 1)"/><path d="M375.187-87.7424C360.846 8.53522 352.944 61.5721 301.042 70.6374L312.929 68.9097C362.46 58.2838 368.794 6.0645 380.249-88.7273L378.981-88.4736 377.716-88.2262 376.448-87.9898 375.187-87.7652" fill="url(#fill5)" transform="scale(1.00201 1)"/><path d="M387.212-90.2764C379.741 0.840851 375.232 55.8649 329.17 65.9493L340.568 63.398C384.724 50.1515 387.219 2.78748 392.268-91.6068L391.006-91.2612 389.742-90.9215 388.474-90.5933 387.212-90.2764" fill="url(#fill6)" transform="scale(1.00201 1)"/><path d="M399.213-93.6974C397.969-0.662316 397.396 46.0394 356.164 59.3205L367.446 55.8649C406.522 40.9311 405.814-1.79689 404.259-95.4138L402.997-94.9701 401.743-94.5381 400.482-94.1179 399.22-93.7033" fill="url(#fill7)" transform="scale(1.00201 1)"/><path d="M411.149-98.011C416.249-10.7007 419.062 37.395 382.817 50.5779L393.899 46.293C427.808 30.1267 424.152-10.6777 416.142-100.084L414.898-99.5487 413.647-99.0248 412.396-98.5065 411.149-97.9996" fill="url(#fill8)" transform="scale(1.00201 1)"/><path d="M422.96-103.217C434.681-15.55 440.013 24.4538 408.948 39.8139L419.757 34.6879C448.472 17.75 442.442-18.3778 427.877-105.677L426.651-105.049 425.424-104.427 424.194-103.816 422.96-103.241" fill="url(#fill9)" transform="scale(1.00201 1)"/><path d="M434.588-109.311C452.557-25.3811 460.746 12.9295 433.921 27.345L444.046 21.6203C468.705 5.10272 460.746-26.8209 439.436-112.139L438.234-111.419C437.836-111.177 437.432-110.941 437.031-110.705L435.822-110.002 434.612-109.311" fill="url(#fill10)" transform="scale(1.00201 1)"/><path d="M445.981-116.285C470.267-35.7073 480.329-2.3037 457.792 13.2463L467.582 6.76138C488.277-8.98444 478.035-39.0651 450.656-119.453 450.269-119.176 449.879-118.877 449.506-118.641L448.351-117.834 447.173-117.04 446.019-116.256" fill="url(#fill11)" transform="scale(1.00201 1)"/><path d="M49.2876 6.33517C27.5696-10.3667 19.305-21.1134-1.39374-49.8118-0.840851-49.4279-0.287963-49.044 0.264926-48.6601 0.840851-48.2741 1.37646-47.894 1.93511-47.508L3.61683-46.3563 5.31005-45.2505C23.3768-20.4051 36.433-2.41889 60.4781 14.0641L49.2876 6.33517" fill="url(#fill12)" transform="scale(1.00201 1)"/><path d="M76.2928 24.0046C49.3567 6.72683 36.6866-9.62949 14.8128-39.4856L21.9485-35.5691C42.9353-7.14723 58.0993 13.3845 88.0762 30.7026L76.2928 24.0046" fill="url(#fill13)" transform="scale(1.00201 1)"/><path d="M104.093 38.8982C72.417 22.2423 56.867 2.6147 32.0388-30.622L39.5834-27.3392C62.6665 3.30582 80.9004 27.5177 115.98 44.3462L104.093 38.9037" fill="url(#fill14)" transform="scale(1.00201 1)"/><path d="M135.066 52.0002 132.613 51.0845C94.8318 35.2121 75.1469 9.39911 50.2206-23.2847L52.1848-22.6051 54.1427-21.9428 56.1469-21.3093 58.1743-20.67C82.0522 10.3321 106.748 42.3938 144.598 55.3521L135.095 52.012" fill="url(#fill15)" transform="scale(1.00201 1)"/><path d="M161.133 60.4722C119.591 46.8632 95.1601 15.5788 69.2898-17.5369L71.3458-17.0301C72.0369-16.8573 72.7222-16.6961 73.4133-16.5348L75.4866-16.0626 77.5713-15.6076C101.772 15.0374 131.893 53.1696 173.359 63.6341L161.133 60.4722" fill="url(#fill16)" transform="scale(1.00201 1)"/><path d="M190.263 67.2969C145.502 56.7807 118.151 22.6742 89.1938-13.4306L97.7922-12.2039C124.659 20.9003 158.092 62.0905 202.271 69.3703L190.263 67.2969" fill="url(#fill17)" transform="scale(1.00201 1)"/><path d="M218.944 71.5359C171.972 64.2792 138.959 24.2753 109.835-11.0175L112.046-10.862 114.264-10.7295 116.493-10.6143 118.727-10.5222C146.798 23.037 185.235 69.0479 231.136 72.6126L218.944 71.5359" fill="url(#fill18)" transform="scale(1.00201 1)"/><path d="M252.653 73.471 244.262 73.2923C195.884 69.3184 160.027 26.9994 128.385-10.3321 129.14-10.3321 129.894-10.3321 130.655-10.3321L132.958-10.3321 135.262-10.3839 137.566-10.4473C168.867 26.0261 207.915 71.4609 256.414 73.4883L252.653 73.4883" fill="url(#fill19)" transform="scale(1.00201 1)"/><path d="M272.758 73.0909C223.695 72.7508 182.914 26.1931 150.178-11.2133L152.482-11.4091 154.815-11.6279C155.582-11.7009 156.36-11.7815 157.147-11.8698 157.925-11.9505 158.708-12.0368 159.485-12.129 191.962 24.4135 236.418 74.4499 284.675 72.3307L272.758 73.0909" fill="url(#fill20)" transform="scale(1.00201 1)"/><path d="M301.042 70.6374C252.089 73.9603 207.927 25.2371 172.449-13.9086L174.817-14.3002 177.189-14.7149 179.562-15.1468C180.357-15.2908 181.146-15.4463 181.941-15.5961 215.287 20.6297 265.674 75.4002 312.929 68.9325L301.042 70.6602" fill="url(#fill21)" transform="scale(1.00201 1)"/><path d="M329.17 65.9493C281.098 73.039 233.406 22.3056 195.083-18.4296L197.485-19.0056 199.887-19.616 202.294-20.2438 204.701-20.8946C238.612 14.5709 295.369 73.9893 340.568 63.398L329.17 65.9493" fill="url(#fill22)" transform="scale(1.00201 1)"/><path d="M356.164 59.3205C309.814 69.1629 256.73 14.8128 217.971-24.8685L220.395-25.6575C221.202-25.9224 222.008-26.1873 222.814-26.4638L225.233-27.2874 227.658-28.1397C265.623 10.0845 322.991 67.844 367.446 55.8649L356.164 59.3205" fill="url(#fill23)" transform="scale(1.00201 1)"/><path d="M382.817 50.5662C338.846 63.0698 282.29 7.44095 240.99-33.1733L243.415-34.1582 245.845-35.1661C246.652-35.5 247.458-35.8455 248.27-36.1911L250.695-37.2395C289.023-0.190056 353.168 61.8199 393.899 46.2699L382.817 50.5662" fill="url(#fill24)" transform="scale(1.00201 1)"/><path d="M408.948 39.8139C368.024 54.7128 305.419-4.30217 264.01-43.3731L266.429-44.5248 268.848-45.7284 271.267-46.9841 273.68-48.2337C316.402-8.63889 380.975 51.1827 419.757 34.6879L408.948 39.8139" fill="url(#fill25)" transform="scale(1.00201 1)"/><path d="M433.921 27.345C396.449 43.4996 330.524-16.0511 286.897-55.4558L289.293-56.838C290.092-57.3066 290.89-57.7752 291.689-58.2434L294.079-59.666 296.464-61.1115C336.346-25.7612 410.565 40.0326 444.046 21.6203L433.914 27.345" fill="url(#fill26)" transform="scale(1.00201 1)"/><path d="M457.792 13.2463C423.997 29.4183 355.11-30.0633 309.525-69.428L311.887-71.0058 314.237-72.6012 316.587-74.2195C317.354-74.7609 318.134-75.3062 318.925-75.8553 363.168-38.4199 437.207 24.2926 467.613 6.73256L457.792 13.2463" fill="url(#fill27)" transform="scale(1.00201 1)"/><text fill="#FFFFFF" font-family="Arial,Arial_MSFontService,sans-serif" font-weight="400" font-size="47" transform="matrix(0.34625 0 0 0.345556 212.908 117)">2</text><text fill="#FFFFFF" font-family="Arial,Arial_MSFontService,sans-serif" font-weight="400" font-size="47" transform="matrix(0.34625 0 0 0.345556 221.91 117)">.</text><text fill="#FFFFFF" font-family="Arial,Arial_MSFontService,sans-serif" font-weight="400" font-size="47" transform="matrix(0.34625 0 0 0.345556 226.411 117)">2</text><text fill="#FFFFFF" font-family="Arial,Arial_MSFontService,sans-serif" font-weight="400" font-size="47" transform="matrix(0.34625 0 0 0.345556 235.414 117)">.</text><text fill="#FFFFFF" font-family="Arial,Arial_MSFontService,sans-serif" font-weight="400" font-size="47" transform="matrix(0.34625 0 0 0.345556 239.915 117)">5</text><text fill="#FFFFFF" font-family="SimHei,SimHei_MSFontService,sans-serif" font-weight="400" font-size="47" transform="matrix(0.34625 0 0 0.345556 267.226 117)">测试框架</text><text fill="#F79646" font-family="SimHei,SimHei_MSFontService,sans-serif" font-weight="400" font-size="27" transform="matrix(0.34625 0 0 0.345556 53.8336 139)">功能设计</text><text fill="#F79646" font-family="Arial,Arial_MSFontService,sans-serif" font-weight="400" font-size="23" transform="matrix(0.34625 0 0 0.345556 53.8336 158)">•</text><text fill="#FFFFFF" font-family="SimHei,SimHei_MSFontService,sans-serif" font-weight="400" font-size="23" transform="matrix(0.34625 0 0 0.345556 66.8179 158)">单元测试</text><text fill="#FFFFFF" font-family="SimHei,SimHei_MSFontService,sans-serif" font-weight="400" font-size="23" transform="matrix(0.34625 0 0 0.345556 100.058 158)">：</text><text fill="#FFFFFF" font-family="SimHei,SimHei_MSFontService,sans-serif" font-weight="400" font-size="23" transform="matrix(0.34625 0 0 0.345556 108.368 158)">支持用户编写和运行单元测试</text><text fill="#FFFFFF" font-family="SimHei,SimHei_MSFontService,sans-serif" font-weight="400" font-size="23" transform="matrix(0.34625 0 0 0.345556 216.398 158)">。</text><text fill="#F79646" font-family="Arial,Arial_MSFontService,sans-serif" font-weight="400" font-size="23" transform="matrix(0.34625 0 0 0.345556 53.8336 179)">•</text><text fill="#FFFFFF" font-family="SimHei,SimHei_MSFontService,sans-serif" font-weight="400" font-size="23" transform="matrix(0.34625 0 0 0.345556 66.8179 179)">集成测试</text><text fill="#FFFFFF" font-family="SimHei,SimHei_MSFontService,sans-serif" font-weight="400" font-size="23" transform="matrix(0.34625 0 0 0.345556 100.058 179)">：</text><text fill="#FFFFFF" font-family="SimHei,SimHei_MSFontService,sans-serif" font-weight="400" font-size="23" transform="matrix(0.34625 0 0 0.345556 108.368 179)">提供工具测试多个模块的交互行为</text><text fill="#FFFFFF" font-family="SimHei,SimHei_MSFontService,sans-serif" font-weight="400" font-size="23" transform="matrix(0.34625 0 0 0.345556 233.018 179)">。</text><text fill="#F79646" font-family="Arial,Arial_MSFontService,sans-serif" font-weight="400" font-size="23" transform="matrix(0.34625 0 0 0.345556 53.8336 200)">•</text><text fill="#FFFFFF" font-family="SimHei,SimHei_MSFontService,sans-serif" font-weight="400" font-size="23" transform="matrix(0.34625 0 0 0.345556 66.8179 200)">覆盖率报告</text><text fill="#FFFFFF" font-family="SimHei,SimHei_MSFontService,sans-serif" font-weight="400" font-size="23" transform="matrix(0.34625 0 0 0.345556 108.368 200)">：</text><text fill="#FFFFFF" font-family="SimHei,SimHei_MSFontService,sans-serif" font-weight="400" font-size="23" transform="matrix(0.34625 0 0 0.345556 116.678 200)">分析代码覆盖率</text><text fill="#FFFFFF" font-family="SimHei,SimHei_MSFontService,sans-serif" font-weight="400" font-size="23" transform="matrix(0.34625 0 0 0.345556 174.848 200)">，</text><text fill="#FFFFFF" font-family="SimHei,SimHei_MSFontService,sans-serif" font-weight="400" font-size="23" transform="matrix(0.34625 0 0 0.345556 183.158 200)">帮助开发者发</text><text fill="#FFFFFF" font-family="SimHei,SimHei_MSFontService,sans-serif" font-weight="400" font-size="23" transform="matrix(0.34625 0 0 0.345556 66.8179 215)">现未测试的代码路径</text><text fill="#FFFFFF" font-family="SimHei,SimHei_MSFontService,sans-serif" font-weight="400" font-size="23" transform="matrix(0.34625 0 0 0.345556 141.608 215)">。</text><text fill="#F79646" font-family="Arial,Arial_MSFontService,sans-serif" font-weight="400" font-size="23" transform="matrix(0.34625 0 0 0.345556 53.8336 236)">•</text><text fill="#FFFFFF" font-family="SimHei,SimHei_MSFontService,sans-serif" font-weight="400" font-size="23" transform="matrix(0.34625 0 0 0.345556 66.8179 236)">断言库</text><text fill="#FFFFFF" font-family="SimHei,SimHei_MSFontService,sans-serif" font-weight="400" font-size="23" transform="matrix(0.34625 0 0 0.345556 91.7479 236)">：</text><text fill="#FFFFFF" font-family="SimHei,SimHei_MSFontService,sans-serif" font-weight="400" font-size="23" transform="matrix(0.34625 0 0 0.345556 100.058 236)">提供丰富的断言方法</text><text fill="#FFFFFF" font-family="SimHei,SimHei_MSFontService,sans-serif" font-weight="400" font-size="23" transform="matrix(0.34625 0 0 0.345556 174.848 236)">（</text><text fill="#FFFFFF" font-family="SimHei,SimHei_MSFontService,sans-serif" font-weight="400" font-size="23" transform="matrix(0.34625 0 0 0.345556 183.158 236)">如</text><text fill="#FFFFFF" font-family="SimHei,SimHei_MSFontService,sans-serif" font-weight="400" font-size="23" transform="matrix(0.34625 0 0 0.345556 190.242 236)">相等</text><text fill="#FFFFFF" font-family="SimHei,SimHei_MSFontService,sans-serif" font-weight="400" font-size="23" transform="matrix(0.34625 0 0 0.345556 206.862 236)">、</text><text fill="#FFFFFF" font-family="SimHei,SimHei_MSFontService,sans-serif" font-weight="400" font-size="23" transform="matrix(0.34625 0 0 0.345556 215.172 236)">抛出</text><text fill="#FFFFFF" font-family="SimHei,SimHei_MSFontService,sans-serif" font-weight="400" font-size="23" transform="matrix(0.34625 0 0 0.345556 66.8179 251)">异常</text><text fill="#FFFFFF" font-family="SimHei,SimHei_MSFontService,sans-serif" font-weight="400" font-size="23" transform="matrix(0.34625 0 0 0.345556 85.2125 251)">等</text><text fill="#FFFFFF" font-family="SimHei,SimHei_MSFontService,sans-serif" font-weight="400" font-size="23" transform="matrix(0.34625 0 0 0.345556 93.5225 251)">）。</text><text fill="#F79646" font-family="SimHei,SimHei_MSFontService,sans-serif" font-weight="400" font-size="27" transform="matrix(0.34625 0 0 0.345556 250.692 139)">示例代码</text><path d="M249.837 145.824 473.411 145.824 473.411 202.496 249.837 202.496Z" stroke="#7F7F7F" stroke-width="2.73565" stroke-linejoin="round" stroke-miterlimit="10" transform="scale(1.00201 1)"/><text fill="#FFFFFF" font-family="FangSong,FangSong_MSFontService,sans-serif" font-weight="400" font-size="27" transform="matrix(0.34625 0 0 0.345556 254.406 157)">定义</text><text fill="#FFFFFF" font-family="FangSong,FangSong_MSFontService,sans-serif" font-weight="400" font-size="27" transform="matrix(0.34625 0 0 0.345556 277.489 157)">测试</text><text fill="#FFFFFF" font-family="FangSong,FangSong_MSFontService,sans-serif" font-weight="400" font-size="27" transform="matrix(0.34625 0 0 0.345556 300.573 157)">"</text><text fill="#FFFFFF" font-family="FangSong,FangSong_MSFontService,sans-serif" font-weight="400" font-size="27" transform="matrix(0.34625 0 0 0.345556 305.189 157)">加法功能</text><text fill="#FFFFFF" font-family="FangSong,FangSong_MSFontService,sans-serif" font-weight="400" font-size="27" transform="matrix(0.34625 0 0 0.345556 342.123 157)">":</text><text fill="#FFFFFF" font-family="FangSong,FangSong_MSFontService,sans-serif" font-weight="400" font-size="27" transform="matrix(0.34625 0 0 0.345556 272.873 176)">假设</text><text fill="#FFFFFF" font-family="FangSong,FangSong_MSFontService,sans-serif" font-weight="400" font-size="27" transform="matrix(0.34625 0 0 0.345556 295.956 176)">(</text><text fill="#FFFFFF" font-family="FangSong,FangSong_MSFontService,sans-serif" font-weight="400" font-size="27" transform="matrix(0.34625 0 0 0.345556 300.573 176)">加法</text><text fill="#FFFFFF" font-family="FangSong,FangSong_MSFontService,sans-serif" font-weight="400" font-size="27" transform="matrix(0.34625 0 0 0.345556 319.039 176)">(</text><text fill="#FFFFFF" font-family="FangSong,FangSong_MSFontService,sans-serif" font-weight="400" font-size="27" transform="matrix(0.34625 0 0 0.345556 323.887 176)">2</text><text fill="#FFFFFF" font-family="FangSong,FangSong_MSFontService,sans-serif" font-weight="400" font-size="27" transform="matrix(0.34625 0 0 0.345556 328.734 176)">, </text><text fill="#FFFFFF" font-family="FangSong,FangSong_MSFontService,sans-serif" font-weight="400" font-size="27" transform="matrix(0.34625 0 0 0.345556 338.429 176)">3</text><text fill="#FFFFFF" font-family="FangSong,FangSong_MSFontService,sans-serif" font-weight="400" font-size="27" transform="matrix(0.34625 0 0 0.345556 343.277 176)">)</text><text fill="#FFFFFF" font-family="FangSong,FangSong_MSFontService,sans-serif" font-weight="400" font-size="27" transform="matrix(0.34625 0 0 0.345556 351.357 176)">等于</text><text fill="#FFFFFF" font-family="FangSong,FangSong_MSFontService,sans-serif" font-weight="400" font-size="27" transform="matrix(0.34625 0 0 0.345556 374.438 176)">5</text><text fill="#FFFFFF" font-family="FangSong,FangSong_MSFontService,sans-serif" font-weight="400" font-size="27" transform="matrix(0.34625 0 0 0.345556 379.286 176)">)</text><text fill="#FFFFFF" font-family="FangSong,FangSong_MSFontService,sans-serif" font-weight="400" font-size="27" transform="matrix(0.34625 0 0 0.345556 272.873 195)">假设</text><text fill="#FFFFFF" font-family="FangSong,FangSong_MSFontService,sans-serif" font-weight="400" font-size="27" transform="matrix(0.34625 0 0 0.345556 295.956 195)">(</text><text fill="#FFFFFF" font-family="FangSong,FangSong_MSFontService,sans-serif" font-weight="400" font-size="27" transform="matrix(0.34625 0 0 0.345556 300.573 195)">加法</text><text fill="#FFFFFF" font-family="FangSong,FangSong_MSFontService,sans-serif" font-weight="400" font-size="27" transform="matrix(0.34625 0 0 0.345556 319.039 195)">(</text><text fill="#FFFFFF" font-family="FangSong,FangSong_MSFontService,sans-serif" font-weight="400" font-size="27" transform="matrix(0.34625 0 0 0.345556 323.656 195)">-</text><text fill="#FFFFFF" font-family="FangSong,FangSong_MSFontService,sans-serif" font-weight="400" font-size="27" transform="matrix(0.34625 0 0 0.345556 328.273 195)">1</text><text fill="#FFFFFF" font-family="FangSong,FangSong_MSFontService,sans-serif" font-weight="400" font-size="27" transform="matrix(0.34625 0 0 0.345556 333.12 195)">, </text><text fill="#FFFFFF" font-family="FangSong,FangSong_MSFontService,sans-serif" font-weight="400" font-size="27" transform="matrix(0.34625 0 0 0.345556 342.815 195)">1</text><text fill="#FFFFFF" font-family="FangSong,FangSong_MSFontService,sans-serif" font-weight="400" font-size="27" transform="matrix(0.34625 0 0 0.345556 347.663 195)">)</text><text fill="#FFFFFF" font-family="FangSong,FangSong_MSFontService,sans-serif" font-weight="400" font-size="27" transform="matrix(0.34625 0 0 0.345556 355.973 195)">等于</text><text fill="#FFFFFF" font-family="FangSong,FangSong_MSFontService,sans-serif" font-weight="400" font-size="27" transform="matrix(0.34625 0 0 0.345556 379.057 195)">0</text><text fill="#FFFFFF" font-family="FangSong,FangSong_MSFontService,sans-serif" font-weight="400" font-size="27" transform="matrix(0.34625 0 0 0.345556 383.905 195)">)</text><text fill="#FFFFFF" font-family="Arial,Arial_MSFontService,sans-serif" font-weight="400" font-size="15" transform="matrix(2.12017e-17 0.345556 -0.34625 2.11592e-17 539.852 34)">PRESENTATION TITLE</text><text fill="#F79646" font-family="Arial,Arial_MSFontService,sans-serif" font-weight="400" font-size="27" transform="matrix(0.34625 0 0 0.345556 533.779 160)">16</text><text fill="#F79646" font-family="SimHei,SimHei_MSFontService,sans-serif" font-weight="400" font-size="27" transform="matrix(0.34625 0 0 0.345556 250.692 218)">实现方法</text><text fill="#F79646" font-family="Arial,Arial_MSFontService,sans-serif" font-weight="400" font-size="23" transform="matrix(0.34625 0 0 0.345556 254.406 238)">•</text><text fill="#FFFFFF" font-family="SimHei,SimHei_MSFontService,sans-serif" font-weight="400" font-size="23" transform="matrix(0.34625 0 0 0.345556 267.39 238)">内置测试框架工具</text><text fill="#FFFFFF" font-family="SimHei,SimHei_MSFontService,sans-serif" font-weight="400" font-size="23" transform="matrix(0.34625 0 0 0.345556 333.87 238)">，</text><text fill="#FFFFFF" font-family="SimHei,SimHei_MSFontService,sans-serif" font-weight="400" font-size="23" transform="matrix(0.34625 0 0 0.345556 342.18 238)">类似</text><text fill="#FFFFFF" font-family="Arial,Arial_MSFontService,sans-serif" font-weight="400" font-size="23" transform="matrix(0.34625 0 0 0.345556 358.497 238)">Python</text><text fill="#FFFFFF" font-family="SimHei,SimHei_MSFontService,sans-serif" font-weight="400" font-size="23" transform="matrix(0.34625 0 0 0.345556 385.837 238)">的</text><text fill="#FFFFFF" font-family="Arial,Arial_MSFontService,sans-serif" font-weight="400" font-size="23" transform="matrix(0.34625 0 0 0.345556 396.152 238)">unittest</text><text fill="#FFFFFF" font-family="SimHei,SimHei_MSFontService,sans-serif" font-weight="400" font-size="23" transform="matrix(0.34625 0 0 0.345556 424.357 238)">或</text><text fill="#FFFFFF" font-family="Arial,Arial_MSFontService,sans-serif" font-weight="400" font-size="23" transform="matrix(0.34625 0 0 0.345556 434.672 238)">Rust</text><text fill="#FFFFFF" font-family="SimHei,SimHei_MSFontService,sans-serif" font-weight="400" font-size="23" transform="matrix(0.34625 0 0 0.345556 453.501 238)">的</text><text fill="#FFFFFF" font-family="Arial,Arial_MSFontService,sans-serif" font-weight="400" font-size="23" transform="matrix(0.34625 0 0 0.345556 267.39 253)">cargo test</text><text fill="#FFFFFF" font-family="SimHei,SimHei_MSFontService,sans-serif" font-weight="400" font-size="23" transform="matrix(0.34625 0 0 0.345556 302.737 253)">。</text></g></svg>