<svg width="554" height="311" xmlns="http://www.w3.org/2000/svg" xmlns:xlink="http://www.w3.org/1999/xlink" xml:space="preserve" overflow="hidden"><defs><clipPath id="clip0"><rect x="0" y="0" width="554" height="311"/></clipPath><clipPath id="clip1"><path d="M-404.385-145.279 277.021-274.881 406.885 405.16-274.524 534.761Z"/></clipPath><linearGradient x1="-65.9745" y1="-95.9566" x2="41.9674" y2="190.02" gradientUnits="userSpaceOnUse" spreadMethod="pad" id="fill2"><stop offset="0" stop-color="#FF0000"/><stop offset="1" stop-color="#0565FF"/></linearGradient><linearGradient x1="-62.312" y1="-97.3817" x2="45.6451" y2="188.645" gradientUnits="userSpaceOnUse" spreadMethod="pad" id="fill3"><stop offset="0" stop-color="#FF0000"/><stop offset="1" stop-color="#0565FF"/></linearGradient><linearGradient x1="-58.6159" y1="-98.7836" x2="49.3481" y2="187.248" gradientUnits="userSpaceOnUse" spreadMethod="pad" id="fill4"><stop offset="0" stop-color="#FF0000"/><stop offset="1" stop-color="#0565FF"/></linearGradient><linearGradient x1="-54.8694" y1="-100.137" x2="53.0635" y2="185.824" gradientUnits="userSpaceOnUse" spreadMethod="pad" id="fill5"><stop offset="0" stop-color="#FF0000"/><stop offset="1" stop-color="#0565FF"/></linearGradient><linearGradient x1="-51.1277" y1="-101.577" x2="56.8228" y2="184.416" gradientUnits="userSpaceOnUse" spreadMethod="pad" id="fill6"><stop offset="0" stop-color="#FF0000"/><stop offset="1" stop-color="#0565FF"/></linearGradient><linearGradient x1="-47.3401" y1="-102.99" x2="60.6018" y2="182.987" gradientUnits="userSpaceOnUse" spreadMethod="pad" id="fill7"><stop offset="0" stop-color="#FF0000"/><stop offset="1" stop-color="#0565FF"/></linearGradient><linearGradient x1="-43.5587" y1="-104.438" x2="64.3874" y2="181.561" gradientUnits="userSpaceOnUse" spreadMethod="pad" id="fill8"><stop offset="0" stop-color="#FF0000"/><stop offset="1" stop-color="#0565FF"/></linearGradient><linearGradient x1="-40.3108" y1="-105.638" x2="67.6245" y2="180.335" gradientUnits="userSpaceOnUse" spreadMethod="pad" id="fill9"><stop offset="0" stop-color="#FF0000"/><stop offset="1" stop-color="#0565FF"/></linearGradient><linearGradient x1="-36.5169" y1="-107.082" x2="71.426" y2="178.901" gradientUnits="userSpaceOnUse" spreadMethod="pad" id="fill10"><stop offset="0" stop-color="#FF0000"/><stop offset="1" stop-color="#0565FF"/></linearGradient><linearGradient x1="-32.7032" y1="-108.512" x2="75.2319" y2="177.46" gradientUnits="userSpaceOnUse" spreadMethod="pad" id="fill11"><stop offset="0" stop-color="#FF0000"/><stop offset="1" stop-color="#0565FF"/></linearGradient><linearGradient x1="-28.9131" y1="-109.944" x2="79.0275" y2="176.027" gradientUnits="userSpaceOnUse" spreadMethod="pad" id="fill12"><stop offset="0" stop-color="#FF0000"/><stop offset="1" stop-color="#0565FF"/></linearGradient><linearGradient x1="-25.1375" y1="-111.391" x2="82.8086" y2="174.609" gradientUnits="userSpaceOnUse" spreadMethod="pad" id="fill13"><stop offset="0" stop-color="#FF0000"/><stop offset="1" stop-color="#0565FF"/></linearGradient><linearGradient x1="-21.3724" y1="-112.8" x2="86.5717" y2="173.189" gradientUnits="userSpaceOnUse" spreadMethod="pad" id="fill14"><stop offset="0" stop-color="#FF0000"/><stop offset="1" stop-color="#0565FF"/></linearGradient><linearGradient x1="-17.6275" y1="-114.223" x2="90.3186" y2="171.777" gradientUnits="userSpaceOnUse" spreadMethod="pad" id="fill15"><stop offset="0" stop-color="#FF0000"/><stop offset="1" stop-color="#0565FF"/></linearGradient><linearGradient x1="-13.919" y1="-115.621" x2="94.0329" y2="170.377" gradientUnits="userSpaceOnUse" spreadMethod="pad" id="fill16"><stop offset="0" stop-color="#FF0000"/><stop offset="1" stop-color="#0565FF"/></linearGradient><linearGradient x1="-10.2468" y1="-116.995" x2="97.6962" y2="168.987" gradientUnits="userSpaceOnUse" spreadMethod="pad" id="fill17"><stop offset="0" stop-color="#FF0000"/><stop offset="1" stop-color="#0565FF"/></linearGradient><linearGradient x1="-6.62208" y1="-118.372" x2="101.323" y2="167.622" gradientUnits="userSpaceOnUse" spreadMethod="pad" id="fill18"><stop offset="0" stop-color="#FF0000"/><stop offset="1" stop-color="#0565FF"/></linearGradient><linearGradient x1="-66.1003" y1="-95.9093" x2="41.8416" y2="190.068" gradientUnits="userSpaceOnUse" spreadMethod="pad" id="fill19"><stop offset="0" stop-color="#FF0000"/><stop offset="1" stop-color="#0565FF"/></linearGradient><linearGradient x1="-62.7912" y1="-97.22" x2="45.1758" y2="188.828" gradientUnits="userSpaceOnUse" spreadMethod="pad" id="fill20"><stop offset="0" stop-color="#FF0000"/><stop offset="1" stop-color="#0565FF"/></linearGradient><linearGradient x1="-59.4604" y1="-98.4467" x2="48.4946" y2="187.569" gradientUnits="userSpaceOnUse" spreadMethod="pad" id="fill21"><stop offset="0" stop-color="#FF0000"/><stop offset="1" stop-color="#0565FF"/></linearGradient><linearGradient x1="-56.1286" y1="-99.6682" x2="51.8064" y2="186.304" gradientUnits="userSpaceOnUse" spreadMethod="pad" id="fill22"><stop offset="0" stop-color="#FF0000"/><stop offset="1" stop-color="#0565FF"/></linearGradient><linearGradient x1="-52.8289" y1="-100.936" x2="55.1172" y2="185.064" gradientUnits="userSpaceOnUse" spreadMethod="pad" id="fill23"><stop offset="0" stop-color="#FF0000"/><stop offset="1" stop-color="#0565FF"/></linearGradient><linearGradient x1="-49.5392" y1="-102.132" x2="58.3906" y2="183.812" gradientUnits="userSpaceOnUse" spreadMethod="pad" id="fill24"><stop offset="0" stop-color="#FF0000"/><stop offset="1" stop-color="#0565FF"/></linearGradient><linearGradient x1="-46.2847" y1="-103.391" x2="61.6571" y2="182.586" gradientUnits="userSpaceOnUse" spreadMethod="pad" id="fill25"><stop offset="0" stop-color="#FF0000"/><stop offset="1" stop-color="#0565FF"/></linearGradient><linearGradient x1="-43.5182" y1="-104.44" x2="64.4306" y2="181.541" gradientUnits="userSpaceOnUse" spreadMethod="pad" id="fill26"><stop offset="0" stop-color="#FF0000"/><stop offset="1" stop-color="#0565FF"/></linearGradient><linearGradient x1="-40.299" y1="-105.669" x2="67.6525" y2="180.33" gradientUnits="userSpaceOnUse" spreadMethod="pad" id="fill27"><stop offset="0" stop-color="#FF0000"/><stop offset="1" stop-color="#0565FF"/></linearGradient><linearGradient x1="-37.1075" y1="-106.858" x2="70.8354" y2="179.125" gradientUnits="userSpaceOnUse" spreadMethod="pad" id="fill28"><stop offset="0" stop-color="#FF0000"/><stop offset="1" stop-color="#0565FF"/></linearGradient><linearGradient x1="-33.9521" y1="-108.051" x2="73.9907" y2="177.931" gradientUnits="userSpaceOnUse" spreadMethod="pad" id="fill29"><stop offset="0" stop-color="#FF0000"/><stop offset="1" stop-color="#0565FF"/></linearGradient><linearGradient x1="-30.8317" y1="-109.244" x2="77.1211" y2="176.76" gradientUnits="userSpaceOnUse" spreadMethod="pad" id="fill30"><stop offset="0" stop-color="#FF0000"/><stop offset="1" stop-color="#0565FF"/></linearGradient><linearGradient x1="-27.7398" y1="-110.402" x2="80.2052" y2="175.592" gradientUnits="userSpaceOnUse" spreadMethod="pad" id="fill31"><stop offset="0" stop-color="#FF0000"/><stop offset="1" stop-color="#0565FF"/></linearGradient><linearGradient x1="-24.6967" y1="-111.539" x2="83.245" y2="174.438" gradientUnits="userSpaceOnUse" spreadMethod="pad" id="fill32"><stop offset="0" stop-color="#FF0000"/><stop offset="1" stop-color="#0565FF"/></linearGradient><linearGradient x1="-21.6999" y1="-112.673" x2="86.2486" y2="173.309" gradientUnits="userSpaceOnUse" spreadMethod="pad" id="fill33"><stop offset="0" stop-color="#FF0000"/><stop offset="1" stop-color="#0565FF"/></linearGradient><linearGradient x1="-18.7484" y1="-113.798" x2="89.2024" y2="172.195" gradientUnits="userSpaceOnUse" spreadMethod="pad" id="fill34"><stop offset="0" stop-color="#FF0000"/><stop offset="1" stop-color="#0565FF"/></linearGradient><linearGradient x1="-15.8379" y1="-114.892" x2="92.1061" y2="171.096" gradientUnits="userSpaceOnUse" spreadMethod="pad" id="fill35"><stop offset="0" stop-color="#FF0000"/><stop offset="1" stop-color="#0565FF"/></linearGradient><linearGradient x1="-23.6655" y1="112.386" x2="26.6604" y2="-18.7665" gradientUnits="userSpaceOnUse" spreadMethod="pad" id="fill36"><stop offset="0" stop-color="#FF0000"/><stop offset="1" stop-color="#0565FF"/></linearGradient><linearGradient x1="-17.7515" y1="114.654" x2="32.5687" y2="-16.4979" gradientUnits="userSpaceOnUse" spreadMethod="pad" id="fill37"><stop offset="0" stop-color="#FF0000"/><stop offset="1" stop-color="#0565FF"/></linearGradient><linearGradient x1="-5.25272" y1="119.448" x2="45.0674" y2="-11.7037" gradientUnits="userSpaceOnUse" spreadMethod="pad" id="fill38"><stop offset="0" stop-color="#FF0000"/><stop offset="1" stop-color="#0565FF"/></linearGradient><linearGradient x1="6.5122" y1="123.96" x2="56.8325" y2="-7.19174" gradientUnits="userSpaceOnUse" spreadMethod="pad" id="fill39"><stop offset="0" stop-color="#FF0000"/><stop offset="1" stop-color="#0565FF"/></linearGradient><linearGradient x1="-20.516" y1="113.592" x2="29.8031" y2="-17.5655" gradientUnits="userSpaceOnUse" spreadMethod="pad" id="fill40"><stop offset="0" stop-color="#FF0000"/><stop offset="1" stop-color="#0565FF"/></linearGradient><linearGradient x1="-19.8519" y1="113.846" x2="30.4683" y2="-17.3053" gradientUnits="userSpaceOnUse" spreadMethod="pad" id="fill41"><stop offset="0" stop-color="#FF0000"/><stop offset="1" stop-color="#0565FF"/></linearGradient><linearGradient x1="-15.9561" y1="115.338" x2="34.3641" y2="-15.814" gradientUnits="userSpaceOnUse" spreadMethod="pad" id="fill42"><stop offset="0" stop-color="#FF0000"/><stop offset="1" stop-color="#0565FF"/></linearGradient><linearGradient x1="-13.6475" y1="116.223" x2="36.6728" y2="-14.929" gradientUnits="userSpaceOnUse" spreadMethod="pad" id="fill43"><stop offset="0" stop-color="#FF0000"/><stop offset="1" stop-color="#0565FF"/></linearGradient><linearGradient x1="-12.2293" y1="116.773" x2="38.0909" y2="-14.3784" gradientUnits="userSpaceOnUse" spreadMethod="pad" id="fill44"><stop offset="0" stop-color="#FF0000"/><stop offset="1" stop-color="#0565FF"/></linearGradient><linearGradient x1="-4.80361" y1="119.62" x2="45.5166" y2="-11.5313" gradientUnits="userSpaceOnUse" spreadMethod="pad" id="fill45"><stop offset="0" stop-color="#FF0000"/><stop offset="1" stop-color="#0565FF"/></linearGradient><linearGradient x1="-2.90016" y1="120.348" x2="47.4199" y2="-10.8035" gradientUnits="userSpaceOnUse" spreadMethod="pad" id="fill46"><stop offset="0" stop-color="#FF0000"/><stop offset="1" stop-color="#0565FF"/></linearGradient><linearGradient x1="0.301051" y1="121.579" x2="50.6211" y2="-9.57265" gradientUnits="userSpaceOnUse" spreadMethod="pad" id="fill47"><stop offset="0" stop-color="#FF0000"/><stop offset="1" stop-color="#0565FF"/></linearGradient><linearGradient x1="2.1223" y1="122.276" x2="52.4425" y2="-8.87615" gradientUnits="userSpaceOnUse" spreadMethod="pad" id="fill48"><stop offset="0" stop-color="#FF0000"/><stop offset="1" stop-color="#0565FF"/></linearGradient><linearGradient x1="3.6914" y1="122.88" x2="54.0117" y2="-8.27229" gradientUnits="userSpaceOnUse" spreadMethod="pad" id="fill49"><stop offset="0" stop-color="#FF0000"/><stop offset="1" stop-color="#0565FF"/></linearGradient><linearGradient x1="3.85575" y1="122.942" x2="54.1817" y2="-8.21092" gradientUnits="userSpaceOnUse" spreadMethod="pad" id="fill50"><stop offset="0" stop-color="#FF0000"/><stop offset="1" stop-color="#0565FF"/></linearGradient><linearGradient x1="6.95566" y1="124.134" x2="57.2758" y2="-7.01827" gradientUnits="userSpaceOnUse" spreadMethod="pad" id="fill51"><stop offset="0" stop-color="#FF0000"/><stop offset="1" stop-color="#0565FF"/></linearGradient><linearGradient x1="11.4716" y1="125.864" x2="61.7919" y2="-5.28752" gradientUnits="userSpaceOnUse" spreadMethod="pad" id="fill52"><stop offset="0" stop-color="#FF0000"/><stop offset="1" stop-color="#0565FF"/></linearGradient><linearGradient x1="10.8514" y1="125.625" x2="61.1716" y2="-5.52695" gradientUnits="userSpaceOnUse" spreadMethod="pad" id="fill53"><stop offset="0" stop-color="#FF0000"/><stop offset="1" stop-color="#0565FF"/></linearGradient><linearGradient x1="14.0842" y1="126.867" x2="64.4043" y2="-4.28451" gradientUnits="userSpaceOnUse" spreadMethod="pad" id="fill54"><stop offset="0" stop-color="#FF0000"/><stop offset="1" stop-color="#0565FF"/></linearGradient><linearGradient x1="17.7593" y1="128.277" x2="68.0796" y2="-2.87426" gradientUnits="userSpaceOnUse" spreadMethod="pad" id="fill55"><stop offset="0" stop-color="#FF0000"/><stop offset="1" stop-color="#0565FF"/></linearGradient><linearGradient x1="15.6904" y1="127.482" x2="66.0108" y2="-3.67014" gradientUnits="userSpaceOnUse" spreadMethod="pad" id="fill56"><stop offset="0" stop-color="#FF0000"/><stop offset="1" stop-color="#0565FF"/></linearGradient><linearGradient x1="19.5175" y1="128.951" x2="69.8378" y2="-2.20091" gradientUnits="userSpaceOnUse" spreadMethod="pad" id="fill57"><stop offset="0" stop-color="#FF0000"/><stop offset="1" stop-color="#0565FF"/></linearGradient><linearGradient x1="22.1615" y1="129.966" x2="72.4817" y2="-1.18632" gradientUnits="userSpaceOnUse" spreadMethod="pad" id="fill58"><stop offset="0" stop-color="#FF0000"/><stop offset="1" stop-color="#0565FF"/></linearGradient><linearGradient x1="24.7808" y1="130.973" x2="75.101" y2="-0.178732" gradientUnits="userSpaceOnUse" spreadMethod="pad" id="fill59"><stop offset="0" stop-color="#FF0000"/><stop offset="1" stop-color="#0565FF"/></linearGradient><linearGradient x1="21.9151" y1="129.872" x2="72.2408" y2="-1.28113" gradientUnits="userSpaceOnUse" spreadMethod="pad" id="fill60"><stop offset="0" stop-color="#FF0000"/><stop offset="1" stop-color="#0565FF"/></linearGradient><linearGradient x1="27.4249" y1="131.988" x2="77.7452" y2="0.835859" gradientUnits="userSpaceOnUse" spreadMethod="pad" id="fill61"><stop offset="0" stop-color="#FF0000"/><stop offset="1" stop-color="#0565FF"/></linearGradient><linearGradient x1="-15.5003" y1="115.515" x2="34.8199" y2="-15.637" gradientUnits="userSpaceOnUse" spreadMethod="pad" id="fill62"><stop offset="0" stop-color="#FF0000"/><stop offset="1" stop-color="#0565FF"/></linearGradient><linearGradient x1="-12.1291" y1="116.807" x2="38.1911" y2="-14.3448" gradientUnits="userSpaceOnUse" spreadMethod="pad" id="fill63"><stop offset="0" stop-color="#FF0000"/><stop offset="1" stop-color="#0565FF"/></linearGradient><linearGradient x1="-8.80849" y1="118.079" x2="41.5116" y2="-13.0722" gradientUnits="userSpaceOnUse" spreadMethod="pad" id="fill64"><stop offset="0" stop-color="#FF0000"/><stop offset="1" stop-color="#0565FF"/></linearGradient><linearGradient x1="-5.5499" y1="119.334" x2="44.7702" y2="-11.817" gradientUnits="userSpaceOnUse" spreadMethod="pad" id="fill65"><stop offset="0" stop-color="#FF0000"/><stop offset="1" stop-color="#0565FF"/></linearGradient><linearGradient x1="-2.34974" y1="120.56" x2="47.9704" y2="-10.5918" gradientUnits="userSpaceOnUse" spreadMethod="pad" id="fill66"><stop offset="0" stop-color="#FF0000"/><stop offset="1" stop-color="#0565FF"/></linearGradient><linearGradient x1="0.117579" y1="121.508" x2="50.4376" y2="-9.64325" gradientUnits="userSpaceOnUse" spreadMethod="pad" id="fill67"><stop offset="0" stop-color="#FF0000"/><stop offset="1" stop-color="#0565FF"/></linearGradient><linearGradient x1="3.849" y1="122.937" x2="54.1693" y2="-8.21441" gradientUnits="userSpaceOnUse" spreadMethod="pad" id="fill68"><stop offset="0" stop-color="#FF0000"/><stop offset="1" stop-color="#0565FF"/></linearGradient><linearGradient x1="6.85434" y1="124.094" x2="57.1746" y2="-7.05759" gradientUnits="userSpaceOnUse" spreadMethod="pad" id="fill69"><stop offset="0" stop-color="#FF0000"/><stop offset="1" stop-color="#0565FF"/></linearGradient><linearGradient x1="9.76972" y1="125.209" x2="60.09" y2="-5.94228" gradientUnits="userSpaceOnUse" spreadMethod="pad" id="fill70"><stop offset="0" stop-color="#FF0000"/><stop offset="1" stop-color="#0565FF"/></linearGradient><linearGradient x1="12.6288" y1="126.306" x2="62.9488" y2="-4.84552" gradientUnits="userSpaceOnUse" spreadMethod="pad" id="fill71"><stop offset="0" stop-color="#FF0000"/><stop offset="1" stop-color="#0565FF"/></linearGradient><linearGradient x1="15.4067" y1="127.377" x2="65.7271" y2="-3.77437" gradientUnits="userSpaceOnUse" spreadMethod="pad" id="fill72"><stop offset="0" stop-color="#FF0000"/><stop offset="1" stop-color="#0565FF"/></linearGradient><linearGradient x1="18.0621" y1="128.39" x2="68.3823" y2="-2.76194" gradientUnits="userSpaceOnUse" spreadMethod="pad" id="fill73"><stop offset="0" stop-color="#FF0000"/><stop offset="1" stop-color="#0565FF"/></linearGradient><linearGradient x1="20.7061" y1="129.404" x2="71.0265" y2="-1.74735" gradientUnits="userSpaceOnUse" spreadMethod="pad" id="fill74"><stop offset="0" stop-color="#FF0000"/><stop offset="1" stop-color="#0565FF"/></linearGradient><linearGradient x1="23.1802" y1="130.357" x2="73.5004" y2="-0.794168" gradientUnits="userSpaceOnUse" spreadMethod="pad" id="fill75"><stop offset="0" stop-color="#FF0000"/><stop offset="1" stop-color="#0565FF"/></linearGradient><linearGradient x1="23.5089" y1="130.482" x2="73.829" y2="-0.669192" gradientUnits="userSpaceOnUse" spreadMethod="pad" id="fill76"><stop offset="0" stop-color="#FF0000"/><stop offset="1" stop-color="#0565FF"/></linearGradient><linearGradient x1="27.551" y1="132.034" x2="77.8713" y2="0.882191" gradientUnits="userSpaceOnUse" spreadMethod="pad" id="fill77"><stop offset="0" stop-color="#FF0000"/><stop offset="1" stop-color="#0565FF"/></linearGradient><linearGradient x1="29.7898" y1="132.891" x2="80.1101" y2="1.73948" gradientUnits="userSpaceOnUse" spreadMethod="pad" id="fill78"><stop offset="0" stop-color="#FF0000"/><stop offset="1" stop-color="#0565FF"/></linearGradient><linearGradient x1="31.9217" y1="133.71" x2="82.2419" y2="2.55854" gradientUnits="userSpaceOnUse" spreadMethod="pad" id="fill79"><stop offset="0" stop-color="#FF0000"/><stop offset="1" stop-color="#0565FF"/></linearGradient><linearGradient x1="33.9084" y1="134.475" x2="84.2285" y2="3.32319" gradientUnits="userSpaceOnUse" spreadMethod="pad" id="fill80"><stop offset="0" stop-color="#FF0000"/><stop offset="1" stop-color="#0565FF"/></linearGradient><linearGradient x1="35.812" y1="135.203" x2="86.1321" y2="4.05095" gradientUnits="userSpaceOnUse" spreadMethod="pad" id="fill81"><stop offset="0" stop-color="#FF0000"/><stop offset="1" stop-color="#0565FF"/></linearGradient><linearGradient x1="37.6151" y1="135.897" x2="87.9352" y2="4.74503" gradientUnits="userSpaceOnUse" spreadMethod="pad" id="fill82"><stop offset="0" stop-color="#FF0000"/><stop offset="1" stop-color="#0565FF"/></linearGradient><linearGradient x1="39.2845" y1="136.534" x2="89.6102" y2="5.38144" gradientUnits="userSpaceOnUse" spreadMethod="pad" id="fill83"><stop offset="0" stop-color="#FF0000"/><stop offset="1" stop-color="#0565FF"/></linearGradient><linearGradient x1="40.7959" y1="137.114" x2="91.1164" y2="5.96215" gradientUnits="userSpaceOnUse" spreadMethod="pad" id="fill84"><stop offset="0" stop-color="#FF0000"/><stop offset="1" stop-color="#0565FF"/></linearGradient><linearGradient x1="42.2255" y1="137.662" x2="92.5457" y2="6.51051" gradientUnits="userSpaceOnUse" spreadMethod="pad" id="fill85"><stop offset="0" stop-color="#FF0000"/><stop offset="1" stop-color="#0565FF"/></linearGradient><linearGradient x1="-11.485" y1="153.257" x2="-640.833" y2="470.073" gradientUnits="userSpaceOnUse" spreadMethod="pad" id="fill86"><stop offset="0" stop-color="#FF0000"/><stop offset="1" stop-color="#0565FF"/></linearGradient><linearGradient x1="-10.6395" y1="154.925" x2="-639.993" y2="471.742" gradientUnits="userSpaceOnUse" spreadMethod="pad" id="fill87"><stop offset="0" stop-color="#FF0000"/><stop offset="1" stop-color="#0565FF"/></linearGradient><linearGradient x1="-9.87177" y1="156.462" x2="-639.222" y2="473.28" gradientUnits="userSpaceOnUse" spreadMethod="pad" id="fill88"><stop offset="0" stop-color="#FF0000"/><stop offset="1" stop-color="#0565FF"/></linearGradient><linearGradient x1="-9.16713" y1="157.852" x2="-638.518" y2="474.669" gradientUnits="userSpaceOnUse" spreadMethod="pad" id="fill89"><stop offset="0" stop-color="#FF0000"/><stop offset="1" stop-color="#0565FF"/></linearGradient><linearGradient x1="-8.54252" y1="159.099" x2="-637.892" y2="475.923" gradientUnits="userSpaceOnUse" spreadMethod="pad" id="fill90"><stop offset="0" stop-color="#FF0000"/><stop offset="1" stop-color="#0565FF"/></linearGradient><linearGradient x1="-7.98553" y1="160.206" x2="-637.332" y2="477.022" gradientUnits="userSpaceOnUse" spreadMethod="pad" id="fill91"><stop offset="0" stop-color="#FF0000"/><stop offset="1" stop-color="#0565FF"/></linearGradient><linearGradient x1="-7.49728" y1="161.168" x2="-636.849" y2="477.986" gradientUnits="userSpaceOnUse" spreadMethod="pad" id="fill92"><stop offset="0" stop-color="#FF0000"/><stop offset="1" stop-color="#0565FF"/></linearGradient><linearGradient x1="-7.09013" y1="161.982" x2="-636.441" y2="478.802" gradientUnits="userSpaceOnUse" spreadMethod="pad" id="fill93"><stop offset="0" stop-color="#FF0000"/><stop offset="1" stop-color="#0565FF"/></linearGradient><linearGradient x1="-6.75167" y1="162.65" x2="-636.102" y2="479.469" gradientUnits="userSpaceOnUse" spreadMethod="pad" id="fill94"><stop offset="0" stop-color="#FF0000"/><stop offset="1" stop-color="#0565FF"/></linearGradient><linearGradient x1="-6.49543" y1="163.164" x2="-635.846" y2="479.984" gradientUnits="userSpaceOnUse" spreadMethod="pad" id="fill95"><stop offset="0" stop-color="#FF0000"/><stop offset="1" stop-color="#0565FF"/></linearGradient><linearGradient x1="-6.32783" y1="163.49" x2="-635.68" y2="480.308" gradientUnits="userSpaceOnUse" spreadMethod="pad" id="fill96"><stop offset="0" stop-color="#FF0000"/><stop offset="1" stop-color="#0565FF"/></linearGradient><linearGradient x1="-6.20467" y1="163.736" x2="-635.556" y2="480.554" gradientUnits="userSpaceOnUse" spreadMethod="pad" id="fill97"><stop offset="0" stop-color="#FF0000"/><stop offset="1" stop-color="#0565FF"/></linearGradient><linearGradient x1="-6.16584" y1="163.817" x2="-635.518" y2="480.637" gradientUnits="userSpaceOnUse" spreadMethod="pad" id="fill98"><stop offset="0" stop-color="#FF0000"/><stop offset="1" stop-color="#0565FF"/></linearGradient><linearGradient x1="-6.19469" y1="163.758" x2="-635.546" y2="480.574" gradientUnits="userSpaceOnUse" spreadMethod="pad" id="fill99"><stop offset="0" stop-color="#FF0000"/><stop offset="1" stop-color="#0565FF"/></linearGradient><linearGradient x1="-6.28901" y1="163.57" x2="-635.643" y2="480.388" gradientUnits="userSpaceOnUse" spreadMethod="pad" id="fill100"><stop offset="0" stop-color="#FF0000"/><stop offset="1" stop-color="#0565FF"/></linearGradient><linearGradient x1="-6.4577" y1="163.239" x2="-635.805" y2="480.056" gradientUnits="userSpaceOnUse" spreadMethod="pad" id="fill101"><stop offset="0" stop-color="#FF0000"/><stop offset="1" stop-color="#0565FF"/></linearGradient><linearGradient x1="-6.70293" y1="162.752" x2="-636.05" y2="479.569" gradientUnits="userSpaceOnUse" spreadMethod="pad" id="fill102"><stop offset="0" stop-color="#FF0000"/><stop offset="1" stop-color="#0565FF"/></linearGradient><linearGradient x1="-7.02357" y1="162.116" x2="-636.375" y2="478.933" gradientUnits="userSpaceOnUse" spreadMethod="pad" id="fill103"><stop offset="0" stop-color="#FF0000"/><stop offset="1" stop-color="#0565FF"/></linearGradient><linearGradient x1="-7.42182" y1="161.318" x2="-636.772" y2="478.135" gradientUnits="userSpaceOnUse" spreadMethod="pad" id="fill104"><stop offset="0" stop-color="#FF0000"/><stop offset="1" stop-color="#0565FF"/></linearGradient><linearGradient x1="-7.9023" y1="160.366" x2="-637.253" y2="477.185" gradientUnits="userSpaceOnUse" spreadMethod="pad" id="fill105"><stop offset="0" stop-color="#FF0000"/><stop offset="1" stop-color="#0565FF"/></linearGradient><linearGradient x1="18.7209" y1="213.247" x2="-610.631" y2="530.072" gradientUnits="userSpaceOnUse" spreadMethod="pad" id="fill106"><stop offset="0" stop-color="#FF0000"/><stop offset="1" stop-color="#0565FF"/></linearGradient><linearGradient x1="19.9135" y1="215.629" x2="-609.432" y2="532.446" gradientUnits="userSpaceOnUse" spreadMethod="pad" id="fill107"><stop offset="0" stop-color="#FF0000"/><stop offset="1" stop-color="#0565FF"/></linearGradient><linearGradient x1="21.0253" y1="217.832" x2="-608.326" y2="534.65" gradientUnits="userSpaceOnUse" spreadMethod="pad" id="fill108"><stop offset="0" stop-color="#FF0000"/><stop offset="1" stop-color="#0565FF"/></linearGradient><linearGradient x1="22.0428" y1="219.849" x2="-607.31" y2="536.668" gradientUnits="userSpaceOnUse" spreadMethod="pad" id="fill109"><stop offset="0" stop-color="#FF0000"/><stop offset="1" stop-color="#0565FF"/></linearGradient><linearGradient x1="22.9682" y1="221.689" x2="-606.384" y2="538.507" gradientUnits="userSpaceOnUse" spreadMethod="pad" id="fill110"><stop offset="0" stop-color="#FF0000"/><stop offset="1" stop-color="#0565FF"/></linearGradient><linearGradient x1="23.7981" y1="223.337" x2="-605.555" y2="540.155" gradientUnits="userSpaceOnUse" spreadMethod="pad" id="fill111"><stop offset="0" stop-color="#FF0000"/><stop offset="1" stop-color="#0565FF"/></linearGradient><linearGradient x1="24.527" y1="224.793" x2="-604.826" y2="541.61" gradientUnits="userSpaceOnUse" spreadMethod="pad" id="fill112"><stop offset="0" stop-color="#FF0000"/><stop offset="1" stop-color="#0565FF"/></linearGradient><linearGradient x1="25.1661" y1="226.055" x2="-604.187" y2="542.875" gradientUnits="userSpaceOnUse" spreadMethod="pad" id="fill113"><stop offset="0" stop-color="#FF0000"/><stop offset="1" stop-color="#0565FF"/></linearGradient><linearGradient x1="25.6975" y1="227.12" x2="-603.648" y2="543.939" gradientUnits="userSpaceOnUse" spreadMethod="pad" id="fill114"><stop offset="0" stop-color="#FF0000"/><stop offset="1" stop-color="#0565FF"/></linearGradient><linearGradient x1="26.0737" y1="227.863" x2="-603.278" y2="544.682" gradientUnits="userSpaceOnUse" spreadMethod="pad" id="fill115"><stop offset="0" stop-color="#FF0000"/><stop offset="1" stop-color="#0565FF"/></linearGradient><linearGradient x1="26.421" y1="228.548" x2="-602.932" y2="545.366" gradientUnits="userSpaceOnUse" spreadMethod="pad" id="fill116"><stop offset="0" stop-color="#FF0000"/><stop offset="1" stop-color="#0565FF"/></linearGradient><linearGradient x1="26.6573" y1="229.019" x2="-602.694" y2="545.836" gradientUnits="userSpaceOnUse" spreadMethod="pad" id="fill117"><stop offset="0" stop-color="#FF0000"/><stop offset="1" stop-color="#0565FF"/></linearGradient><linearGradient x1="26.7794" y1="229.259" x2="-602.573" y2="546.078" gradientUnits="userSpaceOnUse" spreadMethod="pad" id="fill118"><stop offset="0" stop-color="#FF0000"/><stop offset="1" stop-color="#0565FF"/></linearGradient><linearGradient x1="26.7726" y1="229.255" x2="-602.573" y2="546.071" gradientUnits="userSpaceOnUse" spreadMethod="pad" id="fill119"><stop offset="0" stop-color="#FF0000"/><stop offset="1" stop-color="#0565FF"/></linearGradient><linearGradient x1="26.6762" y1="229.056" x2="-602.68" y2="545.874" gradientUnits="userSpaceOnUse" spreadMethod="pad" id="fill120"><stop offset="0" stop-color="#FF0000"/><stop offset="1" stop-color="#0565FF"/></linearGradient><linearGradient x1="26.4698" y1="228.65" x2="-602.884" y2="545.466" gradientUnits="userSpaceOnUse" spreadMethod="pad" id="fill121"><stop offset="0" stop-color="#FF0000"/><stop offset="1" stop-color="#0565FF"/></linearGradient><linearGradient x1="26.1481" y1="228.008" x2="-603.205" y2="544.827" gradientUnits="userSpaceOnUse" spreadMethod="pad" id="fill122"><stop offset="0" stop-color="#FF0000"/><stop offset="1" stop-color="#0565FF"/></linearGradient><linearGradient x1="25.7042" y1="227.125" x2="-603.647" y2="543.942" gradientUnits="userSpaceOnUse" spreadMethod="pad" id="fill123"><stop offset="0" stop-color="#FF0000"/><stop offset="1" stop-color="#0565FF"/></linearGradient><linearGradient x1="25.1373" y1="225.996" x2="-604.214" y2="542.812" gradientUnits="userSpaceOnUse" spreadMethod="pad" id="fill124"><stop offset="0" stop-color="#FF0000"/><stop offset="1" stop-color="#0565FF"/></linearGradient><linearGradient x1="73.7457" y1="322.557" x2="-555.605" y2="639.375" gradientUnits="userSpaceOnUse" spreadMethod="pad" id="fill125"><stop offset="0" stop-color="#FF0000"/><stop offset="1" stop-color="#0565FF"/></linearGradient><linearGradient x1="76.0602" y1="327.164" x2="-553.286" y2="643.981" gradientUnits="userSpaceOnUse" spreadMethod="pad" id="fill126"><stop offset="0" stop-color="#FF0000"/><stop offset="1" stop-color="#0565FF"/></linearGradient><linearGradient x1="78.2649" y1="331.534" x2="-551.089" y2="648.352" gradientUnits="userSpaceOnUse" spreadMethod="pad" id="fill127"><stop offset="0" stop-color="#FF0000"/><stop offset="1" stop-color="#0565FF"/></linearGradient><linearGradient x1="80.3496" y1="335.675" x2="-549.008" y2="652.495" gradientUnits="userSpaceOnUse" spreadMethod="pad" id="fill128"><stop offset="0" stop-color="#FF0000"/><stop offset="1" stop-color="#0565FF"/></linearGradient><linearGradient x1="82.3047" y1="339.565" x2="-547.049" y2="656.383" gradientUnits="userSpaceOnUse" spreadMethod="pad" id="fill129"><stop offset="0" stop-color="#FF0000"/><stop offset="1" stop-color="#0565FF"/></linearGradient><linearGradient x1="84.1352" y1="343.203" x2="-545.218" y2="660.021" gradientUnits="userSpaceOnUse" spreadMethod="pad" id="fill130"><stop offset="0" stop-color="#FF0000"/><stop offset="1" stop-color="#0565FF"/></linearGradient><linearGradient x1="85.8339" y1="346.578" x2="-543.517" y2="663.398" gradientUnits="userSpaceOnUse" spreadMethod="pad" id="fill131"><stop offset="0" stop-color="#FF0000"/><stop offset="1" stop-color="#0565FF"/></linearGradient><linearGradient x1="87.3996" y1="349.685" x2="-541.945" y2="666.504" gradientUnits="userSpaceOnUse" spreadMethod="pad" id="fill132"><stop offset="0" stop-color="#FF0000"/><stop offset="1" stop-color="#0565FF"/></linearGradient><linearGradient x1="88.823" y1="352.512" x2="-540.525" y2="669.327" gradientUnits="userSpaceOnUse" spreadMethod="pad" id="fill133"><stop offset="0" stop-color="#FF0000"/><stop offset="1" stop-color="#0565FF"/></linearGradient><linearGradient x1="89.926" y1="354.699" x2="-539.426" y2="671.518" gradientUnits="userSpaceOnUse" spreadMethod="pad" id="fill134"><stop offset="0" stop-color="#FF0000"/><stop offset="1" stop-color="#0565FF"/></linearGradient><linearGradient x1="91.0767" y1="356.983" x2="-538.275" y2="673.802" gradientUnits="userSpaceOnUse" spreadMethod="pad" id="fill135"><stop offset="0" stop-color="#FF0000"/><stop offset="1" stop-color="#0565FF"/></linearGradient><linearGradient x1="92.0684" y1="358.956" x2="-537.284" y2="675.775" gradientUnits="userSpaceOnUse" spreadMethod="pad" id="fill136"><stop offset="0" stop-color="#FF0000"/><stop offset="1" stop-color="#0565FF"/></linearGradient><linearGradient x1="92.8985" y1="360.604" x2="-536.454" y2="677.424" gradientUnits="userSpaceOnUse" spreadMethod="pad" id="fill137"><stop offset="0" stop-color="#FF0000"/><stop offset="1" stop-color="#0565FF"/></linearGradient><linearGradient x1="93.5609" y1="361.928" x2="-535.791" y2="678.744" gradientUnits="userSpaceOnUse" spreadMethod="pad" id="fill138"><stop offset="0" stop-color="#FF0000"/><stop offset="1" stop-color="#0565FF"/></linearGradient><linearGradient x1="94.0322" y1="362.861" x2="-535.321" y2="679.68" gradientUnits="userSpaceOnUse" spreadMethod="pad" id="fill139"><stop offset="0" stop-color="#FF0000"/><stop offset="1" stop-color="#0565FF"/></linearGradient><linearGradient x1="94.3142" y1="363.417" x2="-535.037" y2="680.236" gradientUnits="userSpaceOnUse" spreadMethod="pad" id="fill140"><stop offset="0" stop-color="#FF0000"/><stop offset="1" stop-color="#0565FF"/></linearGradient><linearGradient x1="94.4075" y1="363.6" x2="-534.944" y2="680.42" gradientUnits="userSpaceOnUse" spreadMethod="pad" id="fill141"><stop offset="0" stop-color="#FF0000"/><stop offset="1" stop-color="#0565FF"/></linearGradient><linearGradient x1="94.3031" y1="363.39" x2="-535.048" y2="680.209" gradientUnits="userSpaceOnUse" spreadMethod="pad" id="fill142"><stop offset="0" stop-color="#FF0000"/><stop offset="1" stop-color="#0565FF"/></linearGradient><linearGradient x1="94.0111" y1="362.813" x2="-535.342" y2="679.632" gradientUnits="userSpaceOnUse" spreadMethod="pad" id="fill143"><stop offset="0" stop-color="#FF0000"/><stop offset="1" stop-color="#0565FF"/></linearGradient><linearGradient x1="362.153" y1="-151.271" x2="334.356" y2="-33.6638" gradientUnits="userSpaceOnUse" spreadMethod="pad" id="fill144"><stop offset="0" stop-color="#FF0000"/><stop offset="1" stop-color="#0565FF"/></linearGradient><linearGradient x1="341.74" y1="-156.093" x2="313.943" y2="-38.4859" gradientUnits="userSpaceOnUse" spreadMethod="pad" id="fill145"><stop offset="0" stop-color="#FF0000"/><stop offset="1" stop-color="#0565FF"/></linearGradient><linearGradient x1="410.116" y1="-152.52" x2="379.088" y2="-361.555" gradientUnits="userSpaceOnUse" spreadMethod="pad" id="fill146"><stop offset="0" stop-color="#FF0000"/><stop offset="1" stop-color="#0565FF"/></linearGradient><linearGradient x1="388.249" y1="-149.273" x2="357.218" y2="-358.307" gradientUnits="userSpaceOnUse" spreadMethod="pad" id="fill147"><stop offset="0" stop-color="#FF0000"/><stop offset="1" stop-color="#0565FF"/></linearGradient><linearGradient x1="364.554" y1="-145.754" x2="333.522" y2="-354.785" gradientUnits="userSpaceOnUse" spreadMethod="pad" id="fill148"><stop offset="0" stop-color="#FF0000"/><stop offset="1" stop-color="#0565FF"/></linearGradient><linearGradient x1="338.793" y1="-141.93" x2="307.768" y2="-350.964" gradientUnits="userSpaceOnUse" spreadMethod="pad" id="fill149"><stop offset="0" stop-color="#FF0000"/><stop offset="1" stop-color="#0565FF"/></linearGradient><clipPath id="clip150"><path d="M-447.282-194.629 234.124-324.23 363.985 355.812-317.422 485.412Z"/></clipPath><linearGradient x1="-57.8536" y1="165.969" x2="141.359" y2="-104.555" gradientUnits="userSpaceOnUse" spreadMethod="pad" id="fill151"><stop offset="0" stop-color="#0DFFFF"/><stop offset="1" stop-color="#0565FF"/></linearGradient><linearGradient x1="-43.3949" y1="176.617" x2="155.816" y2="-93.9134" gradientUnits="userSpaceOnUse" spreadMethod="pad" id="fill152"><stop offset="0" stop-color="#0DFFFF"/><stop offset="1" stop-color="#0565FF"/></linearGradient><linearGradient x1="29.8021" y1="56.1082" x2="-294.332" y2="962.206" gradientUnits="userSpaceOnUse" spreadMethod="pad" id="fill153"><stop offset="0" stop-color="#0DFFFF"/><stop offset="1" stop-color="#0565FF"/></linearGradient><linearGradient x1="68.3588" y1="69.9017" x2="-255.775" y2="976.001" gradientUnits="userSpaceOnUse" spreadMethod="pad" id="fill154"><stop offset="0" stop-color="#0DFFFF"/><stop offset="1" stop-color="#0565FF"/></linearGradient><linearGradient x1="82.5788" y1="74.9893" x2="-241.555" y2="981.087" gradientUnits="userSpaceOnUse" spreadMethod="pad" id="fill155"><stop offset="0" stop-color="#0DFFFF"/><stop offset="1" stop-color="#0565FF"/></linearGradient><linearGradient x1="79.0928" y1="73.7422" x2="-245.041" y2="979.84" gradientUnits="userSpaceOnUse" spreadMethod="pad" id="fill156"><stop offset="0" stop-color="#0DFFFF"/><stop offset="1" stop-color="#0565FF"/></linearGradient><linearGradient x1="117.316" y1="87.4763" x2="-206.818" y2="993.572" gradientUnits="userSpaceOnUse" spreadMethod="pad" id="fill157"><stop offset="0" stop-color="#0DFFFF"/><stop offset="1" stop-color="#0565FF"/></linearGradient><linearGradient x1="182.827" y1="110.849" x2="-141.307" y2="1016.95" gradientUnits="userSpaceOnUse" spreadMethod="pad" id="fill158"><stop offset="0" stop-color="#0DFFFF"/><stop offset="1" stop-color="#0565FF"/></linearGradient><linearGradient x1="194.813" y1="115.137" x2="-129.321" y2="1021.23" gradientUnits="userSpaceOnUse" spreadMethod="pad" id="fill159"><stop offset="0" stop-color="#0DFFFF"/><stop offset="1" stop-color="#0565FF"/></linearGradient><linearGradient x1="200.097" y1="117.026" x2="-124.036" y2="1023.12" gradientUnits="userSpaceOnUse" spreadMethod="pad" id="fill160"><stop offset="0" stop-color="#0DFFFF"/><stop offset="1" stop-color="#0565FF"/></linearGradient><linearGradient x1="435.255" y1="201.147" x2="111.122" y2="1107.25" gradientUnits="userSpaceOnUse" spreadMethod="pad" id="fill161"><stop offset="0" stop-color="#0DFFFF"/><stop offset="1" stop-color="#0565FF"/></linearGradient></defs><g clip-path="url(#clip0)"><path d="M0 0 552.889 0 552.889 311 0 311Z" fill="#4F81BD" transform="scale(1.00201 1)"/><g clip-path="url(#clip1)"><path d="M12.1002 113.181 12.0368 113.181 12.4342 113.123 12.8316 113.06 13.229 113.003 13.6207 112.939 13.8453 112.904 12.1175 113.169" fill="url(#fill2)" transform="scale(1.00201 1)"/><path d="M16.2181 112.513 15.7688 112.582 16.1605 112.513 16.5521 112.438 16.9437 112.363 17.3354 112.288 17.9631 112.185 16.2353 112.513" fill="url(#fill3)" transform="scale(1.00201 1)"/><path d="M20.3532 111.684 19.4778 111.845 19.8694 111.759 20.2553 111.672 20.6469 111.58 21.0328 111.493 22.0925 111.292 20.3647 111.684" fill="url(#fill4)" transform="scale(1.00201 1)"/><path d="M24.4711 110.705 23.1522 110.969 23.5381 110.866 23.9182 110.768 24.3041 110.664 24.6842 110.561 26.1989 110.238 24.4711 110.705" fill="url(#fill5)" transform="scale(1.00201 1)"/><path d="M28.5717 109.558 26.7748 109.956 27.1549 109.841 27.535 109.725 27.9094 109.61 28.2895 109.489C28.8654 109.351 29.7178 109.207 30.311 109.023L28.5832 109.558" fill="url(#fill6)" transform="scale(1.00201 1)"/><path d="M32.6896 108.239C31.9927 108.424 31.0654 108.689 30.3513 108.815L31.8372 108.297C32.6147 108.118 33.6571 107.894 34.4116 107.641L32.6838 108.245" fill="url(#fill7)" transform="scale(1.00201 1)"/><path d="M36.773 106.754C35.9091 107.019 34.757 107.33 33.8932 107.531L34.2618 107.387 34.6305 107.243 34.9934 107.099 35.3562 106.955C36.4184 106.716 37.4679 106.424 38.5008 106.08L36.773 106.754" fill="url(#fill8)" transform="scale(1.00201 1)"/><path d="M40.2285 105.354C39.1141 105.741 37.9797 106.068 36.8303 106.333L37.1932 106.178 37.556 106.022 37.9133 105.867 38.2761 105.705C39.5087 105.414 40.7241 105.052 41.9159 104.623L40.2285 105.354" fill="url(#fill9)" transform="scale(1.00201 1)"/><path d="M44.237 103.557 44.237 103.557C42.9311 104.058 41.5966 104.479 40.2399 104.818L41.6508 104.139C44.5939 103.413 44.5939 103.413 45.9129 102.768L44.237 103.574" fill="url(#fill10)" transform="scale(1.00201 1)"/><path d="M48.2109 101.582C45.6824 102.682 45.5328 102.734 43.6032 103.142L43.9488 102.958 44.2943 102.774 44.6399 102.59 44.9855 102.405C47.9631 101.645 48.1418 101.599 49.8923 100.678L48.2337 101.559" fill="url(#fill11)" transform="scale(1.00201 1)"/><path d="M52.1271 99.4336C49.6332 100.643 49.374 100.77 46.8459 101.351L47.1856 101.15 47.5253 100.954 47.8594 100.753 48.1991 100.551C51.3668 99.7159 51.5569 99.6696 53.757 98.4775L52.1271 99.4336" fill="url(#fill12)" transform="scale(1.00201 1)"/><path d="M55.98 97.1125C53.2733 98.5638 53.1637 98.6216 50.0364 99.4163L51.3554 98.5638C54.811 97.6136 54.9088 97.5963 57.5754 96.0817L55.98 97.107" fill="url(#fill13)" transform="scale(1.00201 1)"/><path d="M59.7984 94.5844 59.7466 94.619C57.7413 95.948 55.4983 96.8793 53.1406 97.3603L53.4633 97.1357 53.7857 96.9111 54.1026 96.6864 54.425 96.456C57.4313 95.6038 58.9404 95.1774 61.3361 93.5132L59.8157 94.5844" fill="url(#fill14)" transform="scale(1.00201 1)"/><path d="M63.4554 91.9351C61.2774 93.5142 58.7911 94.6166 56.1586 95.1719L56.4752 94.93 56.7862 94.6936 57.0972 94.4517 57.4027 94.2098C60.6968 93.2368 62.2 92.7989 64.9876 90.7543L63.4554 91.9064" fill="url(#fill15)" transform="scale(1.00201 1)"/><path d="M67.0665 89.0783C64.5729 90.858 63.5418 91.5895 59.09 92.8449L59.3896 92.5975 59.6947 92.3438 59.9943 92.0847 60.2936 91.8314C64.2215 90.6278 65.4769 90.1727 68.5523 87.8288L67.0665 89.0783" fill="url(#fill16)" transform="scale(1.00201 1)"/><path d="M70.5683 86.0547C67.441 88.4909 66.4676 88.9806 61.9294 90.3915L62.2232 90.1268 62.511 89.8617 62.8047 89.5911 63.0926 89.3202C66.3467 88.2836 69.1571 87.3851 72.0197 84.7129L70.5797 86.0433" fill="url(#fill17)" transform="scale(1.00201 1)"/><path d="M74.0411 82.772 73.9603 82.8528C71.795 84.6957 69.929 86.3084 64.642 87.8057L64.924 87.5292 65.2063 87.2469 65.4828 86.9649 65.7592 86.6767C69.3298 85.4904 72.152 84.5574 75.3543 81.4474L74.0411 82.772" fill="url(#fill18)" transform="scale(1.00201 1)"/><path d="M12.0138 113.193 11.962 113.193 13.4076 112.974 13.5976 112.974 13.206 113.037 12.8086 113.094 12.4112 113.158 12.0138 113.215" fill="url(#fill19)" transform="scale(1.00201 1)"/><path d="M15.7688 112.582 15.3715 112.645 16.7882 112.381 17.3354 112.288 16.9437 112.363 16.5521 112.438 16.1605 112.513 15.7688 112.582" fill="url(#fill20)" transform="scale(1.00201 1)"/><path d="M19.4778 111.845 18.7176 111.983 20.1056 111.666 21.0328 111.493 20.6469 111.58 20.2553 111.672 19.8694 111.759 19.4778 111.845" fill="url(#fill21)" transform="scale(1.00201 1)"/><path d="M23.1522 110.969 22.0004 111.2 23.3596 110.837 24.6842 110.561 24.3041 110.664 23.9182 110.768 23.5381 110.866 23.1522 110.969" fill="url(#fill22)" transform="scale(1.00201 1)"/><path d="M26.7748 109.956 25.2083 110.301 26.5272 109.898 28.2895 109.489 27.9094 109.61 27.535 109.725 27.1549 109.841 26.7748 109.956" fill="url(#fill23)" transform="scale(1.00201 1)"/><path d="M30.3513 108.81 28.3183 109.305 29.6083 108.856 31.8372 108.291 30.3513 108.81" fill="url(#fill24)" transform="scale(1.00201 1)"/><path d="M33.8702 107.531C33.1157 107.727 32.0848 107.928 31.3534 108.205L32.6089 107.704C33.4267 107.468 34.5037 107.128 35.3331 106.955L34.9702 107.099 34.6074 107.243 34.2388 107.387 33.8702 107.531" fill="url(#fill25)" transform="scale(1.00201 1)"/><path d="M36.8303 106.333C35.8372 106.561 34.8565 106.842 33.8932 107.174L35.1198 106.638C36.1544 106.271 37.208 105.959 38.2761 105.705L37.9133 105.867 37.556 106.022 37.1932 106.178 36.8303 106.333" fill="url(#fill26)" transform="scale(1.00201 1)"/><path d="M40.2399 104.818C39.0682 105.108 37.9144 105.466 36.7844 105.89L36.7844 105.89 37.9361 105.314C39.1359 104.846 40.363 104.452 41.6108 104.133L40.2399 104.818" fill="url(#fill27)" transform="scale(1.00201 1)"/><path d="M43.5804 103.142C42.2193 103.5 40.8841 103.948 39.5834 104.485L40.7351 103.868C42.1091 103.284 43.5213 102.795 44.9627 102.405L44.6171 102.59 44.2715 102.774 43.926 102.958 43.5804 103.142" fill="url(#fill28)" transform="scale(1.00201 1)"/><path d="M46.8459 101.363C45.292 101.795 43.7729 102.344 42.3019 103.004L43.4191 102.342C44.9661 101.631 46.564 101.036 48.1991 100.563L47.8594 100.764 47.5253 100.965 47.1856 101.161 46.8459 101.363" fill="url(#fill29)" transform="scale(1.00201 1)"/><path d="M50.0364 99.4222C46.4022 100.476 46.4022 100.476 44.9336 101.397L46.0166 100.695C49.0343 99.1112 49.092 99.0822 51.3554 98.5697L50.0364 99.4222" fill="url(#fill30)" transform="scale(1.00201 1)"/><path d="M53.1406 97.3603C49.3685 98.512 49.2935 98.512 47.4793 99.7042L47.5139 99.7042 48.5219 98.9903C51.5223 97.2625 51.6374 97.1816 54.425 96.4791L54.1026 96.7096 53.7857 96.9342 53.4633 97.1588 53.1406 97.3834" fill="url(#fill31)" transform="scale(1.00201 1)"/><path d="M56.1586 95.1719C52.4899 96.3236 52.1271 96.4273 49.9269 97.9246L50.9349 97.1471C53.8144 95.2928 54.068 95.1428 57.4027 94.2098L57.0972 94.4517 56.7862 94.6936 56.4752 94.93 56.1586 95.1719" fill="url(#fill32)" transform="scale(1.00201 1)"/><path d="M59.09 92.8449C54.9893 94.158 54.8283 94.2098 52.2884 96.0472L53.256 95.2292C56.2623 93.1158 56.3833 93.035 60.2936 91.8314L59.9943 92.0847 59.6947 92.3438 59.3896 92.5975 59.09 92.8449" fill="url(#fill33)" transform="scale(1.00201 1)"/><path d="M61.9177 90.4205C57.5464 91.8718 57.4659 91.9005 54.5573 94.1006L55.4848 93.2368C58.5831 90.858 58.5831 90.858 63.0812 89.3493L62.7933 89.6198 62.4996 89.8904 62.2114 90.1554 61.9177 90.4205" fill="url(#fill34)" transform="scale(1.00201 1)"/><path d="M64.642 87.8057C60.9273 89.0842 59.0668 89.7294 56.7343 91.9983L56.7862 91.9465 57.6214 91.0998C60.0862 89.0265 61.3247 87.9843 65.7592 86.6767L65.4828 86.9649 65.2063 87.2469 64.924 87.5292 64.642 87.8057" fill="url(#fill35)" transform="scale(1.00201 1)"/><path d="M11.2882 19.616 10.5222 22.1443 11.6107 22.1443 12.3709 19.616 11.2882 19.616" fill="url(#fill36)" transform="scale(1.00201 1)"/><path d="M21.1077 9.72739C20.4914 13.5746 19.8003 16.2411 18.2281 21.8218L19.2993 21.7067C20.7045 16.5694 21.5281 13.4709 22.104 9.61222L21.0904 9.72739" fill="url(#fill37)" transform="scale(1.00201 1)"/><path d="M38.4085-19.6563C47.1338-1.35918 46.5809 1.56652 44.2543 13.8856L45.17 13.3672C47.4161 1.2728 48.0495-2.00422 39.0305-20.0365L38.4085-19.6679" fill="url(#fill38)" transform="scale(1.00201 1)"/><path d="M51.4073 4.6074C51.1882 6.24305 51.079 6.97445 50.5952 9.88866L51.4418 9.26089C51.8333 6.88806 52.0175 5.67288 52.2366 3.99694L51.4073 4.6074" fill="url(#fill39)" transform="scale(1.00201 1)"/><path d="M0.236129 53.8607C-0.414667 58.4334-0.604722 59.8962-1.11154 64.8953L-0.754462 64.8953-0.403149 64.8953-0.046074 64.8953 0.311 64.8953C0.731427 60.288 0.886927 58.7503 1.53772 53.8434L0.236129 53.8607" fill="url(#fill40)" transform="scale(1.00201 1)"/><path d="M10.5222 22.1443C6.61162 34.9415 3.732 45.4983 2.25763 65.0795L2.60894 65.0795 2.96602 65.0795 3.31733 65.0795 3.66866 65.0795C4.92417 45.4983 7.75195 34.9011 11.6107 22.0925L10.5222 22.0925" fill="url(#fill41)" transform="scale(1.00201 1)"/><path d="M7.81533 43.7242C6.61272 50.8177 5.8759 57.9818 5.60951 65.1718L7.01478 65.1718C7.19989 57.9801 7.86754 50.8091 9.01323 43.7069L7.81533 43.7069" fill="url(#fill42)" transform="scale(1.00201 1)"/><path d="M11.2997 39.854C9.79933 48.1957 9.01323 56.6504 8.94989 65.1258L9.29544 65.1258 9.64677 65.1258 9.99806 65.1258 10.3494 65.1258C10.3255 56.6525 11.0347 48.1933 12.4688 39.8426L11.3169 39.9058" fill="url(#fill43)" transform="scale(1.00201 1)"/><path d="M18.2453 21.8391C14.6803 34.6879 12.1636 45.3082 12.2672 64.9644L12.6185 64.9644 12.9641 64.9644 13.3097 64.9644 13.661 64.9644C13.3327 45.3082 15.7977 34.6879 19.3166 21.8276L18.2453 21.9428" fill="url(#fill44)" transform="scale(1.00201 1)"/><path d="M18.6312 48.9538C18.4048 54.0753 18.474 59.2058 18.8385 64.3193L19.1841 64.2675 19.5239 64.2215 19.8694 64.1697 20.2092 64.1178C19.7927 59.0095 19.6716 53.8804 19.8464 48.7579L18.6312 48.9538" fill="url(#fill45)" transform="scale(1.00201 1)"/><path d="M21.6894 44.473C21.3086 50.9062 21.4395 57.3598 22.081 63.7723L22.4208 63.7146 22.7606 63.6513 23.1004 63.5881 23.4402 63.519C22.7395 57.1169 22.5469 50.6692 22.8643 44.237L21.7124 44.473" fill="url(#fill46)" transform="scale(1.00201 1)"/><path d="M24.3559 49.0229C24.3965 53.7422 24.7099 58.4552 25.2947 63.1389L25.6344 63.0698 25.9685 62.9948 26.3025 62.9143 26.6423 62.8393C25.9981 58.1656 25.6346 53.4578 25.5538 48.7406L24.3559 49.0229" fill="url(#fill47)" transform="scale(1.00201 1)"/><path d="M27.1664 45.141C27.144 50.9259 27.5811 56.7032 28.4738 62.4187L28.8078 62.3323 29.1418 62.246 29.4701 62.1596 29.8042 62.0676C28.8546 56.3757 28.3596 50.6177 28.324 44.8472L27.1722 45.17" fill="url(#fill48)" transform="scale(1.00201 1)"/><path d="M29.9539 40.0267C29.735 47.2323 30.293 54.4402 31.6183 61.5262L31.9466 61.4284 32.2749 61.3302 32.6032 61.2266 32.9257 61.1288C31.5435 54.0625 30.918 46.8687 31.0597 39.6698L29.9539 40.0267" fill="url(#fill49)" transform="scale(1.00201 1)"/><path d="M34.6592 21.7642C32.6953 31.555 31.0827 42.5724 34.7169 60.5472L35.0393 60.4377 35.3617 60.3226 35.6845 60.2131 36.0069 60.098C32.9775 45.3428 32.8854 35.2121 35.6613 21.3841L34.6592 21.7642" fill="url(#fill50)" transform="scale(1.00201 1)"/><path d="M35.4599 31.4398C34.9298 38.5294 34.8434 46.8287 37.7633 59.4528L38.0861 59.326 38.4026 59.2051 38.7195 59.0786 39.0364 58.9518C37.3086 51.5914 35.5808 42.7566 36.4848 31.0136L35.454 31.4398" fill="url(#fill51)" transform="scale(1.00201 1)"/><path d="M38.2012 44.784C38.7461 49.3229 39.6062 53.8182 40.7756 58.2375L41.0924 58.1052 41.4034 57.9728 41.7144 57.8346 42.0254 57.6964C40.7991 53.2964 39.8927 48.8135 39.3128 44.2829L38.2012 44.784" fill="url(#fill52)" transform="scale(1.00201 1)"/><path d="M44.2543 13.8856C43.2463 19.2532 42.1001 25.3407 42.221 32.8278 42.297 36.7491 42.6823 40.6584 43.3731 44.519 44.0352 48.3201 45.4692 51.9197 46.1894 55.7036L46.4945 55.5481 46.7941 55.3926 47.0933 55.2312 47.3929 55.0757C41.5762 36.5712 42.7857 26.124 45.1527 13.3788L44.237 13.8971" fill="url(#fill53)" transform="scale(1.00201 1)"/><path d="M44.6226 26.4926C44.3521 36.1683 45.5674 43.9315 49.0516 54.1372L49.3453 53.9699 49.6449 53.7971 49.9386 53.6302 50.2324 53.4574C47.1856 44.6285 45.2273 36.5539 45.5729 25.9167L44.6226 26.4926" fill="url(#fill54)" transform="scale(1.00201 1)"/><path d="M47.4161 35.7073C48.253 41.458 49.7368 47.0954 51.8392 52.513L52.1271 52.3344 52.4149 52.1502 52.7031 51.9657 52.9909 51.7874C50.8326 46.4012 49.2983 40.7859 48.4182 35.0507L47.4161 35.7073" fill="url(#fill55)" transform="scale(1.00201 1)"/><path d="M50.5952 9.87712C48.4814 22.5475 47.5253 32.8508 54.5459 50.768L54.8283 50.5779 55.1102 50.3879 55.3867 50.1919 55.669 49.996C48.4583 32.1885 49.3685 21.8852 51.4418 9.24938L50.5952 9.87712" fill="url(#fill56)" transform="scale(1.00201 1)"/><path d="M51.2632 26.0607C51.701 31.5435 52.5531 38.2817 57.1663 48.8847L57.4427 48.6774 57.7136 48.4756 57.9901 48.2682 58.2607 48.0609C56.291 43.5227 52.9909 35.9264 52.1789 25.3407L51.2632 26.0607" fill="url(#fill57)" transform="scale(1.00201 1)"/><path d="M54.1081 29.9482C55.2198 35.4827 56.4119 39.6293 59.7524 46.9033L60.0171 46.6846 60.2822 46.4713 60.5472 46.2526 60.8064 46.0339C57.9901 40.0326 56.4005 35.9782 55.0124 29.1822L54.1081 29.9482" fill="url(#fill58)" transform="scale(1.00201 1)"/><path d="M57.3909 32.8278C58.6314 36.9675 60.2535 40.9836 62.2346 44.8244L62.4937 44.5939 62.747 44.3693 63.0007 44.1388 63.2539 43.9087C61.2283 40.1041 59.5679 36.1161 58.2952 31.9984L57.3909 32.8278" fill="url(#fill59)" transform="scale(1.00201 1)"/><path d="M57.2354 12.1808C56.8784 20.2726 57.5291 29.5565 64.6362 42.6129L64.8839 42.371 65.1258 42.1346 65.3732 41.8927 65.6151 41.6508C61.5839 34.1178 57.299 24.9491 58.0015 11.3976L57.2354 12.1808" fill="url(#fill60)" transform="scale(1.00201 1)"/><path d="M61.8544 29.5219C63.2125 33.2699 64.9171 36.8832 66.9455 40.3149 67.0205 40.2285 67.101 40.1477 67.1819 40.0613L67.4179 39.8139 67.6539 39.5602C67.7348 39.4797 67.8094 39.3933 67.8903 39.3069 65.8307 35.9146 64.0954 32.3356 62.7069 28.6178L61.8603 29.5335" fill="url(#fill61)" transform="scale(1.00201 1)"/><path d="M-1.11154 64.8953C-4.35977 97.3316-8.38549 111.442-14.9683 113.619L-13.3212 113.786C-6.49644 111.62-2.53983 97.4871 0.339796 64.9931L-0.0172778 64.9931-0.374351 64.9931-0.725667 64.9931-1.08274 64.9931" fill="url(#fill62)" transform="scale(1.00201 1)"/><path d="M2.25763 65.0795C-0.109426 97.6654-3.97389 111.828-11.0808 113.97L-9.43944 114.079C-2.11941 111.943 1.67594 97.7635 3.66866 65.1258L3.31733 65.1258 2.96602 65.1258 2.60894 65.1258 2.25763 65.1258" fill="url(#fill63)" transform="scale(1.00201 1)"/><path d="M5.60951 65.1718C4.12939 97.8555 0.426184 112.058-7.18178 114.183L-6.77289 114.183-6.36399 114.183-5.94933 114.183-5.5404 114.183C2.26915 112.064 5.909 97.8499 7.01478 65.1199L5.60951 65.1199" fill="url(#fill64)" transform="scale(1.00201 1)"/><path d="M8.94989 65.1258C8.37395 97.9018 4.80322 112.133-3.2943 114.258L-1.66443 114.258C6.64617 112.121 10.1248 97.8727 10.3724 65.0795L10.0211 65.0795 9.66978 65.0795 9.31849 65.0795 8.97294 65.0795" fill="url(#fill65)" transform="scale(1.00201 1)"/><path d="M12.2672 64.9644C12.5609 97.7922 9.16873 112.058 0.570167 114.195L2.18852 114.126C11.0002 111.983 14.3233 97.7058 13.661 64.8608L13.3097 64.8608 12.9641 64.8608 12.6185 64.8608 12.2672 64.8608" fill="url(#fill66)" transform="scale(1.00201 1)"/><path d="M15.4521 60.8755C16.0798 83.6417 16.8573 111.977 4.41734 113.999L4.81473 113.97 5.21789 113.936 5.62105 113.907 6.02417 113.872C18.326 110.992 17.6118 87.6906 16.794 60.72L15.4521 60.8755" fill="url(#fill67)" transform="scale(1.00201 1)"/><path d="M18.8385 64.2906C20.9003 97.1184 17.8249 111.448 8.22999 113.659L8.63312 113.619 9.03051 113.573 9.4279 113.526 9.83106 113.48C19.6218 111.24 22.6397 96.9283 20.1977 64.0891L19.8579 64.141 19.5124 64.1928 19.1726 64.2388 18.827 64.2906" fill="url(#fill68)" transform="scale(1.00201 1)"/><path d="M22.081 63.7723C25.024 96.5655 22.1271 110.877 12.0772 113.181L13.8049 112.916C23.9585 110.394 26.746 96.0817 23.4229 63.519L23.0831 63.5881 22.7433 63.6513 22.4035 63.7146 22.0637 63.7723" fill="url(#fill69)" transform="scale(1.00201 1)"/><path d="M25.2947 63.1389C29.0958 95.6785 26.4465 109.984 16.2181 112.513L17.9458 112.185C25.1622 110.111 31.8372 102.63 26.6251 62.8393L26.2853 62.9143 25.9512 62.9948 25.6172 63.0698 25.2774 63.1389" fill="url(#fill70)" transform="scale(1.00201 1)"/><path d="M28.4738 62.3901C31.7047 84.8512 33.2712 108.263 20.3532 111.684L22.081 111.292C29.4125 108.902 36.0646 101.185 29.7927 62.0386L29.4586 62.1309 29.1303 62.2173 28.7963 62.3037 28.4623 62.3901" fill="url(#fill71)" transform="scale(1.00201 1)"/><path d="M31.6183 61.5262C35.4253 83.7627 37.556 106.99 24.4711 110.705L26.1989 110.238C33.6226 107.531 40.2341 99.5832 32.9257 61.1288L32.6032 61.2266 32.2749 61.3302 31.9466 61.4284 31.6183 61.5262" fill="url(#fill72)" transform="scale(1.00201 1)"/><path d="M34.7169 60.5472C38.8346 81.2805 41.8582 105.533 28.5717 109.558L30.2994 109.023C40.787 104.755 42.4342 90.5933 35.9955 60.069L35.6727 60.1844 35.3503 60.2936 35.0279 60.409 34.7052 60.5182" fill="url(#fill73)" transform="scale(1.00201 1)"/><path d="M37.7692 59.4528C44.6458 89.7753 43.1772 103.909 32.6896 108.239L34.4173 107.635C42.0945 104.179 47.969 95.863 39.0246 58.9518L38.7081 59.0786 38.3912 59.2051 38.0743 59.326 37.7519 59.4528" fill="url(#fill74)" transform="scale(1.00201 1)"/><path d="M40.7756 58.2375C46.0857 79.0631 49.7659 101.11 36.744 106.754L38.4717 106.08C45.763 102.446 51.891 93.8529 42.0196 57.7019L41.7086 57.8401 41.3976 57.9783 41.0866 58.111 40.7697 58.2434" fill="url(#fill75)" transform="scale(1.00201 1)"/><path d="M41.6972 50.8139C49.2994 83.112 53.1178 99.3241 40.2285 105.354L41.9159 104.623C44.1388 103.425 50.0364 100.24 50.2379 88.635 50.2725 86.5157 50.3588 81.5625 48.7061 72.9813 47.2316 65.2868 44.6745 57.8691 42.8603 50.2552L41.7086 50.8312" fill="url(#fill76)" transform="scale(1.00201 1)"/><path d="M46.2066 55.6922C52.0866 74.7378 57.149 97.389 44.2311 103.563L44.2311 103.563 45.9071 102.757C55.9568 96.8133 56.3947 82.9966 47.4043 55.0702L47.1051 55.2257 46.8055 55.3867 46.5059 55.5422 46.2008 55.6977" fill="url(#fill77)" transform="scale(1.00201 1)"/><path d="M49.0516 54.1372C58.422 81.839 58.1802 95.6038 48.2109 101.559L49.8695 100.678C56.7807 96.2199 62.1827 87.1204 50.2324 53.4516L49.9386 53.6243 49.6449 53.7916 49.3453 53.9644 49.0516 54.1313" fill="url(#fill78)" transform="scale(1.00201 1)"/><path d="M51.8392 52.513C58.8136 71.4322 64.302 91.8027 52.1329 99.4336L53.757 98.4833C60.5068 93.7147 65.6901 84.4365 52.9851 51.7929L52.6972 51.9715 52.4094 52.1557 52.1212 52.3403 51.8333 52.5186" fill="url(#fill79)" transform="scale(1.00201 1)"/><path d="M54.5459 50.7507C61.5148 68.2013 67.9822 89.2397 55.98 97.1125L57.5754 96.0876C63.7723 91.313 69.1571 81.7584 55.669 49.9787L55.3867 50.1747 55.1102 50.3706 54.8283 50.5606 54.5459 50.7507" fill="url(#fill80)" transform="scale(1.00201 1)"/><path d="M57.1836 48.8847C68.0686 74.1103 68.806 87.3623 59.7466 94.619L59.7984 94.5844 61.3188 93.5132C70.2514 86.0261 69.3817 72.8545 58.2779 48.0609L58.0074 48.2682 57.7309 48.4756 57.46 48.6774 57.1836 48.8847" fill="url(#fill81)" transform="scale(1.00201 1)"/><path d="M59.7524 46.9033C71.0289 71.2076 72.1347 84.6784 63.4554 91.9351L64.9876 90.7833C70.983 85.2945 75.1756 75.6881 60.8064 46.0626L60.5472 46.2813 60.2822 46.5004 60.0171 46.7132 59.7524 46.9323" fill="url(#fill82)" transform="scale(1.00201 1)"/><path d="M62.2346 44.8127C70.551 61.5148 77.6291 79.852 67.0665 89.0783L68.5409 87.8288C74.3003 82.0694 78.1647 72.3707 63.2425 43.897L62.9889 44.1274 62.7356 44.3579 62.4823 44.5825 62.2232 44.8127" fill="url(#fill83)" transform="scale(1.00201 1)"/><path d="M64.6362 42.6184C69.8713 52.4553 82.1444 75.498 70.5683 86.0606L72.0079 84.7302C79.6737 76.3851 77.8191 63.9046 65.6151 41.6567L65.3732 41.8986 65.1258 42.1405 64.8839 42.3765 64.6362 42.6184" fill="url(#fill84)" transform="scale(1.00201 1)"/><path d="M66.9455 40.3149C79.4145 62.2518 81.4474 74.5823 73.9603 82.8642L74.0411 82.7837 75.3543 81.4588C80.4108 75.4348 83.4803 65.7133 67.8671 39.3069 67.7866 39.3933 67.7116 39.4797 67.6311 39.5602L67.3947 39.8139 67.1587 40.0613C67.0782 40.1477 66.9973 40.2285 66.9227 40.3149" fill="url(#fill85)" transform="scale(1.00201 1)"/><path d="M0.581684 114.195C-10.4646 117.328-9.66978 142.507-7.45249 183.306L-5.29277 183.306C-6.61739 163.367-7.8729 144.534-6.54828 131.593-5.70167 123.312-4.043 120-3.15607 118.215-2.56159 117.118-1.75501 116.151-0.78326 115.37 0.103667 114.69 1.48013 115.156 2.20004 114.091L0.581684 114.195" fill="url(#fill86)" transform="scale(1.00201 1)"/><path d="M4.41734 113.999C-7.25667 117.172-5.7535 142.403-2.3325 183.306L-0.178537 183.242C-4.10634 142.317-5.90323 117.068 6.02417 113.872L5.62105 113.907 5.21789 113.936 4.81473 113.97 4.41734 113.999" fill="url(#fill87)" transform="scale(1.00201 1)"/><path d="M8.22999 113.659C-4.06028 116.913-1.84872 142.156 2.77596 183.104L3.31157 183.075 3.84717 183.041 4.38278 183.006 4.9184 182.972C-0.213093 142.012-2.71837 116.746 9.83106 113.457L9.4279 113.504 9.03051 113.55 8.63312 113.596 8.22999 113.636" fill="url(#fill88)" transform="scale(1.00201 1)"/><path d="M11.962 113.198C-0.881167 116.585 2.03302 141.827 7.84988 182.73L8.37972 182.678 8.91533 182.626 9.44517 182.574 9.97505 182.517C3.63984 141.66 0.449222 116.446 13.4306 112.979L11.985 113.198" fill="url(#fill89)" transform="scale(1.00201 1)"/><path d="M15.3715 112.645C2.30946 116.596 5.92628 141.637 12.8835 182.177L14.9971 181.889C7.49278 141.24 3.59955 116.135 16.7882 112.381L15.3715 112.645" fill="url(#fill90)" transform="scale(1.00201 1)"/><path d="M18.7176 111.983C5.51738 116.487 9.7965 141.309 17.8595 181.417L18.3836 181.33 18.9019 181.238 19.426 181.152 19.9501 181.054C12.463 146.089 6.02417 115.893 20.0825 111.643L18.6946 111.96" fill="url(#fill91)" transform="scale(1.00201 1)"/><path d="M22.0004 111.2C8.70223 116.262 13.6494 140.843 22.8297 180.53L23.348 180.42 23.8664 180.317 24.3847 180.201 24.8973 180.092C16.4427 145.381 9.13994 115.398 23.3596 110.837L22.0004 111.2" fill="url(#fill92)" transform="scale(1.00201 1)"/><path d="M25.2083 110.301C11.8756 115.928 17.4793 140.25 27.7251 179.412L28.2377 179.286 28.7502 179.159 29.2628 179.032 29.7696 178.9C20.3475 144.483 12.2096 114.765 26.5272 109.875L25.2083 110.278" fill="url(#fill93)" transform="scale(1.00201 1)"/><path d="M28.3183 109.305C15.7458 115.191 20.1977 135.797 32.5628 178.163L33.0697 178.019 33.5765 177.875 34.0775 177.725 34.5842 177.575C24.6439 144.915 15.2563 114.068 29.6026 108.85L28.3183 109.299" fill="url(#fill94)" transform="scale(1.00201 1)"/><path d="M31.3534 108.205C18.9134 114.621 23.8664 134.98 37.3432 176.74L39.3301 176.078C26.5905 138.067 19.449 114.454 32.6089 107.733L31.3534 108.234" fill="url(#fill95)" transform="scale(1.00201 1)"/><path d="M33.8932 107.174C21.5742 114.045 26.9821 134.185 41.3803 175.329L41.8699 175.151 42.3651 174.966 42.8548 174.782 43.3441 174.598C29.7235 137.001 22.0349 113.607 35.1371 106.638L33.9105 107.174" fill="url(#fill96)" transform="scale(1.00201 1)"/><path d="M36.8017 105.872 36.8017 105.872C24.6727 113.262 30.6047 133.114 46.0166 173.538L46.5004 173.342 46.9841 173.141 47.4621 172.939 47.9458 172.732C35.2753 140.624 24.3329 112.893 37.988 105.302L36.8362 105.878" fill="url(#fill97)" transform="scale(1.00201 1)"/><path d="M39.5834 104.485C27.7308 112.392 34.1582 131.933 50.5606 171.568L51.0386 171.35 51.5109 171.131 51.983 170.906 52.4553 170.681C38.9382 139.046 27.2643 111.73 40.7351 103.868L39.5834 104.485" fill="url(#fill98)" transform="scale(1.00201 1)"/><path d="M42.3019 102.993C30.7832 111.396 37.6942 130.603 55.0356 169.414L56.8898 168.452C42.5438 137.324 30.1497 110.44 43.4191 102.33L42.3019 102.993" fill="url(#fill99)" transform="scale(1.00201 1)"/><path d="M44.9281 101.397C33.1273 110.768 42.2556 131.409 59.401 167.053 59.5565 166.972 59.7061 166.886 59.8561 166.8L60.3108 166.54 60.7659 166.281 61.2152 166.016C44.162 131.593 34.3022 110.019 46.0107 100.672L44.9281 101.397" fill="url(#fill100)" transform="scale(1.00201 1)"/><path d="M47.5139 99.6814 47.4793 99.6814C36.0933 109.53 45.7056 129.71 63.68 164.536L64.1237 164.26 64.5671 163.983 65.0104 163.701 65.4482 163.419C47.5139 129.641 37.1013 108.453 48.5219 98.9153L47.5139 99.6295" fill="url(#fill101)" transform="scale(1.00201 1)"/><path d="M49.9269 97.9073C39.0246 108.205 49.0976 127.907 67.844 161.835L68.2759 161.541 68.7078 161.242C68.8519 161.144 68.996 161.046 69.1343 160.942L69.5662 160.643C50.7161 127.452 40.0558 106.604 50.9349 97.1471L49.9269 97.9073" fill="url(#fill102)" transform="scale(1.00201 1)"/><path d="M52.2884 96.0472C41.9218 106.765 52.4149 125.961 71.8697 158.961L73.5401 157.688C56.5788 129.687 41.9332 105.498 53.2328 95.2292L52.2653 96.0472" fill="url(#fill103)" transform="scale(1.00201 1)"/><path d="M54.5573 94.0716C45.2678 104.559 54.3559 121.774 75.8149 155.886L77.4276 154.538C60.5299 128.333 44.5653 103.586 55.4848 93.2077L54.5573 94.0716" fill="url(#fill104)" transform="scale(1.00201 1)"/><path d="M56.7862 91.9465 56.7343 91.9983C47.9745 102.831 56.9762 118.791 79.6046 152.626L79.9961 152.275 80.3876 151.918 80.7736 151.561 81.1596 151.198C60.6218 121.25 48.4928 102.348 57.6214 91.0998L56.7862 91.9465" fill="url(#fill105)" transform="scale(1.00201 1)"/><path d="M-2.3325 183.306C0.478017 216.848 1.94663 238.906-1.3707 262.369L1.61835 262.449C2.83356 253.407 4.03723 241.889 2.79324 219.278 1.96967 204.074-0.161259 183.317-0.178537 183.242L-2.3325 183.306" fill="url(#fill106)" transform="scale(1.00201 1)"/><path d="M2.77596 183.104C6.58283 216.767 8.67921 238.906 5.73045 262.49L8.71377 262.49C11.507 238.877 9.14571 216.692 4.9184 183.012L4.38278 183.047 3.84717 183.081 3.31157 183.116 2.77596 183.144" fill="url(#fill107)" transform="scale(1.00201 1)"/><path d="M7.84988 182.73C12.6531 216.479 15.3887 238.681 12.8086 262.374L15.7804 262.254C18.205 238.52 15.2044 216.295 9.97505 182.517L9.44517 182.574 8.91533 182.626 8.37972 182.678 7.84988 182.73" fill="url(#fill108)" transform="scale(1.00201 1)"/><path d="M12.8835 182.177C18.6946 215.972 22.0637 238.232 19.8579 262.046L20.6009 261.994 21.3381 261.943 22.081 261.885 22.8182 261.822C24.8627 237.995 21.2286 215.748 14.9971 181.918L12.8835 182.206" fill="url(#fill109)" transform="scale(1.00201 1)"/><path d="M17.8595 181.417C24.6727 215.258 28.6811 237.523 26.8497 261.396L29.7869 261.073C31.4628 237.166 27.1894 214.895 19.9501 181.054L19.426 181.152 18.9019 181.238 18.3836 181.33 17.8595 181.417" fill="url(#fill110)" transform="scale(1.00201 1)"/><path d="M22.8297 180.53C26.2277 195.222 29.7408 210.42 31.9178 224.905 34.7974 243.939 34.2215 253.949 33.8414 260.578L36.7612 260.151C38.0571 236.176 33.1445 213.91 24.8973 180.098L24.3847 180.207 23.8664 180.322 23.348 180.426 22.8297 180.535" fill="url(#fill111)" transform="scale(1.00201 1)"/><path d="M27.7251 179.436C36.5539 213.231 41.8354 235.479 40.7583 259.489L43.6378 258.959C44.5594 234.92 39.0305 212.689 29.7523 178.906L29.2455 179.038 28.7329 179.165 28.2204 179.291 27.7078 179.418" fill="url(#fill112)" transform="scale(1.00201 1)"/><path d="M32.5628 178.163C42.3997 211.883 48.3201 234.091 47.6234 258.153L50.5029 257.514C51.0444 233.434 44.8531 211.25 34.596 177.575L34.0891 177.725 33.588 177.875 33.0812 178.019 32.5744 178.163" fill="url(#fill113)" transform="scale(1.00201 1)"/><path d="M37.3432 176.711C48.1818 210.317 54.7187 232.461 54.4191 256.564L55.1275 256.385 55.8359 256.201 56.5443 256.011 57.2527 255.821C57.4199 231.706 50.5893 209.597 39.3301 176.049L37.3432 176.711" fill="url(#fill114)" transform="scale(1.00201 1)"/><path d="M41.363 175.329C53.0601 208.813 60.1612 230.883 60.1612 255.009L62.9716 254.173C62.8106 230.042 55.4444 208.013 43.3268 174.598L42.8375 174.782 42.3478 174.966 41.8526 175.151 41.363 175.329" fill="url(#fill115)" transform="scale(1.00201 1)"/><path d="M46.0048 173.538C58.6753 206.844 66.4389 228.827 66.8132 252.947L67.5102 252.716 68.2013 252.48 68.8924 252.244 69.5835 252.002C69.0479 227.865 61.0483 205.928 47.9344 172.732L47.4506 172.939 46.9724 173.141 46.4886 173.342 46.0048 173.538" fill="url(#fill116)" transform="scale(1.00201 1)"/><path d="M50.5606 171.568C64.2502 204.655 72.6185 226.488 73.3728 250.631L74.0584 250.372 74.7437 250.107 75.4234 249.843 76.1027 249.577C75.1929 225.44 66.5599 203.67 52.4553 170.676L51.983 170.9 51.5109 171.125 51.0386 171.344 50.5606 171.562" fill="url(#fill117)" transform="scale(1.00201 1)"/><path d="M55.0356 169.414C69.71 202.242 78.7003 223.926 79.8292 248.051L80.503 247.763 81.1769 247.475 81.8448 247.182 82.5187 246.888C81.2114 222.774 71.9965 201.165 56.8898 168.452L55.0356 169.414" fill="url(#fill118)" transform="scale(1.00201 1)"/><path d="M59.4069 167.076C75.0605 199.616 84.6725 221.11 86.1757 245.206L88.8137 243.934C87.155 219.854 77.2949 198.435 61.221 166.039L60.7718 166.304 60.3167 166.564 59.8616 166.823C59.712 166.909 59.5624 166.996 59.4069 167.076" fill="url(#fill119)" transform="scale(1.00201 1)"/><path d="M63.68 164.559C80.3012 196.759 90.5297 218.046 92.4016 242.096L93.0522 241.757 93.6974 241.411 94.3425 241.06 94.9873 240.708C92.9603 216.681 82.4727 195.487 65.4482 163.442L65.0104 163.724 64.5671 164.007 64.1237 164.283 63.68 164.559" fill="url(#fill120)" transform="scale(1.00201 1)"/><path d="M67.844 161.835C85.4213 193.661 96.2604 214.711 98.4947 238.704L99.1285 238.33 99.7619 237.955 100.39 237.581 101.023 237.201C98.6274 213.236 87.5406 192.279 69.5662 160.643L69.1343 160.942C68.996 161.046 68.8519 161.144 68.7078 161.242L68.2759 161.541 67.844 161.835" fill="url(#fill121)" transform="scale(1.00201 1)"/><path d="M71.8928 158.956C90.4146 190.361 101.841 211.152 104.45 235.064L106.909 233.446C104.156 209.568 92.4765 188.898 73.5629 157.683L71.8928 158.956" fill="url(#fill122)" transform="scale(1.00201 1)"/><path d="M75.8149 155.886C95.2638 186.825 107.289 207.327 110.244 231.142L110.82 230.716 111.396 230.284 111.971 229.846 112.547 229.408C109.443 205.634 97.1761 185.264 77.3412 154.538L75.7285 155.886" fill="url(#fill123)" transform="scale(1.00201 1)"/><path d="M79.6046 152.62C99.9633 183.047 112.565 203.233 115.888 226.915L116.464 226.46 117.04 225.999 117.616 225.533 118.191 225.066C114.736 201.413 101.898 181.371 81.1596 151.175L80.7736 151.538 80.3876 151.895 79.9961 152.252 79.6046 152.603" fill="url(#fill124)" transform="scale(1.00201 1)"/><path d="M-1.3707 262.369C-11.9793 336.824-3.84717 396.691 5.3849 451.631L6.66345 451.838 7.94778 452.045 9.23784 452.246 10.5222 452.443C0.47226 397.244-8.4949 337.107 1.61835 262.449L-1.3707 262.369" fill="url(#fill125)" transform="scale(1.00201 1)"/><path d="M5.73045 262.49C-3.71472 337.406 6.41583 397.914 17.6003 453.462L18.8846 453.638 20.1632 453.828 21.4532 453.998 22.7433 454.157C10.741 398.332-0.241889 337.573 8.71377 262.473L7.22211 262.473 5.73045 262.473" fill="url(#fill126)" transform="scale(1.00201 1)"/><path d="M12.8086 262.374C10.9483 279.203 6.6289 318.625 14.7207 377.806 18.2741 403.809 24.9549 429.19 29.8618 454.931L31.1576 455.069 32.4534 455.2 33.7493 455.328 35.0452 455.449C21.0271 399.117 7.99384 337.781 15.7804 262.254L12.8086 262.374" fill="url(#fill127)" transform="scale(1.00201 1)"/><path d="M19.8579 262.046C12.751 337.781 26.9821 399.428 42.1751 456.075L43.4709 456.175 44.7726 456.265 46.0684 456.351 47.3698 456.437C30.6681 397.223 16.2008 337.798 22.8182 261.776L21.3381 261.897 19.8579 262" fill="url(#fill128)" transform="scale(1.00201 1)"/><path d="M26.8727 261.419C20.9407 337.619 36.5657 397.337 54.5173 456.831L55.8186 456.887 57.1203 456.945 58.422 456.99 59.7234 457.039C40.8619 397.344 24.3789 337.441 29.8099 261.096L26.8727 261.419" fill="url(#fill129)" transform="scale(1.00201 1)"/><path d="M33.8414 260.578C29.0958 337.118 46.7709 397.268 66.8937 457.211L68.1954 457.211 69.4971 457.211 72.106 457.211C51.0617 397.137 32.5225 336.824 36.7612 260.151L33.8414 260.578" fill="url(#fill130)" transform="scale(1.00201 1)"/><path d="M40.7583 259.489C37.2105 336.341 56.959 396.864 79.2818 457.205L80.5894 457.205 81.8908 457.177 83.1984 457.142 84.5056 457.108C61.2438 396.636 40.6142 335.955 43.6551 258.988L40.7756 259.518" fill="url(#fill131)" transform="scale(1.00201 1)"/><path d="M47.6234 258.153C45.2737 335.281 67.1242 396.128 91.6818 456.8L92.989 456.738 94.2907 456.662 95.5979 456.589 96.9052 456.507C71.4205 395.713 48.6542 334.746 50.4915 257.514L47.6117 258.153" fill="url(#fill132)" transform="scale(1.00201 1)"/><path d="M54.4191 256.564C53.2674 333.928 77.2603 395.039 104.087 455.988L105.389 455.881 106.69 455.764 107.992 455.65 109.293 455.522C81.5107 394.51 56.6252 333.277 57.2527 255.821L55.8359 256.201 54.4191 256.564" fill="url(#fill133)" transform="scale(1.00201 1)"/><path d="M60.1612 255.009C60.0517 332.545 85.882 393.837 114.661 454.965L115.963 454.82 117.264 454.665 118.566 454.509 119.867 454.347C90.115 393.145 63.3576 331.785 62.9716 254.173L60.1612 255.009" fill="url(#fill134)" transform="scale(1.00201 1)"/><path d="M66.8132 252.947C67.9131 330.645 95.9262 392.085 127.026 453.369L128.322 453.172 129.618 452.978 130.914 452.771 132.21 452.564C100.125 391.245 71.1958 329.758 69.5835 252.002L68.2013 252.48C67.2797 252.797 67.0492 252.872 66.8132 252.947" fill="url(#fill135)" transform="scale(1.00201 1)"/><path d="M73.3728 250.631C75.6767 328.451 105.896 389.97 139.339 451.323L140.635 451.088 141.926 450.839 143.221 450.587 144.511 450.335C110.071 388.964 78.9076 327.431 76.1027 249.577L74.7437 250.107 73.3728 250.631" fill="url(#fill136)" transform="scale(1.00201 1)"/><path d="M79.8292 248.051C83.348 325.974 115.767 387.471 151.601 448.832L152.885 448.541 154.175 448.248 155.46 447.951 156.744 447.64C119.925 386.303 86.5444 324.822 82.5187 246.888L81.1769 247.464 79.8292 248.04" fill="url(#fill137)" transform="scale(1.00201 1)"/><path d="M86.1757 245.206C90.8984 323.129 125.586 384.579 163.787 445.863L165.066 445.525 166.345 445.179 167.618 444.834 168.896 444.478C129.676 383.256 94.0257 321.856 88.8423 243.934L86.2047 245.206" fill="url(#fill138)" transform="scale(1.00201 1)"/><path d="M92.4016 242.096C98.3278 320.002 135.268 381.31 175.911 442.422L177.178 442.028 178.445 441.63 179.712 441.229 180.973 440.818C139.311 379.807 101.415 318.585 94.9873 240.737L93.6974 241.44C92.8335 241.9 92.6203 242.016 92.4016 242.125" fill="url(#fill139)" transform="scale(1.00201 1)"/><path d="M98.4892 238.721C105.608 316.552 144.828 377.623 187.861 438.475L189.117 438.033 190.367 437.584 191.622 437.121 192.872 436.661C148.813 375.947 108.637 315.032 101.023 237.218L99.7619 237.973 98.4947 238.721" fill="url(#fill140)" transform="scale(1.00201 1)"/><path d="M104.45 235.07C112.749 312.774 154.25 373.518 199.72 434.018L200.958 433.517 202.196 433.009 203.429 432.504 204.667 431.986C158.167 371.662 115.703 311.086 106.909 233.451L104.45 235.07" fill="url(#fill141)" transform="scale(1.00201 1)"/><path d="M110.244 231.142C119.712 308.696 163.505 368.984 211.417 429.031L212.638 428.454 213.858 427.877 215.074 427.304 216.289 426.727C167.335 366.901 122.592 306.79 112.622 229.362L111.43 230.238C110.635 230.814 110.434 230.952 110.232 231.096" fill="url(#fill142)" transform="scale(1.00201 1)"/><path d="M115.876 226.915C126.496 304.204 172.576 363.984 222.935 423.478L224.133 422.867 225.337 422.245 226.529 421.619 227.727 420.983C176.343 361.797 129.295 302.252 118.191 225.089L117.04 226.022 115.888 226.938" fill="url(#fill143)" transform="scale(1.00201 1)"/><path d="M323.676-63.5881C317.099-29.2282 322.444-11.2306 348.555 20.1574L341.685 12.8316C326.389-4.93567 305.437-29.2628 316.345-71.3458L323.676-63.5881" fill="url(#fill144)" transform="scale(1.00201 1)"/><path d="M306.053-81.8448C300.639-55.8649 298.865-31.5665 331.785 2.73565L324.252-4.6074C299.787-30.766 289.063-51.05 298.364-89.3147L300.294-87.4542C300.938-86.8322 301.582-86.2085 302.223-85.5827 302.864-84.9566 303.501-84.3328 304.135-83.7108L306.041-81.8276" fill="url(#fill145)" transform="scale(1.00201 1)"/><path d="M348.555 20.1574C412.369 83.348 523.631 124.175 545.297 131.72L530.694 116.233C482.89 99.7332 394.735 64.3656 341.685 12.8316L348.555 20.1574" fill="url(#fill146)" transform="scale(1.00201 1)"/><path d="M331.785 2.73565C385.305 51.5337 466.421 81.6375 510.005 95.2178L506.177 91.4399 502.327 87.6788 498.457 83.924 494.566 80.1862C467.357 72.1347 374.662 42.2155 324.252-4.6074L331.785 2.73565" fill="url(#fill147)" transform="scale(1.00201 1)"/><path d="M305.788-21.7009 313.442-14.7898C368.086 30.9157 449.229 53.8835 472.755 59.8329 471.417 58.6121 470.076 57.393 468.722 56.1759L464.693 52.5358C463.338 51.3264 461.984 50.119 460.626 48.9134L456.541 45.3023C412.369 34.5556 350.238 14.162 305.206-22.2192L305.782-21.7009" fill="url(#fill148)" transform="scale(1.00201 1)"/><path d="M293.008-32.7817C336.202 0.512573 393.391 17.416 433.741 25.7324L429.536 22.225 425.32 18.7349C423.907 17.583 422.497 16.4312 421.084 15.2793 419.67 14.1275 418.254 12.9756 416.833 11.8238 391.006 7.08389 326.343-7.49856 283.793-40.4127L293.008-32.7587" fill="url(#fill149)" transform="scale(1.00201 1)"/></g><g clip-path="url(#clip150)"><path d="M-7.59071 68.1722C1.62411 82.6223 7.49278 91.9983 11.2882 100.292L11.8641 99.8942 12.4112 99.5027 12.9583 99.0994 13.4997 98.7021C9.65251 90.4205 3.6341 81.1651-5.82838 66.8937-5.97234 67.0032-6.11633 67.1128-6.26606 67.2164L-6.70378 67.5388-7.14723 67.8557C-7.29122 67.9649-7.44095 68.0686-7.59071 68.1722" fill="url(#fill151)" transform="scale(1.00201 1)"/><path d="M22.0695 81.2805C23.5299 83.48 24.8403 85.7755 25.9915 88.1512L26.4638 87.6961 26.9418 87.2355 27.4141 86.769 27.8863 86.3084C26.7394 83.9337 25.4128 81.6503 23.9182 79.4778L22.0695 81.2805" fill="url(#fill152)" transform="scale(1.00201 1)"/><path d="M-32.8738 130.51C-26.7345 147.437-17.5312 174.408-0.748705 233.198L0.161259 232.962 1.07698 232.72 1.9927 232.478 2.88539 232.231C-6.61739 200.422-18.9998 160.107-30.2016 129.86L-32.8738 130.51" fill="url(#fill153)" transform="scale(1.00201 1)"/><path d="M11.2882 100.292C21.9716 124.095 37.9997 154.694 64.8494 202.611L65.6151 202.064 66.3753 201.488 67.13 200.912 67.8785 200.336C40.4932 152.874 24.1947 122.459 13.4767 98.7021L12.9353 99.0994 12.3882 99.5027 11.841 99.8942 11.2651 100.292" fill="url(#fill154)" transform="scale(1.00201 1)"/><path d="M30.167 110.238C42.2096 132.82 56.7461 157.165 78.7808 191.651L79.4778 191.04 80.1748 190.464 80.8659 189.848 81.5511 189.232C65.4251 164.623 46.9956 135.78 32.2288 108.447L30.167 110.267" fill="url(#fill155)" transform="scale(1.00201 1)"/><path d="M25.9915 88.1512C37.055 111.638 54.7878 140.831 85.2717 185.771L85.9338 185.137 86.5962 184.504 87.2528 183.864 87.9035 183.225C56.9534 138.729 39.0073 109.748 27.8863 86.3084L27.4141 86.769 26.9418 87.2355 26.4638 87.6961 25.9915 88.1512" fill="url(#fill156)" transform="scale(1.00201 1)"/><path d="M-0.748705 233.198C15.2736 289.639 31.8429 352.114 52.9851 435.804L54.5919 435.321 56.1987 434.823C56.7402 434.664 57.2758 434.495 57.8114 434.322L59.4183 433.817C37.0377 350.601 19.5872 288.429 2.88539 232.231L1.0597 232.72-0.765983 233.198" fill="url(#fill157)" transform="scale(1.00201 1)"/><path d="M64.8722 202.611C93.0927 252.618 124.959 306.928 168.251 378.712L169.599 377.734 170.935 376.749 172.265 375.757 173.59 374.765C128.679 302.816 97.0724 250.672 67.9017 200.422L66.3985 201.539 64.8722 202.64" fill="url(#fill158)" transform="scale(1.00201 1)"/><path d="M78.7808 191.651C109.616 239.608 144.782 291.286 192.814 359.274L194.047 358.203 195.279 357.132 196.5 356.05 197.721 354.965C148.739 287.831 112.887 236.706 81.5511 189.203L80.1748 190.436 78.7808 191.651" fill="url(#fill159)" transform="scale(1.00201 1)"/><path d="M85.2717 185.771C117.333 232.634 154.049 282.952 204.321 348.935L205.502 347.826 206.654 346.706 207.806 345.556 208.957 344.432C157.775 279.353 120.42 229.593 87.8461 183.173L86.5385 184.452 85.214 185.719" fill="url(#fill160)" transform="scale(1.00201 1)"/><path d="M235.721 315.636C353.953 439.495 448.773 527.957 466.576 544.43L468.504 542.246 470.422 540.051 472.329 537.857 474.23 535.653C456.14 519.484 359.734 432.653 239.746 310.706 239.418 311.121 239.084 311.53 238.75 311.944L237.748 313.177C237.414 313.592 237.074 314 236.74 314.41L235.721 315.636" fill="url(#fill161)" transform="scale(1.00201 1)"/></g><text fill="#FFFFFF" font-family="Arial,Arial_MSFontService,sans-serif" font-weight="400" font-size="47" transform="matrix(0.34625 0 0 0.345556 194.414 47)">2</text><text fill="#FFFFFF" font-family="Arial,Arial_MSFontService,sans-serif" font-weight="400" font-size="47" transform="matrix(0.34625 0 0 0.345556 203.416 47)">.</text><text fill="#FFFFFF" font-family="Arial,Arial_MSFontService,sans-serif" font-weight="400" font-size="47" transform="matrix(0.34625 0 0 0.345556 207.918 47)">1</text><text fill="#FFFFFF" font-family="SimHei,SimHei_MSFontService,sans-serif" font-weight="400" font-size="47" transform="matrix(0.34625 0 0 0.345556 230.626 47)"></text><text fill="#F79646" font-family="Arial,Arial_MSFontService,sans-serif" font-weight="400" font-size="27" transform="matrix(0.34625 0 0 0.345556 194.414 128)">1</text><text fill="#F79646" font-family="Arial,Arial_MSFontService,sans-serif" font-weight="400" font-size="27" transform="matrix(0.34625 0 0 0.345556 199.608 128)">.</text><text fill="#F79646" font-family="SimHei,SimHei_MSFontService,sans-serif" font-weight="400" font-size="27" transform="matrix(0.34625 0 0 0.345556 208.192 128)"></text><text fill="#FFFFFF" font-family="SimHei,SimHei_MSFontService,sans-serif" font-weight="400" font-size="23" transform="matrix(0.34625 0 0 0.345556 194.983 144)"></text><text fill="#FFFFFF" font-family="SimHei,SimHei_MSFontService,sans-serif" font-weight="400" font-size="23" transform="matrix(0.34625 0 0 0.345556 303.013 144)"></text><text fill="#FFFFFF" font-family="SimHei,SimHei_MSFontService,sans-serif" font-weight="400" font-size="23" transform="matrix(0.34625 0 0 0.345556 194.983 159)"></text><text fill="#FFFFFF" font-family="SimHei,SimHei_MSFontService,sans-serif" font-weight="400" font-size="23" transform="matrix(0.34625 0 0 0.345556 194.983 173)"></text><text fill="#FFFFFF" font-family="SimHei,SimHei_MSFontService,sans-serif" font-weight="400" font-size="23" transform="matrix(0.34625 0 0 0.345556 236.533 173)"></text><text fill="#F79646" font-family="Arial,Arial_MSFontService,sans-serif" font-weight="400" font-size="27" transform="matrix(0.34625 0 0 0.345556 346.524 128)">2</text><text fill="#F79646" font-family="Arial,Arial_MSFontService,sans-serif" font-weight="400" font-size="27" transform="matrix(0.34625 0 0 0.345556 351.717 128)">. </text><text fill="#F79646" font-family="Arial,Arial_MSFontService,sans-serif" font-weight="400" font-size="27" transform="matrix(0.34625 0 0 0.345556 357.257 128)">IDE</text><text fill="#F79646" font-family="SimHei,SimHei_MSFontService,sans-serif" font-weight="400" font-size="27" transform="matrix(0.34625 0 0 0.345556 382.88 128)"></text><text fill="#FFFFFF" font-family="SimHei,SimHei_MSFontService,sans-serif" font-weight="400" font-size="23" transform="matrix(0.34625 0 0 0.345556 346.624 145)"></text><text fill="#FFFFFF" font-family="SimHei,SimHei_MSFontService,sans-serif" font-weight="400" font-size="23" transform="matrix(0.34625 0 0 0.345556 379.864 145)"></text><text fill="#FF0000" font-family="SimHei,SimHei_MSFontService,sans-serif" font-weight="400" font-size="23" transform="matrix(0.34625 0 0 0.345556 387.021 145)"></text><text fill="#FFFFFF" font-family="Arial,Arial_MSFontService,sans-serif" font-weight="400" font-size="23" transform="matrix(0.34625 0 0 0.345556 413.495 145)">IDE</text><text fill="#FFFFFF" font-family="SimHei,SimHei_MSFontService,sans-serif" font-weight="400" font-size="23" transform="matrix(0.34625 0 0 0.345556 429.218 145)"></text><text fill="#FFFFFF" font-family="SimHei,SimHei_MSFontService,sans-serif" font-weight="400" font-size="23" transform="matrix(0.34625 0 0 0.345556 346.624 160)"></text><text fill="#FFFFFF" font-family="SimHei,SimHei_MSFontService,sans-serif" font-weight="400" font-size="23" transform="matrix(0.34625 0 0 0.345556 396.484 160)"></text><text fill="#F79646" font-family="Arial,Arial_MSFontService,sans-serif" font-weight="400" font-size="27" transform="matrix(0.34625 0 0 0.345556 194.983 195)">3</text><text fill="#F79646" font-family="Arial,Arial_MSFontService,sans-serif" font-weight="400" font-size="27" transform="matrix(0.34625 0 0 0.345556 200.177 195)">.</text><text fill="#F79646" font-family="SimHei,SimHei_MSFontService,sans-serif" font-weight="400" font-size="27" transform="matrix(0.34625 0 0 0.345556 208.761 195)"></text><text fill="#FFFFFF" font-family="SimHei,SimHei_MSFontService,sans-serif" font-weight="400" font-size="23" transform="matrix(0.34625 0 0 0.345556 194.983 212)"></text><text fill="#FFFFFF" font-family="SimHei,SimHei_MSFontService,sans-serif" font-weight="400" font-size="23" transform="matrix(0.34625 0 0 0.345556 194.983 226)"></text><text fill="#FFFFFF" font-family="SimHei,SimHei_MSFontService,sans-serif" font-weight="400" font-size="23" transform="matrix(0.34625 0 0 0.345556 219.913 226)"></text><text fill="#FFFFFF" font-family="SimHei,SimHei_MSFontService,sans-serif" font-weight="400" font-size="23" transform="matrix(0.34625 0 0 0.345556 228.223 226)"></text><text fill="#FFFFFF" font-family="SimHei,SimHei_MSFontService,sans-serif" font-weight="400" font-size="23" transform="matrix(0.34625 0 0 0.345556 278.083 226)"></text><text fill="#FFFFFF" font-family="SimHei,SimHei_MSFontService,sans-serif" font-weight="400" font-size="23" transform="matrix(0.34625 0 0 0.345556 286.393 226)"></text><text fill="#FFFFFF" font-family="SimHei,SimHei_MSFontService,sans-serif" font-weight="400" font-size="23" transform="matrix(0.34625 0 0 0.345556 194.983 241)"></text><text fill="#F79646" font-family="Arial,Arial_MSFontService,sans-serif" font-weight="400" font-size="27" transform="matrix(0.34625 0 0 0.345556 346.724 195)">4</text><text fill="#F79646" font-family="Arial,Arial_MSFontService,sans-serif" font-weight="400" font-size="27" transform="matrix(0.34625 0 0 0.345556 351.918 195)">.</text><text fill="#F79646" font-family="SimHei,SimHei_MSFontService,sans-serif" font-weight="400" font-size="27" transform="matrix(0.34625 0 0 0.345556 360.502 195)"></text><text fill="#FFFFFF" font-family="SimHei,SimHei_MSFontService,sans-serif" font-weight="400" font-size="23" transform="matrix(0.34625 0 0 0.345556 346.724 211)"></text><text fill="#FFFFFF" font-family="SimHei,SimHei_MSFontService,sans-serif" font-weight="400" font-size="23" transform="matrix(0.34625 0 0 0.345556 346.724 226)"></text><text fill="#FFFFFF" font-family="SimHei,SimHei_MSFontService,sans-serif" font-weight="400" font-size="23" transform="matrix(0.34625 0 0 0.345556 371.654 226)"></text><text fill="#FFFFFF" font-family="Arial,Arial_MSFontService,sans-serif" font-weight="400" font-size="15" transform="matrix(2.12017e-17 0.345556 -0.34625 2.11592e-17 539.852 34)">PRESENTATION TITLE</text><text fill="#F79646" font-family="Arial,Arial_MSFontService,sans-serif" font-weight="400" font-size="27" transform="matrix(0.34625 0 0 0.345556 534.465 160)">11</text><text fill="#FFFFFF" font-family="SimHei,SimHei_MSFontService,sans-serif" font-weight="400" font-size="30" transform="matrix(0.34625 0 0 0.345556 188.356 77)"></text><text fill="#FFFFFF" font-family="SimHei,SimHei_MSFontService,sans-serif" font-weight="400" font-size="30" transform="matrix(0.34625 0 0 0.345556 364.944 77)"></text><text fill="#FFFFFF" font-family="SimHei,SimHei_MSFontService,sans-serif" font-weight="400" font-size="30" transform="matrix(0.34625 0 0 0.345556 375.331 77)"></text><text fill="#FFFFFF" font-family="SimHei,SimHei_MSFontService,sans-serif" font-weight="400" font-size="30" transform="matrix(0.34625 0 0 0.345556 188.356 89)"></text><text fill="#FFFFFF" font-family="SimHei,SimHei_MSFontService,sans-serif" font-weight="400" font-size="30" transform="matrix(0.34625 0 0 0.345556 281.844 89)"></text><text fill="#FFFFFF" font-family="SimHei,SimHei_MSFontService,sans-serif" font-weight="400" font-size="30" transform="matrix(0.34625 0 0 0.345556 292.231 89)"></text><text fill="#FFFFFF" font-family="SimHei,SimHei_MSFontService,sans-serif" font-weight="400" font-size="30" transform="matrix(0.34625 0 0 0.345556 328.587 89)">expi</text><text fill="#FFFFFF" font-family="SimHei,SimHei_MSFontService,sans-serif" font-weight="400" font-size="30" transform="matrix(0.34625 0 0 0.345556 354.557 89)"></text><text fill="#FFFFFF" font-family="SimHei,SimHei_MSFontService,sans-serif" font-weight="400" font-size="30" transform="matrix(0.34625 0 0 0.345556 499.982 89)"></text></g></svg>