<svg width="554" height="311" xmlns="http://www.w3.org/2000/svg" xmlns:xlink="http://www.w3.org/1999/xlink" xml:space="preserve" overflow="hidden"><defs><clipPath id="clip0"><rect x="0" y="0" width="554" height="311"/></clipPath><clipPath id="clip1"><path d="M-74.9867 243.492 120.581-486.953 852.492-291.776 656.926 438.669Z"/></clipPath><linearGradient x1="637.267" y1="20.7087" x2="303.29" y2="-9.18968" gradientUnits="userSpaceOnUse" spreadMethod="pad" id="fill2"><stop offset="0" stop-color="#FF0000"/><stop offset="1" stop-color="#0565FF"/></linearGradient><linearGradient x1="636.886" y1="25.0317" x2="302.904" y2="-4.86808" gradientUnits="userSpaceOnUse" spreadMethod="pad" id="fill3"><stop offset="0" stop-color="#FF0000"/><stop offset="1" stop-color="#0565FF"/></linearGradient><linearGradient x1="636.434" y1="29.3774" x2="302.535" y2="-0.518154" gradientUnits="userSpaceOnUse" spreadMethod="pad" id="fill4"><stop offset="0" stop-color="#FF0000"/><stop offset="1" stop-color="#0565FF"/></linearGradient><linearGradient x1="636.074" y1="33.7598" x2="302.133" y2="3.86481" gradientUnits="userSpaceOnUse" spreadMethod="pad" id="fill5"><stop offset="0" stop-color="#FF0000"/><stop offset="1" stop-color="#0565FF"/></linearGradient><linearGradient x1="635.663" y1="38.1708" x2="301.746" y2="8.27614" gradientUnits="userSpaceOnUse" spreadMethod="pad" id="fill6"><stop offset="0" stop-color="#FF0000"/><stop offset="1" stop-color="#0565FF"/></linearGradient><linearGradient x1="635.287" y1="42.5963" x2="301.339" y2="12.6998" gradientUnits="userSpaceOnUse" spreadMethod="pad" id="fill7"><stop offset="0" stop-color="#FF0000"/><stop offset="1" stop-color="#0565FF"/></linearGradient><linearGradient x1="634.92" y1="46.3781" x2="301.014" y2="16.4809" gradientUnits="userSpaceOnUse" spreadMethod="pad" id="fill8"><stop offset="0" stop-color="#FF0000"/><stop offset="1" stop-color="#0565FF"/></linearGradient><linearGradient x1="634.533" y1="50.8133" x2="300.615" y2="20.9187" gradientUnits="userSpaceOnUse" spreadMethod="pad" id="fill9"><stop offset="0" stop-color="#FF0000"/><stop offset="1" stop-color="#0565FF"/></linearGradient><linearGradient x1="634.125" y1="55.2606" x2="300.215" y2="25.3621" gradientUnits="userSpaceOnUse" spreadMethod="pad" id="fill10"><stop offset="0" stop-color="#FF0000"/><stop offset="1" stop-color="#0565FF"/></linearGradient><linearGradient x1="633.728" y1="59.693" x2="299.823" y2="29.7958" gradientUnits="userSpaceOnUse" spreadMethod="pad" id="fill11"><stop offset="0" stop-color="#FF0000"/><stop offset="1" stop-color="#0565FF"/></linearGradient><linearGradient x1="633.358" y1="64.1089" x2="299.418" y2="34.2082" gradientUnits="userSpaceOnUse" spreadMethod="pad" id="fill12"><stop offset="0" stop-color="#FF0000"/><stop offset="1" stop-color="#0565FF"/></linearGradient><linearGradient x1="632.954" y1="68.4974" x2="299.024" y2="38.6055" gradientUnits="userSpaceOnUse" spreadMethod="pad" id="fill13"><stop offset="0" stop-color="#FF0000"/><stop offset="1" stop-color="#0565FF"/></linearGradient><linearGradient x1="632.57" y1="72.8739" x2="298.632" y2="42.9733" gradientUnits="userSpaceOnUse" spreadMethod="pad" id="fill14"><stop offset="0" stop-color="#FF0000"/><stop offset="1" stop-color="#0565FF"/></linearGradient><linearGradient x1="632.183" y1="77.2064" x2="298.243" y2="47.3059" gradientUnits="userSpaceOnUse" spreadMethod="pad" id="fill15"><stop offset="0" stop-color="#FF0000"/><stop offset="1" stop-color="#0565FF"/></linearGradient><linearGradient x1="631.79" y1="81.4899" x2="297.866" y2="51.5939" gradientUnits="userSpaceOnUse" spreadMethod="pad" id="fill16"><stop offset="0" stop-color="#FF0000"/><stop offset="1" stop-color="#0565FF"/></linearGradient><linearGradient x1="631.416" y1="85.7192" x2="297.486" y2="55.8273" gradientUnits="userSpaceOnUse" spreadMethod="pad" id="fill17"><stop offset="0" stop-color="#FF0000"/><stop offset="1" stop-color="#0565FF"/></linearGradient><linearGradient x1="637.329" y1="20.1569" x2="303.338" y2="-9.74583" gradientUnits="userSpaceOnUse" spreadMethod="pad" id="fill18"><stop offset="0" stop-color="#FF0000"/><stop offset="1" stop-color="#0565FF"/></linearGradient><linearGradient x1="636.956" y1="24.0382" x2="302.997" y2="-5.86125" gradientUnits="userSpaceOnUse" spreadMethod="pad" id="fill19"><stop offset="0" stop-color="#FF0000"/><stop offset="1" stop-color="#0565FF"/></linearGradient><linearGradient x1="636.576" y1="27.9068" x2="302.665" y2="-1.9863" gradientUnits="userSpaceOnUse" spreadMethod="pad" id="fill20"><stop offset="0" stop-color="#FF0000"/><stop offset="1" stop-color="#0565FF"/></linearGradient><linearGradient x1="636.247" y1="31.7705" x2="302.313" y2="1.87153" gradientUnits="userSpaceOnUse" spreadMethod="pad" id="fill21"><stop offset="0" stop-color="#FF0000"/><stop offset="1" stop-color="#0565FF"/></linearGradient><linearGradient x1="635.857" y1="35.594" x2="301.988" y2="5.70023" gradientUnits="userSpaceOnUse" spreadMethod="pad" id="fill22"><stop offset="0" stop-color="#FF0000"/><stop offset="1" stop-color="#0565FF"/></linearGradient><linearGradient x1="635.556" y1="39.4047" x2="301.632" y2="9.50887" gradientUnits="userSpaceOnUse" spreadMethod="pad" id="fill23"><stop offset="0" stop-color="#FF0000"/><stop offset="1" stop-color="#0565FF"/></linearGradient><linearGradient x1="635.262" y1="42.6436" x2="301.345" y2="12.7434" gradientUnits="userSpaceOnUse" spreadMethod="pad" id="fill24"><stop offset="0" stop-color="#FF0000"/><stop offset="1" stop-color="#0565FF"/></linearGradient><linearGradient x1="634.941" y1="46.4078" x2="301.001" y2="16.5073" gradientUnits="userSpaceOnUse" spreadMethod="pad" id="fill25"><stop offset="0" stop-color="#FF0000"/><stop offset="1" stop-color="#0565FF"/></linearGradient><linearGradient x1="634.592" y1="50.1225" x2="300.675" y2="20.228" gradientUnits="userSpaceOnUse" spreadMethod="pad" id="fill26"><stop offset="0" stop-color="#FF0000"/><stop offset="1" stop-color="#0565FF"/></linearGradient><linearGradient x1="634.267" y1="53.8082" x2="300.345" y2="23.9123" gradientUnits="userSpaceOnUse" spreadMethod="pad" id="fill27"><stop offset="0" stop-color="#FF0000"/><stop offset="1" stop-color="#0565FF"/></linearGradient><linearGradient x1="633.953" y1="57.4604" x2="300.015" y2="27.5599" gradientUnits="userSpaceOnUse" spreadMethod="pad" id="fill28"><stop offset="0" stop-color="#FF0000"/><stop offset="1" stop-color="#0565FF"/></linearGradient><linearGradient x1="633.621" y1="61.0659" x2="299.694" y2="31.1685" gradientUnits="userSpaceOnUse" spreadMethod="pad" id="fill29"><stop offset="0" stop-color="#FF0000"/><stop offset="1" stop-color="#0565FF"/></linearGradient><linearGradient x1="633.296" y1="64.6127" x2="299.378" y2="34.7183" gradientUnits="userSpaceOnUse" spreadMethod="pad" id="fill30"><stop offset="0" stop-color="#FF0000"/><stop offset="1" stop-color="#0565FF"/></linearGradient><linearGradient x1="632.985" y1="68.1162" x2="299.061" y2="38.2202" gradientUnits="userSpaceOnUse" spreadMethod="pad" id="fill31"><stop offset="0" stop-color="#FF0000"/><stop offset="1" stop-color="#0565FF"/></linearGradient><linearGradient x1="632.681" y1="71.568" x2="298.754" y2="41.6705" gradientUnits="userSpaceOnUse" spreadMethod="pad" id="fill32"><stop offset="0" stop-color="#FF0000"/><stop offset="1" stop-color="#0565FF"/></linearGradient><linearGradient x1="632.377" y1="74.9593" x2="298.449" y2="45.0618" gradientUnits="userSpaceOnUse" spreadMethod="pad" id="fill33"><stop offset="0" stop-color="#FF0000"/><stop offset="1" stop-color="#0565FF"/></linearGradient><linearGradient x1="460.501" y1="-87.1014" x2="565.992" y2="25.184" gradientUnits="userSpaceOnUse" spreadMethod="pad" id="fill34"><stop offset="0" stop-color="#FF0000"/><stop offset="1" stop-color="#0565FF"/></linearGradient><linearGradient x1="439.899" y1="-67.7441" x2="545.39" y2="44.5359" gradientUnits="userSpaceOnUse" spreadMethod="pad" id="fill35"><stop offset="0" stop-color="#FF0000"/><stop offset="1" stop-color="#0565FF"/></linearGradient><linearGradient x1="436.73" y1="-64.7671" x2="542.222" y2="47.5128" gradientUnits="userSpaceOnUse" spreadMethod="pad" id="fill36"><stop offset="0" stop-color="#FF0000"/><stop offset="1" stop-color="#0565FF"/></linearGradient><linearGradient x1="426.143" y1="-54.8214" x2="531.634" y2="57.4645" gradientUnits="userSpaceOnUse" spreadMethod="pad" id="fill37"><stop offset="0" stop-color="#FF0000"/><stop offset="1" stop-color="#0565FF"/></linearGradient><linearGradient x1="411.681" y1="-41.2369" x2="517.176" y2="71.0504" gradientUnits="userSpaceOnUse" spreadMethod="pad" id="fill38"><stop offset="0" stop-color="#FF0000"/><stop offset="1" stop-color="#0565FF"/></linearGradient><linearGradient x1="406.619" y1="-36.4796" x2="512.113" y2="75.8062" gradientUnits="userSpaceOnUse" spreadMethod="pad" id="fill39"><stop offset="0" stop-color="#FF0000"/><stop offset="1" stop-color="#0565FF"/></linearGradient><linearGradient x1="395.913" y1="-26.4273" x2="501.411" y2="85.8598" gradientUnits="userSpaceOnUse" spreadMethod="pad" id="fill40"><stop offset="0" stop-color="#FF0000"/><stop offset="1" stop-color="#0565FF"/></linearGradient><linearGradient x1="385.844" y1="-16.9593" x2="491.339" y2="95.3208" gradientUnits="userSpaceOnUse" spreadMethod="pad" id="fill41"><stop offset="0" stop-color="#FF0000"/><stop offset="1" stop-color="#0565FF"/></linearGradient><linearGradient x1="442.373" y1="-70.0745" x2="547.871" y2="42.2124" gradientUnits="userSpaceOnUse" spreadMethod="pad" id="fill42"><stop offset="0" stop-color="#FF0000"/><stop offset="1" stop-color="#0565FF"/></linearGradient><linearGradient x1="439.972" y1="-67.8142" x2="545.463" y2="44.4713" gradientUnits="userSpaceOnUse" spreadMethod="pad" id="fill43"><stop offset="0" stop-color="#FF0000"/><stop offset="1" stop-color="#0565FF"/></linearGradient><linearGradient x1="437.529" y1="-65.517" x2="543.023" y2="46.763" gradientUnits="userSpaceOnUse" spreadMethod="pad" id="fill44"><stop offset="0" stop-color="#FF0000"/><stop offset="1" stop-color="#0565FF"/></linearGradient><linearGradient x1="432.577" y1="-60.8686" x2="538.068" y2="51.4169" gradientUnits="userSpaceOnUse" spreadMethod="pad" id="fill45"><stop offset="0" stop-color="#FF0000"/><stop offset="1" stop-color="#0565FF"/></linearGradient><linearGradient x1="429.968" y1="-58.4182" x2="535.466" y2="53.869" gradientUnits="userSpaceOnUse" spreadMethod="pad" id="fill46"><stop offset="0" stop-color="#FF0000"/><stop offset="1" stop-color="#0565FF"/></linearGradient><linearGradient x1="424.981" y1="-53.7311" x2="530.473" y2="58.5544" gradientUnits="userSpaceOnUse" spreadMethod="pad" id="fill47"><stop offset="0" stop-color="#FF0000"/><stop offset="1" stop-color="#0565FF"/></linearGradient><linearGradient x1="422.189" y1="-51.1084" x2="527.688" y2="61.173" gradientUnits="userSpaceOnUse" spreadMethod="pad" id="fill48"><stop offset="0" stop-color="#FF0000"/><stop offset="1" stop-color="#0565FF"/></linearGradient><linearGradient x1="419.394" y1="-48.4804" x2="524.888" y2="63.7996" gradientUnits="userSpaceOnUse" spreadMethod="pad" id="fill49"><stop offset="0" stop-color="#FF0000"/><stop offset="1" stop-color="#0565FF"/></linearGradient><linearGradient x1="417.435" y1="-46.6462" x2="522.933" y2="65.641" gradientUnits="userSpaceOnUse" spreadMethod="pad" id="fill50"><stop offset="0" stop-color="#FF0000"/><stop offset="1" stop-color="#0565FF"/></linearGradient><linearGradient x1="414.304" y1="-43.701" x2="519.795" y2="68.5848" gradientUnits="userSpaceOnUse" spreadMethod="pad" id="fill51"><stop offset="0" stop-color="#FF0000"/><stop offset="1" stop-color="#0565FF"/></linearGradient><linearGradient x1="411.999" y1="-41.5403" x2="517.497" y2="70.747" gradientUnits="userSpaceOnUse" spreadMethod="pad" id="fill52"><stop offset="0" stop-color="#FF0000"/><stop offset="1" stop-color="#0565FF"/></linearGradient><linearGradient x1="408.989" y1="-38.7064" x2="514.48" y2="73.5791" gradientUnits="userSpaceOnUse" spreadMethod="pad" id="fill53"><stop offset="0" stop-color="#FF0000"/><stop offset="1" stop-color="#0565FF"/></linearGradient><linearGradient x1="408.416" y1="-38.1718" x2="513.914" y2="74.1151" gradientUnits="userSpaceOnUse" spreadMethod="pad" id="fill54"><stop offset="0" stop-color="#FF0000"/><stop offset="1" stop-color="#0565FF"/></linearGradient><linearGradient x1="405.084" y1="-35.0352" x2="510.576" y2="77.2448" gradientUnits="userSpaceOnUse" spreadMethod="pad" id="fill55"><stop offset="0" stop-color="#FF0000"/><stop offset="1" stop-color="#0565FF"/></linearGradient><linearGradient x1="403.108" y1="-33.1816" x2="508.599" y2="79.1042" gradientUnits="userSpaceOnUse" spreadMethod="pad" id="fill56"><stop offset="0" stop-color="#FF0000"/><stop offset="1" stop-color="#0565FF"/></linearGradient><linearGradient x1="401.891" y1="-32.0349" x2="507.383" y2="80.2453" gradientUnits="userSpaceOnUse" spreadMethod="pad" id="fill57"><stop offset="0" stop-color="#FF0000"/><stop offset="1" stop-color="#0565FF"/></linearGradient><linearGradient x1="395.537" y1="-26.0675" x2="501.028" y2="86.2182" gradientUnits="userSpaceOnUse" spreadMethod="pad" id="fill58"><stop offset="0" stop-color="#FF0000"/><stop offset="1" stop-color="#0565FF"/></linearGradient><linearGradient x1="393.906" y1="-24.535" x2="499.404" y2="87.7466" gradientUnits="userSpaceOnUse" spreadMethod="pad" id="fill59"><stop offset="0" stop-color="#FF0000"/><stop offset="1" stop-color="#0565FF"/></linearGradient><linearGradient x1="391.165" y1="-21.9578" x2="496.657" y2="90.3279" gradientUnits="userSpaceOnUse" spreadMethod="pad" id="fill60"><stop offset="0" stop-color="#FF0000"/><stop offset="1" stop-color="#0565FF"/></linearGradient><linearGradient x1="389.607" y1="-20.4957" x2="495.098" y2="91.7899" gradientUnits="userSpaceOnUse" spreadMethod="pad" id="fill61"><stop offset="0" stop-color="#FF0000"/><stop offset="1" stop-color="#0565FF"/></linearGradient><linearGradient x1="388.263" y1="-19.2333" x2="493.754" y2="93.0522" gradientUnits="userSpaceOnUse" spreadMethod="pad" id="fill62"><stop offset="0" stop-color="#FF0000"/><stop offset="1" stop-color="#0565FF"/></linearGradient><linearGradient x1="388.118" y1="-19.0983" x2="493.616" y2="93.1887" gradientUnits="userSpaceOnUse" spreadMethod="pad" id="fill63"><stop offset="0" stop-color="#FF0000"/><stop offset="1" stop-color="#0565FF"/></linearGradient><linearGradient x1="385.467" y1="-16.6051" x2="490.958" y2="95.6805" gradientUnits="userSpaceOnUse" spreadMethod="pad" id="fill64"><stop offset="0" stop-color="#FF0000"/><stop offset="1" stop-color="#0565FF"/></linearGradient><linearGradient x1="381.604" y1="-12.9765" x2="487.095" y2="99.3092" gradientUnits="userSpaceOnUse" spreadMethod="pad" id="fill65"><stop offset="0" stop-color="#FF0000"/><stop offset="1" stop-color="#0565FF"/></linearGradient><linearGradient x1="382.129" y1="-13.4699" x2="487.624" y2="98.8102" gradientUnits="userSpaceOnUse" spreadMethod="pad" id="fill66"><stop offset="0" stop-color="#FF0000"/><stop offset="1" stop-color="#0565FF"/></linearGradient><linearGradient x1="379.361" y1="-10.8763" x2="484.859" y2="101.411" gradientUnits="userSpaceOnUse" spreadMethod="pad" id="fill67"><stop offset="0" stop-color="#FF0000"/><stop offset="1" stop-color="#0565FF"/></linearGradient><linearGradient x1="376.217" y1="-7.91737" x2="481.715" y2="104.364" gradientUnits="userSpaceOnUse" spreadMethod="pad" id="fill68"><stop offset="0" stop-color="#FF0000"/><stop offset="1" stop-color="#0565FF"/></linearGradient><linearGradient x1="377.986" y1="-9.5808" x2="483.484" y2="102.706" gradientUnits="userSpaceOnUse" spreadMethod="pad" id="fill69"><stop offset="0" stop-color="#FF0000"/><stop offset="1" stop-color="#0565FF"/></linearGradient><linearGradient x1="374.714" y1="-6.50612" x2="480.212" y2="105.781" gradientUnits="userSpaceOnUse" spreadMethod="pad" id="fill70"><stop offset="0" stop-color="#FF0000"/><stop offset="1" stop-color="#0565FF"/></linearGradient><linearGradient x1="372.447" y1="-4.37688" x2="477.945" y2="107.91" gradientUnits="userSpaceOnUse" spreadMethod="pad" id="fill71"><stop offset="0" stop-color="#FF0000"/><stop offset="1" stop-color="#0565FF"/></linearGradient><linearGradient x1="370.207" y1="-2.27109" x2="475.699" y2="110.015" gradientUnits="userSpaceOnUse" spreadMethod="pad" id="fill72"><stop offset="0" stop-color="#FF0000"/><stop offset="1" stop-color="#0565FF"/></linearGradient><linearGradient x1="372.654" y1="-4.5726" x2="478.152" y2="107.715" gradientUnits="userSpaceOnUse" spreadMethod="pad" id="fill73"><stop offset="0" stop-color="#FF0000"/><stop offset="1" stop-color="#0565FF"/></linearGradient><linearGradient x1="367.941" y1="-0.141842" x2="473.432" y2="112.144" gradientUnits="userSpaceOnUse" spreadMethod="pad" id="fill74"><stop offset="0" stop-color="#FF0000"/><stop offset="1" stop-color="#0565FF"/></linearGradient><linearGradient x1="407.628" y1="-37.4247" x2="513.122" y2="74.8553" gradientUnits="userSpaceOnUse" spreadMethod="pad" id="fill75"><stop offset="0" stop-color="#FF0000"/><stop offset="1" stop-color="#0565FF"/></linearGradient><linearGradient x1="404.694" y1="-34.6727" x2="510.185" y2="77.6128" gradientUnits="userSpaceOnUse" spreadMethod="pad" id="fill76"><stop offset="0" stop-color="#FF0000"/><stop offset="1" stop-color="#0565FF"/></linearGradient><linearGradient x1="401.805" y1="-31.9564" x2="507.3" y2="80.3306" gradientUnits="userSpaceOnUse" spreadMethod="pad" id="fill77"><stop offset="0" stop-color="#FF0000"/><stop offset="1" stop-color="#0565FF"/></linearGradient><linearGradient x1="398.961" y1="-29.2869" x2="504.459" y2="82.9945" gradientUnits="userSpaceOnUse" spreadMethod="pad" id="fill78"><stop offset="0" stop-color="#FF0000"/><stop offset="1" stop-color="#0565FF"/></linearGradient><linearGradient x1="396.176" y1="-26.6684" x2="501.667" y2="85.6173" gradientUnits="userSpaceOnUse" spreadMethod="pad" id="fill79"><stop offset="0" stop-color="#FF0000"/><stop offset="1" stop-color="#0565FF"/></linearGradient><linearGradient x1="393.439" y1="-24.0912" x2="498.93" y2="88.1889" gradientUnits="userSpaceOnUse" spreadMethod="pad" id="fill80"><stop offset="0" stop-color="#FF0000"/><stop offset="1" stop-color="#0565FF"/></linearGradient><linearGradient x1="391.321" y1="-22.1081" x2="496.816" y2="90.1789" gradientUnits="userSpaceOnUse" spreadMethod="pad" id="fill81"><stop offset="0" stop-color="#FF0000"/><stop offset="1" stop-color="#0565FF"/></linearGradient><linearGradient x1="388.125" y1="-19.1079" x2="493.623" y2="93.179" gradientUnits="userSpaceOnUse" spreadMethod="pad" id="fill82"><stop offset="0" stop-color="#FF0000"/><stop offset="1" stop-color="#0565FF"/></linearGradient><linearGradient x1="385.557" y1="-16.6892" x2="491.048" y2="95.5966" gradientUnits="userSpaceOnUse" spreadMethod="pad" id="fill83"><stop offset="0" stop-color="#FF0000"/><stop offset="1" stop-color="#0565FF"/></linearGradient><linearGradient x1="383.059" y1="-14.3464" x2="488.55" y2="97.9391" gradientUnits="userSpaceOnUse" spreadMethod="pad" id="fill84"><stop offset="0" stop-color="#FF0000"/><stop offset="1" stop-color="#0565FF"/></linearGradient><linearGradient x1="380.609" y1="-12.0449" x2="486.103" y2="100.241" gradientUnits="userSpaceOnUse" spreadMethod="pad" id="fill85"><stop offset="0" stop-color="#FF0000"/><stop offset="1" stop-color="#0565FF"/></linearGradient><linearGradient x1="378.231" y1="-9.80811" x2="483.722" y2="102.478" gradientUnits="userSpaceOnUse" spreadMethod="pad" id="fill86"><stop offset="0" stop-color="#FF0000"/><stop offset="1" stop-color="#0565FF"/></linearGradient><linearGradient x1="375.961" y1="-7.67476" x2="481.452" y2="104.611" gradientUnits="userSpaceOnUse" spreadMethod="pad" id="fill87"><stop offset="0" stop-color="#FF0000"/><stop offset="1" stop-color="#0565FF"/></linearGradient><linearGradient x1="373.694" y1="-5.54551" x2="479.185" y2="106.74" gradientUnits="userSpaceOnUse" spreadMethod="pad" id="fill88"><stop offset="0" stop-color="#FF0000"/><stop offset="1" stop-color="#0565FF"/></linearGradient><linearGradient x1="371.576" y1="-3.55691" x2="477.074" y2="108.725" gradientUnits="userSpaceOnUse" spreadMethod="pad" id="fill89"><stop offset="0" stop-color="#FF0000"/><stop offset="1" stop-color="#0565FF"/></linearGradient><linearGradient x1="371.293" y1="-3.29087" x2="476.787" y2="108.995" gradientUnits="userSpaceOnUse" spreadMethod="pad" id="fill90"><stop offset="0" stop-color="#FF0000"/><stop offset="1" stop-color="#0565FF"/></linearGradient><linearGradient x1="367.837" y1="-0.0439783" x2="473.328" y2="112.242" gradientUnits="userSpaceOnUse" spreadMethod="pad" id="fill91"><stop offset="0" stop-color="#FF0000"/><stop offset="1" stop-color="#0565FF"/></linearGradient><linearGradient x1="365.916" y1="1.7586" x2="471.414" y2="114.046" gradientUnits="userSpaceOnUse" spreadMethod="pad" id="fill92"><stop offset="0" stop-color="#FF0000"/><stop offset="1" stop-color="#0565FF"/></linearGradient><linearGradient x1="364.091" y1="3.47864" x2="469.582" y2="115.759" gradientUnits="userSpaceOnUse" spreadMethod="pad" id="fill93"><stop offset="0" stop-color="#FF0000"/><stop offset="1" stop-color="#0565FF"/></linearGradient><linearGradient x1="362.388" y1="5.07583" x2="467.886" y2="117.357" gradientUnits="userSpaceOnUse" spreadMethod="pad" id="fill94"><stop offset="0" stop-color="#FF0000"/><stop offset="1" stop-color="#0565FF"/></linearGradient><linearGradient x1="360.763" y1="6.60419" x2="466.255" y2="118.89" gradientUnits="userSpaceOnUse" spreadMethod="pad" id="fill95"><stop offset="0" stop-color="#FF0000"/><stop offset="1" stop-color="#0565FF"/></linearGradient><linearGradient x1="359.219" y1="8.05262" x2="464.713" y2="120.34" gradientUnits="userSpaceOnUse" spreadMethod="pad" id="fill96"><stop offset="0" stop-color="#FF0000"/><stop offset="1" stop-color="#0565FF"/></linearGradient><linearGradient x1="357.785" y1="9.39904" x2="463.283" y2="121.686" gradientUnits="userSpaceOnUse" spreadMethod="pad" id="fill97"><stop offset="0" stop-color="#FF0000"/><stop offset="1" stop-color="#0565FF"/></linearGradient><linearGradient x1="356.496" y1="10.6105" x2="461.987" y2="122.896" gradientUnits="userSpaceOnUse" spreadMethod="pad" id="fill98"><stop offset="0" stop-color="#FF0000"/><stop offset="1" stop-color="#0565FF"/></linearGradient><linearGradient x1="355.273" y1="11.7612" x2="460.764" y2="124.047" gradientUnits="userSpaceOnUse" spreadMethod="pad" id="fill99"><stop offset="0" stop-color="#FF0000"/><stop offset="1" stop-color="#0565FF"/></linearGradient><linearGradient x1="356.973" y1="-48.5775" x2="344.484" y2="-821.254" gradientUnits="userSpaceOnUse" spreadMethod="pad" id="fill100"><stop offset="0" stop-color="#FF0000"/><stop offset="1" stop-color="#0565FF"/></linearGradient><linearGradient x1="355.794" y1="-48.5582" x2="343.305" y2="-821.237" gradientUnits="userSpaceOnUse" spreadMethod="pad" id="fill101"><stop offset="0" stop-color="#FF0000"/><stop offset="1" stop-color="#0565FF"/></linearGradient><linearGradient x1="354.789" y1="-48.5402" x2="342.301" y2="-821.223" gradientUnits="userSpaceOnUse" spreadMethod="pad" id="fill102"><stop offset="0" stop-color="#FF0000"/><stop offset="1" stop-color="#0565FF"/></linearGradient><linearGradient x1="353.97" y1="-48.526" x2="341.484" y2="-821.209" gradientUnits="userSpaceOnUse" spreadMethod="pad" id="fill103"><stop offset="0" stop-color="#FF0000"/><stop offset="1" stop-color="#0565FF"/></linearGradient><linearGradient x1="353.337" y1="-48.5157" x2="340.852" y2="-821.199" gradientUnits="userSpaceOnUse" spreadMethod="pad" id="fill104"><stop offset="0" stop-color="#FF0000"/><stop offset="1" stop-color="#0565FF"/></linearGradient><linearGradient x1="352.944" y1="-48.508" x2="340.455" y2="-821.192" gradientUnits="userSpaceOnUse" spreadMethod="pad" id="fill105"><stop offset="0" stop-color="#FF0000"/><stop offset="1" stop-color="#0565FF"/></linearGradient><linearGradient x1="352.643" y1="-48.5049" x2="340.154" y2="-821.189" gradientUnits="userSpaceOnUse" spreadMethod="pad" id="fill106"><stop offset="0" stop-color="#FF0000"/><stop offset="1" stop-color="#0565FF"/></linearGradient><linearGradient x1="352.539" y1="-48.5025" x2="340.052" y2="-821.185" gradientUnits="userSpaceOnUse" spreadMethod="pad" id="fill107"><stop offset="0" stop-color="#FF0000"/><stop offset="1" stop-color="#0565FF"/></linearGradient><linearGradient x1="352.619" y1="-48.5053" x2="340.124" y2="-821.185" gradientUnits="userSpaceOnUse" spreadMethod="pad" id="fill108"><stop offset="0" stop-color="#FF0000"/><stop offset="1" stop-color="#0565FF"/></linearGradient><linearGradient x1="352.84" y1="-48.5112" x2="340.354" y2="-821.195" gradientUnits="userSpaceOnUse" spreadMethod="pad" id="fill109"><stop offset="0" stop-color="#FF0000"/><stop offset="1" stop-color="#0565FF"/></linearGradient><linearGradient x1="353.251" y1="-48.5157" x2="340.761" y2="-821.195" gradientUnits="userSpaceOnUse" spreadMethod="pad" id="fill110"><stop offset="0" stop-color="#FF0000"/><stop offset="1" stop-color="#0565FF"/></linearGradient><linearGradient x1="353.845" y1="-48.5239" x2="341.357" y2="-821.209" gradientUnits="userSpaceOnUse" spreadMethod="pad" id="fill111"><stop offset="0" stop-color="#FF0000"/><stop offset="1" stop-color="#0565FF"/></linearGradient><linearGradient x1="354.633" y1="-48.5398" x2="342.139" y2="-821.22" gradientUnits="userSpaceOnUse" spreadMethod="pad" id="fill112"><stop offset="0" stop-color="#FF0000"/><stop offset="1" stop-color="#0565FF"/></linearGradient><linearGradient x1="355.608" y1="-48.5544" x2="343.12" y2="-821.237" gradientUnits="userSpaceOnUse" spreadMethod="pad" id="fill113"><stop offset="0" stop-color="#FF0000"/><stop offset="1" stop-color="#0565FF"/></linearGradient><linearGradient x1="356.776" y1="-48.5768" x2="344.286" y2="-821.254" gradientUnits="userSpaceOnUse" spreadMethod="pad" id="fill114"><stop offset="0" stop-color="#FF0000"/><stop offset="1" stop-color="#0565FF"/></linearGradient><linearGradient x1="273.066" y1="-47.2184" x2="260.578" y2="-819.903" gradientUnits="userSpaceOnUse" spreadMethod="pad" id="fill115"><stop offset="0" stop-color="#FF0000"/><stop offset="1" stop-color="#0565FF"/></linearGradient><linearGradient x1="272.489" y1="-47.2115" x2="260" y2="-819.889" gradientUnits="userSpaceOnUse" spreadMethod="pad" id="fill116"><stop offset="0" stop-color="#FF0000"/><stop offset="1" stop-color="#0565FF"/></linearGradient><linearGradient x1="272.194" y1="-47.2063" x2="259.706" y2="-819.886" gradientUnits="userSpaceOnUse" spreadMethod="pad" id="fill117"><stop offset="0" stop-color="#FF0000"/><stop offset="1" stop-color="#0565FF"/></linearGradient><linearGradient x1="272.2" y1="-47.205" x2="259.713" y2="-819.889" gradientUnits="userSpaceOnUse" spreadMethod="pad" id="fill118"><stop offset="0" stop-color="#FF0000"/><stop offset="1" stop-color="#0565FF"/></linearGradient><linearGradient x1="272.447" y1="-47.2105" x2="259.954" y2="-819.896" gradientUnits="userSpaceOnUse" spreadMethod="pad" id="fill119"><stop offset="0" stop-color="#FF0000"/><stop offset="1" stop-color="#0565FF"/></linearGradient><linearGradient x1="272.947" y1="-47.2205" x2="260.458" y2="-819.9" gradientUnits="userSpaceOnUse" spreadMethod="pad" id="fill120"><stop offset="0" stop-color="#FF0000"/><stop offset="1" stop-color="#0565FF"/></linearGradient><linearGradient x1="273.734" y1="-47.2309" x2="261.247" y2="-819.913" gradientUnits="userSpaceOnUse" spreadMethod="pad" id="fill121"><stop offset="0" stop-color="#FF0000"/><stop offset="1" stop-color="#0565FF"/></linearGradient><linearGradient x1="274.816" y1="-47.2464" x2="262.329" y2="-819.931" gradientUnits="userSpaceOnUse" spreadMethod="pad" id="fill122"><stop offset="0" stop-color="#FF0000"/><stop offset="1" stop-color="#0565FF"/></linearGradient><linearGradient x1="276.199" y1="-47.2706" x2="263.71" y2="-819.948" gradientUnits="userSpaceOnUse" spreadMethod="pad" id="fill123"><stop offset="0" stop-color="#FF0000"/><stop offset="1" stop-color="#0565FF"/></linearGradient><linearGradient x1="110.932" y1="-44.6005" x2="98.4429" y2="-817.28" gradientUnits="userSpaceOnUse" spreadMethod="pad" id="fill124"><stop offset="0" stop-color="#FF0000"/><stop offset="1" stop-color="#0565FF"/></linearGradient><linearGradient x1="109.313" y1="-44.5732" x2="96.8264" y2="-817.256" gradientUnits="userSpaceOnUse" spreadMethod="pad" id="fill125"><stop offset="0" stop-color="#FF0000"/><stop offset="1" stop-color="#0565FF"/></linearGradient><linearGradient x1="108.166" y1="-44.5577" x2="95.6771" y2="-817.235" gradientUnits="userSpaceOnUse" spreadMethod="pad" id="fill126"><stop offset="0" stop-color="#FF0000"/><stop offset="1" stop-color="#0565FF"/></linearGradient><linearGradient x1="107.485" y1="-44.5425" x2="94.9922" y2="-817.228" gradientUnits="userSpaceOnUse" spreadMethod="pad" id="fill127"><stop offset="0" stop-color="#FF0000"/><stop offset="1" stop-color="#0565FF"/></linearGradient><linearGradient x1="107.258" y1="-44.5435" x2="94.7689" y2="-817.222" gradientUnits="userSpaceOnUse" spreadMethod="pad" id="fill128"><stop offset="0" stop-color="#FF0000"/><stop offset="1" stop-color="#0565FF"/></linearGradient><linearGradient x1="107.516" y1="-44.5459" x2="95.0215" y2="-817.225" gradientUnits="userSpaceOnUse" spreadMethod="pad" id="fill129"><stop offset="0" stop-color="#FF0000"/><stop offset="1" stop-color="#0565FF"/></linearGradient><linearGradient x1="108.219" y1="-44.5552" x2="95.7317" y2="-817.239" gradientUnits="userSpaceOnUse" spreadMethod="pad" id="fill130"><stop offset="0" stop-color="#FF0000"/><stop offset="1" stop-color="#0565FF"/></linearGradient><clipPath id="clip131"><path d="M-74.9867 243.492 120.581-486.953 852.492-291.776 656.926 438.669Z"/></clipPath><linearGradient x1="409.853" y1="-136.73" x2="581.922" y2="189.102" gradientUnits="userSpaceOnUse" spreadMethod="pad" id="fill132"><stop offset="0" stop-color="#0DFFFF"/><stop offset="1" stop-color="#0565FF"/></linearGradient><linearGradient x1="397.821" y1="-130.375" x2="569.887" y2="195.457" gradientUnits="userSpaceOnUse" spreadMethod="pad" id="fill133"><stop offset="0" stop-color="#0DFFFF"/><stop offset="1" stop-color="#0565FF"/></linearGradient><linearGradient x1="407.272" y1="-135.368" x2="579.338" y2="190.47" gradientUnits="userSpaceOnUse" spreadMethod="pad" id="fill134"><stop offset="0" stop-color="#0DFFFF"/><stop offset="1" stop-color="#0565FF"/></linearGradient><linearGradient x1="409.107" y1="-136.337" x2="581.173" y2="189.5" gradientUnits="userSpaceOnUse" spreadMethod="pad" id="fill135"><stop offset="0" stop-color="#0DFFFF"/><stop offset="1" stop-color="#0565FF"/></linearGradient><linearGradient x1="392.589" y1="-127.615" x2="564.655" y2="198.222" gradientUnits="userSpaceOnUse" spreadMethod="pad" id="fill136"><stop offset="0" stop-color="#0DFFFF"/><stop offset="1" stop-color="#0565FF"/></linearGradient><linearGradient x1="364.876" y1="-112.978" x2="536.945" y2="212.854" gradientUnits="userSpaceOnUse" spreadMethod="pad" id="fill137"><stop offset="0" stop-color="#0DFFFF"/><stop offset="1" stop-color="#0565FF"/></linearGradient><linearGradient x1="351.423" y1="-105.878" x2="523.492" y2="219.966" gradientUnits="userSpaceOnUse" spreadMethod="pad" id="fill138"><stop offset="0" stop-color="#0DFFFF"/><stop offset="1" stop-color="#0565FF"/></linearGradient><linearGradient x1="305.908" y1="-81.8393" x2="477.976" y2="243.993" gradientUnits="userSpaceOnUse" spreadMethod="pad" id="fill139"><stop offset="0" stop-color="#0DFFFF"/><stop offset="1" stop-color="#0565FF"/></linearGradient><linearGradient x1="288.497" y1="-72.6441" x2="460.567" y2="253.188" gradientUnits="userSpaceOnUse" spreadMethod="pad" id="fill140"><stop offset="0" stop-color="#0DFFFF"/><stop offset="1" stop-color="#0565FF"/></linearGradient><linearGradient x1="414.345" y1="16.0626" x2="-325.722" y2="-736.462" gradientUnits="userSpaceOnUse" spreadMethod="pad" id="fill141"><stop offset="0" stop-color="#0DFFFF"/><stop offset="1" stop-color="#0565FF"/></linearGradient><linearGradient x1="404.314" y1="25.9241" x2="-335.745" y2="-726.593" gradientUnits="userSpaceOnUse" spreadMethod="pad" id="fill142"><stop offset="0" stop-color="#0DFFFF"/><stop offset="1" stop-color="#0565FF"/></linearGradient><linearGradient x1="340.546" y1="88.6381" x2="-399.517" y2="-663.881" gradientUnits="userSpaceOnUse" spreadMethod="pad" id="fill143"><stop offset="0" stop-color="#0DFFFF"/><stop offset="1" stop-color="#0565FF"/></linearGradient><linearGradient x1="328.732" y1="100.255" x2="-411.329" y2="-652.271" gradientUnits="userSpaceOnUse" spreadMethod="pad" id="fill144"><stop offset="0" stop-color="#0DFFFF"/><stop offset="1" stop-color="#0565FF"/></linearGradient><linearGradient x1="331.626" y1="97.4086" x2="-408.436" y2="-655.115" gradientUnits="userSpaceOnUse" spreadMethod="pad" id="fill145"><stop offset="0" stop-color="#0DFFFF"/><stop offset="1" stop-color="#0565FF"/></linearGradient><linearGradient x1="245.475" y1="182.134" x2="-494.587" y2="-570.391" gradientUnits="userSpaceOnUse" spreadMethod="pad" id="fill146"><stop offset="0" stop-color="#0DFFFF"/><stop offset="1" stop-color="#0565FF"/></linearGradient><linearGradient x1="235.523" y1="191.921" x2="-504.539" y2="-560.605" gradientUnits="userSpaceOnUse" spreadMethod="pad" id="fill147"><stop offset="0" stop-color="#0DFFFF"/><stop offset="1" stop-color="#0565FF"/></linearGradient><linearGradient x1="64.3162" y1="360.3" x2="-675.751" y2="-392.226" gradientUnits="userSpaceOnUse" spreadMethod="pad" id="fill148"><stop offset="0" stop-color="#0DFFFF"/><stop offset="1" stop-color="#0565FF"/></linearGradient></defs><g clip-path="url(#clip0)"><path d="M0 0 552.889 0 552.889 311 0 311Z" fill="#4F81BD" transform="scale(1.00201 1)"/><g clip-path="url(#clip1)"><path d="M398.035-1.15185 398.177-1.62987C398.139-1.49165 398.097-1.35343 398.063-1.20944 398.028-1.06546 397.983-0.933 397.949-0.789017 397.914-0.645038 397.873-0.512573 397.831-0.368594 397.793-0.224611 397.759-0.0921483 397.724 0.0518333L397.534 0.719906 398.035-1.15185" fill="url(#fill2)" transform="scale(1.00201 1)"/><path d="M396.881 3.30582 397.14 2.37282C397.14 2.51104 397.078 2.65502 397.043 2.79324 397.009 2.93146 396.981 3.07544 396.947 3.21943 396.912 3.36341 396.881 3.50162 396.846 3.63984 396.812 3.77806 396.784 3.92206 396.757 4.06605L396.449 5.21789 396.881 3.32309" fill="url(#fill3)" transform="scale(1.00201 1)"/><path d="M395.896 7.82106 396.266 6.39855 396.179 6.82472C396.179 6.96294 396.121 7.10694 396.1 7.2509 396.076 7.39489 396.041 7.53311 396.017 7.6771 395.996 7.82106 395.965 7.95928 395.938 8.09751L395.533 9.7389 395.896 7.82106" fill="url(#fill4)" transform="scale(1.00201 1)"/><path d="M395.091 12.3997 395.551 10.4415C395.551 10.5855 395.512 10.7295 395.488 10.8677L395.419 11.2997C395.419 11.4379 395.378 11.5819 395.357 11.7258 395.333 11.8698 395.316 12.0081 395.291 12.152 395.143 12.8143 394.894 13.6898 394.797 14.3636L395.091 12.3997" fill="url(#fill5)" transform="scale(1.00201 1)"/><path d="M394.417 17.0762C394.573 16.2987 394.752 15.262 394.963 14.5018L394.773 16.2296C394.583 17.0762 394.307 18.205 394.199 19.0689L394.417 17.0877" fill="url(#fill6)" transform="scale(1.00201 1)"/><path d="M393.94 21.7988C394.096 20.8255 394.307 19.4951 394.555 18.5736L394.514 19.0056 394.479 19.4317C394.479 19.5757 394.479 19.7139 394.452 19.8579 394.424 20.0019 394.452 20.1459 394.452 20.2899 394.22 21.3323 393.933 22.7318 393.819 23.7915L393.961 21.7988" fill="url(#fill7)" transform="scale(1.00201 1)"/><path d="M393.681 25.8591C393.83 24.5796 394.047 23.309 394.331 22.0522 394.331 22.1962 394.331 22.3402 394.331 22.4842L394.331 22.9103 394.331 23.3423C394.331 23.4863 394.331 23.6302 394.331 23.7685 394.034 25.1218 393.812 26.4908 393.667 27.8691L393.75 25.8591" fill="url(#fill8)" transform="scale(1.00201 1)"/><path d="M393.543 30.6565 393.543 30.6565C393.678 29.1395 393.902 27.6318 394.217 26.1413L394.217 27.8691C393.536 31.1058 393.536 31.1058 393.543 32.7068L393.543 30.6565" fill="url(#fill9)" transform="scale(1.00201 1)"/><path d="M393.598 35.5C393.719 32.4937 393.726 32.3152 394.262 30.2073L394.262 30.6335 394.262 31.0597 394.262 31.4916C394.262 31.6298 394.262 31.7738 394.262 31.9178 393.595 35.2062 393.553 35.3735 393.605 37.5505L393.526 35.5" fill="url(#fill10)" transform="scale(1.00201 1)"/><path d="M393.854 40.3782C393.854 37.3487 393.854 37.0322 394.479 34.2676 394.479 34.4116 394.479 34.5556 394.479 34.6938L394.514 35.1257 394.548 35.5518C394.548 35.69 394.548 35.8341 394.59 35.9782 393.909 39.4911 393.864 39.7043 394.013 42.4342L393.847 40.3782" fill="url(#fill11)" transform="scale(1.00201 1)"/><path d="M394.307 45.2619C394.168 41.91 394.165 41.8063 394.884 38.3508L395.098 40.0499C394.376 43.9315 394.365 44.0065 394.583 47.3525L394.331 45.2909" fill="url(#fill12)" transform="scale(1.00201 1)"/><path d="M394.98 50.2151 394.98 50.1515C394.752 47.3525 394.624 45.8148 395.426 42.3537 395.426 42.4975 395.464 42.6357 395.488 42.7798 395.512 42.9239 395.533 43.0621 395.564 43.2003L395.633 43.6205C395.633 43.7646 395.678 43.9028 395.706 44.0469 395.132 47.4102 394.821 49.0976 395.326 52.2248L394.994 50.2151" fill="url(#fill13)" transform="scale(1.00201 1)"/><path d="M395.851 55.0702C395.461 51.9715 395.274 50.5606 396.135 46.3622L396.221 46.7823 396.307 47.2029C396.307 47.347 396.37 47.4852 396.397 47.6234 396.428 47.7617 396.456 47.9054 396.49 48.0436 395.879 51.7411 395.602 53.4288 396.29 57.1435L395.851 55.0702" fill="url(#fill14)" transform="scale(1.00201 1)"/><path d="M396.95 59.977C396.376 56.6884 396.152 55.3234 397.033 50.3474L397.137 50.7621 397.24 51.1827C397.275 51.3209 397.313 51.4591 397.347 51.5973 397.382 51.7355 397.423 51.8738 397.458 52.012 396.777 56.4465 396.622 57.9092 397.458 62.0386L396.933 59.977" fill="url(#fill15)" transform="scale(1.00201 1)"/><path d="M398.263 64.8666C397.347 60.6277 397.33 59.4414 398.104 54.2927L398.225 54.7073C398.263 54.8455 398.305 54.9838 398.35 55.122 398.398 55.2602 398.432 55.3984 398.477 55.5366 398.522 55.6749 398.564 55.8072 398.605 55.9454 398.08 59.6429 397.631 62.8566 398.885 66.8882L398.263 64.8435" fill="url(#fill16)" transform="scale(1.00201 1)"/><path d="M399.842 69.8309 399.801 69.7158C399.02 66.7095 398.339 64.1178 399.352 58.1974L399.49 58.6062C399.538 58.7444 399.59 58.8827 399.635 59.015L399.784 59.4241C399.832 59.5624 399.884 59.6947 399.929 59.8329 399.4 63.9105 398.985 67.13 400.506 71.7487L399.825 69.8254" fill="url(#fill17)" transform="scale(1.00201 1)"/><path d="M398.177-1.62987 398.305-2.0503 397.89-0.529851 397.724 0.046074C397.759-0.0979073 397.797-0.236129 397.831-0.374351 397.866-0.512573 397.907-0.656556 397.949-0.794778 397.987-0.933 398.021-1.07698 398.063-1.2152 398.104-1.35343 398.139-1.49741 398.177-1.63563" fill="url(#fill18)" transform="scale(1.00201 1)"/><path d="M397.14 2.37282 397.396 1.555 397.043 3.07544 396.777 4.06605C396.808 3.92206 396.843 3.78383 396.871 3.63984 396.898 3.49588 396.933 3.35765 396.967 3.21943 397.002 3.0812 397.033 2.93722 397.068 2.79324 397.102 2.64926 397.137 2.51104 397.164 2.37282" fill="url(#fill19)" transform="scale(1.00201 1)"/><path d="M396.242 6.39855 396.584 5.18333 396.293 6.69801 395.938 8.12633C395.938 7.9881 395.989 7.84411 396.017 7.70589 396.048 7.56767 396.069 7.41794 396.1 7.27972 396.128 7.14149 396.152 6.99173 396.179 6.85351L396.266 6.42733" fill="url(#fill20)" transform="scale(1.00201 1)"/><path d="M395.533 10.4415 395.938 8.71377 395.713 10.2054 395.274 12.129C395.274 11.985 395.322 11.8468 395.34 11.7028 395.357 11.5588 395.385 11.4148 395.402 11.2766L395.471 10.8447C395.471 10.7065 395.516 10.5625 395.533 10.4185" fill="url(#fill21)" transform="scale(1.00201 1)"/><path d="M394.963 14.5018 395.443 12.2672 395.274 13.7473 394.773 16.2181 394.963 14.5018" fill="url(#fill22)" transform="scale(1.00201 1)"/><path d="M394.555 18.5736C394.721 17.7385 395.011 16.6327 395.091 15.7804L394.98 17.2778C394.832 18.1935 394.676 19.426 394.407 20.3187 394.407 20.1747 394.407 20.0307 394.407 19.8867 394.407 19.7427 394.407 19.6045 394.434 19.4605L394.514 19.0056 394.548 18.5736" fill="url(#fill23)" transform="scale(1.00201 1)"/><path d="M394.331 22.0522C394.579 20.9668 394.773 19.8692 394.908 18.7637L394.849 20.2265C394.721 21.4167 394.528 22.599 394.272 23.7685 394.272 23.6302 394.272 23.4863 394.272 23.3423L394.272 22.9103 394.272 22.4842C394.272 22.3402 394.272 22.1962 394.272 22.0522" fill="url(#fill24)" transform="scale(1.00201 1)"/><path d="M394.217 26.1298C394.486 24.8427 394.676 23.5407 394.79 22.2307L394.79 23.6706C394.687 25.073 394.493 26.4675 394.217 27.846L394.217 26.1182" fill="url(#fill25)" transform="scale(1.00201 1)"/><path d="M394.262 30.2073C394.555 28.6997 394.749 27.1739 394.839 25.6402L394.894 27.0685C394.815 28.6961 394.621 30.3163 394.32 31.9178 394.32 31.7738 394.32 31.6298 394.32 31.4916L394.32 31.0597 394.32 30.6335 394.32 30.2073" fill="url(#fill26)" transform="scale(1.00201 1)"/><path d="M394.479 34.2676C394.79 32.5325 394.97 30.7769 395.022 29.0152L395.136 30.4319C395.105 32.2911 394.932 34.1452 394.618 35.9782 394.618 35.8341 394.618 35.69 394.579 35.5518L394.545 35.1257 394.51 34.6938C394.51 34.5556 394.51 34.4116 394.51 34.2676" fill="url(#fill27)" transform="scale(1.00201 1)"/><path d="M394.859 38.3221C395.547 34.2503 395.547 34.2503 395.34 32.3613L395.512 33.7608C395.637 37.4814 395.644 37.556 395.074 40.0212L394.859 38.3221" fill="url(#fill28)" transform="scale(1.00201 1)"/><path d="M395.412 42.3537C396.093 38.1034 396.103 38.0225 395.792 35.6727L395.792 35.7073 396.017 37.0377C396.307 40.816 396.318 40.9597 395.689 44.0352 395.689 43.8914 395.637 43.7532 395.616 43.6091L395.551 43.1944C395.551 43.0562 395.499 42.9121 395.478 42.7739 395.454 42.6357 395.43 42.4919 395.412 42.3478" fill="url(#fill29)" transform="scale(1.00201 1)"/><path d="M396.135 46.3622C396.76 42.2096 396.826 41.7545 396.38 38.9268L396.674 40.2859C397.119 44.0124 397.154 44.3175 396.49 48.0436 396.456 47.9054 396.428 47.7672 396.397 47.6234 396.37 47.4793 396.335 47.347 396.307 47.2029L396.221 46.7823 396.135 46.3622" fill="url(#fill30)" transform="scale(1.00201 1)"/><path d="M397.033 50.3474C397.683 45.6938 397.71 45.5097 397.112 42.1405L397.458 43.4768C398.108 47.4448 398.132 47.5944 397.458 52.012 397.423 51.8738 397.382 51.7355 397.347 51.5973 397.313 51.4591 397.275 51.3209 397.24 51.1827L397.137 50.7621 397.033 50.3474" fill="url(#fill31)" transform="scale(1.00201 1)"/><path d="M398.104 54.2927C398.747 49.3108 398.761 49.213 397.976 45.3082L398.381 46.6327C399.255 50.8081 399.255 50.8081 398.605 55.9454 398.564 55.8072 398.519 55.669 398.477 55.5366 398.436 55.404 398.391 55.2602 398.35 55.122 398.312 54.9838 398.263 54.8455 398.225 54.7073L398.104 54.2927" fill="url(#fill32)" transform="scale(1.00201 1)"/><path d="M399.352 58.203C399.853 53.9412 400.108 51.8047 398.985 48.4123L398.985 48.4873 399.421 49.714C400.292 53.1178 400.73 54.8283 399.905 59.8157 399.86 59.6774 399.808 59.5451 399.763 59.4069L399.611 58.9977C399.566 58.8654 399.514 58.7272 399.469 58.5889L399.331 58.1802" fill="url(#fill33)" transform="scale(1.00201 1)"/><path d="M563.076 26.9648C558.47 6.30639 556.662 3.60528 549.081-7.75772L548.801-7.71166 548.518-7.66556 548.234-7.61373 547.954-7.5619C555.439 3.62256 557.485 6.6289 562.295 27.0973L563.076 26.9648" fill="url(#fill34)" transform="scale(1.00201 1)"/><path d="M540.553 36.5943C527.463 19.0747 525.303 16.4945 516.208 5.64406L515.959 5.82261 515.714 5.99539 515.465 6.16817 515.216 6.34671C524.432 17.249 526.616 19.8407 539.879 37.084L540.553 36.5943" fill="url(#fill35)" transform="scale(1.00201 1)"/><path d="M515.576 13.7301 511.543 9.12267 511.301 9.31272 511.066 9.50855 510.824 9.70434 510.586 9.90017C511.927 11.436 513.271 12.9717 514.619 14.5076L515.552 13.7416" fill="url(#fill36)" transform="scale(1.00201 1)"/><path d="M512.252 30.812C508.578 27.3565 506.101 24.7763 500.91 19.3453L500.71 19.5815 500.503 19.8176 500.302 20.0537C500.233 20.1344 500.167 20.215 500.098 20.2899 505.334 25.7381 507.835 28.2895 511.502 31.6989L512.252 30.812" fill="url(#fill37)" transform="scale(1.00201 1)"/><path d="M491.75 38.0916 489.625 36.1278C489.583 36.2201 489.538 36.3065 489.49 36.3984 489.445 36.4907 489.403 36.5771 489.358 36.6634 489.314 36.7498 489.272 36.8421 489.231 36.934 489.193 37.0263 489.144 37.1127 489.099 37.1991L491.231 39.1514 491.75 38.0916" fill="url(#fill38)" transform="scale(1.00201 1)"/><path d="M496.816 52.4439C493.322 50.0078 491.059 48.0609 486.259 43.8742L485.861 44.9799C490.25 48.8038 492.907 51.0845 496.442 53.492L496.816 52.4439" fill="url(#fill39)" transform="scale(1.00201 1)"/><path d="M517.504 83.3998C495.364 83.2962 492.738 81.3669 481.739 73.2346L481.815 74.3867C492.665 82.3459 495.578 84.4825 517.573 84.1773L517.504 83.3884" fill="url(#fill40)" transform="scale(1.00201 1)"/><path d="M487.482 84.6611C485.979 83.6763 485.309 83.2212 482.679 81.3611L482.886 82.5128C485.032 84.0218 486.138 84.8166 487.689 85.7956L487.482 84.6843" fill="url(#fill41)" transform="scale(1.00201 1)"/><path d="M516.208 5.64406C506.885-5.48283 499.3-14.64 486.549-31.2152L486.224-30.9963 485.903-30.7775 485.575-30.5529 485.253-30.3283C498.212-13.8798 505.841-4.75139 515.199 6.34671L515.448 6.16817 515.697 5.99539 515.942 5.82261 516.191 5.64406" fill="url(#fill42)" transform="scale(1.00201 1)"/><path d="M513.696 7.14149C504.608-3.51316 496.608-12.9411 483.484-29.067L483.166-28.8366 482.845-28.6005 482.527-28.3643C482.42-28.2895 482.316-28.2088 482.212-28.1282 494.531-13.3557 501.861-4.74562 512.735 7.87867L513.71 7.14149" fill="url(#fill43)" transform="scale(1.00201 1)"/><path d="M511.567 9.1169C502.351-1.50317 494.186-10.885 480.467-26.8036L480.156-26.5559 479.838-26.3083 479.527-26.0607 479.216-25.813C494.189-8.82894 504.874 3.35189 510.603 9.8944L510.842 9.6986 511.084 9.50278 511.319 9.30695 511.56 9.1169" fill="url(#fill44)" transform="scale(1.00201 1)"/><path d="M506.937 12.7683C497.514 2.3325 489.151-6.84777 474.621-21.8852L474.316-21.6145 474.016-21.3438 473.715-21.0674 473.418-20.7967C487.019-7.03206 494.773 1.27856 506.025 13.6494L506.937 12.7913" fill="url(#fill45)" transform="scale(1.00201 1)"/><path d="M493.229 2.42465C485.841-5.33883 480.225-11.0175 471.787-19.282L471.493-18.9998 471.2-18.7118 470.906-18.4239 470.612-18.1359C479.21-9.92321 484.877-4.31367 492.272 3.37493L493.229 2.42465" fill="url(#fill46)" transform="scale(1.00201 1)"/><path d="M500.91 19.3453C490.001 7.7147 478.494-3.34438 466.441-13.7877L466.165-13.4824 465.895-13.1829 465.629-12.8835 465.36-12.5782C477.547-2.2847 489.148 8.68882 500.098 20.2899 500.167 20.215 500.233 20.1344 500.302 20.0537L500.503 19.8176 500.71 19.5815 500.91 19.3453" fill="url(#fill47)" transform="scale(1.00201 1)"/><path d="M482.057 4.88961C478.933 2.00998 473.117-3.34037 463.898-10.9023L463.639-10.5913C463.552-10.4934 463.466-10.3897 463.383-10.286L463.124-9.97505C463.038-9.87712 462.958-9.77345 462.872-9.66978 466.977-6.35822 473.186-1.35918 481.193 5.94933L482.057 4.88961" fill="url(#fill48)" transform="scale(1.00201 1)"/><path d="M474.766 2.80476C471.511 0.046074 468.148-2.799 461.517-7.95355L461.275-7.64255 461.03-7.32578 460.788-7.00901 460.546-6.69801C464.185-3.92783 467.944-1.0597 473.923 3.92783L474.783 2.80476" fill="url(#fill49)" transform="scale(1.00201 1)"/><path d="M485.447 16.5579C477.15 8.86391 468.39 1.68227 459.219-4.94722L458.984-4.63044 458.753-4.30794 458.525-3.9854C458.442-3.88173 458.369-3.77233 458.293-3.66289 467.544 2.8619 476.369 9.96779 484.718 17.6118L485.447 16.5579" fill="url(#fill50)" transform="scale(1.00201 1)"/><path d="M470.861 8.21845C467.492 5.60951 464.002 2.90843 457.039-1.88328L456.818-1.56076 456.6-1.23248 456.382-0.904205 456.161-0.575927C459.962 1.9927 463.891 4.65349 470.083 9.3876L470.844 8.23573" fill="url(#fill51)" transform="scale(1.00201 1)"/><path d="M471.58 12.9065C466.438 8.97867 462.274 5.96083 455.017 1.23248L454.81 1.56652 454.602 1.8948 454.395 2.22883 454.191 2.56287C459.572 6.01844 463.915 8.82317 470.895 14.0814L471.597 12.9295" fill="url(#fill52)" transform="scale(1.00201 1)"/><path d="M463.311 10.9426C459.122 8.13206 457.782 7.25667 453.099 4.38278L452.902 4.7226 452.712 5.05662 452.515 5.39644 452.325 5.73622C456.652 8.32789 458.086 9.19178 462.612 12.1866L463.311 10.9426" fill="url(#fill53)" transform="scale(1.00201 1)"/><path d="M489.625 36.1278C478.888 26.2162 469.859 18.3663 451.306 7.6195L451.123 7.95928 450.943 8.30484C450.881 8.41428 450.822 8.52945 450.767 8.64466L450.587 8.98444C469.264 19.5239 478.328 27.3277 489.099 37.2049 489.144 37.1185 489.186 37.0263 489.231 36.9399 489.279 36.8535 489.317 36.7612 489.358 36.6693 489.4 36.5771 489.452 36.4907 489.49 36.4043 489.531 36.3179 489.583 36.2256 489.625 36.1337" fill="url(#fill54)" transform="scale(1.00201 1)"/><path d="M469.686 23.2271C463.279 18.6802 456.583 14.5555 449.637 10.8792 449.578 10.9944 449.523 11.1096 449.471 11.2248 449.419 11.34 449.354 11.4552 449.302 11.5703 449.25 11.6855 449.188 11.8065 449.136 11.9217L448.97 12.2672C455.954 15.8586 462.689 19.9186 469.126 24.4193L469.703 23.2271" fill="url(#fill55)" transform="scale(1.00201 1)"/><path d="M471.832 28.4968C464.337 23.0574 456.389 18.2693 448.075 14.1851L447.919 14.5306 447.764 14.8819C447.712 15.0029 447.667 15.1181 447.615 15.2332 447.564 15.3484 447.512 15.4694 447.467 15.5846 455.815 19.5863 463.805 24.2994 471.345 29.6717L471.832 28.5198" fill="url(#fill56)" transform="scale(1.00201 1)"/><path d="M486.259 43.8742C475.319 34.2676 466.061 26.7518 446.675 17.5254 446.631 17.6464 446.579 17.7616 446.534 17.8825L446.396 18.2338 446.257 18.5851 446.119 18.9422C465.608 27.9497 474.887 35.4194 485.858 44.9799L486.255 43.8742" fill="url(#fill57)" transform="scale(1.00201 1)"/><path d="M459.433 31.3995C454.506 28.7451 449.426 26.378 444.222 24.3098 444.184 24.4308 444.149 24.5517 444.108 24.6727 444.066 24.7936 444.032 24.9146 443.994 25.0297 443.952 25.1449 443.918 25.2716 443.883 25.3926 443.849 25.5135 443.807 25.6344 443.773 25.7554 448.994 27.7626 454.095 30.0701 459.046 32.6665L459.433 31.3764" fill="url(#fill58)" transform="scale(1.00201 1)"/><path d="M462.364 36.5193C456.216 33.092 449.806 30.159 443.192 27.7481L443.089 28.1109C443.054 28.2319 443.02 28.3528 442.992 28.4738 442.961 28.5947 442.923 28.7157 442.892 28.8366 442.864 28.9576 442.823 29.0785 442.795 29.1994 449.426 31.5487 455.86 34.4181 462.035 37.7806L462.364 36.5193" fill="url(#fill59)" transform="scale(1.00201 1)"/><path d="M456.624 36.9858C451.959 34.7916 447.173 32.8685 442.287 31.2267L442.201 31.5895 442.114 31.9581 442.028 32.3209C442.028 32.4477 441.972 32.5686 441.948 32.6896 446.855 34.2781 451.662 36.1569 456.348 38.3162L456.641 37.0031" fill="url(#fill60)" transform="scale(1.00201 1)"/><path d="M459.105 41.5876C453.435 38.8239 447.553 36.5131 441.516 34.6765 441.516 34.7974 441.465 34.9184 441.44 35.0393L441.371 35.408C441.344 35.5345 441.319 35.6555 441.299 35.7764L441.229 36.1451C447.28 37.9147 453.179 40.1622 458.874 42.8662L459.105 41.5703" fill="url(#fill61)" transform="scale(1.00201 1)"/><path d="M462.813 46.7537C455.829 43.1233 448.476 40.2524 440.877 38.1898 440.877 38.3162 440.836 38.4372 440.815 38.5581 440.791 38.6791 440.78 38.8059 440.756 38.9327 440.732 39.0592 440.722 39.1746 440.697 39.3011L440.646 39.6698C448.251 41.6612 455.625 44.4588 462.637 48.0149L462.813 46.7537" fill="url(#fill62)" transform="scale(1.00201 1)"/><path d="M478.543 60.0576C469.869 53.4861 459.772 46.65 440.369 41.7027 440.369 41.8295 440.369 41.9504 440.324 42.0773 440.279 42.2037 440.324 42.3247 440.279 42.4456 440.231 42.5666 440.248 42.6934 440.238 42.8143 440.227 42.9353 440.238 43.0621 440.196 43.1886 456.151 47.2202 466.154 51.9311 478.439 61.221L478.543 60.069" fill="url(#fill63)" transform="scale(1.00201 1)"/><path d="M468.642 56.2506C461.897 52.3631 453.801 48.3373 440.013 45.2273 440.013 45.3542 440.013 45.4751 439.986 45.6019 439.954 45.7284 439.986 45.8493 439.986 45.9703 439.986 46.0912 439.986 46.2181 439.986 46.3449 439.986 46.4713 439.986 46.5923 439.954 46.7132 448.02 48.5219 457.54 50.9926 468.649 57.4659L468.718 56.2506" fill="url(#fill64)" transform="scale(1.00201 1)"/><path d="M454.222 52.6108C449.495 50.9936 444.664 49.7082 439.761 48.7638L439.761 49.1321C439.761 49.2589 439.761 49.3799 439.761 49.5067L439.761 49.8751C439.761 50.0019 439.761 50.1228 439.761 50.2497 444.671 51.127 449.512 52.3627 454.243 53.9471L454.278 52.6108" fill="url(#fill65)" transform="scale(1.00201 1)"/><path d="M481.739 73.2346C476.936 69.6927 471.493 65.6728 464.081 62.246 460.187 60.4636 456.154 58.9922 452.028 57.846 447.995 56.6943 443.752 56.3947 439.692 55.312 439.692 55.433 439.692 55.5595 439.692 55.6804 439.692 55.8013 439.692 55.9282 439.692 56.055L439.692 56.4233C439.692 56.5502 439.692 56.6711 439.692 56.7979 460.653 59.8502 470.353 66.0125 481.767 74.3808L481.694 73.2291" fill="url(#fill66)" transform="scale(1.00201 1)"/><path d="M469.178 67.6193C459.786 62.7297 451.562 60.2649 439.847 58.8367 439.847 58.9632 439.847 59.0841 439.847 59.2051 439.847 59.326 439.847 59.4528 439.847 59.5797 439.847 59.7061 439.847 59.8271 439.875 59.948 439.903 60.069 439.875 60.1958 439.875 60.3167 450.024 61.5262 458.88 63.4326 469.213 68.8288L469.099 67.6193" fill="url(#fill67)" transform="scale(1.00201 1)"/><path d="M458.784 65.9897C452.726 64.0798 446.475 62.8607 440.144 62.3555 440.144 62.4764 440.144 62.6033 440.186 62.7242 440.227 62.8451 440.214 62.9716 440.231 63.0926 440.248 63.2135 440.231 63.3403 440.272 63.4613 440.314 63.5822 440.272 63.709 440.317 63.83 446.641 64.2671 452.892 65.4265 458.95 67.2855L458.784 66.0011" fill="url(#fill68)" transform="scale(1.00201 1)"/><path d="M482.679 81.3725C471.241 73.3096 461.531 67.4466 440.59 65.857 440.59 65.978 440.628 66.1048 440.646 66.2257 440.663 66.3467 440.68 66.4676 440.704 66.5944 440.728 66.7209 440.739 66.8363 440.763 66.9573 440.784 67.0782 440.801 67.2047 440.818 67.3256 461.738 68.6792 471.452 74.4731 482.862 82.5014L482.655 81.3497" fill="url(#fill69)" transform="scale(1.00201 1)"/><path d="M466.431 74.3635C460.826 72.1924 453.794 69.8309 441.178 69.3416L441.247 69.71C441.247 69.8309 441.292 69.9518 441.319 70.0728L441.388 70.4356C441.42 70.5624 441.44 70.6834 441.465 70.8043 446.872 71.0058 455.919 71.3458 466.69 75.5789L466.431 74.3635" fill="url(#fill70)" transform="scale(1.00201 1)"/><path d="M461.265 75.3024C455.287 73.7702 450.656 72.9582 441.907 72.8027L441.993 73.1655 442.08 73.5283 442.166 73.8912C442.201 74.0121 442.232 74.1331 442.259 74.254 449.506 74.3349 454.243 74.6977 461.586 76.5578L461.265 75.308" fill="url(#fill71)" transform="scale(1.00201 1)"/><path d="M456.887 77.174C452.225 76.4324 447.505 76.1217 442.785 76.2468L442.888 76.6038 442.992 76.9666 443.096 77.3239 443.199 77.6868C447.909 77.4953 452.629 77.7517 457.291 78.4525L456.887 77.174" fill="url(#fill72)" transform="scale(1.00201 1)"/><path d="M477.257 86.8094C469.465 82.6223 460.021 78.8558 443.807 79.6447L443.928 80.002C443.97 80.1171 444.004 80.238 444.046 80.3589L444.167 80.7104 444.288 81.0673C453.621 80.6585 464.675 80.814 477.689 87.938L477.288 86.7863" fill="url(#fill73)" transform="scale(1.00201 1)"/><path d="M458.006 83.1234C453.68 82.6818 449.322 82.6448 444.989 83.0138 445.031 83.1293 445.076 83.2502 445.12 83.3653 445.169 83.4803 445.207 83.6013 445.255 83.7167 445.3 83.8318 445.342 83.9527 445.387 84.0678L445.525 84.4192C449.841 84.0052 454.188 83.9952 458.507 84.3905L458.006 83.1234" fill="url(#fill74)" transform="scale(1.00201 1)"/><path d="M455.017 1.23248C425.248-18.1417 413.395-28.9345 414.124-36.0128L413.872-35.6326 413.62-35.2525 413.371-34.8724C413.284-34.7456 413.205-34.6188 413.122-34.4922 412.289-27.2183 424.197-16.483 454.215 2.56287L454.416 2.22883 454.623 1.8948 454.831 1.56652 455.038 1.23248" fill="url(#fill75)" transform="scale(1.00201 1)"/><path d="M453.099 4.40006C422.735-14.1851 410.769-24.8454 411.757-32.3843L410.814-30.8408C409.701-23.1062 421.757-12.5033 452.325 5.7535L452.515 5.41372 452.712 5.0739 452.902 4.73988 453.099 4.40006" fill="url(#fill76)" transform="scale(1.00201 1)"/><path d="M451.306 7.6195C420.386-10.1708 408.291-20.693 409.559-28.6984L408.671-27.1319C407.299-18.9249 419.442-8.46034 450.587 8.98444L450.767 8.64466C450.822 8.52945 450.881 8.41428 450.943 8.30484L451.123 7.95928 451.306 7.6195" fill="url(#fill77)" transform="scale(1.00201 1)"/><path d="M449.637 10.8792C418.184-6.09328 405.976-16.4772 407.496-24.9606L407.289-24.569 407.082-24.1716 406.874-23.7742 406.674-23.3768C405.05-14.6861 417.303-4.37128 448.97 12.2672L449.136 11.9217C449.188 11.8065 449.246 11.6855 449.302 11.5703 449.36 11.4552 449.412 11.34 449.471 11.2248 449.526 11.1096 449.578 10.9944 449.637 10.8792" fill="url(#fill78)" transform="scale(1.00201 1)"/><path d="M448.075 14.1851C416.125-1.94087 403.806-12.2039 405.561-21.1768L405.371-20.7737C405.302-20.6412 405.24-20.5087 405.174-20.3763L404.984-19.9731 404.794-19.57C402.963-10.3667 415.323-0.201574 447.501 15.5846 447.546 15.4694 447.598 15.3542 447.65 15.2332 447.702 15.1123 447.747 15.0029 447.799 14.8819L447.954 14.5306 448.11 14.1851" fill="url(#fill79)" transform="scale(1.00201 1)"/><path d="M446.675 17.5254C414.245 2.22883 401.822-7.8729 403.806-17.3411L403.101-15.717C401.035-6.03572 413.519 4.03149 446.119 18.9422L446.257 18.5851 446.396 18.2338 446.534 17.8825C446.579 17.7616 446.631 17.6464 446.675 17.5254" fill="url(#fill80)" transform="scale(1.00201 1)"/><path d="M449.195 22.5993C426.502 12.4112 398.26-0.270685 402.175-13.4709L402.012-13.0562C401.961-12.9238 401.905-12.7856 401.853-12.6473 401.802-12.5091 401.75-12.3767 401.691-12.2384L401.536-11.8238C398.54 1.64139 421.785 11.9965 448.704 23.9931L449.195 22.5993" fill="url(#fill81)" transform="scale(1.00201 1)"/><path d="M444.222 24.3098C410.928 10.7468 398.322 0.933 400.696-9.55461L400.544-9.13994C400.499-9.00749 400.454-8.86927 400.402-8.73105L400.257-8.31638C400.212-8.17816 400.164-8.03994 400.112-7.89594 397.665 2.81052 410.313 12.5609 443.773 25.7554 443.807 25.6344 443.849 25.5135 443.883 25.3926 443.918 25.2716 443.959 25.1507 443.994 25.0297 444.029 24.9088 444.066 24.7936 444.108 24.6727 444.149 24.5517 444.184 24.4308 444.222 24.3098" fill="url(#fill82)" transform="scale(1.00201 1)"/><path d="M443.192 27.7481C409.542 15.0777 396.819 5.43099 399.341-5.54617L398.764-3.70321C396.463 7.48128 409.19 17.0301 442.788 29.1994 442.788 29.0785 442.854 28.9576 442.888 28.8366 442.923 28.7157 442.95 28.5947 442.985 28.4738 443.02 28.3528 443.047 28.2319 443.082 28.1109L443.185 27.7481" fill="url(#fill83)" transform="scale(1.00201 1)"/><path d="M442.318 31.2094C408.481 19.5008 395.668 10.1248 398.035-1.15185L397.534 0.719906C396.145 8.78288 400.336 18.9134 441.948 32.6723 441.948 32.5513 442 32.4304 442.028 32.3037L442.114 31.9408 442.201 31.5723 442.287 31.2094" fill="url(#fill84)" transform="scale(1.00201 1)"/><path d="M441.516 34.6938C417.905 27.2067 394.123 17.6348 396.881 3.30582L396.449 5.18333C395.298 13.5343 399.749 23.7397 441.229 36.1451L441.299 35.7764C441.299 35.6555 441.344 35.5345 441.371 35.408L441.44 35.0393C441.44 34.9184 441.492 34.7974 441.516 34.6765" fill="url(#fill85)" transform="scale(1.00201 1)"/><path d="M440.877 38.1898C417.2 31.3822 393.363 22.4611 395.896 7.82106L395.533 9.7389C394.669 18.3317 399.352 28.6005 440.646 39.6871L440.697 39.3183C440.697 39.1919 440.739 39.0709 440.756 38.95 440.773 38.829 440.798 38.7022 440.815 38.5754 440.832 38.4489 440.853 38.3335 440.877 38.207" fill="url(#fill86)" transform="scale(1.00201 1)"/><path d="M440.369 41.7027C418.046 35.9436 392.731 27.3795 395.074 12.3997L394.78 14.3636C393.996 26.6999 407.185 35.0507 440.196 43.1944 440.196 43.0676 440.196 42.9467 440.238 42.8202 440.279 42.6934 440.265 42.5783 440.279 42.4515 440.29 42.3247 440.279 42.2037 440.324 42.0828 440.369 41.9618 440.352 41.8354 440.369 41.7086" fill="url(#fill87)" transform="scale(1.00201 1)"/><path d="M440.013 45.2273C406.919 37.6023 393.719 29.4413 394.434 17.0762L394.217 19.0574C393.985 28.2722 399.359 37.9766 439.899 46.7018 439.899 46.5809 439.899 46.4541 439.927 46.3331 439.954 46.2122 439.927 46.0857 439.927 45.9589 439.927 45.8321 439.927 45.7111 439.927 45.5902 439.927 45.4692 439.927 45.3428 439.954 45.2159" fill="url(#fill88)" transform="scale(1.00201 1)"/><path d="M439.761 48.7638C416.764 44.1043 393.329 37.245 393.94 21.7988L393.795 23.7915C393.909 32.6896 399.455 42.7971 439.702 50.2497 439.702 50.1228 439.702 50.0019 439.702 49.8751L439.702 49.5067C439.702 49.3799 439.702 49.2589 439.702 49.1321L439.702 48.7638" fill="url(#fill89)" transform="scale(1.00201 1)"/><path d="M446.631 53.1869C411.253 45.3369 393.494 41.3976 393.681 25.8591L393.598 27.8691C393.719 30.622 394.054 37.9306 405.378 43.6378 407.438 44.6803 412.289 47.0933 421.502 49.5641 429.774 51.7642 438.292 52.7491 446.637 54.5978L446.637 53.1869" fill="url(#fill90)" transform="scale(1.00201 1)"/><path d="M439.692 55.2889C418.164 52.0293 393.467 46.2813 393.543 30.622L393.543 32.6608C394.618 45.3714 407.997 52.3575 439.737 56.7748 439.737 56.648 439.737 56.527 439.737 56.4005L439.737 56.0318C439.737 55.905 439.737 55.7841 439.737 55.6576 439.737 55.5308 439.737 55.4098 439.737 55.2889" fill="url(#fill91)" transform="scale(1.00201 1)"/><path d="M439.847 58.8367C408.17 54.9088 394.752 48.1473 393.598 35.5L393.681 37.5505C394.797 46.4427 401.166 56.0951 439.954 60.3167 439.954 60.1958 439.954 60.0748 439.954 59.948 439.954 59.8215 439.954 59.7006 439.927 59.5797 439.899 59.4587 439.927 59.3319 439.927 59.2051 439.927 59.0786 439.927 58.9632 439.927 58.8367" fill="url(#fill92)" transform="scale(1.00201 1)"/><path d="M440.144 62.3555C418.226 60.2303 395.585 55.9627 393.854 40.3782L394.02 42.4342C395.512 51.3323 402.175 60.8351 440.317 63.83 440.317 63.709 440.317 63.5881 440.272 63.4613 440.227 63.3345 440.245 63.2135 440.231 63.0926 440.22 62.9716 440.231 62.8451 440.186 62.7242 440.141 62.6033 440.186 62.4764 440.144 62.3555" fill="url(#fill93)" transform="scale(1.00201 1)"/><path d="M440.59 65.857C420.12 64.4347 396.359 60.8064 394.307 45.2619L394.562 47.3238C396.29 55.6804 403.16 65.5115 440.818 67.3256 440.818 67.2047 440.78 67.0837 440.763 66.9573 440.746 66.8304 440.722 66.7154 440.704 66.5944 440.687 66.4735 440.663 66.3467 440.646 66.2257 440.628 66.1048 440.607 65.978 440.59 65.857" fill="url(#fill94)" transform="scale(1.00201 1)"/><path d="M441.164 69.3416C411.218 68.0686 397.797 62.511 394.96 50.1515L394.96 50.2151 395.291 52.2248C398.426 64.5671 411.792 69.9518 441.44 70.8043 441.44 70.6834 441.395 70.5624 441.368 70.4356L441.299 70.0728C441.299 69.9518 441.247 69.8309 441.223 69.71L441.154 69.3416" fill="url(#fill95)" transform="scale(1.00201 1)"/><path d="M441.907 72.8027C412.645 72.3593 398.875 67.0436 395.834 55.0702L396.273 57.1435C398.823 65.6441 406.28 74.329 442.242 74.254 442.242 74.1331 442.183 74.0121 442.149 73.8912L442.062 73.5283 441.976 73.1655 441.89 72.8027" fill="url(#fill96)" transform="scale(1.00201 1)"/><path d="M442.785 76.241C422.4 76.4887 401.01 74.7495 396.95 59.977L397.475 62.0386C400.395 70.4242 408.111 78.8444 443.199 77.6809L443.096 77.3181 442.992 76.9611 442.892 76.5983 442.788 76.241" fill="url(#fill97)" transform="scale(1.00201 1)"/><path d="M443.807 79.6447C431.644 80.1285 403.153 81.2574 398.263 64.8666L398.885 66.911C403.46 78.4297 416.612 82.5128 444.288 81.0673L444.167 80.7104 444.046 80.3589C444.004 80.238 443.97 80.1171 443.928 80.002L443.807 79.6447" fill="url(#fill98)" transform="scale(1.00201 1)"/><path d="M444.982 83.0138C417.49 84.8684 404.397 81.0155 399.801 69.7158L399.842 69.8309 400.523 71.7546C404.048 79.5928 412.154 87.2241 445.525 84.4251L445.387 84.0737C445.342 83.9586 445.3 83.8377 445.255 83.7222 445.207 83.6072 445.162 83.4862 445.12 83.3711L444.982 83.0197" fill="url(#fill99)" transform="scale(1.00201 1)"/><path d="M397.396 1.555C399.203-13.5688 372.758-21.1365 329.435-32.2518 329.378-32.0676 329.326-31.8775 329.268-31.6759L329.113-31.1C329.055-30.9099 329.003-30.7257 328.952-30.5241L328.796-29.9482C366.745-20.7333 399.507-12.774 397.019 3.07544L397.396 1.555" fill="url(#fill100)" transform="scale(1.00201 1)"/><path d="M396.584 5.18333C397.914-10.2976 371.386-17.0992 327.995-26.9015 327.944-26.7172 327.898-26.5329 327.852-26.3256L327.713-25.7497 327.575-25.1737C327.529-24.9837 327.489-24.7994 327.443-24.5978 365.598-16.5291 398.546-9.4855 396.293 6.66922L396.584 5.15455" fill="url(#fill101)" transform="scale(1.00201 1)"/><path d="M395.938 8.73678C396.739-7.04933 370.166-13.0735 326.746-21.5972L326.625-21.0213 326.504-20.4454C326.469-20.2553 326.429-20.0653 326.389-19.8694 326.349-19.6736 326.314-19.4893 326.279-19.2935 364.603-12.2269 397.693-6.1221 395.713 10.2803L395.938 8.78862" fill="url(#fill102)" transform="scale(1.00201 1)"/><path d="M395.443 12.2672C395.627-2.89115 373.245-8.29333 325.698-16.2353 325.663-16.0453 325.634-15.861 325.6-15.6594 325.565-15.4578 325.536-15.2793 325.502-15.0835 325.467-14.8877 325.444-14.7034 325.41-14.5076 325.375-14.3118 325.352-14.1332 325.317-13.9317 362.177-8.20694 396.964-2.799 395.274 13.7877L395.443 12.3075" fill="url(#fill103)" transform="scale(1.00201 1)"/><path d="M395.091 15.7804C394.683 0.495295 372.295-4.27338 324.863-10.8504L324.569-8.57555C367.975-3.0812 394.6 1.10578 394.98 17.2778L395.091 15.7804" fill="url(#fill104)" transform="scale(1.00201 1)"/><path d="M394.894 18.7637C393.985 3.38068 371.604-0.817816 324.31-6.23728L324.258-5.66134C324.258-5.47128 324.217-5.28123 324.2-5.08544L324.148-4.5095C324.148-4.31944 324.114-4.12939 324.102-3.93356 367.543 0.489538 394.203 4.03149 394.839 20.2265L394.894 18.7637" fill="url(#fill105)" transform="scale(1.00201 1)"/><path d="M394.797 22.2423 394.797 22.2423C393.287 6.80744 370.944 3.2367 323.872-0.794778L323.837-0.218852 323.803 0.357073C323.803 0.547128 323.803 0.737184 323.774 0.933 323.745 1.12882 323.774 1.31311 323.774 1.50893 361.372 4.29066 393.837 6.69227 394.825 23.7224L394.825 22.2423" fill="url(#fill106)" transform="scale(1.00201 1)"/><path d="M394.842 25.6402C392.689 10.2227 370.418 7.27394 323.641 4.6074 323.641 4.79745 323.641 4.98751 323.641 5.18333 323.641 5.37916 323.641 5.56344 323.641 5.75927 323.641 5.95506 323.641 6.13938 323.641 6.33517L323.641 6.91111C361.175 8.63889 393.588 10.1133 394.925 27.0973L394.866 25.669" fill="url(#fill107)" transform="scale(1.00201 1)"/><path d="M395.022 29.0152C392.23 13.6782 370.055 11.363 323.641 10.0096L323.705 12.3133C361.14 12.9814 393.46 13.5515 395.119 30.4492L395.005 29.0324" fill="url(#fill108)" transform="scale(1.00201 1)"/><path d="M395.34 32.3613C391.722 16.3102 367.118 15.4924 323.861 15.4291 323.861 15.6191 323.861 15.8092 323.901 16.005 323.941 16.2008 323.901 16.3851 323.941 16.5809 323.981 16.7767 323.941 16.961 323.981 17.1568 324.022 17.3527 324.01 17.5312 324.027 17.7328 365.978 17.3008 391.877 17.8422 395.512 33.7896L395.34 32.3901" fill="url(#fill109)" transform="scale(1.00201 1)"/><path d="M395.799 35.7073 395.799 35.6613C391.521 19.7888 367.108 19.6679 324.321 20.8197 324.321 21.004 324.362 21.1941 324.379 21.3957 324.396 21.5972 324.425 21.7758 324.442 21.9716L324.511 22.5475 324.58 23.1234C366.296 21.4878 392.092 21.3093 396.024 37.0494L395.799 35.7073" fill="url(#fill110)" transform="scale(1.00201 1)"/><path d="M396.38 38.9268C391.428 23.3135 367.267 23.8721 325.001 26.2104 325.001 26.3947 325.053 26.5847 325.081 26.7863 325.11 26.9879 325.145 27.1607 325.174 27.3622 325.202 27.5638 325.231 27.7366 325.266 27.9382 325.3 28.1397 325.323 28.3125 325.358 28.5141 366.97 25.6863 392.527 25.0988 396.674 40.3149L396.38 38.9555" fill="url(#fill111)" transform="scale(1.00201 1)"/><path d="M397.112 42.1405C391.497 26.8382 367.63 28.0706 325.922 31.5607L326.377 33.8068C361.976 30.4147 392.717 27.4717 397.458 43.4768L397.112 42.1405" fill="url(#fill112)" transform="scale(1.00201 1)"/><path d="M397.969 45.3082C392.074 31.1922 370.823 31.9639 327.08 36.8594L327.656 39.0882C361.441 34.9184 393.363 30.9618 398.381 46.65L397.976 45.3255" fill="url(#fill113)" transform="scale(1.00201 1)"/><path d="M399.006 48.5101 399.006 48.4355C392.51 34.6765 372.516 35.9551 328.514 42.1578 328.566 42.342 328.617 42.5265 328.675 42.7338 328.733 42.9412 328.785 43.1022 328.842 43.3095 328.9 43.5168 328.952 43.6723 329.009 43.8569L329.182 44.4326C368.373 38.4372 392.734 35.4886 399.445 49.806L399.006 48.5792" fill="url(#fill114)" transform="scale(1.00201 1)"/><path d="M323.872-0.817816C285.089-4.1409 259.812-6.95717 235.882-18.038 235.848-17.7788 235.818-17.5139 235.784-17.249 235.749-16.9841 235.715-16.7191 235.686-16.4542 235.657-16.1893 235.623-15.9243 235.588-15.6594 235.554-15.3945 235.525-15.1296 235.496-14.8704 259.501-3.92783 284.847-1.41102 323.745 1.45709 323.745 1.26704 323.745 1.07698 323.745 0.881167 323.745 0.685351 323.745 0.501056 323.774 0.305241L323.809-0.270685 323.843-0.846611" fill="url(#fill115)" transform="scale(1.00201 1)"/><path d="M323.641 4.6074C284.6 2.3613 259.173 0.224611 235.053-10.4876L234.984-9.69283 234.915-8.89806C234.915-8.63312 234.874-8.36244 234.851-8.09751 234.828-7.8326 234.811-7.56767 234.794-7.30273 258.965 3.25398 284.479 5.09694 323.619 6.91111L323.619 6.33517C323.619 6.14512 323.619 5.95506 323.619 5.75927 323.619 5.56344 323.619 5.37916 323.619 5.18333 323.619 4.98751 323.619 4.79745 323.619 4.6074" fill="url(#fill116)" transform="scale(1.00201 1)"/><path d="M323.641 10.0153C284.381 8.8635 258.792 7.42367 234.523-2.91418L234.488-2.11365 234.454-1.31887 234.408-0.518333C234.408-0.253407 234.408 0.0172778 234.408 0.282204 258.735 10.4588 284.381 11.6107 323.716 12.296L323.653 9.99233" fill="url(#fill117)" transform="scale(1.00201 1)"/><path d="M323.861 15.4291C284.427 15.383 258.723 14.6343 234.31 4.67651L234.31 7.87867C258.787 17.6694 284.53 18.1244 324.027 17.704 324.027 17.5139 323.993 17.3238 323.981 17.128 323.97 16.9322 323.981 16.7479 323.941 16.5521 323.901 16.3563 323.912 16.172 323.901 15.9762 323.889 15.7804 323.901 15.5961 323.861 15.4003" fill="url(#fill118)" transform="scale(1.00201 1)"/><path d="M324.315 20.8312C284.749 21.8852 258.959 21.8506 234.408 12.2787 234.408 12.5437 234.408 12.8086 234.436 13.0793L234.471 13.8798 234.505 14.6803C234.505 14.9453 234.534 15.2102 234.546 15.4751 259.173 24.8915 284.974 24.6323 324.574 23.0946L324.505 22.5187 324.436 21.9428C324.436 21.7527 324.396 21.5627 324.373 21.3668 324.35 21.171 324.333 20.9867 324.315 20.7909" fill="url(#fill119)" transform="scale(1.00201 1)"/><path d="M325.001 26.2104C285.354 28.3932 259.501 29.09 234.845 19.8752 234.845 20.1401 234.885 20.4108 234.909 20.6757L234.978 21.4763 235.047 22.2711C235.047 22.5417 235.099 22.8067 235.122 23.0716 259.829 32.0906 285.694 31.1346 325.358 28.468 325.323 28.278 325.295 28.0879 325.266 27.8921 325.237 27.6963 325.202 27.512 325.174 27.3162 325.145 27.1203 325.11 26.9361 325.081 26.7402 325.053 26.5444 325.024 26.3601 325.001 26.1643" fill="url(#fill120)" transform="scale(1.00201 1)"/><path d="M325.922 31.5607C286.241 34.878 260.365 36.2833 235.611 27.4602L236.032 30.6508C260.825 39.2897 286.713 37.5964 326.377 33.8068L325.922 31.5607" fill="url(#fill121)" transform="scale(1.00201 1)"/><path d="M327.08 36.8594C287.422 41.3284 261.551 43.4249 236.711 35.0279L236.85 35.8227C236.896 36.0874 236.942 36.3524 236.993 36.6175 237.045 36.8822 237.086 37.1472 237.137 37.4064 237.189 37.6656 237.235 37.9361 237.287 38.2012 262.144 46.4313 288.003 44.0352 327.638 39.1055L327.062 36.8767" fill="url(#fill122)" transform="scale(1.00201 1)"/><path d="M328.491 42.1578C288.902 47.7385 263.066 50.5548 238.18 42.561 238.237 42.8202 238.295 43.0849 238.358 43.3499 238.422 43.615 238.474 43.8742 238.537 44.1388 238.6 44.4039 238.658 44.6689 238.716 44.9281L238.906 45.717C263.809 53.5438 289.587 50.428 329.159 44.3635L328.986 43.7878C328.928 43.6032 328.871 43.4191 328.819 43.2404 328.767 43.0621 328.704 42.872 328.652 42.6647 328.6 42.4574 328.543 42.296 328.491 42.0887" fill="url(#fill123)" transform="scale(1.00201 1)"/><path d="M234.523-2.91418C156.232-36.4216 80.3185-33.7205 2.96602-27.6157 2.85659-27.1492 2.75293-26.6769 2.6435-26.2104 2.53407-25.7439 2.43041-25.2716 2.30946-24.8051L1.99846-23.3999 1.68746-21.9888C79.4837-29.0958 155.851-32.7356 234.408 0.282204 234.442-0.78326 234.454-1.04818 234.465-1.31887L234.534-2.91418" fill="url(#fill124)" transform="scale(1.00201 1)"/><path d="M234.31 4.67651C155.419-27.6444 78.5102-22.7145 0.0979073-14.2196 0.00575927-13.7473-0.0806295-13.2463-0.172778-12.8028-0.264926-12.3594-0.351316-11.8526-0.437705-11.3803L-0.696872-9.95777-0.956038-8.53522C77.8768-18.0553 155.183-23.9585 234.31 7.87867L234.31 4.67651" fill="url(#fill125)" transform="scale(1.00201 1)"/><path d="M234.408 12.2787C154.976-18.8673 77.1394-11.6279-2.25187-0.685351-2.29794-0.207333-2.39585 0.270685-2.46496 0.742944-2.53407 1.2152-2.60894 1.72778-2.67806 2.177-2.74717 2.62622-2.81052 3.1388-2.87387 3.61683-2.93722 4.09483-3.00633 4.57284-3.07544 5.05088 76.6961-6.91111 154.93-15.1641 234.552 15.4751 234.5 14.4097 234.488 14.1447 234.477 13.8798 234.431 12.8086 234.419 12.5437 234.413 12.2787" fill="url(#fill126)" transform="scale(1.00201 1)"/><path d="M234.845 19.8752C154.93-10.0672 76.2237-0.47226-4.02572 12.9756-4.08333 13.4536-4.13516 13.9374-4.18699 14.4154-4.23883 14.8934-4.29066 15.383-4.33672 15.8668-4.38278 16.3505-4.43462 16.8286-4.48071 17.3123-4.52678 17.7961-4.57861 18.2799-4.61894 18.7579 76.0108 4.23883 155.028-6.35822 235.151 23.0716 235.053 22.0061 235.03 21.7412 235.006 21.4763 234.915 20.4108 234.891 20.1401 234.874 19.8752" fill="url(#fill127)" transform="scale(1.00201 1)"/><path d="M235.611 27.4602C155.235-1.25552 75.7917 10.7583-5.29851 26.746-5.33306 27.2298-5.36188 27.7193-5.39644 28.2031L-5.48283 29.6602-5.56921 31.1C-5.56921 31.5895-5.62105 32.0733-5.64406 32.5571 75.7572 15.4694 155.506 2.45344 236.032 30.6508L235.611 27.4602" fill="url(#fill128)" transform="scale(1.00201 1)"/><path d="M236.711 35.0279C155.972 7.54462 75.8553 21.9888-5.94356 40.6201L-5.97811 42.0828C-5.97811 42.5724-5.97811 43.0621-5.97811 43.5514L-5.97811 45.02C-5.97811 45.5038-5.97811 45.9934-5.97811 46.4831 76.0281 26.7402 156.404 11.2478 237.287 38.2012 237.086 37.1472 237.04 36.8822 236.993 36.6175 236.803 35.5577 236.757 35.2926 236.711 35.0279" fill="url(#fill129)" transform="scale(1.00201 1)"/><path d="M238.18 42.561C157.124 16.3275 76.4369 33.2712-5.97234 54.5746L-5.93778 56.0432C-5.93778 56.5388-5.93778 57.0281-5.89749 57.5177-5.85717 58.0074-5.86867 58.5026-5.8514 58.9922-5.83412 59.4815-5.8111 59.977-5.79383 60.4663 76.8401 38.0111 157.729 20.0192 238.906 45.717 238.658 44.6689 238.595 44.4039 238.537 44.1388 238.295 43.0849 238.237 42.8202 238.18 42.561" fill="url(#fill130)" transform="scale(1.00201 1)"/></g><g clip-path="url(#clip131)"><path d="M514.591 10.4818C485.343 14.4039 473.601 15.4406 472.71 14.1908L473.021 15.9186C474.033 17.2778 485.747 16.0626 514.784 11.5934L514.591 10.4415" fill="url(#fill132)" transform="scale(1.00201 1)"/><path d="M472.71 14.1908C472.969 13.3154 475.768 12.2615 483.526 9.72162 483.526 9.82528 483.553 9.92895 483.57 10.0326 483.588 10.1363 483.612 10.2342 483.629 10.3379L483.681 10.6431C483.681 10.7468 483.719 10.8504 483.736 10.9483 476.252 13.7128 473.11 15.0202 473.021 15.9416L472.71 14.2138" fill="url(#fill133)" transform="scale(1.00201 1)"/><path d="M483.526 9.72162C488.961 7.94201 492.296 6.842 492.382 6.20849L492.527 7.01478C492.32 7.68284 490.146 8.58706 483.736 10.9483 483.736 10.8504 483.702 10.7468 483.681 10.6431L483.629 10.3379C483.629 10.2342 483.595 10.1363 483.57 10.0326 483.546 9.92895 483.536 9.82528 483.526 9.72162" fill="url(#fill134)" transform="scale(1.00201 1)"/><path d="M492.382 6.20849C492.078 5.88022 490.976 5.78228 486.231 6.26033L486.266 6.4734C486.266 6.54251 486.266 6.61739 486.307 6.6865L486.342 6.8996C486.342 6.96872 486.342 7.04356 486.38 7.11267 490.101 6.69801 492.303 6.53677 492.527 7.01478L492.382 6.20849" fill="url(#fill135)" transform="scale(1.00201 1)"/><path d="M486.231 6.26033C477.921 7.153 468.193 8.708 453.155 11.1499L453.224 11.5358 453.293 11.9217 453.362 12.3075 453.431 12.6934C468.407 9.91167 478.093 8.14934 486.38 7.11267 486.38 7.04356 486.38 6.96872 486.342 6.8996L486.307 6.6865C486.307 6.61739 486.307 6.54251 486.266 6.4734L486.231 6.26033" fill="url(#fill136)" transform="scale(1.00201 1)"/><path d="M453.155 11.1499C430.97 14.761 421.17 16.2181 420.431 14.9741L420.811 17.0992C421.64 18.4296 431.374 16.7882 453.431 12.6704L453.362 12.2845 453.293 11.8986 453.224 11.5128 453.155 11.1269" fill="url(#fill137)" transform="scale(1.00201 1)"/><path d="M420.431 14.9741C420.431 14.8589 420.431 14.7552 420.669 14.5248 420.697 14.6976 420.724 14.8704 420.759 15.0432L420.845 15.5615C420.88 15.7285 420.911 15.9013 420.945 16.0741 420.98 16.2469 421.008 16.4197 421.035 16.5924 420.897 16.7652 420.783 16.9092 420.811 17.0992L420.431 14.9741" fill="url(#fill138)" transform="scale(1.00201 1)"/><path d="M384.085 15.1757C365.494 17.3814 353.493 18.7061 343.534 18.4987L343.655 19.2302C343.701 19.4721 343.741 19.7139 343.787 19.9558 343.834 20.1977 343.874 20.4396 343.92 20.6815L344.058 21.4072C354.011 21.5742 365.978 20.048 384.5 17.5139 384.465 17.3181 384.431 17.1223 384.389 16.938L384.285 16.3621 384.182 15.7861C384.147 15.5903 384.113 15.3945 384.085 15.2102" fill="url(#fill139)" transform="scale(1.00201 1)"/><path d="M357.114 38.1207C354.253 38.5108 351.364 38.7029 348.475 38.6963L348.7 39.3819 348.925 40.0672C349.004 40.2976 349.08 40.5278 349.16 40.7524 349.243 40.977 349.315 41.2075 349.391 41.438 352.273 41.4369 355.148 41.2175 357.996 40.7814L357.097 38.0975" fill="url(#fill140)" transform="scale(1.00201 1)"/><path d="M421.222 13.4363C420.949 12.6992 419.66 11.9965 412.144 12.3478 412.144 12.5033 412.203 12.6646 412.224 12.8201L412.31 13.2924 412.396 13.7646 412.483 14.2369C416.785 14.0123 421.225 13.972 421.567 15.3887L421.222 13.4479" fill="url(#fill141)" transform="scale(1.00201 1)"/><path d="M412.144 12.3478C404.991 12.728 396.774 13.6667 384.085 15.1757 384.113 15.3715 384.147 15.5673 384.182 15.7516L384.285 16.3275 384.389 16.9034C384.431 17.0935 384.465 17.2893 384.5 17.4793 397.171 15.7516 405.337 14.6631 412.483 14.2023L412.396 13.7301 412.31 13.2578 412.224 12.7856C412.224 12.6301 412.172 12.4688 412.144 12.3133" fill="url(#fill142)" transform="scale(1.00201 1)"/><path d="M343.534 18.4987C315.049 17.7097 277.343 18.948 217.452 22.6454 217.516 22.9794 217.573 23.3192 217.631 23.6533 217.689 23.9873 217.752 24.3271 217.815 24.6612L218.005 25.669 218.195 26.6769C277.948 22.2711 315.613 20.693 344.058 21.4072L343.92 20.6815C343.874 20.4396 343.834 20.1977 343.787 19.9558 343.741 19.7139 343.701 19.4721 343.655 19.2302L343.534 18.4987" fill="url(#fill143)" transform="scale(1.00201 1)"/><path d="M324.782 32.344C296.861 33.4958 266.037 36.2201 221.633 41.5244 221.72 41.8526 221.812 42.1751 221.898 42.5033 221.985 42.8316 222.077 43.1485 222.169 43.4709L222.445 44.4443 222.722 45.4119C254.577 41.2421 291.712 36.773 325.6 35.2408L324.782 32.3613" fill="url(#fill144)" transform="scale(1.00201 1)"/><path d="M348.493 38.7195C320.14 38.4603 283.01 42.0427 224.335 50.6816L224.646 51.6319 224.957 52.5877 225.274 53.538C225.377 53.849 225.486 54.1658 225.596 54.4827 284.047 45.1582 321.079 41.2362 349.419 41.4435 349.346 41.2134 349.263 40.9888 349.191 40.7583 349.115 40.5278 349.035 40.3032 348.952 40.073L348.728 39.3875 348.503 38.7022" fill="url(#fill145)" transform="scale(1.00201 1)"/><path d="M217.452 22.6454C154.884 26.6481 86.3257 32.2518-4.82627 40.7469-4.7226 41.3226-4.61317 41.939-4.50373 42.532-4.39433 43.1253-4.27912 43.7242-4.16971 44.3175-4.06028 44.9108-3.93933 45.5038-3.8299 46.0971-3.72049 46.6904-3.59378 47.2834-3.4786 47.8708 88.6063 37.8442 154.901 31.5089 218.195 26.6769L217.815 24.6612C217.573 23.3192 217.516 22.9794 217.452 22.6454" fill="url(#fill146)" transform="scale(1.00201 1)"/><path d="M221.633 41.5244C159.825 49.092 92.2865 59.1477 2.63774 74.1275 2.79324 74.7032 2.94298 75.2793 3.10424 75.8553 3.2655 76.431 3.41524 77.0071 3.5765 77.5831 3.73777 78.1588 3.89327 78.7348 4.05451 79.3109L4.53828 81.0387C93.8069 64.7226 161.115 53.7453 222.722 45.4464L222.146 43.5054C221.789 42.2096 221.697 41.8872 221.611 41.5589" fill="url(#fill147)" transform="scale(1.00201 1)"/><path d="M2.63774 74.1275C-183.697 105.74-322.708 134.392-348.676 139.783L-345.256 152.361C-307.936 143.912-172.421 113.774 4.54983 80.9464L4.06605 79.2186C3.90478 78.6426 3.74351 78.0669 3.58801 77.4908 3.43252 76.9148 3.27126 76.3391 3.11576 75.7631 2.96026 75.187 2.80476 74.6113 2.64926 74.0353" fill="url(#fill148)" transform="scale(1.00201 1)"/></g><text fill="#FFFFFF" font-family="Arial,Arial_MSFontService,sans-serif" font-weight="400" font-size="47" transform="matrix(0.34625 0 0 0.345556 171.035 98)">1</text><text fill="#FFFFFF" font-family="Arial,Arial_MSFontService,sans-serif" font-weight="400" font-size="47" transform="matrix(0.34625 0 0 0.345556 180.037 98)">.</text><text fill="#FFFFFF" font-family="Arial,Arial_MSFontService,sans-serif" font-weight="400" font-size="47" transform="matrix(0.34625 0 0 0.345556 184.538 98)">1</text><text fill="#FFFFFF" font-family="Arial,Arial_MSFontService,sans-serif" font-weight="400" font-size="47" transform="matrix(0.34625 0 0 0.345556 193.541 98)">.</text><text fill="#FFFFFF" font-family="Arial,Arial_MSFontService,sans-serif" font-weight="400" font-size="47" transform="matrix(0.34625 0 0 0.345556 198.042 98)">6</text><text fill="#FFFFFF" font-family="SimHei,SimHei_MSFontService,sans-serif" font-weight="400" font-size="47" transform="matrix(0.34625 0 0 0.345556 225.353 98)"></text><text fill="#FF0000" font-family="SimHei,SimHei_MSFontService,sans-serif" font-weight="400" font-size="30" transform="matrix(0.34625 0 0 0.345556 126.272 129)"></text><text fill="#FFFFFF" font-family="SimHei,SimHei_MSFontService,sans-serif" font-weight="400" font-size="30" transform="matrix(0.34625 0 0 0.345556 172.439 129)"></text><text fill="#FFFFFF" font-family="SimHei,SimHei_MSFontService,sans-serif" font-weight="400" font-size="30" transform="matrix(0.34625 0 0 0.345556 126.272 142)"></text><text fill="#FFFFFF" font-family="SimHei,SimHei_MSFontService,sans-serif" font-weight="400" font-size="30" transform="matrix(0.34625 0 0 0.345556 188.597 142)"></text><text fill="#FFFFFF" font-family="SimHei,SimHei_MSFontService,sans-serif" font-weight="400" font-size="30" transform="matrix(0.34625 0 0 0.345556 198.984 142)"></text><text fill="#FFFFFF" font-family="SimHei,SimHei_MSFontService,sans-serif" font-weight="400" font-size="30" transform="matrix(0.34625 0 0 0.345556 344.409 142)"></text><text fill="#FFFFFF" font-family="SimHei,SimHei_MSFontService,sans-serif" font-weight="400" font-size="30" transform="matrix(0.34625 0 0 0.345556 126.272 154)"></text><text fill="#FFFFFF" font-family="SimHei,SimHei_MSFontService,sans-serif" font-weight="400" font-size="30" transform="matrix(0.34625 0 0 0.345556 230.147 154)"></text><text fill="#FFFFFF" font-family="SimHei,SimHei_MSFontService,sans-serif" font-weight="400" font-size="30" transform="matrix(0.34625 0 0 0.345556 240.534 154)"></text><text fill="#FFFFFF" font-family="SimHei,SimHei_MSFontService,sans-serif" font-weight="400" font-size="30" transform="matrix(0.34625 0 0 0.345556 261.309 154)"></text><text fill="#FF0000" font-family="SimHei,SimHei_MSFontService,sans-serif" font-weight="400" font-size="30" transform="matrix(0.34625 0 0 0.345556 126.272 216)"></text><text fill="#FFFFFF" font-family="SimHei,SimHei_MSFontService,sans-serif" font-weight="400" font-size="30" transform="matrix(0.34625 0 0 0.345556 183.98 216)"></text><text fill="#FFFFFF" font-family="SimHei,SimHei_MSFontService,sans-serif" font-weight="400" font-size="30" transform="matrix(0.34625 0 0 0.345556 126.272 228)"></text><text fill="#FFFFFF" font-family="SimHei,SimHei_MSFontService,sans-serif" font-weight="400" font-size="30" transform="matrix(0.34625 0 0 0.345556 188.597 228)"></text><text fill="#FFFFFF" font-family="SimHei,SimHei_MSFontService,sans-serif" font-weight="400" font-size="30" transform="matrix(0.34625 0 0 0.345556 198.984 228)"></text><text fill="#FFFFFF" font-family="Arial,Arial_MSFontService,sans-serif" font-weight="400" font-size="30" transform="matrix(0.34625 0 0 0.345556 280.353 228)">expi</text><text fill="#FFFFFF" font-family="SimHei,SimHei_MSFontService,sans-serif" font-weight="400" font-size="30" transform="matrix(0.34625 0 0 0.345556 308.053 228)"></text><text fill="#FFFFFF" font-family="SimHei,SimHei_MSFontService,sans-serif" font-weight="400" font-size="30" transform="matrix(0.34625 0 0 0.345556 349.603 228)"></text><text fill="#FFFFFF" font-family="SimHei,SimHei_MSFontService,sans-serif" font-weight="400" font-size="30" transform="matrix(0.34625 0 0 0.345556 359.991 228)"></text><text fill="#FFFFFF" font-family="SimHei,SimHei_MSFontService,sans-serif" font-weight="400" font-size="30" transform="matrix(0.34625 0 0 0.345556 126.272 241)"></text><text fill="#FFFFFF" font-family="Arial,Arial_MSFontService,sans-serif" font-weight="400" font-size="15" transform="matrix(2.12017e-17 0.345556 -0.34625 2.11592e-17 539.852 34)">PRESENTATION TITLE</text><text fill="#F79646" font-family="Arial,Arial_MSFontService,sans-serif" font-weight="400" font-size="27" transform="matrix(0.34625 0 0 0.345556 538.9 160)">9</text><path d="M127.164 166.212 348.666 166.212 348.666 190.056 127.164 190.056Z" stroke="#7F7F7F" stroke-width="2.73565" stroke-linecap="round" stroke-linejoin="round" stroke-miterlimit="10" transform="scale(1.00201 1)"/><text fill="#FFFFFF" font-family="Consolas,Consolas_MSFontService,sans-serif" font-weight="400" font-size="23" transform="matrix(0.34625 0 0 0.345556 131.633 176)">define function </text><text fill="#FFFFFF" font-family="Consolas,Consolas_MSFontService,sans-serif" font-weight="400" font-size="23" transform="matrix(0.34625 0 0 0.345556 203.653 176)">"</text><text fill="#FFFFFF" font-family="Consolas,Consolas_MSFontService,sans-serif" font-weight="400" font-size="23" transform="matrix(0.34625 0 0 0.345556 208.154 176)">add</text><text fill="#FFFFFF" font-family="Consolas,Consolas_MSFontService,sans-serif" font-weight="400" font-size="23" transform="matrix(0.34625 0 0 0.345556 221.658 176)">" (</text><text fill="#FFFFFF" font-family="Consolas,Consolas_MSFontService,sans-serif" font-weight="400" font-size="23" transform="matrix(0.34625 0 0 0.345556 235.162 176)">int a</text><text fill="#FFFFFF" font-family="Consolas,Consolas_MSFontService,sans-serif" font-weight="400" font-size="23" transform="matrix(0.34625 0 0 0.345556 257.668 176)">, </text><text fill="#FFFFFF" font-family="Consolas,Consolas_MSFontService,sans-serif" font-weight="400" font-size="23" transform="matrix(0.34625 0 0 0.345556 266.671 176)">int b</text><text fill="#FFFFFF" font-family="Consolas,Consolas_MSFontService,sans-serif" font-weight="400" font-size="23" transform="matrix(0.34625 0 0 0.345556 289.177 176)">):</text><text fill="#FFFFFF" font-family="Consolas,Consolas_MSFontService,sans-serif" font-weight="400" font-size="23" transform="matrix(0.34625 0 0 0.345556 149.523 186)">return a </text><text fill="#FFFFFF" font-family="Consolas,Consolas_MSFontService,sans-serif" font-weight="400" font-size="23" transform="matrix(0.34625 0 0 0.345556 190.034 186)">+ </text><text fill="#FFFFFF" font-family="Consolas,Consolas_MSFontService,sans-serif" font-weight="400" font-size="23" transform="matrix(0.34625 0 0 0.345556 199.037 186)">b</text></g></svg>