<svg width="554" height="311" xmlns="http://www.w3.org/2000/svg" xmlns:xlink="http://www.w3.org/1999/xlink" xml:space="preserve" overflow="hidden"><defs><clipPath id="clip0"><rect x="0" y="0" width="554" height="311"/></clipPath><clipPath id="clip1"><rect x="4" y="-141" width="817" height="815"/></clipPath><linearGradient x1="302.622" y1="305.46" x2="306.483" y2="304.173" gradientUnits="userSpaceOnUse" spreadMethod="pad" id="fill2"><stop offset="0" stop-color="#FF0000"/><stop offset="1" stop-color="#0565FF"/></linearGradient><linearGradient x1="297.532" y1="301.917" x2="302.007" y2="300.426" gradientUnits="userSpaceOnUse" spreadMethod="pad" id="fill3"><stop offset="0" stop-color="#FF0000"/><stop offset="1" stop-color="#0565FF"/></linearGradient><linearGradient x1="292.159" y1="298.738" x2="297.221" y2="297.054" gradientUnits="userSpaceOnUse" spreadMethod="pad" id="fill4"><stop offset="0" stop-color="#FF0000"/><stop offset="1" stop-color="#0565FF"/></linearGradient><linearGradient x1="287.441" y1="296.381" x2="292.988" y2="294.53" gradientUnits="userSpaceOnUse" spreadMethod="pad" id="fill5"><stop offset="0" stop-color="#FF0000"/><stop offset="1" stop-color="#0565FF"/></linearGradient><linearGradient x1="281.783" y1="294.048" x2="287.954" y2="291.988" gradientUnits="userSpaceOnUse" spreadMethod="pad" id="fill6"><stop offset="0" stop-color="#FF0000"/><stop offset="1" stop-color="#0565FF"/></linearGradient><linearGradient x1="276.01" y1="292.182" x2="282.856" y2="289.899" gradientUnits="userSpaceOnUse" spreadMethod="pad" id="fill7"><stop offset="0" stop-color="#FF0000"/><stop offset="1" stop-color="#0565FF"/></linearGradient><linearGradient x1="270.133" y1="290.779" x2="277.73" y2="288.247" gradientUnits="userSpaceOnUse" spreadMethod="pad" id="fill8"><stop offset="0" stop-color="#FF0000"/><stop offset="1" stop-color="#0565FF"/></linearGradient><linearGradient x1="264.175" y1="289.848" x2="272.604" y2="287.038" gradientUnits="userSpaceOnUse" spreadMethod="pad" id="fill9"><stop offset="0" stop-color="#FF0000"/><stop offset="1" stop-color="#0565FF"/></linearGradient><linearGradient x1="258.16" y1="289.385" x2="267.524" y2="286.26" gradientUnits="userSpaceOnUse" spreadMethod="pad" id="fill10"><stop offset="0" stop-color="#FF0000"/><stop offset="1" stop-color="#0565FF"/></linearGradient><linearGradient x1="252.105" y1="289.389" x2="262.551" y2="285.911" gradientUnits="userSpaceOnUse" spreadMethod="pad" id="fill11"><stop offset="0" stop-color="#FF0000"/><stop offset="1" stop-color="#0565FF"/></linearGradient><linearGradient x1="246.04" y1="289.872" x2="257.743" y2="285.968" gradientUnits="userSpaceOnUse" spreadMethod="pad" id="fill12"><stop offset="0" stop-color="#FF0000"/><stop offset="1" stop-color="#0565FF"/></linearGradient><linearGradient x1="239.99" y1="290.818" x2="253.168" y2="286.426" gradientUnits="userSpaceOnUse" spreadMethod="pad" id="fill13"><stop offset="0" stop-color="#FF0000"/><stop offset="1" stop-color="#0565FF"/></linearGradient><linearGradient x1="233.978" y1="292.236" x2="248.973" y2="287.235" gradientUnits="userSpaceOnUse" spreadMethod="pad" id="fill14"><stop offset="0" stop-color="#FF0000"/><stop offset="1" stop-color="#0565FF"/></linearGradient><linearGradient x1="228.786" y1="293.849" x2="245.727" y2="288.205" gradientUnits="userSpaceOnUse" spreadMethod="pad" id="fill15"><stop offset="0" stop-color="#FF0000"/><stop offset="1" stop-color="#0565FF"/></linearGradient><linearGradient x1="222.939" y1="296.128" x2="242.688" y2="289.543" gradientUnits="userSpaceOnUse" spreadMethod="pad" id="fill16"><stop offset="0" stop-color="#FF0000"/><stop offset="1" stop-color="#0565FF"/></linearGradient><linearGradient x1="217.231" y1="298.853" x2="240.76" y2="291.011" gradientUnits="userSpaceOnUse" spreadMethod="pad" id="fill17"><stop offset="0" stop-color="#FF0000"/><stop offset="1" stop-color="#0565FF"/></linearGradient><linearGradient x1="211.718" y1="302.009" x2="240.641" y2="292.368" gradientUnits="userSpaceOnUse" spreadMethod="pad" id="fill18"><stop offset="0" stop-color="#FF0000"/><stop offset="1" stop-color="#0565FF"/></linearGradient><linearGradient x1="206.481" y1="305.58" x2="243.8" y2="293.141" gradientUnits="userSpaceOnUse" spreadMethod="pad" id="fill19"><stop offset="0" stop-color="#FF0000"/><stop offset="1" stop-color="#0565FF"/></linearGradient><linearGradient x1="201.604" y1="309.528" x2="251.975" y2="292.739" gradientUnits="userSpaceOnUse" spreadMethod="pad" id="fill20"><stop offset="0" stop-color="#FF0000"/><stop offset="1" stop-color="#0565FF"/></linearGradient><linearGradient x1="199.211" y1="309.737" x2="503.789" y2="208.206" gradientUnits="userSpaceOnUse" spreadMethod="pad" id="fill21"><stop offset="0" stop-color="#FF0000"/><stop offset="1" stop-color="#0565FF"/></linearGradient><linearGradient x1="202.242" y1="319.084" x2="506.916" y2="217.526" gradientUnits="userSpaceOnUse" spreadMethod="pad" id="fill22"><stop offset="0" stop-color="#FF0000"/><stop offset="1" stop-color="#0565FF"/></linearGradient><linearGradient x1="196.965" y1="303.007" x2="501.546" y2="201.481" gradientUnits="userSpaceOnUse" spreadMethod="pad" id="fill23"><stop offset="0" stop-color="#FF0000"/><stop offset="1" stop-color="#0565FF"/></linearGradient><linearGradient x1="195.129" y1="297.497" x2="499.711" y2="195.971" gradientUnits="userSpaceOnUse" spreadMethod="pad" id="fill24"><stop offset="0" stop-color="#FF0000"/><stop offset="1" stop-color="#0565FF"/></linearGradient><linearGradient x1="193.161" y1="291.587" x2="497.742" y2="190.061" gradientUnits="userSpaceOnUse" spreadMethod="pad" id="fill25"><stop offset="0" stop-color="#FF0000"/><stop offset="1" stop-color="#0565FF"/></linearGradient><linearGradient x1="191.42" y1="286.374" x2="496.004" y2="184.841" gradientUnits="userSpaceOnUse" spreadMethod="pad" id="fill26"><stop offset="0" stop-color="#FF0000"/><stop offset="1" stop-color="#0565FF"/></linearGradient><linearGradient x1="189.812" y1="281.549" x2="494.393" y2="180.023" gradientUnits="userSpaceOnUse" spreadMethod="pad" id="fill27"><stop offset="0" stop-color="#FF0000"/><stop offset="1" stop-color="#0565FF"/></linearGradient><linearGradient x1="188.399" y1="277.316" x2="492.987" y2="175.788" gradientUnits="userSpaceOnUse" spreadMethod="pad" id="fill28"><stop offset="0" stop-color="#FF0000"/><stop offset="1" stop-color="#0565FF"/></linearGradient><linearGradient x1="187.186" y1="273.673" x2="491.774" y2="172.146" gradientUnits="userSpaceOnUse" spreadMethod="pad" id="fill29"><stop offset="0" stop-color="#FF0000"/><stop offset="1" stop-color="#0565FF"/></linearGradient><linearGradient x1="186.18" y1="270.65" x2="490.765" y2="169.122" gradientUnits="userSpaceOnUse" spreadMethod="pad" id="fill30"><stop offset="0" stop-color="#FF0000"/><stop offset="1" stop-color="#0565FF"/></linearGradient><linearGradient x1="185.385" y1="268.274" x2="489.97" y2="166.746" gradientUnits="userSpaceOnUse" spreadMethod="pad" id="fill31"><stop offset="0" stop-color="#FF0000"/><stop offset="1" stop-color="#0565FF"/></linearGradient><linearGradient x1="184.79" y1="266.488" x2="489.376" y2="164.961" gradientUnits="userSpaceOnUse" spreadMethod="pad" id="fill32"><stop offset="0" stop-color="#FF0000"/><stop offset="1" stop-color="#0565FF"/></linearGradient><linearGradient x1="184.413" y1="265.348" x2="488.996" y2="163.815" gradientUnits="userSpaceOnUse" spreadMethod="pad" id="fill33"><stop offset="0" stop-color="#FF0000"/><stop offset="1" stop-color="#0565FF"/></linearGradient><linearGradient x1="184.259" y1="264.895" x2="488.851" y2="163.365" gradientUnits="userSpaceOnUse" spreadMethod="pad" id="fill34"><stop offset="0" stop-color="#FF0000"/><stop offset="1" stop-color="#0565FF"/></linearGradient><linearGradient x1="184.316" y1="265.058" x2="488.902" y2="163.53" gradientUnits="userSpaceOnUse" spreadMethod="pad" id="fill35"><stop offset="0" stop-color="#FF0000"/><stop offset="1" stop-color="#0565FF"/></linearGradient><linearGradient x1="184.589" y1="265.88" x2="489.179" y2="164.35" gradientUnits="userSpaceOnUse" spreadMethod="pad" id="fill36"><stop offset="0" stop-color="#FF0000"/><stop offset="1" stop-color="#0565FF"/></linearGradient><linearGradient x1="185.127" y1="267.489" x2="489.714" y2="165.962" gradientUnits="userSpaceOnUse" spreadMethod="pad" id="fill37"><stop offset="0" stop-color="#FF0000"/><stop offset="1" stop-color="#0565FF"/></linearGradient><linearGradient x1="185.909" y1="269.833" x2="490.499" y2="168.304" gradientUnits="userSpaceOnUse" spreadMethod="pad" id="fill38"><stop offset="0" stop-color="#FF0000"/><stop offset="1" stop-color="#0565FF"/></linearGradient><linearGradient x1="186.939" y1="272.928" x2="491.532" y2="171.398" gradientUnits="userSpaceOnUse" spreadMethod="pad" id="fill39"><stop offset="0" stop-color="#FF0000"/><stop offset="1" stop-color="#0565FF"/></linearGradient><linearGradient x1="188.217" y1="276.768" x2="492.807" y2="175.233" gradientUnits="userSpaceOnUse" spreadMethod="pad" id="fill40"><stop offset="0" stop-color="#FF0000"/><stop offset="1" stop-color="#0565FF"/></linearGradient><linearGradient x1="189.719" y1="281.269" x2="494.31" y2="179.74" gradientUnits="userSpaceOnUse" spreadMethod="pad" id="fill41"><stop offset="0" stop-color="#FF0000"/><stop offset="1" stop-color="#0565FF"/></linearGradient><linearGradient x1="191.435" y1="286.424" x2="496.007" y2="184.903" gradientUnits="userSpaceOnUse" spreadMethod="pad" id="fill42"><stop offset="0" stop-color="#FF0000"/><stop offset="1" stop-color="#0565FF"/></linearGradient><linearGradient x1="193.387" y1="292.266" x2="497.956" y2="190.745" gradientUnits="userSpaceOnUse" spreadMethod="pad" id="fill43"><stop offset="0" stop-color="#FF0000"/><stop offset="1" stop-color="#0565FF"/></linearGradient><linearGradient x1="195.554" y1="298.779" x2="500.129" y2="197.256" gradientUnits="userSpaceOnUse" spreadMethod="pad" id="fill44"><stop offset="0" stop-color="#FF0000"/><stop offset="1" stop-color="#0565FF"/></linearGradient><linearGradient x1="197.938" y1="305.938" x2="502.521" y2="204.413" gradientUnits="userSpaceOnUse" spreadMethod="pad" id="fill45"><stop offset="0" stop-color="#FF0000"/><stop offset="1" stop-color="#0565FF"/></linearGradient><linearGradient x1="200.537" y1="313.719" x2="505.112" y2="212.196" gradientUnits="userSpaceOnUse" spreadMethod="pad" id="fill46"><stop offset="0" stop-color="#FF0000"/><stop offset="1" stop-color="#0565FF"/></linearGradient><linearGradient x1="145.728" y1="200.219" x2="377.087" y2="227.945" gradientUnits="userSpaceOnUse" spreadMethod="pad" id="fill47"><stop offset="0" stop-color="#FF0000"/><stop offset="1" stop-color="#0565FF"/></linearGradient><linearGradient x1="146.426" y1="194.404" x2="377.786" y2="222.13" gradientUnits="userSpaceOnUse" spreadMethod="pad" id="fill48"><stop offset="0" stop-color="#FF0000"/><stop offset="1" stop-color="#0565FF"/></linearGradient><linearGradient x1="147.108" y1="188.714" x2="378.466" y2="216.44" gradientUnits="userSpaceOnUse" spreadMethod="pad" id="fill49"><stop offset="0" stop-color="#FF0000"/><stop offset="1" stop-color="#0565FF"/></linearGradient><linearGradient x1="147.638" y1="184.302" x2="378.995" y2="212.027" gradientUnits="userSpaceOnUse" spreadMethod="pad" id="fill50"><stop offset="0" stop-color="#FF0000"/><stop offset="1" stop-color="#0565FF"/></linearGradient><linearGradient x1="148.011" y1="181.143" x2="379.379" y2="208.872" gradientUnits="userSpaceOnUse" spreadMethod="pad" id="fill51"><stop offset="0" stop-color="#FF0000"/><stop offset="1" stop-color="#0565FF"/></linearGradient><linearGradient x1="148.241" y1="179.221" x2="379.607" y2="206.949" gradientUnits="userSpaceOnUse" spreadMethod="pad" id="fill52"><stop offset="0" stop-color="#FF0000"/><stop offset="1" stop-color="#0565FF"/></linearGradient><linearGradient x1="148.328" y1="178.527" x2="379.69" y2="206.258" gradientUnits="userSpaceOnUse" spreadMethod="pad" id="fill53"><stop offset="0" stop-color="#FF0000"/><stop offset="1" stop-color="#0565FF"/></linearGradient><linearGradient x1="148.273" y1="178.988" x2="379.631" y2="206.714" gradientUnits="userSpaceOnUse" spreadMethod="pad" id="fill54"><stop offset="0" stop-color="#FF0000"/><stop offset="1" stop-color="#0565FF"/></linearGradient><linearGradient x1="148.099" y1="180.406" x2="379.465" y2="208.134" gradientUnits="userSpaceOnUse" spreadMethod="pad" id="fill55"><stop offset="0" stop-color="#FF0000"/><stop offset="1" stop-color="#0565FF"/></linearGradient><linearGradient x1="147.816" y1="182.789" x2="379.175" y2="210.515" gradientUnits="userSpaceOnUse" spreadMethod="pad" id="fill56"><stop offset="0" stop-color="#FF0000"/><stop offset="1" stop-color="#0565FF"/></linearGradient><linearGradient x1="147.404" y1="186.214" x2="378.767" y2="213.937" gradientUnits="userSpaceOnUse" spreadMethod="pad" id="fill57"><stop offset="0" stop-color="#FF0000"/><stop offset="1" stop-color="#0565FF"/></linearGradient><linearGradient x1="146.951" y1="189.994" x2="378.318" y2="217.722" gradientUnits="userSpaceOnUse" spreadMethod="pad" id="fill58"><stop offset="0" stop-color="#FF0000"/><stop offset="1" stop-color="#0565FF"/></linearGradient><linearGradient x1="146.314" y1="195.32" x2="377.675" y2="223.051" gradientUnits="userSpaceOnUse" spreadMethod="pad" id="fill59"><stop offset="0" stop-color="#FF0000"/><stop offset="1" stop-color="#0565FF"/></linearGradient><linearGradient x1="145.557" y1="201.63" x2="376.918" y2="229.36" gradientUnits="userSpaceOnUse" spreadMethod="pad" id="fill60"><stop offset="0" stop-color="#FF0000"/><stop offset="1" stop-color="#0565FF"/></linearGradient><linearGradient x1="144.68" y1="208.952" x2="376.04" y2="236.683" gradientUnits="userSpaceOnUse" spreadMethod="pad" id="fill61"><stop offset="0" stop-color="#FF0000"/><stop offset="1" stop-color="#0565FF"/></linearGradient><linearGradient x1="143.676" y1="217.335" x2="375.035" y2="245.06" gradientUnits="userSpaceOnUse" spreadMethod="pad" id="fill62"><stop offset="0" stop-color="#FF0000"/><stop offset="1" stop-color="#0565FF"/></linearGradient><linearGradient x1="142.559" y1="226.641" x2="373.926" y2="254.369" gradientUnits="userSpaceOnUse" spreadMethod="pad" id="fill63"><stop offset="0" stop-color="#FF0000"/><stop offset="1" stop-color="#0565FF"/></linearGradient><linearGradient x1="141.32" y1="236.961" x2="372.685" y2="264.689" gradientUnits="userSpaceOnUse" spreadMethod="pad" id="fill64"><stop offset="0" stop-color="#FF0000"/><stop offset="1" stop-color="#0565FF"/></linearGradient><linearGradient x1="139.981" y1="248.148" x2="371.348" y2="275.877" gradientUnits="userSpaceOnUse" spreadMethod="pad" id="fill65"><stop offset="0" stop-color="#FF0000"/><stop offset="1" stop-color="#0565FF"/></linearGradient><linearGradient x1="138.534" y1="260.219" x2="369.893" y2="287.949" gradientUnits="userSpaceOnUse" spreadMethod="pad" id="fill66"><stop offset="0" stop-color="#FF0000"/><stop offset="1" stop-color="#0565FF"/></linearGradient><linearGradient x1="136.989" y1="273.132" x2="368.348" y2="300.857" gradientUnits="userSpaceOnUse" spreadMethod="pad" id="fill67"><stop offset="0" stop-color="#FF0000"/><stop offset="1" stop-color="#0565FF"/></linearGradient><linearGradient x1="135.346" y1="286.817" x2="366.707" y2="314.548" gradientUnits="userSpaceOnUse" spreadMethod="pad" id="fill68"><stop offset="0" stop-color="#FF0000"/><stop offset="1" stop-color="#0565FF"/></linearGradient><linearGradient x1="133.619" y1="301.219" x2="364.986" y2="328.948" gradientUnits="userSpaceOnUse" spreadMethod="pad" id="fill69"><stop offset="0" stop-color="#FF0000"/><stop offset="1" stop-color="#0565FF"/></linearGradient><linearGradient x1="131.813" y1="316.305" x2="363.172" y2="344.036" gradientUnits="userSpaceOnUse" spreadMethod="pad" id="fill70"><stop offset="0" stop-color="#FF0000"/><stop offset="1" stop-color="#0565FF"/></linearGradient><linearGradient x1="145.256" y1="204.176" x2="376.614" y2="231.902" gradientUnits="userSpaceOnUse" spreadMethod="pad" id="fill71"><stop offset="0" stop-color="#FF0000"/><stop offset="1" stop-color="#0565FF"/></linearGradient><linearGradient x1="145.332" y1="203.531" x2="376.69" y2="231.257" gradientUnits="userSpaceOnUse" spreadMethod="pad" id="fill72"><stop offset="0" stop-color="#FF0000"/><stop offset="1" stop-color="#0565FF"/></linearGradient><linearGradient x1="145.426" y1="202.735" x2="376.787" y2="230.466" gradientUnits="userSpaceOnUse" spreadMethod="pad" id="fill73"><stop offset="0" stop-color="#FF0000"/><stop offset="1" stop-color="#0565FF"/></linearGradient><linearGradient x1="145.627" y1="201.043" x2="376.991" y2="228.766" gradientUnits="userSpaceOnUse" spreadMethod="pad" id="fill74"><stop offset="0" stop-color="#FF0000"/><stop offset="1" stop-color="#0565FF"/></linearGradient><linearGradient x1="145.817" y1="199.469" x2="377.177" y2="227.2" gradientUnits="userSpaceOnUse" spreadMethod="pad" id="fill75"><stop offset="0" stop-color="#FF0000"/><stop offset="1" stop-color="#0565FF"/></linearGradient><linearGradient x1="145.925" y1="198.561" x2="377.284" y2="226.291" gradientUnits="userSpaceOnUse" spreadMethod="pad" id="fill76"><stop offset="0" stop-color="#FF0000"/><stop offset="1" stop-color="#0565FF"/></linearGradient><linearGradient x1="145.952" y1="198.343" x2="377.316" y2="226.066" gradientUnits="userSpaceOnUse" spreadMethod="pad" id="fill77"><stop offset="0" stop-color="#FF0000"/><stop offset="1" stop-color="#0565FF"/></linearGradient><linearGradient x1="145.893" y1="198.824" x2="377.253" y2="226.555" gradientUnits="userSpaceOnUse" spreadMethod="pad" id="fill78"><stop offset="0" stop-color="#FF0000"/><stop offset="1" stop-color="#0565FF"/></linearGradient><linearGradient x1="145.719" y1="200.286" x2="377.081" y2="228.016" gradientUnits="userSpaceOnUse" spreadMethod="pad" id="fill79"><stop offset="0" stop-color="#FF0000"/><stop offset="1" stop-color="#0565FF"/></linearGradient><linearGradient x1="145.424" y1="202.73" x2="376.79" y2="230.458" gradientUnits="userSpaceOnUse" spreadMethod="pad" id="fill80"><stop offset="0" stop-color="#FF0000"/><stop offset="1" stop-color="#0565FF"/></linearGradient><linearGradient x1="145.024" y1="206.093" x2="376.383" y2="233.819" gradientUnits="userSpaceOnUse" spreadMethod="pad" id="fill81"><stop offset="0" stop-color="#FF0000"/><stop offset="1" stop-color="#0565FF"/></linearGradient><linearGradient x1="144.578" y1="209.789" x2="375.94" y2="237.512" gradientUnits="userSpaceOnUse" spreadMethod="pad" id="fill82"><stop offset="0" stop-color="#FF0000"/><stop offset="1" stop-color="#0565FF"/></linearGradient><linearGradient x1="143.963" y1="214.944" x2="375.325" y2="242.675" gradientUnits="userSpaceOnUse" spreadMethod="pad" id="fill83"><stop offset="0" stop-color="#FF0000"/><stop offset="1" stop-color="#0565FF"/></linearGradient><linearGradient x1="143.236" y1="220.984" x2="374.603" y2="248.713" gradientUnits="userSpaceOnUse" spreadMethod="pad" id="fill84"><stop offset="0" stop-color="#FF0000"/><stop offset="1" stop-color="#0565FF"/></linearGradient><linearGradient x1="142.409" y1="227.91" x2="373.77" y2="255.641" gradientUnits="userSpaceOnUse" spreadMethod="pad" id="fill85"><stop offset="0" stop-color="#FF0000"/><stop offset="1" stop-color="#0565FF"/></linearGradient><linearGradient x1="141.467" y1="235.773" x2="372.823" y2="263.499" gradientUnits="userSpaceOnUse" spreadMethod="pad" id="fill86"><stop offset="0" stop-color="#FF0000"/><stop offset="1" stop-color="#0565FF"/></linearGradient><linearGradient x1="140.407" y1="244.598" x2="371.769" y2="272.329" gradientUnits="userSpaceOnUse" spreadMethod="pad" id="fill87"><stop offset="0" stop-color="#FF0000"/><stop offset="1" stop-color="#0565FF"/></linearGradient><linearGradient x1="139.252" y1="254.214" x2="370.619" y2="281.943" gradientUnits="userSpaceOnUse" spreadMethod="pad" id="fill88"><stop offset="0" stop-color="#FF0000"/><stop offset="1" stop-color="#0565FF"/></linearGradient><linearGradient x1="137.993" y1="264.736" x2="369.354" y2="292.467" gradientUnits="userSpaceOnUse" spreadMethod="pad" id="fill89"><stop offset="0" stop-color="#FF0000"/><stop offset="1" stop-color="#0565FF"/></linearGradient><linearGradient x1="136.64" y1="276.011" x2="368.003" y2="303.734" gradientUnits="userSpaceOnUse" spreadMethod="pad" id="fill90"><stop offset="0" stop-color="#FF0000"/><stop offset="1" stop-color="#0565FF"/></linearGradient><linearGradient x1="135.2" y1="288.035" x2="366.565" y2="315.764" gradientUnits="userSpaceOnUse" spreadMethod="pad" id="fill91"><stop offset="0" stop-color="#FF0000"/><stop offset="1" stop-color="#0565FF"/></linearGradient><linearGradient x1="133.674" y1="300.79" x2="365.035" y2="328.52" gradientUnits="userSpaceOnUse" spreadMethod="pad" id="fill92"><stop offset="0" stop-color="#FF0000"/><stop offset="1" stop-color="#0565FF"/></linearGradient><linearGradient x1="342.557" y1="389.403" x2="838.224" y2="210.181" gradientUnits="userSpaceOnUse" spreadMethod="pad" id="fill93"><stop offset="0" stop-color="#FF0000"/><stop offset="1" stop-color="#0565FF"/></linearGradient><linearGradient x1="338.875" y1="379.213" x2="834.544" y2="199.996" gradientUnits="userSpaceOnUse" spreadMethod="pad" id="fill94"><stop offset="0" stop-color="#FF0000"/><stop offset="1" stop-color="#0565FF"/></linearGradient><linearGradient x1="335.199" y1="369.053" x2="830.868" y2="189.834" gradientUnits="userSpaceOnUse" spreadMethod="pad" id="fill95"><stop offset="0" stop-color="#FF0000"/><stop offset="1" stop-color="#0565FF"/></linearGradient><linearGradient x1="331.65" y1="359.236" x2="827.319" y2="180.013" gradientUnits="userSpaceOnUse" spreadMethod="pad" id="fill96"><stop offset="0" stop-color="#FF0000"/><stop offset="1" stop-color="#0565FF"/></linearGradient><linearGradient x1="328.212" y1="349.723" x2="823.88" y2="170.501" gradientUnits="userSpaceOnUse" spreadMethod="pad" id="fill97"><stop offset="0" stop-color="#FF0000"/><stop offset="1" stop-color="#0565FF"/></linearGradient><linearGradient x1="324.86" y1="340.444" x2="820.522" y2="161.223" gradientUnits="userSpaceOnUse" spreadMethod="pad" id="fill98"><stop offset="0" stop-color="#FF0000"/><stop offset="1" stop-color="#0565FF"/></linearGradient><linearGradient x1="321.583" y1="331.388" x2="817.253" y2="152.171" gradientUnits="userSpaceOnUse" spreadMethod="pad" id="fill99"><stop offset="0" stop-color="#FF0000"/><stop offset="1" stop-color="#0565FF"/></linearGradient><linearGradient x1="318.397" y1="322.575" x2="814.067" y2="143.352" gradientUnits="userSpaceOnUse" spreadMethod="pad" id="fill100"><stop offset="0" stop-color="#FF0000"/><stop offset="1" stop-color="#0565FF"/></linearGradient><linearGradient x1="315.338" y1="314.121" x2="811.008" y2="134.903" gradientUnits="userSpaceOnUse" spreadMethod="pad" id="fill101"><stop offset="0" stop-color="#FF0000"/><stop offset="1" stop-color="#0565FF"/></linearGradient><linearGradient x1="313.012" y1="307.675" x2="808.676" y2="128.454" gradientUnits="userSpaceOnUse" spreadMethod="pad" id="fill102"><stop offset="0" stop-color="#FF0000"/><stop offset="1" stop-color="#0565FF"/></linearGradient><linearGradient x1="312.999" y1="307.643" x2="808.666" y2="128.42" gradientUnits="userSpaceOnUse" spreadMethod="pad" id="fill103"><stop offset="0" stop-color="#FF0000"/><stop offset="1" stop-color="#0565FF"/></linearGradient><linearGradient x1="312.61" y1="306.564" x2="808.275" y2="127.349" gradientUnits="userSpaceOnUse" spreadMethod="pad" id="fill104"><stop offset="0" stop-color="#FF0000"/><stop offset="1" stop-color="#0565FF"/></linearGradient><linearGradient x1="312.129" y1="305.236" x2="807.795" y2="126.013" gradientUnits="userSpaceOnUse" spreadMethod="pad" id="fill105"><stop offset="0" stop-color="#FF0000"/><stop offset="1" stop-color="#0565FF"/></linearGradient><linearGradient x1="309.813" y1="298.83" x2="805.483" y2="119.612" gradientUnits="userSpaceOnUse" spreadMethod="pad" id="fill106"><stop offset="0" stop-color="#FF0000"/><stop offset="1" stop-color="#0565FF"/></linearGradient><linearGradient x1="307.572" y1="292.629" x2="803.24" y2="113.411" gradientUnits="userSpaceOnUse" spreadMethod="pad" id="fill107"><stop offset="0" stop-color="#FF0000"/><stop offset="1" stop-color="#0565FF"/></linearGradient><linearGradient x1="305.582" y1="287.14" x2="801.25" y2="107.917" gradientUnits="userSpaceOnUse" spreadMethod="pad" id="fill108"><stop offset="0" stop-color="#FF0000"/><stop offset="1" stop-color="#0565FF"/></linearGradient><linearGradient x1="303.863" y1="282.375" x2="799.529" y2="103.152" gradientUnits="userSpaceOnUse" spreadMethod="pad" id="fill109"><stop offset="0" stop-color="#FF0000"/><stop offset="1" stop-color="#0565FF"/></linearGradient><linearGradient x1="302.459" y1="278.489" x2="798.13" y2="99.2709" gradientUnits="userSpaceOnUse" spreadMethod="pad" id="fill110"><stop offset="0" stop-color="#FF0000"/><stop offset="1" stop-color="#0565FF"/></linearGradient><linearGradient x1="301.329" y1="275.367" x2="796.996" y2="96.1443" gradientUnits="userSpaceOnUse" spreadMethod="pad" id="fill111"><stop offset="0" stop-color="#FF0000"/><stop offset="1" stop-color="#0565FF"/></linearGradient><linearGradient x1="300.509" y1="273.108" x2="796.181" y2="93.8906" gradientUnits="userSpaceOnUse" spreadMethod="pad" id="fill112"><stop offset="0" stop-color="#FF0000"/><stop offset="1" stop-color="#0565FF"/></linearGradient><linearGradient x1="300.031" y1="271.773" x2="795.697" y2="92.5501" gradientUnits="userSpaceOnUse" spreadMethod="pad" id="fill113"><stop offset="0" stop-color="#FF0000"/><stop offset="1" stop-color="#0565FF"/></linearGradient><linearGradient x1="299.881" y1="271.362" x2="795.548" y2="92.1386" gradientUnits="userSpaceOnUse" spreadMethod="pad" id="fill114"><stop offset="0" stop-color="#FF0000"/><stop offset="1" stop-color="#0565FF"/></linearGradient><linearGradient x1="299.98" y1="271.638" x2="795.655" y2="92.4185" gradientUnits="userSpaceOnUse" spreadMethod="pad" id="fill115"><stop offset="0" stop-color="#FF0000"/><stop offset="1" stop-color="#0565FF"/></linearGradient><linearGradient x1="300.378" y1="272.739" x2="796.049" y2="93.5136" gradientUnits="userSpaceOnUse" spreadMethod="pad" id="fill116"><stop offset="0" stop-color="#FF0000"/><stop offset="1" stop-color="#0565FF"/></linearGradient><linearGradient x1="301.098" y1="274.734" x2="796.765" y2="95.5105" gradientUnits="userSpaceOnUse" spreadMethod="pad" id="fill117"><stop offset="0" stop-color="#FF0000"/><stop offset="1" stop-color="#0565FF"/></linearGradient><linearGradient x1="302.16" y1="277.665" x2="797.829" y2="98.4477" gradientUnits="userSpaceOnUse" spreadMethod="pad" id="fill118"><stop offset="0" stop-color="#FF0000"/><stop offset="1" stop-color="#0565FF"/></linearGradient><linearGradient x1="303.575" y1="281.578" x2="799.242" y2="102.355" gradientUnits="userSpaceOnUse" spreadMethod="pad" id="fill119"><stop offset="0" stop-color="#FF0000"/><stop offset="1" stop-color="#0565FF"/></linearGradient><linearGradient x1="305.348" y1="286.484" x2="801.022" y2="107.264" gradientUnits="userSpaceOnUse" spreadMethod="pad" id="fill120"><stop offset="0" stop-color="#FF0000"/><stop offset="1" stop-color="#0565FF"/></linearGradient><linearGradient x1="307.501" y1="292.447" x2="803.175" y2="113.222" gradientUnits="userSpaceOnUse" spreadMethod="pad" id="fill121"><stop offset="0" stop-color="#FF0000"/><stop offset="1" stop-color="#0565FF"/></linearGradient><linearGradient x1="310.034" y1="299.455" x2="805.708" y2="120.235" gradientUnits="userSpaceOnUse" spreadMethod="pad" id="fill122"><stop offset="0" stop-color="#FF0000"/><stop offset="1" stop-color="#0565FF"/></linearGradient><linearGradient x1="312.972" y1="307.579" x2="808.648" y2="128.359" gradientUnits="userSpaceOnUse" spreadMethod="pad" id="fill123"><stop offset="0" stop-color="#FF0000"/><stop offset="1" stop-color="#0565FF"/></linearGradient><linearGradient x1="316.308" y1="316.791" x2="811.976" y2="137.568" gradientUnits="userSpaceOnUse" spreadMethod="pad" id="fill124"><stop offset="0" stop-color="#FF0000"/><stop offset="1" stop-color="#0565FF"/></linearGradient><linearGradient x1="305.848" y1="287.872" x2="801.52" y2="108.654" gradientUnits="userSpaceOnUse" spreadMethod="pad" id="fill125"><stop offset="0" stop-color="#FF0000"/><stop offset="1" stop-color="#0565FF"/></linearGradient><linearGradient x1="302.1" y1="277.509" x2="797.774" y2="98.2843" gradientUnits="userSpaceOnUse" spreadMethod="pad" id="fill126"><stop offset="0" stop-color="#FF0000"/><stop offset="1" stop-color="#0565FF"/></linearGradient><linearGradient x1="298.63" y1="267.91" x2="794.301" y2="88.6924" gradientUnits="userSpaceOnUse" spreadMethod="pad" id="fill127"><stop offset="0" stop-color="#FF0000"/><stop offset="1" stop-color="#0565FF"/></linearGradient><linearGradient x1="295.46" y1="259.147" x2="791.136" y2="79.927" gradientUnits="userSpaceOnUse" spreadMethod="pad" id="fill128"><stop offset="0" stop-color="#FF0000"/><stop offset="1" stop-color="#0565FF"/></linearGradient><linearGradient x1="292.614" y1="251.271" x2="788.285" y2="72.0532" gradientUnits="userSpaceOnUse" spreadMethod="pad" id="fill129"><stop offset="0" stop-color="#FF0000"/><stop offset="1" stop-color="#0565FF"/></linearGradient><linearGradient x1="290.109" y1="244.344" x2="785.776" y2="65.1213" gradientUnits="userSpaceOnUse" spreadMethod="pad" id="fill130"><stop offset="0" stop-color="#FF0000"/><stop offset="1" stop-color="#0565FF"/></linearGradient><linearGradient x1="287.969" y1="238.426" x2="783.644" y2="59.2058" gradientUnits="userSpaceOnUse" spreadMethod="pad" id="fill131"><stop offset="0" stop-color="#FF0000"/><stop offset="1" stop-color="#0565FF"/></linearGradient><linearGradient x1="286.216" y1="233.581" x2="781.892" y2="54.3611" gradientUnits="userSpaceOnUse" spreadMethod="pad" id="fill132"><stop offset="0" stop-color="#FF0000"/><stop offset="1" stop-color="#0565FF"/></linearGradient><linearGradient x1="284.875" y1="229.874" x2="780.548" y2="50.6484" gradientUnits="userSpaceOnUse" spreadMethod="pad" id="fill133"><stop offset="0" stop-color="#FF0000"/><stop offset="1" stop-color="#0565FF"/></linearGradient><linearGradient x1="283.966" y1="227.359" x2="779.639" y2="48.1338" gradientUnits="userSpaceOnUse" spreadMethod="pad" id="fill134"><stop offset="0" stop-color="#FF0000"/><stop offset="1" stop-color="#0565FF"/></linearGradient><linearGradient x1="283.542" y1="226.182" x2="779.217" y2="46.9624" gradientUnits="userSpaceOnUse" spreadMethod="pad" id="fill135"><stop offset="0" stop-color="#FF0000"/><stop offset="1" stop-color="#0565FF"/></linearGradient><linearGradient x1="283.542" y1="226.182" x2="779.217" y2="46.9624" gradientUnits="userSpaceOnUse" spreadMethod="pad" id="fill136"><stop offset="0" stop-color="#FF0000"/><stop offset="1" stop-color="#0565FF"/></linearGradient><linearGradient x1="283.944" y1="227.293" x2="779.618" y2="48.0682" gradientUnits="userSpaceOnUse" spreadMethod="pad" id="fill137"><stop offset="0" stop-color="#FF0000"/><stop offset="1" stop-color="#0565FF"/></linearGradient><linearGradient x1="284.845" y1="229.787" x2="780.517" y2="50.5617" gradientUnits="userSpaceOnUse" spreadMethod="pad" id="fill138"><stop offset="0" stop-color="#FF0000"/><stop offset="1" stop-color="#0565FF"/></linearGradient><linearGradient x1="286.26" y1="233.7" x2="781.937" y2="54.4799" gradientUnits="userSpaceOnUse" spreadMethod="pad" id="fill139"><stop offset="0" stop-color="#FF0000"/><stop offset="1" stop-color="#0565FF"/></linearGradient><linearGradient x1="288.205" y1="239.07" x2="783.879" y2="59.8499" gradientUnits="userSpaceOnUse" spreadMethod="pad" id="fill140"><stop offset="0" stop-color="#FF0000"/><stop offset="1" stop-color="#0565FF"/></linearGradient><linearGradient x1="290.674" y1="245.911" x2="786.353" y2="66.6839" gradientUnits="userSpaceOnUse" spreadMethod="pad" id="fill141"><stop offset="0" stop-color="#FF0000"/><stop offset="1" stop-color="#0565FF"/></linearGradient><linearGradient x1="293.68" y1="254.226" x2="789.359" y2="75.0039" gradientUnits="userSpaceOnUse" spreadMethod="pad" id="fill142"><stop offset="0" stop-color="#FF0000"/><stop offset="1" stop-color="#0565FF"/></linearGradient><linearGradient x1="297.222" y1="264.013" x2="792.901" y2="84.7855" gradientUnits="userSpaceOnUse" spreadMethod="pad" id="fill143"><stop offset="0" stop-color="#FF0000"/><stop offset="1" stop-color="#0565FF"/></linearGradient><linearGradient x1="301.285" y1="275.248" x2="796.965" y2="96.0209" gradientUnits="userSpaceOnUse" spreadMethod="pad" id="fill144"><stop offset="0" stop-color="#FF0000"/><stop offset="1" stop-color="#0565FF"/></linearGradient><linearGradient x1="305.857" y1="287.893" x2="801.544" y2="108.668" gradientUnits="userSpaceOnUse" spreadMethod="pad" id="fill145"><stop offset="0" stop-color="#FF0000"/><stop offset="1" stop-color="#0565FF"/></linearGradient><linearGradient x1="310.922" y1="301.904" x2="806.613" y2="122.677" gradientUnits="userSpaceOnUse" spreadMethod="pad" id="fill146"><stop offset="0" stop-color="#FF0000"/><stop offset="1" stop-color="#0565FF"/></linearGradient><linearGradient x1="316.457" y1="317.216" x2="812.118" y2="137.995" gradientUnits="userSpaceOnUse" spreadMethod="pad" id="fill147"><stop offset="0" stop-color="#FF0000"/><stop offset="1" stop-color="#0565FF"/></linearGradient><linearGradient x1="246.07" y1="122.542" x2="741.738" y2="-56.6815" gradientUnits="userSpaceOnUse" spreadMethod="pad" id="fill148"><stop offset="0" stop-color="#FF0000"/><stop offset="1" stop-color="#0565FF"/></linearGradient><linearGradient x1="241.709" y1="110.483" x2="737.384" y2="-68.7369" gradientUnits="userSpaceOnUse" spreadMethod="pad" id="fill149"><stop offset="0" stop-color="#FF0000"/><stop offset="1" stop-color="#0565FF"/></linearGradient><linearGradient x1="237.959" y1="100.103" x2="733.625" y2="-79.1205" gradientUnits="userSpaceOnUse" spreadMethod="pad" id="fill150"><stop offset="0" stop-color="#FF0000"/><stop offset="1" stop-color="#0565FF"/></linearGradient><linearGradient x1="234.912" y1="91.6928" x2="730.587" y2="-87.5268" gradientUnits="userSpaceOnUse" spreadMethod="pad" id="fill151"><stop offset="0" stop-color="#FF0000"/><stop offset="1" stop-color="#0565FF"/></linearGradient><linearGradient x1="232.884" y1="86.0831" x2="728.559" y2="-93.1369" gradientUnits="userSpaceOnUse" spreadMethod="pad" id="fill152"><stop offset="0" stop-color="#FF0000"/><stop offset="1" stop-color="#0565FF"/></linearGradient><linearGradient x1="231.347" y1="81.822" x2="727.021" y2="-97.4031" gradientUnits="userSpaceOnUse" spreadMethod="pad" id="fill153"><stop offset="0" stop-color="#FF0000"/><stop offset="1" stop-color="#0565FF"/></linearGradient><linearGradient x1="230.848" y1="80.4395" x2="726.52" y2="-98.7857" gradientUnits="userSpaceOnUse" spreadMethod="pad" id="fill154"><stop offset="0" stop-color="#FF0000"/><stop offset="1" stop-color="#0565FF"/></linearGradient><linearGradient x1="231.373" y1="81.8984" x2="727.045" y2="-97.3268" gradientUnits="userSpaceOnUse" spreadMethod="pad" id="fill155"><stop offset="0" stop-color="#FF0000"/><stop offset="1" stop-color="#0565FF"/></linearGradient><linearGradient x1="232.957" y1="86.2838" x2="728.635" y2="-92.9437" gradientUnits="userSpaceOnUse" spreadMethod="pad" id="fill156"><stop offset="0" stop-color="#FF0000"/><stop offset="1" stop-color="#0565FF"/></linearGradient><linearGradient x1="235.857" y1="94.3052" x2="731.534" y2="-84.9223" gradientUnits="userSpaceOnUse" spreadMethod="pad" id="fill157"><stop offset="0" stop-color="#FF0000"/><stop offset="1" stop-color="#0565FF"/></linearGradient><linearGradient x1="240.09" y1="106" x2="735.764" y2="-73.2253" gradientUnits="userSpaceOnUse" spreadMethod="pad" id="fill158"><stop offset="0" stop-color="#FF0000"/><stop offset="1" stop-color="#0565FF"/></linearGradient><linearGradient x1="245.6" y1="121.241" x2="741.275" y2="-57.979" gradientUnits="userSpaceOnUse" spreadMethod="pad" id="fill159"><stop offset="0" stop-color="#FF0000"/><stop offset="1" stop-color="#0565FF"/></linearGradient><linearGradient x1="252.355" y1="139.918" x2="748.028" y2="-39.308" gradientUnits="userSpaceOnUse" spreadMethod="pad" id="fill160"><stop offset="0" stop-color="#FF0000"/><stop offset="1" stop-color="#0565FF"/></linearGradient><linearGradient x1="260.255" y1="161.784" x2="755.941" y2="-17.4464" gradientUnits="userSpaceOnUse" spreadMethod="pad" id="fill161"><stop offset="0" stop-color="#FF0000"/><stop offset="1" stop-color="#0565FF"/></linearGradient><linearGradient x1="269.148" y1="186.373" x2="764.832" y2="7.14339" gradientUnits="userSpaceOnUse" spreadMethod="pad" id="fill162"><stop offset="0" stop-color="#FF0000"/><stop offset="1" stop-color="#0565FF"/></linearGradient><linearGradient x1="279.007" y1="213.628" x2="774.691" y2="34.3984" gradientUnits="userSpaceOnUse" spreadMethod="pad" id="fill163"><stop offset="0" stop-color="#FF0000"/><stop offset="1" stop-color="#0565FF"/></linearGradient><linearGradient x1="289.598" y1="242.917" x2="785.278" y2="63.6949" gradientUnits="userSpaceOnUse" spreadMethod="pad" id="fill164"><stop offset="0" stop-color="#FF0000"/><stop offset="1" stop-color="#0565FF"/></linearGradient><linearGradient x1="299.355" y1="269.916" x2="794.992" y2="90.7059" gradientUnits="userSpaceOnUse" spreadMethod="pad" id="fill165"><stop offset="0" stop-color="#FF0000"/><stop offset="1" stop-color="#0565FF"/></linearGradient><linearGradient x1="331.998" y1="360.19" x2="827.661" y2="180.968" gradientUnits="userSpaceOnUse" spreadMethod="pad" id="fill166"><stop offset="0" stop-color="#FF0000"/><stop offset="1" stop-color="#0565FF"/></linearGradient><linearGradient x1="328.566" y1="350.704" x2="824.236" y2="171.488" gradientUnits="userSpaceOnUse" spreadMethod="pad" id="fill167"><stop offset="0" stop-color="#FF0000"/><stop offset="1" stop-color="#0565FF"/></linearGradient><linearGradient x1="325.171" y1="341.312" x2="820.84" y2="162.089" gradientUnits="userSpaceOnUse" spreadMethod="pad" id="fill168"><stop offset="0" stop-color="#FF0000"/><stop offset="1" stop-color="#0565FF"/></linearGradient><linearGradient x1="321.739" y1="331.816" x2="817.408" y2="152.592" gradientUnits="userSpaceOnUse" spreadMethod="pad" id="fill169"><stop offset="0" stop-color="#FF0000"/><stop offset="1" stop-color="#0565FF"/></linearGradient><linearGradient x1="318.39" y1="322.559" x2="814.06" y2="143.336" gradientUnits="userSpaceOnUse" spreadMethod="pad" id="fill170"><stop offset="0" stop-color="#FF0000"/><stop offset="1" stop-color="#0565FF"/></linearGradient><linearGradient x1="314.943" y1="313.026" x2="810.611" y2="133.803" gradientUnits="userSpaceOnUse" spreadMethod="pad" id="fill171"><stop offset="0" stop-color="#FF0000"/><stop offset="1" stop-color="#0565FF"/></linearGradient><linearGradient x1="311.507" y1="303.519" x2="807.176" y2="124.301" gradientUnits="userSpaceOnUse" spreadMethod="pad" id="fill172"><stop offset="0" stop-color="#FF0000"/><stop offset="1" stop-color="#0565FF"/></linearGradient><linearGradient x1="308.103" y1="294.104" x2="803.773" y2="114.881" gradientUnits="userSpaceOnUse" spreadMethod="pad" id="fill173"><stop offset="0" stop-color="#FF0000"/><stop offset="1" stop-color="#0565FF"/></linearGradient><linearGradient x1="304.743" y1="284.821" x2="800.41" y2="105.598" gradientUnits="userSpaceOnUse" spreadMethod="pad" id="fill174"><stop offset="0" stop-color="#FF0000"/><stop offset="1" stop-color="#0565FF"/></linearGradient><linearGradient x1="301.494" y1="41.4846" x2="1100.26" y2="-194.499" gradientUnits="userSpaceOnUse" spreadMethod="pad" id="fill175"><stop offset="0" stop-color="#FF0000"/><stop offset="1" stop-color="#0565FF"/></linearGradient><linearGradient x1="312.604" y1="79.0918" x2="1111.37" y2="-156.892" gradientUnits="userSpaceOnUse" spreadMethod="pad" id="fill176"><stop offset="0" stop-color="#FF0000"/><stop offset="1" stop-color="#0565FF"/></linearGradient><linearGradient x1="324.884" y1="120.666" x2="1123.65" y2="-115.318" gradientUnits="userSpaceOnUse" spreadMethod="pad" id="fill177"><stop offset="0" stop-color="#FF0000"/><stop offset="1" stop-color="#0565FF"/></linearGradient><linearGradient x1="338.441" y1="166.537" x2="1137.21" y2="-69.4466" gradientUnits="userSpaceOnUse" spreadMethod="pad" id="fill178"><stop offset="0" stop-color="#FF0000"/><stop offset="1" stop-color="#0565FF"/></linearGradient><linearGradient x1="350.255" y1="206.54" x2="1149.02" y2="-29.4435" gradientUnits="userSpaceOnUse" spreadMethod="pad" id="fill179"><stop offset="0" stop-color="#FF0000"/><stop offset="1" stop-color="#0565FF"/></linearGradient><linearGradient x1="290.864" y1="5.49859" x2="1089.63" y2="-230.483" gradientUnits="userSpaceOnUse" spreadMethod="pad" id="fill180"><stop offset="0" stop-color="#FF0000"/><stop offset="1" stop-color="#0565FF"/></linearGradient><linearGradient x1="308.81" y1="66.2485" x2="1107.58" y2="-169.736" gradientUnits="userSpaceOnUse" spreadMethod="pad" id="fill181"><stop offset="0" stop-color="#FF0000"/><stop offset="1" stop-color="#0565FF"/></linearGradient><linearGradient x1="329.6" y1="136.613" x2="1128.37" y2="-99.3659" gradientUnits="userSpaceOnUse" spreadMethod="pad" id="fill182"><stop offset="0" stop-color="#FF0000"/><stop offset="1" stop-color="#0565FF"/></linearGradient><linearGradient x1="349.878" y1="205.269" x2="1148.65" y2="-30.71" gradientUnits="userSpaceOnUse" spreadMethod="pad" id="fill183"><stop offset="0" stop-color="#FF0000"/><stop offset="1" stop-color="#0565FF"/></linearGradient><linearGradient x1="364.378" y1="254.334" x2="1163.14" y2="18.3581" gradientUnits="userSpaceOnUse" spreadMethod="pad" id="fill184"><stop offset="0" stop-color="#FF0000"/><stop offset="1" stop-color="#0565FF"/></linearGradient></defs><g clip-path="url(#clip0)"><path d="M0 0 552.889 0 552.889 311 0 311Z" fill="#4F81BD" transform="scale(1.00201 1)"/><g clip-path="url(#clip1)"><path d="M308.397 304.918 307.89 304.521 307.378 304.129 306.859 303.743 306.341 303.357" fill="url(#fill2)" transform="scale(1.00201 1)"/><path d="M303.421 301.301 302.845 300.938 302.269 300.581 301.722 300.23 301.146 299.879" fill="url(#fill3)" transform="scale(1.00201 1)"/><path d="M298.122 298.036 297.546 297.719 296.97 297.408 296.394 297.097 295.819 296.792" fill="url(#fill4)" transform="scale(1.00201 1)"/><path d="M293.446 295.6 292.87 295.323 292.294 295.053 291.718 294.782 291.142 294.523" fill="url(#fill5)" transform="scale(1.00201 1)"/><path d="M287.842 293.175 287.266 292.951 286.69 292.726 286.114 292.507 285.509 292.294" fill="url(#fill6)" transform="scale(1.00201 1)"/><path d="M282.106 291.223 281.495 291.044 280.885 290.843 280.269 290.675 279.652 290.514" fill="url(#fill7)" transform="scale(1.00201 1)"/><path d="M276.26 289.731 275.638 289.604 275.016 289.478 274.394 289.362 273.766 289.247" fill="url(#fill8)" transform="scale(1.00201 1)"/><path d="M270.322 288.718 269.689 288.637 269.061 288.568C268.848 288.539 268.641 288.516 268.428 288.498L267.8 288.435" fill="url(#fill9)" transform="scale(1.00201 1)"/><path d="M264.31 288.176 263.676 288.147 263.037 288.147 262.403 288.147 261.764 288.147" fill="url(#fill10)" transform="scale(1.00201 1)"/><path d="M258.257 288.107 257.618 288.107 256.972 288.107 256.333 288.141 255.694 288.176" fill="url(#fill11)" transform="scale(1.00201 1)"/><path d="M252.169 288.539 251.53 288.608 250.891 288.689 250.245 288.769C250.031 288.792 249.818 288.821 249.606 288.856" fill="url(#fill12)" transform="scale(1.00201 1)"/><path d="M246.081 289.397 245.442 289.518 244.803 289.645 244.164 289.777 243.524 289.91" fill="url(#fill13)" transform="scale(1.00201 1)"/><path d="M240.011 290.756 239.378 290.923 238.744 291.102 238.105 291.28 237.472 291.465" fill="url(#fill14)" transform="scale(1.00201 1)"/><path d="M234.759 292.323 234.125 292.536 233.498 292.755 232.864 292.979 232.236 293.204" fill="url(#fill15)" transform="scale(1.00201 1)"/><path d="M228.798 294.557 228.176 294.817 227.554 295.087 226.932 295.358 226.31 295.634" fill="url(#fill16)" transform="scale(1.00201 1)"/><path d="M222.929 297.253 222.319 297.564 221.708 297.88 221.098 298.203 220.493 298.531" fill="url(#fill17)" transform="scale(1.00201 1)"/><path d="M217.182 300.415 216.606 300.772 216.03 301.134 215.454 301.503 214.878 301.877" fill="url(#fill18)" transform="scale(1.00201 1)"/><path d="M211.584 304.02 211.008 304.429 210.432 304.838 209.856 305.252 209.28 305.673" fill="url(#fill19)" transform="scale(1.00201 1)"/><path d="M206.187 308.074 205.611 308.529 205.035 308.984 204.459 309.445 203.884 309.911" fill="url(#fill20)" transform="scale(1.00201 1)"/><path d="M303.421 301.301C341.288 250.073 384.206 192.002 452.17 245.068L448.866 242.119C431.882 228.838 396.535 201.228 348.189 241.543 328.646 257.865 317.341 280.827 301.215 299.879L302.321 300.581 303.415 301.301" fill="url(#fill21)" transform="scale(1.00201 1)"/><path d="M443.928 238.076 444.149 238.249 444.115 238.249 443.928 238.099" fill="url(#fill22)" transform="scale(1.00201 1)"/><path d="M298.122 298.036C331.739 246.859 373.539 183.144 442.743 237.155L442.639 237.074 441.803 236.418 440.963 235.767 440.124 235.116 439.287 234.465 438.448 233.826 437.612 233.181 436.772 232.53 435.936 231.885 430.459 227.796C366.296 183.853 325.559 249.128 295.836 296.792L296.988 297.408 298.139 298.036" fill="url(#fill23)" transform="scale(1.00201 1)"/><path d="M293.446 295.6C321.666 247.798 360.356 182.384 423.713 223.085L418.917 219.963 417.041 218.812C354.08 182.125 319.132 244.457 291.102 294.546L292.254 295.076 293.405 295.651" fill="url(#fill24)" transform="scale(1.00201 1)"/><path d="M287.842 293.175C312.67 245.344 346.672 179.89 407.762 213.34L400.851 209.689C339.975 181.106 311.006 240.161 285.44 292.294L286.644 292.726 287.842 293.175" fill="url(#fill25)" transform="scale(1.00201 1)"/><path d="M282.106 291.223C305.609 239.199 332.252 180.265 391.349 205.197L384.396 202.271C326.158 180.996 301.463 239.194 279.652 290.537L280.885 290.866 282.106 291.223" fill="url(#fill26)" transform="scale(1.00201 1)"/><path d="M276.26 289.731C296.216 238.261 318.833 179.919 374.745 198.694L367.833 196.477C312.63 181.779 292.881 236.412 273.784 289.247L275.034 289.478 276.278 289.731" fill="url(#fill27)" transform="scale(1.00201 1)"/><path d="M270.322 288.718C287.393 236.389 305.022 182.281 358.231 193.851L351.181 192.261C299.383 183.45 284.058 234.442 267.829 288.441L268.456 288.504C268.669 288.504 268.877 288.545 269.09 288.573L269.717 288.643 270.351 288.723" fill="url(#fill28)" transform="scale(1.00201 1)"/><path d="M264.31 288.176C278.587 234.523 292.075 183.841 341.703 190.557L334.791 189.624C286.454 185.725 275.016 233.164 261.764 288.107L262.403 288.107 263.037 288.107 263.676 288.107 264.31 288.136" fill="url(#fill29)" transform="scale(1.00201 1)"/><path d="M258.257 288.107C269.101 235.778 279.341 186.347 325.254 188.76L323.861 188.673 318.487 188.443C273.841 188.852 265.836 232.703 255.711 288.222L256.35 288.187 256.99 288.153 257.635 288.153 258.274 288.153" fill="url(#fill30)" transform="scale(1.00201 1)"/><path d="M252.169 288.539C260.071 235.485 266.89 189.67 309.238 188.426L302.511 188.691C261.562 192.664 256.287 235.11 249.606 288.856 249.821 288.821 250.034 288.792 250.245 288.769L250.891 288.689 251.53 288.608 252.169 288.539" fill="url(#fill31)" transform="scale(1.00201 1)"/><path d="M246.081 289.397C250.908 236.032 254.72 193.885 293.308 189.422L286.857 190.222C249.623 197.134 247.066 236.055 243.53 289.91L244.17 289.777 244.809 289.645 245.448 289.518 246.087 289.397" fill="url(#fill32)" transform="scale(1.00201 1)"/><path d="M240.011 290.756C241.687 237.374 242.891 198.81 278.023 191.697L271.63 193.039C238.036 202.254 237.817 237.754 237.489 291.459L238.122 291.275 238.762 291.096 239.395 290.917 240.029 290.75" fill="url(#fill33)" transform="scale(1.00201 1)"/><path d="M234.759 292.323C233.607 239.165 232.881 204.051 264.805 194.732L260.491 195.941 258.568 196.517C228.193 207.408 229.719 239.712 232.236 293.204L232.864 292.979 233.498 292.755 234.125 292.536 234.759 292.323" fill="url(#fill34)" transform="scale(1.00201 1)"/><path d="M228.798 294.557C224.427 242.096 221.789 210.437 250.286 199.253L244.319 201.488C217.279 213.651 220.488 242.77 226.31 295.634L226.932 295.358 227.554 295.087 228.176 294.817 228.798 294.557" fill="url(#fill35)" transform="scale(1.00201 1)"/><path d="M222.929 297.253C215.322 245.874 211.134 217.568 236.228 204.891L230.422 207.61C206.775 220.718 211.647 248.357 220.493 298.531L221.098 298.203 221.708 297.88 222.319 297.564 222.929 297.253" fill="url(#fill36)" transform="scale(1.00201 1)"/><path d="M217.182 300.415C206.867 252.733 200.641 223.955 222.59 211.647L217.164 214.717C196.673 228.32 202.732 252.901 214.826 301.877L215.402 301.503 215.978 301.134 216.554 300.772 217.13 300.415" fill="url(#fill37)" transform="scale(1.00201 1)"/><path d="M211.584 304.02C197.761 256.333 190.85 232.392 209.856 219.232L204.632 222.728C186.997 236.412 193.983 258.119 209.297 305.661L209.873 305.241 210.449 304.826 211.025 304.417 211.601 304.008" fill="url(#fill38)" transform="scale(1.00201 1)"/><path d="M206.187 308.074C190.061 264.304 181.152 240.167 197.617 227.819L192.624 231.73C177.817 245.241 186.013 265.508 203.964 309.911L204.54 309.445 205.116 308.984 205.692 308.529 206.268 308.074" fill="url(#fill39)" transform="scale(1.00201 1)"/><path d="M200.941 312.561C181.359 269.626 172.426 250.027 185.909 237.362L181.186 241.653C169.149 254.755 177.834 272.269 198.804 314.582L199.334 314.07 199.869 313.563 200.399 313.062 200.941 312.561" fill="url(#fill40)" transform="scale(1.00201 1)"/><path d="M195.947 317.479C173.757 277.412 163.632 259.126 175.099 247.602L170.808 252.094C160.781 264.356 169.806 279.416 193.92 319.668L194.421 319.092 194.928 318.516 195.435 317.974 195.947 317.433" fill="url(#fill41)" transform="scale(1.00201 1)"/><path d="M191.213 322.807C166.322 285.423 156.012 269.948 165.101 258.516L161.098 263.354C152.972 274.602 162.866 288.366 189.318 325.168L189.79 324.592 190.269 324.016 190.747 323.44C190.908 323.244 191.064 323.048 191.225 322.864" fill="url(#fill42)" transform="scale(1.00201 1)"/><path d="M186.761 328.531C159.549 294.407 148.284 280.28 155.776 270.236L152.068 275.419C145.773 285.509 156.444 297.915 184.982 331.077L185.419 330.438C185.569 330.224 185.713 330.011 185.863 329.804L186.312 329.17 186.761 328.548" fill="url(#fill43)" transform="scale(1.00201 1)"/><path d="M182.626 334.642C153.306 303.985 141.159 291.297 147.195 282.71L143.814 288.176C139.247 296.97 149.764 307.141 180.979 337.325L181.388 336.646C181.52 336.421 181.659 336.197 181.797 335.972L182.206 335.304C182.344 335.085 182.482 334.861 182.626 334.642" fill="url(#fill44)" transform="scale(1.00201 1)"/><path d="M178.825 341.115C146.539 313.171 135.665 303.755 139.409 295.882L136.385 301.641C133.425 309.007 144.488 317.819 177.333 343.972L177.702 343.258 178.071 342.549C178.197 342.313 178.324 342.077 178.445 341.841L178.825 341.138" fill="url(#fill45)" transform="scale(1.00201 1)"/><path d="M175.393 347.947C141.413 323.952 129.969 315.872 132.48 309.675L129.831 315.654C128.333 321.482 138.936 328.324 174.062 350.922L174.39 350.176 174.719 349.426 175.053 348.683 175.393 347.947" fill="url(#fill46)" transform="scale(1.00201 1)"/><path d="M435.936 231.874 436.772 232.518 437.612 233.169C437.864 233.348 438.344 233.716 438.448 233.814L439.287 234.465C439.522 234.638 440.003 235.006 440.124 235.116L440.963 235.767 441.803 236.418 442.639 237.074 442.743 237.155 443.928 238.076 444.115 238.226 443.251 237.558 442.38 236.896 441.506 236.245 440.625 235.6C434.094 230.491 433.102 229.754 430.459 227.784L435.936 231.874" fill="url(#fill47)" transform="scale(1.00201 1)"/><path d="M418.917 219.963 423.713 223.085C428.897 226.765 428.897 226.765 436.92 233.025L436.012 232.421 435.096 231.845C434.788 231.649 434.484 231.453 434.173 231.269L433.251 230.693C423.513 223.097 422.449 222.348 417.041 218.812L418.917 219.963" fill="url(#fill48)" transform="scale(1.00201 1)"/><path d="M407.762 213.34C415.133 217.683 415.731 218.034 428.119 227.669L427.169 227.151 426.215 226.644 425.251 226.149 424.29 225.659C412.946 216.899 409.542 214.244 400.851 209.689L407.762 213.34" fill="url(#fill49)" transform="scale(1.00201 1)"/><path d="M391.349 205.197C401.819 210.219 404.836 212.321 418.882 223.154L417.891 222.728 416.902 222.307 415.9 221.904 414.898 221.507C403.377 212.661 395.747 206.815 384.372 202.271L391.324 205.197" fill="url(#fill50)" transform="scale(1.00201 1)"/><path d="M374.738 198.694C388.411 203.843 394.32 208.059 409.321 219.497L408.298 219.169 407.265 218.84 406.235 218.529 405.198 218.224C392.109 208.318 382.651 201.159 367.816 196.477L374.727 198.694" fill="url(#fill51)" transform="scale(1.00201 1)"/><path d="M358.231 193.851C374.662 198.458 383.67 204.886 399.469 216.732L395.219 215.84C380.101 204.586 369.167 196.454 351.181 192.261L358.231 193.851" fill="url(#fill52)" transform="scale(1.00201 1)"/><path d="M341.703 190.557C360.449 194.15 371.445 201.753 389.268 214.878L384.907 214.377C368.373 202.282 355.311 192.774 334.803 189.612L341.714 190.545" fill="url(#fill53)" transform="scale(1.00201 1)"/><path d="M323.861 188.673 325.254 188.76C347 191.006 361.061 201.131 378.85 213.951L377.744 213.91 376.628 213.882 375.515 213.882 374.399 213.882C357.398 201.753 339.842 189.215 318.487 188.477L323.861 188.708" fill="url(#fill54)" transform="scale(1.00201 1)"/><path d="M309.238 188.403C332.551 188.898 349.882 201.073 368.224 213.974L367.073 214.037C366.693 214.037 366.316 214.078 365.919 214.106L364.768 214.181 363.618 214.273C346.513 202.38 325.225 187.579 302.436 188.667L309.163 188.403" fill="url(#fill55)" transform="scale(1.00201 1)"/><path d="M293.302 189.422C317.784 187.85 337.038 201.021 357.425 214.964L352.819 215.673C333.968 202.939 310.505 187.09 286.823 190.222L293.273 189.422" fill="url(#fill56)" transform="scale(1.00201 1)"/><path d="M278.005 191.703C303.11 188.126 326.17 203.429 346.54 216.934L345.389 217.199 344.237 217.475 343.085 217.763 341.933 218.057C322.397 205.266 295.64 187.746 271.67 193.045L278.063 191.703" fill="url(#fill57)" transform="scale(1.00201 1)"/><path d="M260.491 195.941 264.805 194.732C290.146 189.261 314.991 205.306 336.934 219.462L335.782 219.819 334.63 220.182 333.478 220.562 332.327 220.954C310.626 207.178 283.649 190.056 258.596 196.517L260.52 195.941" fill="url(#fill58)" transform="scale(1.00201 1)"/><path d="M250.286 199.27C275.385 191.835 303.421 209.286 325.945 223.309L324.794 223.77 323.641 224.242 322.49 224.726 321.338 225.222C299.096 211.595 268.641 192.97 244.331 201.505L250.286 199.27" fill="url(#fill59)" transform="scale(1.00201 1)"/><path d="M236.228 204.891C260.71 195.608 290.808 213.634 314.991 228.118L313.839 228.695 312.687 229.27 311.536 229.846 310.384 230.422C287.761 217.124 253.546 196.967 230.422 207.61L236.228 204.891" fill="url(#fill60)" transform="scale(1.00201 1)"/><path d="M222.59 211.647C246.036 200.578 278.253 219.082 304.141 233.953L302.989 234.621 301.837 235.306 300.685 235.997 299.533 236.706C276.715 223.839 238.526 202.3 217.084 214.717L222.509 211.647" fill="url(#fill61)" transform="scale(1.00201 1)"/><path d="M209.839 219.232C231.977 207.005 267.506 226.523 293.446 240.777L292.334 241.549 291.223 242.338 290.117 243.139 289.011 243.945C263.699 230.319 225.452 209.724 204.615 222.728L209.839 219.232" fill="url(#fill62)" transform="scale(1.00201 1)"/><path d="M197.589 227.819C218.097 214.619 255.602 234.252 282.981 248.587L281.898 249.462 280.816 250.355C280.453 250.649 280.096 250.931 279.733 251.253L278.662 252.163C253.321 239.194 210.979 217.481 192.595 231.73L197.589 227.819" fill="url(#fill63)" transform="scale(1.00201 1)"/><path d="M185.909 237.362C204.506 223.396 245.609 243.835 272.81 257.358L271.762 258.337 270.691 259.328 269.672 260.318 268.629 261.326C240.674 247.74 198.429 227.209 181.186 241.641L185.909 237.351" fill="url(#fill64)" transform="scale(1.00201 1)"/><path d="M175.087 247.602C191.708 233.544 234.604 253.724 262.985 267.08L261.977 268.157 260.975 269.245 259.973 270.345C259.645 270.708 259.311 271.077 258.982 271.451 233.14 259.587 185.039 237.5 170.797 252.094L175.087 247.602" fill="url(#fill65)" transform="scale(1.00201 1)"/><path d="M165.095 258.516C179.839 245.005 224.237 264.696 253.615 277.723 253.292 278.109 252.97 278.5 252.653 278.875L251.685 280.073 250.741 281.265 249.796 282.463C221.403 270.196 173.878 249.67 161.104 263.354L165.106 258.516" fill="url(#fill66)" transform="scale(1.00201 1)"/><path d="M155.776 270.236C168.545 257.566 214.389 276.617 244.728 289.241 244.423 289.656 244.124 290.077 243.824 290.503L242.926 291.77 242.033 293.054 241.152 294.344C212.062 282.578 163.402 262.887 152.068 275.402L155.776 270.219" fill="url(#fill67)" transform="scale(1.00201 1)"/><path d="M147.195 282.71C157.93 271.111 205.156 289.455 236.406 301.595 236.124 302.044 235.83 302.493 235.565 302.943 235.3 303.392 234.989 303.847 234.73 304.302 234.471 304.757 234.154 305.206 233.901 305.667 233.647 306.128 233.354 306.577 233.083 307.038 201.442 295.116 153.605 277.09 143.814 288.176L147.195 282.71" fill="url(#fill68)" transform="scale(1.00201 1)"/><path d="M139.409 295.882C148.088 285.659 196.604 303.162 228.712 314.743 228.453 315.216 228.193 315.694 227.94 316.172L227.18 317.606 226.419 319.063 225.676 320.514C196.731 310.424 142.835 291.608 136.385 301.618L139.409 295.859" fill="url(#fill69)" transform="scale(1.00201 1)"/><path d="M132.469 309.675C139.075 301.134 190.799 318.314 221.697 328.629L221.006 330.132C220.775 330.633 220.545 331.134 220.32 331.641 220.096 332.148 219.866 332.649 219.641 333.156 219.416 333.663 219.192 334.175 218.973 334.682 187.481 324.574 134.773 307.66 129.819 315.676L132.469 309.675" fill="url(#fill70)" transform="scale(1.00201 1)"/><path d="M444.115 238.226C444.689 238.71 445.507 239.378 446.095 239.85L440.625 235.6 441.506 236.245 442.38 236.896 443.251 237.558 444.115 238.226" fill="url(#fill71)" transform="scale(1.00201 1)"/><path d="M436.92 233.025C442.681 237.483 444.599 238.986 447.971 241.52L449.654 243.035C444.236 239.113 442.598 237.932 433.251 230.67L434.173 231.246C434.484 231.436 434.788 231.632 435.096 231.822L436.012 232.398 436.92 233.002" fill="url(#fill72)" transform="scale(1.00201 1)"/><path d="M428.091 227.669C441.423 237.973 444.305 240.057 451.79 244.82 452.229 245.12 452.799 245.534 453.258 245.8 444.896 241.146 441.216 238.727 424.263 225.642L425.223 226.132 426.184 226.627 427.141 227.134 428.091 227.652" fill="url(#fill73)" transform="scale(1.00201 1)"/><path d="M418.882 223.154C435.289 235.727 441.506 240.322 452.014 245.281L450.242 244.59C439.833 239.982 434.546 236.527 414.898 221.507L415.9 221.904 416.902 222.307 417.891 222.728 418.882 223.154" fill="url(#fill74)" transform="scale(1.00201 1)"/><path d="M409.321 219.497C429.774 234.984 436.862 239.746 447.747 243.755L445.898 243.231C434.381 239.314 427.891 235.341 405.198 218.224L406.235 218.529 407.265 218.84 408.298 219.169 409.321 219.497" fill="url(#fill75)" transform="scale(1.00201 1)"/><path d="M399.438 216.732C422.124 233.653 430.538 239.389 443.313 242.62L440.939 242.171C427.418 238.963 419.722 234.004 395.188 215.84L399.438 216.732" fill="url(#fill76)" transform="scale(1.00201 1)"/><path d="M389.268 214.878C410.371 230.324 423.105 239.643 437.646 241.71L435.2 241.497C421.429 239.493 413.889 235.438 384.932 214.377L389.292 214.878" fill="url(#fill77)" transform="scale(1.00201 1)"/><path d="M378.85 213.951C403.643 231.718 417.251 241.019 431.754 241.353L429.232 241.353C413.965 240.61 404.379 235.151 374.399 213.836L375.515 213.836 376.628 213.836 377.744 213.864 378.85 213.905" fill="url(#fill78)" transform="scale(1.00201 1)"/><path d="M368.224 213.974C396.67 233.872 408.872 241.935 425.413 241.561L422.604 241.837C405.388 242.482 394.027 235.26 363.69 214.273L364.844 214.181 365.995 214.106C366.375 214.078 366.748 214.054 367.146 214.037L368.3 213.974" fill="url(#fill79)" transform="scale(1.00201 1)"/><path d="M357.425 214.964C384.821 233.619 401.363 244.878 418.682 242.401L415.8 242.949C398.781 245.12 388.007 239.349 352.847 215.673L357.453 214.964" fill="url(#fill80)" transform="scale(1.00201 1)"/><path d="M346.513 216.934C383.404 241.313 394.631 247.135 411.74 243.905L408.671 244.768C391.152 248.558 379.655 242.712 341.864 218.057L343.016 217.763 344.167 217.475 345.32 217.199 346.471 216.934" fill="url(#fill81)" transform="scale(1.00201 1)"/><path d="M336.923 219.462C372.467 242.28 387.603 251.323 405.344 245.84L402.22 246.992C384.431 252.204 372.336 246.335 332.292 220.977L333.444 220.585 334.596 220.205 335.748 219.842 336.899 219.485" fill="url(#fill82)" transform="scale(1.00201 1)"/><path d="M325.945 223.292C364.813 247.377 379.213 255.371 397.897 248.742L394.901 250.107 394.718 250.199C376.628 257.162 364.658 251.68 321.326 225.187L322.478 224.692 323.63 224.208 324.782 223.736 325.934 223.275" fill="url(#fill83)" transform="scale(1.00201 1)"/><path d="M314.991 228.118C355.086 252.025 372.077 261.372 390.219 252.469L386.919 254.294C368.915 262.847 356.347 257.439 310.43 230.451L311.582 229.875 312.734 229.299 313.885 228.723 315.037 228.147" fill="url(#fill84)" transform="scale(1.00201 1)"/><path d="M304.141 233.953C348.735 259.466 363.732 267.057 382.368 257.041L379.033 259.224C360.37 269.873 345.089 262.288 299.614 236.706L300.766 235.997 301.918 235.306 303.069 234.621 304.221 233.953" fill="url(#fill85)" transform="scale(1.00201 1)"/><path d="M293.446 240.777C340.05 266.274 357.08 274.486 374.416 262.49L371.013 265.082C352.881 277.176 336.876 269.648 289.011 243.945L290.117 243.139 291.223 242.338 292.334 241.549 293.446 240.777" fill="url(#fill86)" transform="scale(1.00201 1)"/><path d="M282.981 248.587C332.361 274.342 348.814 281.87 366.323 268.911L362.909 271.895C345.486 285.348 329.931 278.385 278.662 252.163L279.733 251.253C280.096 250.948 280.453 250.649 280.816 250.355L281.898 249.462 282.981 248.587" fill="url(#fill87)" transform="scale(1.00201 1)"/><path d="M272.81 257.358C321.528 281.501 341.691 291.493 358.22 276.278L356.24 278.235 354.775 279.699C338.391 294.177 322.207 287.329 268.612 261.338L269.654 260.33 270.697 259.328 271.745 258.337 272.793 257.358" fill="url(#fill88)" transform="scale(1.00201 1)"/><path d="M262.996 267.08C318.13 292.939 334.705 299.729 350.058 284.738L346.637 288.619C331.486 303.726 315.965 297.529 258.994 271.451 259.322 271.077 259.656 270.708 259.985 270.345L260.987 269.245 261.989 268.157 262.996 267.08" fill="url(#fill89)" transform="scale(1.00201 1)"/><path d="M253.615 277.723C306.398 301.065 328.284 310.729 341.962 294.264L338.593 298.589C324.932 313.972 308.909 307.942 249.808 282.463L250.752 281.265 251.685 280.073 252.642 278.892C252.958 278.5 253.281 278.109 253.603 277.74" fill="url(#fill90)" transform="scale(1.00201 1)"/><path d="M244.728 289.241C305.425 314.456 321.804 320.376 333.956 304.93L330.587 309.808C318.625 324.782 302.165 318.976 241.129 294.344L242.01 293.054 242.902 291.77 243.801 290.503C244.1 290.077 244.377 289.656 244.705 289.241" fill="url(#fill91)" transform="scale(1.00201 1)"/><path d="M236.406 301.595C294.477 324.102 316.189 332.522 326.089 316.828L322.864 322.167C312.734 336.272 295.899 330.673 233.083 307.038 233.354 306.577 233.63 306.122 233.901 305.667 234.172 305.212 234.477 304.751 234.73 304.302 234.984 303.853 235.306 303.392 235.565 302.943 235.824 302.493 236.141 302.044 236.406 301.595" fill="url(#fill92)" transform="scale(1.00201 1)"/><path d="M494.075 314.922C525.061 335.344 533.994 338.973 602.12 319.069 602.044 318.671 601.968 318.274 601.889 317.877L601.647 316.69 601.405 315.498C601.318 315.101 601.239 314.709 601.153 314.311 532.992 335.373 524.007 331.681 492.78 310.787 492.894 311.127 493.004 311.472 493.115 311.818L493.443 312.849C493.547 313.194 493.654 313.54 493.757 313.885 493.861 314.231 493.972 314.576 494.075 314.922" fill="url(#fill93)" transform="scale(1.00201 1)"/><path d="M490.851 305.154C506.353 315.74 516.599 322.732 533.296 323.14 556.873 323.716 599.28 307.988 599.653 307.827L598.45 303.156C530.296 326.976 521.177 323.14 489.331 301.1 489.784 302.315 490.05 304.129 490.851 305.131" fill="url(#fill94)" transform="scale(1.00201 1)"/><path d="M487.085 295.6C519.335 318.303 528.551 322.219 596.619 296.804L595.161 292.236C527.138 318.815 517.877 314.836 485.333 291.66L485.782 292.645C485.931 292.973 486.076 293.302 486.221 293.63 486.363 293.958 486.515 294.286 486.656 294.621 486.801 294.955 486.947 295.277 487.085 295.611" fill="url(#fill95)" transform="scale(1.00201 1)"/><path d="M482.765 286.299C515.749 310.148 525.096 314.214 592.991 286.034 592.852 285.659 592.707 285.291 592.569 284.916 592.431 284.542 592.289 284.173 592.144 283.805 591.999 283.436 591.861 283.062 591.712 282.693 591.563 282.325 591.425 281.956 591.273 281.587 523.506 310.925 514.1 306.796 480.771 282.463 480.944 282.78 481.11 283.102 481.279 283.419 481.445 283.736 481.618 284.053 481.78 284.375 481.939 284.697 482.112 285.014 482.275 285.337 482.437 285.659 482.603 285.976 482.765 286.299" fill="url(#fill96)" transform="scale(1.00201 1)"/><path d="M477.869 277.285C511.671 302.281 521.177 306.491 588.74 275.557L588.256 274.475C588.091 274.112 587.928 273.755 587.762 273.398 587.593 273.041 587.434 272.678 587.265 272.321L586.76 271.25C519.377 303.329 509.798 299.055 475.605 273.582L477.845 277.274" fill="url(#fill97)" transform="scale(1.00201 1)"/><path d="M472.381 268.612C507.085 294.742 516.768 299.101 583.844 265.45L583.27 264.408C583.083 264.062 582.893 263.717 582.693 263.371 582.493 263.025 582.32 262.68 582.116 262.34 581.916 262 581.732 261.649 581.542 261.309 514.733 296.095 504.943 291.678 469.852 265.07L470.484 265.951 471.106 266.832 471.728 267.719 472.34 268.612" fill="url(#fill98)" transform="scale(1.00201 1)"/><path d="M466.282 260.318C501.989 287.571 511.844 292.075 578.277 255.711L575.723 251.76C544.485 269.458 520.839 281.708 501.021 278.287 484.272 275.408 463.587 257.087 463.528 256.932L464.202 257.784 464.9 258.625 465.577 259.466C465.809 259.748 466.033 260.042 466.258 260.318" fill="url(#fill99)" transform="scale(1.00201 1)"/><path d="M459.554 252.451C496.321 280.816 506.394 285.463 572.008 246.479L569.13 242.735C503.941 282.809 493.775 278.109 456.524 249.284 456.783 249.543 457.039 249.802 457.291 250.067 457.543 250.332 457.802 250.591 458.051 250.856L458.804 251.651C459.06 251.916 459.306 252.186 459.554 252.451" fill="url(#fill100)" transform="scale(1.00201 1)"/><path d="M452.17 245.068C490.869 275.097 500.199 279.434 565.008 237.754 564.748 237.454 564.489 237.178 564.223 236.867L563.435 235.986 562.64 235.116 561.832 234.252C497.514 276.991 488.115 272.603 448.866 242.119L452.17 245.068" fill="url(#fill101)" transform="scale(1.00201 1)"/><path d="M444.115 238.226 444.149 238.226C484.134 269.326 493.678 273.784 557.267 229.622L557.232 229.587C539.837 241.923 526.495 250.257 515.5 255.389 504.874 260.353 496.349 262.363 488.591 262 481.058 261.649 474.247 259.057 467.018 254.761 460.031 250.614 452.712 244.907 444.115 238.203" fill="url(#fill102)" transform="scale(1.00201 1)"/><path d="M444.115 238.226C452.712 244.93 460.031 250.637 467.018 254.784 474.247 259.08 481.058 261.695 488.591 262.023 496.349 262.386 504.874 260.376 515.5 255.411 526.495 250.28 539.837 241.947 557.232 229.61L556.389 228.815 555.543 228.026 554.693 227.249 553.832 226.477C494.393 269.095 482.147 267.368 446.095 239.85 445.518 239.36 444.72 238.698 444.115 238.226" fill="url(#fill103)" transform="scale(1.00201 1)"/><path d="M447.971 241.52C479.849 264.724 493.101 265.836 550.2 223.39L549.302 222.67 548.397 221.956 547.491 221.253C547.191 221.016 546.883 220.785 546.576 220.562 494.95 259.91 479.552 263.48 449.654 243.023L447.971 241.509" fill="url(#fill104)" transform="scale(1.00201 1)"/><path d="M451.79 244.82C476.556 258.821 492.106 256.8 541.451 216.94L540.501 216.318 539.544 215.707 538.583 215.102 537.615 214.527C499.535 245.627 478.802 258.873 453.258 245.817 452.816 245.529 452.218 245.154 451.79 244.838" fill="url(#fill105)" transform="scale(1.00201 1)"/><path d="M452.014 245.281C473.083 253.24 488.363 249.312 532.2 211.457L528.171 209.441C487.313 245.148 472.022 252.06 450.249 244.573L452.021 245.264" fill="url(#fill106)" transform="scale(1.00201 1)"/><path d="M447.747 243.755C466.801 248.84 481.4 244.849 522.487 206.971L521.433 206.562 520.379 206.158 519.318 205.767 518.257 205.392C483.785 237.546 467.658 248.097 445.898 243.231L447.747 243.755" fill="url(#fill107)" transform="scale(1.00201 1)"/><path d="M443.313 242.62C460.902 245.183 475.042 240.15 512.321 203.521L507.915 202.369C482.181 227.946 462.319 245.776 440.939 242.154L443.313 242.603" fill="url(#fill108)" transform="scale(1.00201 1)"/><path d="M437.622 241.71C456.23 242.62 470.612 233.521 501.74 201.142L497.175 200.468C473.1 225.959 455.781 242.586 435.175 241.497L437.622 241.71" fill="url(#fill109)" transform="scale(1.00201 1)"/><path d="M431.754 241.353C449.54 240.409 461.704 231.879 490.793 199.887L486.076 199.685C458.431 230.866 445.663 240.219 429.232 241.388L431.754 241.388" fill="url(#fill110)" transform="scale(1.00201 1)"/><path d="M425.413 241.561C440.117 239.343 451.959 232.518 479.503 199.714L478.301 199.766 477.091 199.829 475.875 199.91 474.662 199.996C459.952 217.648 441.644 239.62 422.604 241.837L425.413 241.561" fill="url(#fill111)" transform="scale(1.00201 1)"/><path d="M418.703 242.401C432.525 239.009 442.892 232.185 467.944 200.727L466.714 200.9 465.481 201.09 464.243 201.292 463.003 201.505C446.036 223.188 432.722 238.854 415.824 242.972L418.703 242.424" fill="url(#fill112)" transform="scale(1.00201 1)"/><path d="M411.74 243.905C420.69 240.824 430.832 237.333 456.088 202.922L454.831 203.221 453.576 203.538C453.155 203.642 452.733 203.751 452.315 203.866L451.054 204.206C432.625 229.345 423.409 239.257 408.647 244.768L411.719 243.905" fill="url(#fill113)" transform="scale(1.00201 1)"/><path d="M405.354 245.84C417.559 240.656 425.856 233.924 445.67 205.819L444.402 206.233 443.13 206.659 441.855 207.097 440.583 207.552C426.761 227.485 416.619 241.002 402.251 246.969L405.371 245.817" fill="url(#fill114)" transform="scale(1.00201 1)"/><path d="M394.901 250.107 397.897 248.742C405.544 244.711 414.211 240.161 433.551 210.282L432.273 210.823 430.994 211.399 429.709 211.975 428.43 212.551C414.276 234.367 407.054 243.34 394.718 250.223L394.901 250.13" fill="url(#fill115)" transform="scale(1.00201 1)"/><path d="M390.219 252.469C400.285 246.133 406.84 239.671 421.381 215.972L420.102 216.64 418.82 217.326 417.552 218.022 416.267 218.737C406.017 235.663 398.415 247.285 386.929 254.294L390.229 252.469" fill="url(#fill116)" transform="scale(1.00201 1)"/><path d="M382.368 257.041C388.543 252.503 395.54 247.355 409.224 222.889L404.12 226.172C393.691 244.688 388.871 251.68 379.033 259.224L382.368 257.041" fill="url(#fill117)" transform="scale(1.00201 1)"/><path d="M374.416 262.49C381.953 256.074 386.652 250.879 397.14 231.038L392.095 234.834C385.789 246.928 380.346 257.358 371.013 265.082L374.416 262.49" fill="url(#fill118)" transform="scale(1.00201 1)"/><path d="M366.323 268.911C371.438 263.935 376.275 259.236 385.215 240.403L383.971 241.463 382.73 242.528 381.493 243.617 380.256 244.711C373.089 259.627 370.325 264.385 362.909 271.895L366.323 268.911" fill="url(#fill119)" transform="scale(1.00201 1)"/><path d="M356.24 278.235 358.22 276.278C363.587 270.328 366.479 266.763 373.521 250.966L372.308 252.146 371.099 253.338 369.89 254.548 368.69 255.769C364.233 265.916 361.289 272.626 354.792 279.699L356.24 278.235" fill="url(#fill120)" transform="scale(1.00201 1)"/><path d="M350.058 284.738C353.89 279.917 356.907 276.099 362.153 262.697L361.002 263.999 359.851 265.312 358.697 266.642C358.307 267.086 357.92 267.529 357.546 267.978 354.367 275.995 351.62 282.924 346.713 288.619L350.134 284.738" fill="url(#fill121)" transform="scale(1.00201 1)"/><path d="M341.962 294.264C345.994 288.504 347.18 286.546 351.178 275.569L346.696 281.328C343.753 289.679 342.664 292.806 338.598 298.606L341.968 294.281" fill="url(#fill122)" transform="scale(1.00201 1)"/><path d="M333.956 304.93C336.778 300.288 338.063 298.168 340.677 289.512L339.606 291.044 338.541 292.57 337.481 294.125 336.427 295.686C334.377 302.396 333.438 305.477 330.61 309.796L333.956 304.918" fill="url(#fill123)" transform="scale(1.00201 1)"/><path d="M326.089 316.828C328.756 311.766 328.756 311.766 330.76 304.486L326.769 311.086C325.081 317.744 325.041 317.871 322.864 322.167L326.089 316.828" fill="url(#fill124)" transform="scale(1.00201 1)"/><path d="M550.2 223.39C568.74 209.153 588.844 190.453 630.304 151.186L629.232 150.034 628.161 148.883 627.073 147.731C626.71 147.356 626.347 146.988 625.981 146.619 584.887 186.865 564.99 206.003 546.558 220.58 546.862 220.802 547.17 221.033 547.474 221.271L548.379 221.973 549.285 222.687 550.183 223.408" fill="url(#fill125)" transform="scale(1.00201 1)"/><path d="M541.451 216.94C559.6 201.966 579.262 182.24 619.806 140.797L618.655 139.771 617.501 138.764 616.35 137.767C615.96 137.439 615.566 137.111 615.199 136.788 575.032 179.113 555.577 199.27 537.615 214.509L538.583 215.085 539.544 215.69 540.501 216.3 541.451 216.922" fill="url(#fill126)" transform="scale(1.00201 1)"/><path d="M532.2 211.457C549.893 195.815 569.061 175.122 608.489 131.639L607.252 130.747 606.008 129.877C605.593 129.583 605.171 129.301 604.75 129.013L603.489 128.167C564.544 172.467 545.656 193.54 528.164 209.441L532.197 211.457" fill="url(#fill127)" transform="scale(1.00201 1)"/><path d="M522.487 206.971C539.664 190.723 558.193 169.149 596.384 123.789L595.057 123.041C594.622 122.793 594.176 122.551 593.734 122.309L592.393 121.595 591.049 120.893C556.493 163.24 536.102 188.04 518.257 205.392L519.318 205.767 520.379 206.158 521.433 206.562 522.487 206.971" fill="url(#fill128)" transform="scale(1.00201 1)"/><path d="M512.321 203.521C528.925 186.75 546.762 164.358 583.498 117.328L582.095 116.752 580.689 116.176 579.272 115.6C578.795 115.41 578.322 115.231 577.845 115.053 561.967 136.051 546.969 155.892 534.229 171.827 515.87 194.813 507.942 202.386 507.915 202.398L512.321 203.549" fill="url(#fill129)" transform="scale(1.00201 1)"/><path d="M501.74 201.142C517.718 183.928 534.765 160.862 569.866 112.329L563.912 110.681C532.356 155.765 513.696 182.165 497.175 200.468L501.74 201.142" fill="url(#fill130)" transform="scale(1.00201 1)"/><path d="M490.793 199.846C506.878 181.342 524.958 154.578 555.532 108.85L553.984 108.585C553.466 108.493 552.948 108.412 552.422 108.332L550.86 108.096C550.339 108.021 549.813 107.946 549.288 107.882 519.491 154.031 501.833 181.031 486.086 199.662L490.803 199.863" fill="url(#fill131)" transform="scale(1.00201 1)"/><path d="M479.503 199.714C494.794 180.95 511.795 153.64 540.553 107.047L538.939 106.949 537.315 106.874 535.687 106.817 534.056 106.777C506.142 153.692 489.618 181.158 474.683 199.996L475.899 199.91 477.115 199.829 478.325 199.766 479.527 199.714" fill="url(#fill132)" transform="scale(1.00201 1)"/><path d="M467.924 200.727C482.354 181.808 498.187 154.158 524.94 106.915L518.212 107.381C505.738 130.263 493.961 151.872 483.926 169.005 469.565 193.511 463.051 201.43 462.982 201.505L464.219 201.292 465.456 201.09 466.69 200.9 467.924 200.727" fill="url(#fill133)" transform="scale(1.00201 1)"/><path d="M456.14 202.922C469.662 183.974 484.227 156.133 508.806 108.55L507.079 108.827 505.351 109.126 503.623 109.443 501.895 109.783C478.283 157.412 464.261 185.281 451.133 204.235L452.394 203.895C452.819 203.78 453.238 203.67 453.656 203.567L454.913 203.25 456.168 202.951" fill="url(#fill134)" transform="scale(1.00201 1)"/><path d="M445.653 205.819C458.321 186.946 471.735 159.088 494.317 111.476L492.548 111.925 490.782 112.392 489.006 112.882 487.226 113.394C465.024 162.307 452.861 188.708 440.576 207.552L441.852 207.097 443.123 206.659 444.395 206.233 445.663 205.819" fill="url(#fill135)" transform="scale(1.00201 1)"/><path d="M433.551 210.282C445.259 191.576 456.634 165.291 477.385 116.59 476.808 116.804 476.186 117.017 475.588 117.241L473.784 117.909 471.977 118.606C471.4 118.837 470.768 119.078 470.17 119.32 450.494 167.796 439.709 193.96 428.43 212.517L429.709 211.941 430.994 211.365 432.273 210.789 433.551 210.247" fill="url(#fill136)" transform="scale(1.00201 1)"/><path d="M421.381 215.972C432.055 197.617 442.024 171.689 460.169 123.634L452.861 127.188C444.841 149.649 437.256 170.889 430.621 187.522 421.17 211.209 416.28 218.725 416.256 218.737L417.542 218.022 418.82 217.326 420.102 216.64 421.381 215.972" fill="url(#fill137)" transform="scale(1.00201 1)"/><path d="M409.224 222.883C418.82 205.03 427.342 179.689 442.785 132.641 442.166 132.993 441.558 133.344 440.946 133.707L439.108 134.767 437.273 135.918 435.435 137.07C421.146 183.542 413.26 208.612 404.12 226.218L409.224 222.935" fill="url(#fill138)" transform="scale(1.00201 1)"/><path d="M397.14 231.038C400.247 224.755 404.155 216.064 411.339 192.578 417.006 174.033 425.344 143.624 425.337 143.624 424.722 144.045 424.111 144.471 423.503 144.897 422.891 145.323 422.279 145.755 421.671 146.193L419.857 147.518C419.245 147.955 418.634 148.405 418.025 148.854 406.536 193.73 400.171 217.93 392.109 234.834L397.154 231.038" fill="url(#fill139)" transform="scale(1.00201 1)"/><path d="M385.215 240.403C392.613 223.972 398.108 200.37 407.963 156.606L400.706 162.659C392.067 205.531 387.195 228.648 380.256 244.705L381.493 243.611 382.73 242.528 383.971 241.463 385.215 240.403" fill="url(#fill140)" transform="scale(1.00201 1)"/><path d="M373.521 250.966C379.824 235.467 383.781 213.075 390.799 171.551 390.226 172.127 389.607 172.668 389.009 173.238L387.23 174.966 385.45 176.694 383.67 178.422C377.837 218.886 374.52 240.703 368.697 255.769L369.893 254.548 371.102 253.338 372.312 252.146 373.528 250.966" fill="url(#fill141)" transform="scale(1.00201 1)"/><path d="M362.149 262.697C367.332 248.299 369.789 227.312 374.005 188.403L372.277 190.286C371.7 190.919 371.123 191.557 370.55 192.198 369.979 192.839 369.402 193.481 368.822 194.122 368.248 194.772 367.671 195.418 367.094 196.074 364.053 233.728 362.246 254.029 357.495 267.955 357.882 267.506 358.265 267.063 358.645 266.619L359.799 265.289 360.95 263.976 362.101 262.674" fill="url(#fill142)" transform="scale(1.00201 1)"/><path d="M351.171 275.569C355.307 262.363 356.257 243.035 357.702 207.178L356.026 209.257C355.47 209.955 354.913 210.655 354.357 211.353 353.797 212.052 353.244 212.759 352.691 213.473 352.114 214.181 351.585 214.89 351.04 215.609 350.722 250.079 350.386 268.652 346.689 281.305L351.171 275.546" fill="url(#fill143)" transform="scale(1.00201 1)"/><path d="M340.677 289.512C343.782 277.66 343.292 260.175 342.065 227.721L335.73 236.878C338.034 267.794 339.122 284.45 336.439 295.698L337.493 294.137 338.552 292.582 339.618 291.044 340.689 289.512" fill="url(#fill144)" transform="scale(1.00201 1)"/><path d="M330.76 304.486C332.874 294.12 331.008 278.65 327.241 249.94L325.738 252.371C325.239 253.189 324.74 254.006 324.241 254.824L322.755 257.289C322.259 258.111 321.768 258.938 321.28 259.771 326.072 286.805 328.491 301.365 326.769 311.086L330.76 304.486" fill="url(#fill145)" transform="scale(1.00201 1)"/><path d="M321.488 320.428C322.68 311.633 319.524 298.364 313.378 273.72 312.91 274.58 312.445 275.442 311.985 276.306 311.518 277.176 311.058 278.034 310.597 278.915 310.136 279.796 309.681 280.643 309.226 281.53L307.861 284.168C314.957 307.015 318.614 319.299 317.796 327.408L318.706 325.646C319.011 325.07 319.316 324.494 319.627 323.918 319.938 323.342 320.244 322.766 320.555 322.19L321.488 320.462" fill="url(#fill146)" transform="scale(1.00201 1)"/><path d="M312.947 337.251C313.281 330.15 308.95 319.218 300.622 298.906L295.611 309.894C304.791 328.324 309.577 338.218 309.583 344.582L310.43 342.733C310.712 342.123 311.006 341.507 311.271 340.896 311.536 340.286 311.847 339.675 312.112 339.07 312.376 338.466 312.687 337.856 312.97 337.251" fill="url(#fill147)" transform="scale(1.00201 1)"/><path d="M555.532 108.85C677.479-73.3556 761.49-178.197 830.035-174.897 829.358-175.439 828.677-175.97 827.996-176.492 827.312-177.022 826.621-177.541 825.93-178.059 825.238-178.577 824.54-179.084 823.846-179.585 823.148-180.086 822.44-180.593 821.738-181.083 752.333-184.296 669.289-77.5599 549.288 107.906 551.386 108.193 551.904 108.274 552.422 108.355L555.532 108.873" fill="url(#fill148)" transform="scale(1.00201 1)"/><path d="M540.528 107.047C657.575-82.651 739.136-191.858 809.706-188.702 808.939-189.132 808.185-189.556 807.442-189.975 806.699-190.394 805.932-190.808 805.138-191.219 804.374-191.628 803.6-192.025 802.836-192.423 802.069-192.82 801.281-193.206 800.531-193.574 729.433-196.667 645.854-80.935 534.056 106.794 536.233 106.852 536.776 106.869 537.315 106.892 539.474 106.995 540.017 107.03 540.553 107.065" fill="url(#fill149)" transform="scale(1.00201 1)"/><path d="M524.923 106.915C633.3-84.4133 714.979-202.357 787.217-199.334 786.391-199.652 785.562-199.957 784.729-200.249 783.893-200.549 783.057-200.825 782.217-201.125 781.377-201.424 780.524-201.701 779.677-201.96 778.83-202.219 777.949-202.496 777.113-202.755 704.062-205.778 623.883-86.3312 518.195 107.381L524.923 106.915" fill="url(#fill150)" transform="scale(1.00201 1)"/><path d="M508.779 108.55C610.417-87.9612 688.284-209.199 762.32-206.418L748.37-208.675C673.574-206.297 598.589-85.0585 501.84 109.812 504.141 109.362 504.718 109.236 505.296 109.155 507.597 108.764 508.174 108.666 508.751 108.579" fill="url(#fill151)" transform="scale(1.00201 1)"/><path d="M494.317 111.476C567.534-42.7048 652.385-207.414 732.882-210.046L717.961-210.317C642.657-198.015 573.847-77.3353 487.24 113.394L489.02 112.882 490.793 112.392 492.562 111.925 494.328 111.476" fill="url(#fill152)" transform="scale(1.00201 1)"/><path d="M477.385 116.59C521.195 13.9028 612.366-199.766 696.737-209.027L680.814-206.85C606.129-183.922 547.021-69.8945 470.17 119.32 470.743 119.078 471.372 118.837 471.977 118.606L473.784 117.909 475.588 117.241C476.165 117.017 476.787 116.804 477.385 116.59" fill="url(#fill153)" transform="scale(1.00201 1)"/><path d="M460.169 123.634C514.712-20.5375 579.486-176.487 658.197-202.052L641.341-197.237C569.019-164.646 517.459-53.6015 452.861 127.188L460.169 123.634" fill="url(#fill154)" transform="scale(1.00201 1)"/><path d="M442.785 132.641C500.52-42.7566 547.647-151.578 617.691-188.725L600.213-181.192C531.845-140.572 488.021-33.755 435.435 137.053L437.273 135.901 439.108 134.795 440.946 133.713C441.558 133.35 442.166 132.998 442.785 132.647" fill="url(#fill155)" transform="scale(1.00201 1)"/><path d="M425.337 143.63C453.099 43.9951 499.559-122.73 575.892-168.983L558.079-158.731C502.272-117.397 465.619-36.9112 418.001 148.854 418.613 148.405 419.221 147.955 419.833 147.518L421.671 146.199C422.279 145.761 422.891 145.329 423.503 144.903 424.111 144.477 424.722 144.051 425.337 143.63" fill="url(#fill156)" transform="scale(1.00201 1)"/><path d="M407.963 156.606C442.477 3.82416 474.078-94.1407 533.479-142.789L515.586-129.86C464.779-84.3905 435.787-10.574 400.706 162.659L407.963 156.606" fill="url(#fill157)" transform="scale(1.00201 1)"/><path d="M390.806 171.551C405.164 87.0109 429.19-54.4768 491.086-110.319L475.858-97.0724 473.435-94.8837C429.007-47.629 406.356 21.3093 383.677 178.422L385.457 176.694 387.236 174.966 389.016 173.238C389.59 172.663 390.208 172.087 390.806 171.551" fill="url(#fill158)" transform="scale(1.00201 1)"/><path d="M374.005 188.426C388.035 59.666 404.255-20.0134 449.716-72.2443L432.739-54.6555C395.049-7.81533 378.48 55.4617 367.084 196.097 367.661 195.44 368.234 194.796 368.811 194.145 369.388 193.494 369.962 192.86 370.539 192.221 371.116 191.582 371.69 190.943 372.267 190.309L373.995 188.426" fill="url(#fill159)" transform="scale(1.00201 1)"/><path d="M357.702 207.178C361.451 115.986 368.597 22.6281 409.881-29.0036L393.702-9.42216C362.944 35.4308 352.18 92.2056 351.04 215.586 351.613 214.866 352.138 214.158 352.691 213.45 353.244 212.741 353.797 212.033 354.357 211.33 354.913 210.628 355.466 209.931 356.026 209.234L357.702 207.155" fill="url(#fill160)" transform="scale(1.00201 1)"/><path d="M342.065 227.721C337.821 112.536 345.164 61.7276 372.267 18.6197L357.398 39.5547C332.995 81.1478 327.708 129.094 335.719 236.878L342.054 227.721" fill="url(#fill161)" transform="scale(1.00201 1)"/><path d="M327.241 249.952C316.051 164.047 314.41 109.823 337.729 69.3703L324.033 91.7163C303.807 132.607 307.239 180.409 321.28 259.783 321.768 258.953 322.259 258.126 322.755 257.301L324.241 254.836C324.736 254.018 325.235 253.2 325.738 252.382L327.241 249.952" fill="url(#fill162)" transform="scale(1.00201 1)"/><path d="M313.378 273.72C302.367 229.27 285.665 162.094 306.122 123.196L299.896 134.824 293.918 146.343C280.096 180.731 287.41 218.178 307.861 284.144L309.226 281.507C309.683 280.632 310.14 279.76 310.597 278.892 311.058 278.017 311.518 277.164 311.985 276.283 312.451 275.402 312.912 274.555 313.378 273.697" fill="url(#fill163)" transform="scale(1.00201 1)"/><path d="M300.639 298.906C277.383 242.033 267.535 207.794 278.259 178.537L267.564 202.311C259.195 229.051 269.948 258.309 295.629 309.906L300.639 298.906" fill="url(#fill164)" transform="scale(1.00201 1)"/><path d="M288.487 326.85C288.562 326.671 288.631 326.492 288.7 326.32 288.769 326.147 288.844 325.963 288.913 325.784 288.982 325.606 289.057 325.433 289.126 325.254L289.345 324.719C261.799 281.979 248.074 254.876 254.387 234.068L252.613 238.595C250.257 244.642 250.631 252.181 252.78 260.48 254.772 268.145 258.28 276.398 262.536 284.669 266.481 292.346 271.071 300.057 275.725 307.418 280.055 314.266 284.461 320.837 288.487 326.85" fill="url(#fill165)" transform="scale(1.00201 1)"/><path d="M336.444 343.171C389.268 317.617 443.89 291.188 496.771 324.88L496.511 323.826C496.425 323.469 496.339 323.118 496.245 322.772 496.156 322.426 496.069 322.069 495.976 321.718L495.699 320.664C481.843 311.691 453.016 293.008 392.786 313.88 372.727 320.831 354.913 332.54 335.494 340.85L335.984 342.002C336.306 342.78 336.381 342.975 336.462 343.154" fill="url(#fill166)" transform="scale(1.00201 1)"/><path d="M334.043 337.7C386.158 308.938 440.041 279.192 493.477 314.542 493.616 313.983 493.595 313.397 493.426 312.849L493.097 311.818C492.987 311.472 492.876 311.127 492.762 310.787 478.639 301.267 449.229 281.461 389.331 305.241 375.971 310.545 368.024 315.112 356.054 322.029L332.943 335.431C333.317 336.185 333.409 336.37 333.519 336.583 333.882 337.337 333.974 337.527 334.06 337.735" fill="url(#fill167)" transform="scale(1.00201 1)"/><path d="M331.365 332.378C382.623 300.391 435.607 267.299 490.257 304.734 489.98 303.64 489.611 302.182 489.331 301.088 474.873 291.021 444.782 270.08 385.443 296.786 372.25 302.73 364.482 307.775 352.726 315.412L330.132 330.178C330.553 330.904 330.656 331.088 330.754 331.273 331.163 331.998 331.267 332.183 331.365 332.367" fill="url(#fill168)" transform="scale(1.00201 1)"/><path d="M328.347 327.235C378.584 292.029 430.538 255.625 486.48 295.168 486.539 294.637 486.449 294.101 486.221 293.619 486.076 293.29 485.931 292.962 485.782 292.634L485.333 291.649C470.871 281.282 440.784 259.72 383.871 287.168 369.475 294.125 360.293 300.789 350.594 307.838L326.982 325.116 327.673 326.164C328.122 326.872 328.249 327.045 328.347 327.224" fill="url(#fill169)" transform="scale(1.00201 1)"/><path d="M325.012 322.288C374.071 283.857 424.798 244.112 482.765 286.299 482.603 285.976 482.44 285.654 482.275 285.337 482.109 285.02 481.946 284.692 481.78 284.375 481.611 284.058 481.452 283.736 481.279 283.419 481.107 283.102 480.944 282.78 480.771 282.463 465.923 271.555 435.027 248.858 378.891 279.065 364.71 286.696 355.812 293.918 346.392 301.572L323.509 320.272 324.269 321.274C324.764 321.948 324.885 322.121 325.012 322.288" fill="url(#fill170)" transform="scale(1.00201 1)"/><path d="M321.373 317.56C369.026 275.949 418.295 232.899 477.893 277.285L475.65 273.594C460.771 262.426 429.802 239.188 376.251 269.591 360.839 278.339 351.154 287.093 341.789 295.565L319.731 315.642 320.56 316.598 321.373 317.56" fill="url(#fill171)" transform="scale(1.00201 1)"/><path d="M317.341 313.073C363.352 268.335 410.935 222.077 472.357 268.612L471.746 267.719 471.124 266.832 470.536 265.951 469.904 265.07C454.561 253.373 422.639 229.028 370.1 261.977 354.308 271.883 351.385 274.855 315.596 311.265L316.494 312.163 317.341 313.073" fill="url(#fill172)" transform="scale(1.00201 1)"/><path d="M313.045 308.852C357.208 261.05 402.89 211.584 466.282 260.318 466.058 260.031 465.833 259.743 465.602 259.466L464.921 258.625 464.202 257.784 463.504 256.955C447.667 244.722 414.701 219.272 363.359 254.738 347.985 265.358 345.199 268.514 311.11 307.147L312.071 307.988 313.021 308.84" fill="url(#fill173)" transform="scale(1.00201 1)"/><path d="M308.397 304.918C348.503 256.465 393.961 201.539 459.554 252.451 459.306 252.186 459.06 251.916 458.804 251.651L458.051 250.856C457.802 250.591 457.55 250.326 457.291 250.067 457.032 249.808 456.783 249.543 456.524 249.284 440.134 236.521 406.035 209.971 356.085 247.913 341.875 258.706 333.455 269.222 325.312 279.434 318.976 287.387 312.924 295.588 306.341 303.357L307.378 304.129 308.397 304.918" fill="url(#fill174)" transform="scale(1.00201 1)"/><path d="M372.267 18.6197C382.575 6.91111 399.832-12.7625 434.318-5.48856 433.102-3.7896 431.848-2.07333 430.621-0.357073 429.394 1.35918 428.161 3.09848 426.941 4.82627 425.717 6.55405 424.491 8.32212 423.271 10.0787 422.051 11.8353 420.835 13.6091 419.618 15.3887 399.186 13.1542 378.055 10.8389 357.418 39.543L372.291 18.6082" fill="url(#fill175)" transform="scale(1.00201 1)"/><path d="M337.729 69.3589C351.154 52.0811 364.257 39.3415 399.86 45.5902 398.681 47.4679 397.503 49.3567 396.325 51.2573 395.146 53.1578 393.975 55.0622 392.817 56.9707 391.663 58.8903 390.502 60.8102 389.327 62.7297 388.152 64.6493 386.998 66.5903 385.872 68.5523 364.969 65.9088 343.367 63.179 324.045 91.6932L337.74 69.3471" fill="url(#fill176)" transform="scale(1.00201 1)"/><path d="M299.896 134.824 306.122 123.196C321.223 101.115 334.342 96.4387 367.215 101.421 366.109 103.459 365.01 105.502 363.911 107.548 362.813 109.595 361.717 111.653 360.629 113.722 359.54 115.784 358.455 117.856 357.374 119.936 356.292 122.017 355.217 124.102 354.15 126.191 324.851 121.947 309.353 122.557 293.918 146.349L299.896 134.83" fill="url(#fill177)" transform="scale(1.00201 1)"/><path d="M278.241 178.537C284.386 168.706 294.678 152.252 336.957 161.311 335.943 163.473 334.936 165.64 333.933 167.813 332.931 169.986 331.933 172.167 330.939 174.356 329.948 176.537 328.961 178.727 327.978 180.927 326.995 183.127 326.02 185.329 325.053 187.533 305.31 184.285 278.27 179.839 267.546 202.311L278.241 178.537" fill="url(#fill178)" transform="scale(1.00201 1)"/><path d="M252.613 238.595 254.387 234.068C259.08 226.005 266.176 213.83 310.188 222.912L309.681 224.179 309.174 225.446C309.007 225.872 308.84 226.293 308.667 226.719L308.166 227.992C300.637 226.214 292.968 225.089 285.245 224.628 278.777 224.323 273.323 224.772 268.808 225.872 264.402 226.944 260.906 228.631 258.222 230.837 255.707 232.888 253.773 235.563 252.613 238.595" fill="url(#fill179)" transform="scale(1.00201 1)"/><path d="M434.318-5.48856C502.673 5.45978 662.765 31.1 1087.35-321.171 1085.19-317.85 1083.03-314.506 1080.86-311.138 1078.69-307.771 1076.5-304.371 1074.32-300.938 1072.14-297.514 1069.95-294.058 1067.75-290.572 1065.55-287.086 1063.35-283.578 1061.14-280.05 648.245 52.9046 488.035 26.6308 419.618 15.4003 420.835 13.6188 422.055 11.8487 423.271 10.0902 424.487 8.33176 425.711 6.58093 426.941 4.83778 428.161 3.09848 429.387 1.3707 430.621-0.345556 431.848-2.07333 433.078-3.80111 434.318-5.47706" fill="url(#fill180)" transform="scale(1.00201 1)"/><path d="M399.86 45.5902C468.262 57.178 628.462 84.3214 1024.27-219.462 1022.01-215.65 1019.74-211.81 1017.48-207.944 1015.21-204.077 1012.94-200.196 1010.67-196.299 1008.39-192.394 1006.12-188.466 1003.84-184.515 1001.56-180.564 999.278-176.59 996.997-172.594 614.253 108.205 454.198 80.4222 385.875 68.5641 387.029 66.6134 388.18 64.6724 389.331 62.7415 390.485 60.8102 391.646 58.8903 392.821 56.9821 393.975 55.0622 395.143 53.1578 396.328 51.269 397.517 49.3799 398.695 47.4907 399.867 45.6019" fill="url(#fill181)" transform="scale(1.00201 1)"/><path d="M367.215 101.421C435.407 113.659 595.064 142.323 959.165-104.818 956.861-100.595 954.556-96.3582 952.254-92.1078 949.949-87.8575 947.645-83.5823 945.343-79.2818 943.038-74.9855 940.733-70.6758 938.432-66.3525 936.127-62.0289 933.822-57.6846 931.521-53.3192 581.414 167.998 422.158 138.7 354.15 126.191 355.221 124.099 356.295 122.014 357.374 119.936 358.452 117.859 359.537 115.788 360.629 113.722 361.714 111.653 362.809 109.595 363.911 107.548 365.014 105.502 366.113 103.459 367.215 101.421" fill="url(#fill182)" transform="scale(1.00201 1)"/><path d="M336.957 161.299C404.639 174.177 563.152 204.333 893.876 19.9731 891.602 24.4884 889.332 29.0171 887.069 33.5592 884.805 38.1013 882.538 42.6571 880.258 47.226 877.998 51.7874 875.741 56.3618 873.488 60.9501 871.239 65.5388 868.996 70.1305 866.774 74.7264 550.287 231.43 392.454 200.664 325.053 187.522 326.027 185.314 327.003 183.112 327.978 180.916 328.953 178.72 329.941 176.529 330.939 174.344 331.929 172.156 332.927 169.975 333.933 167.802 334.939 165.629 335.947 163.461 336.957 161.299" fill="url(#fill183)" transform="scale(1.00201 1)"/><path d="M308.166 227.992 309.174 225.446 310.188 222.912C377.139 236.389 533.918 267.95 831.648 148.376L830.422 151.008 829.195 153.64C828.787 154.515 828.383 155.368 827.975 156.272 827.564 157.176 827.156 158.028 826.752 158.904 825.384 159.48 791.847 172.651 740.836 188.742 696.906 202.599 643.373 217.539 587.973 228.118 541.254 237.04 492.997 242.902 444.367 243.041 398.543 243.192 352.85 238.138 308.166 227.974" fill="url(#fill184)" transform="scale(1.00201 1)"/></g><text fill="#F79646" font-family="Arial,Arial_MSFontService,sans-serif" font-weight="400" font-size="80" transform="matrix(0.34625 0 0 0.345556 41.6733 79)">EXPI</text><text fill="#F79646" font-family="SimHei,SimHei_MSFontService,sans-serif" font-weight="400" font-size="80" transform="matrix(0.34625 0 0 0.345556 41.6733 110)"></text><text fill="#F79646" font-family="SimHei,SimHei_MSFontService,sans-serif" font-weight="400" font-size="80" transform="matrix(0.34625 0 0 0.345556 131.698 110)"></text><text fill="#F79646" font-family="SimHei,SimHei_MSFontService,sans-serif" font-weight="400" font-size="80" transform="matrix(0.34625 0 0 0.345556 41.6733 140)"></text><text fill="#FFFFFF" font-family="SimHei,SimHei_MSFontService,sans-serif" font-weight="400" font-size="30" transform="matrix(0.34625 0 0 0.345556 42.2757 159)"></text><text fill="#FFFFFF" font-family="Arial,Arial_MSFontService,sans-serif" font-weight="400" font-size="30" transform="matrix(0.34625 0 0 0.345556 73.4382 159)"></text><text fill="#FFFFFF" font-family="SimHei,SimHei_MSFontService,sans-serif" font-weight="400" font-size="30" transform="matrix(0.34625 0 0 0.345556 82.0945 159)"></text><text fill="#FFFFFF" font-family="SimHei,SimHei_MSFontService,sans-serif" font-weight="400" font-size="30" transform="matrix(0.34625 0 0 0.345556 121.913 159)"></text><text fill="#FFFFFF" font-family="Arial,Arial_MSFontService,sans-serif" font-weight="400" font-size="30" transform="matrix(0.34625 0 0 0.345556 153.076 159)"></text></g></svg>